<?xml version="1.0" encoding="utf-8"?>
<!DOCTYPE svg PUBLIC "-//W3C//DTD SVG 1.1//EN" "http://www.w3.org/Graphics/SVG/1.1/DTD/svg11.dtd">

<svg version="1.1" id="GRAPHIC" xmlns="http://www.w3.org/2000/svg" xmlns:xlink="http://www.w3.org/1999/xlink" x="0px" y="0px"
	 width="258.014px" height="498.188px" viewBox="0 0 258.014 498.188" enable-background="new 0 0 258.014 498.188"
	 xml:space="preserve">
<style type="text/css">
       @font-face {
            font-family: 'Roboto-Light';
            font-weight: 100;
            src: url(https://fonts.googleapis.com/css?family=Roboto:300);
        }
        @font-face {
            font-family: 'Roboto-Bold';
            src: url(http://www.nacion.com/static/LNCNacionBeta/fonts/opensans/opensans_semibold.woff);    
            font-weight: 300;
        }
        @font-face {
            font-family: 'Open Sans Bold';
            src: url(http://www.nacion.com/static/LNCNacionBeta/fonts/opensans/opensans_extrabold.woff);    
            font-weight: 800;
        }
    </style>
<g id="STUFF" class="texto" pointer-events="none">
	<g>
		<path fill="#790700" d="M214.586,111.057c0,2.761-2.239,5-5.001,5c-2.761,0-4.999-2.239-4.999-5c0-2.762,2.238-5,4.999-5
			C212.347,106.057,214.586,108.296,214.586,111.057z"/>
		<path opacity="0.8" fill="#D6D6D6" enable-background="new    " d="M220.651,111.057c0,2.762-2.238,5-5.001,5
			c-2.761,0-4.999-2.238-4.999-5s2.238-5,4.999-5C218.413,106.057,220.651,108.296,220.651,111.057z"/>
		<path fill="#790700" d="M130.379,111.057c0,2.761-2.239,5-5.001,5c-2.761,0-4.999-2.239-4.999-5c0-2.762,2.238-5,4.999-5
			C128.14,106.057,130.379,108.296,130.379,111.057z"/>
		<path opacity="0.8" fill="#D6D6D6" enable-background="new    " d="M136.445,111.057c0,2.762-2.238,5-5.001,5
			c-2.761,0-4.999-2.238-4.999-5s2.238-5,4.999-5C134.206,106.057,136.445,108.296,136.445,111.057z"/>
		<path fill="#790700" d="M45.907,111.057c0,2.761-2.239,5-5.001,5c-2.761,0-4.999-2.239-4.999-5c0-2.762,2.238-5,4.999-5
			C43.669,106.057,45.907,108.296,45.907,111.057z"/>
		<path opacity="0.8" fill="#D6D6D6" enable-background="new    " d="M51.973,111.057c0,2.762-2.238,5-5.001,5
			c-2.761,0-4.999-2.238-4.999-5s2.238-5,4.999-5C49.735,106.057,51.973,108.296,51.973,111.057z"/>
	</g>
	<g>
		<path fill="#790700" d="M45.907,188.188c0,2.761-2.239,5-5.001,5c-2.761,0-4.999-2.239-4.999-5c0-2.762,2.238-5,4.999-5
			C43.669,183.188,45.907,185.425,45.907,188.188z"/>
		<path opacity="0.8" fill="#D6D6D6" enable-background="new    " d="M51.973,188.188c0,2.762-2.238,5-5.001,5
			c-2.761,0-4.999-2.238-4.999-5s2.238-5,4.999-5C49.735,183.188,51.973,185.425,51.973,188.188z"/>
		<path fill="#790700" d="M214.586,188.188c0,2.761-2.239,5-5.001,5c-2.761,0-4.999-2.239-4.999-5c0-2.762,2.238-5,4.999-5
			C212.347,183.188,214.586,185.425,214.586,188.188z"/>
		<path opacity="0.8" fill="#D6D6D6" enable-background="new    " d="M220.651,188.188c0,2.762-2.238,5-5.001,5
			c-2.761,0-4.999-2.238-4.999-5s2.238-5,4.999-5C218.413,183.188,220.651,185.425,220.651,188.188z"/>
		<path fill="#790700" d="M130.379,188.188c0,2.761-2.239,5-5.001,5c-2.761,0-4.999-2.239-4.999-5c0-2.762,2.238-5,4.999-5
			C128.14,183.188,130.379,185.425,130.379,188.188z"/>
		<path opacity="0.8" fill="#D6D6D6" enable-background="new    " d="M136.445,188.188c0,2.762-2.238,5-5.001,5
			c-2.761,0-4.999-2.238-4.999-5s2.238-5,4.999-5C134.206,183.188,136.445,185.425,136.445,188.188z"/>
	</g>
	<g>
		<path fill="#790700" d="M130.379,265.803c0,2.761-2.239,5-5.001,5c-2.761,0-4.999-2.239-4.999-5c0-2.762,2.238-5,4.999-5
			C128.14,260.803,130.379,263.042,130.379,265.803z"/>
		<path opacity="0.8" fill="#D6D6D6" enable-background="new    " d="M136.445,265.803c0,2.762-2.238,5-5.001,5
			c-2.761,0-4.999-2.238-4.999-5s2.238-5,4.999-5C134.206,260.803,136.445,263.042,136.445,265.803z"/>
		<path fill="#790700" d="M45.907,265.803c0,2.761-2.239,5-5.001,5c-2.761,0-4.999-2.239-4.999-5c0-2.762,2.238-5,4.999-5
			C43.669,260.803,45.907,263.042,45.907,265.803z"/>
		<path opacity="0.8" fill="#D6D6D6" enable-background="new    " d="M51.973,265.803c0,2.762-2.238,5-5.001,5
			c-2.761,0-4.999-2.238-4.999-5s2.238-5,4.999-5C49.735,260.803,51.973,263.042,51.973,265.803z"/>
		<path fill="#790700" d="M214.586,265.803c0,2.761-2.239,5-5.001,5c-2.761,0-4.999-2.239-4.999-5c0-2.762,2.238-5,4.999-5
			C212.347,260.803,214.586,263.042,214.586,265.803z"/>
		<path opacity="0.8" fill="#D6D6D6" enable-background="new    " d="M220.651,265.803c0,2.762-2.238,5-5.001,5
			c-2.761,0-4.999-2.238-4.999-5s2.238-5,4.999-5C218.413,260.803,220.651,263.042,220.651,265.803z"/>
	</g>
	<g>
		<path fill="#790700" d="M45.907,341.37c0,2.761-2.239,5-5.001,5c-2.761,0-4.999-2.239-4.999-5c0-2.762,2.238-5,4.999-5
			C43.669,336.37,45.907,338.609,45.907,341.37z"/>
		<path opacity="0.8" fill="#D6D6D6" enable-background="new    " d="M51.973,341.37c0,2.762-2.238,5-5.001,5
			c-2.761,0-4.999-2.238-4.999-5s2.238-5,4.999-5C49.735,336.37,51.973,338.609,51.973,341.37z"/>
		<path fill="#790700" d="M130.974,341.37c0,2.761-2.239,5-5.001,5c-2.761,0-4.999-2.239-4.999-5c0-2.762,2.238-5,4.999-5
			C128.736,336.37,130.974,338.609,130.974,341.37z"/>
		<path opacity="0.8" fill="#D6D6D6" enable-background="new    " d="M137.04,341.37c0,2.762-2.238,5-5.001,5
			c-2.761,0-4.999-2.238-4.999-5s2.238-5,4.999-5C134.801,336.37,137.04,338.609,137.04,341.37z"/>
		<path fill="#790700" d="M214.586,341.37c0,2.761-2.239,5-5.001,5c-2.761,0-4.999-2.239-4.999-5c0-2.762,2.238-5,4.999-5
			C212.347,336.37,214.586,338.609,214.586,341.37z"/>
		<path opacity="0.8" fill="#D6D6D6" enable-background="new    " d="M220.651,341.37c0,2.762-2.238,5-5.001,5
			c-2.761,0-4.999-2.238-4.999-5s2.238-5,4.999-5C218.413,336.37,220.651,338.609,220.651,341.37z"/>
	</g>
	<text transform="matrix(1 0 0 1 189.6019 151.9284)" font-family="'Arial'" font-size="14">Ethiopia</text>
	<text transform="matrix(1 0 0 1 113.0247 151.9286)" font-family="'Arial'" font-size="14">Egypt</text>
	<text transform="matrix(1 0 0 1 31.0774 151.9288)" font-family="'Arial'" font-size="14">Chad</text>
	<text transform="matrix(1 0 0 1 29.1634 229.0586)" font-family="'Arial'" font-size="14">Ghana</text>
	<text transform="matrix(0.8957 0 0 1 183.4882 228.9331)" font-family="'Arial'" font-size="14">Mauritius</text>
	<text transform="matrix(1 0 0 1 113.9885 228.9338)" font-family="'Arial'" font-size="14">Kenya</text>
	<text transform="matrix(1 0 0 1 109.9973 305.7495)" font-family="'Arial'" font-size="14">Nigeria</text>
	<text transform="matrix(1 0 0 1 22.55 305.7495)" font-family="'Arial'" font-size="14">Morocco</text>
	<g>
		<text transform="matrix(1 0 0 1 196.7048 300.7496)" enable-background="new    "><tspan x="0" y="0" font-family="'Arial'" font-size="14">South</tspan><tspan x="0.044" y="16.8" font-family="'Arial'" font-size="14">Africa</tspan></text>
	</g>
	<text transform="matrix(1 0 0 1 28.7209 382.5646)" font-family="'Arial'" font-size="14">Sudan</text>
	<text transform="matrix(1 0 0 1 106.6727 382.1774)" font-family="'Arial'" font-size="14">Tanzania</text>
	<text transform="matrix(1 0 0 1 191.9534 382.1774)" font-family="'Arial'" font-size="14">Tunisia</text>
	<g>
		<text transform="matrix(1 0 0 1 24.4375 459.3798)" font-family="'Arial'" font-size="14">Uganda</text>
	</g>
	<g>
		<path fill="#790700" d="M45.907,413.573c0,2.761-2.239,5-5.001,5c-2.761,0-4.999-2.239-4.999-5c0-2.762,2.238-5,4.999-5
			C43.669,408.573,45.907,410.812,45.907,413.573z"/>
		<path opacity="0.8" fill="#D6D6D6" enable-background="new    " d="M51.973,413.573c0,2.762-2.238,5-5.001,5
			c-2.761,0-4.999-2.238-4.999-5s2.238-5,4.999-5C49.735,408.573,51.973,410.81,51.973,413.573z"/>
	</g>
</g>
<g id="AREA">
    <rect id="A13" x="10.03" y="383.406" display="inline" fill="#FFFFFF" fill-opacity="0" width="69.989" height="48">
        <animate attributeName="opacity" dur="0.2" to="1" begin="A13.mouseover" fill="freeze" xlink:href="#T13"/> 
        <animate attributeName="opacity" dur="0.2" to="0" begin="A13.mouseout" fill="freeze" xlink:href="#T13"/>
    </rect>
    <rect id="A12" x="177.996" y="322.492" display="inline" fill="#FFFFFF" fill-opacity="0" width="69.988" height="48">
        <animate attributeName="opacity" dur="0.2" to="1" begin="A12.mouseover" fill="freeze" xlink:href="#T12"/> 
        <animate attributeName="opacity" dur="0.2" to="0" begin="A12.mouseout" fill="freeze" xlink:href="#T12"/>
    </rect>
    <rect id="A11" x="94.013" y="322.492" display="inline" fill="#FFFFFF" fill-opacity="0" width="69.989" height="48">
        <animate attributeName="opacity" dur="0.2" to="1" begin="A11.mouseover" fill="freeze" xlink:href="#T11"/> 
        <animate attributeName="opacity" dur="0.2" to="0" begin="A11.mouseout" fill="freeze" xlink:href="#T11"/>
    </rect>
    <rect id="A10" x="10.03" y="322.492" display="inline" fill="#FFFFFF" fill-opacity="0" width="69.989" height="48">
        <animate attributeName="opacity" dur="0.2" to="1" begin="A10.mouseover" fill="freeze" xlink:href="#T10"/> 
        <animate attributeName="opacity" dur="0.2" to="0" begin="A10.mouseout" fill="freeze" xlink:href="#T10"/>
    </rect>
    <rect id="A09" x="177.996" y="245.172" display="inline" fill="#FFFFFF" fill-opacity="0" width="69.988" height="48">
        <animate attributeName="opacity" dur="0.2" to="1" begin="A09.mouseover" fill="freeze" xlink:href="#T09"/> 
        <animate attributeName="opacity" dur="0.2" to="0" begin="A09.mouseout" fill="freeze" xlink:href="#T09"/>
    </rect>
    <rect id="A08" x="94.013" y="245.172" display="inline" fill="#FFFFFF" fill-opacity="0" width="69.989" height="48">
        <animate attributeName="opacity" dur="0.2" to="1" begin="A08.mouseover" fill="freeze" xlink:href="#T08"/> 
        <animate attributeName="opacity" dur="0.2" to="0" begin="A08.mouseout" fill="freeze" xlink:href="#T08"/>
    </rect>
    <rect id="A07" x="10.03" y="245.172" display="inline" fill="#FFFFFF" fill-opacity="0" width="69.989" height="48">
        <animate attributeName="opacity" dur="0.2" to="1" begin="A07.mouseover" fill="freeze" xlink:href="#T07"/> 
        <animate attributeName="opacity" dur="0.2" to="0" begin="A07.mouseout" fill="freeze" xlink:href="#T07"/>
    </rect>
    <rect id="A06" x="177.996" y="165.744" display="inline" fill="#FFFFFF" fill-opacity="0" width="69.988" height="48">
        <animate attributeName="opacity" dur="0.2" to="1" begin="A06.mouseover" fill="freeze" xlink:href="#T06"/> 
        <animate attributeName="opacity" dur="0.2" to="0" begin="A06.mouseout" fill="freeze" xlink:href="#T06"/>
    </rect>
    <rect id="A05" x="94.013" y="165.744" display="inline" fill="#FFFFFF" fill-opacity="0" width="69.989" height="48">
        <animate attributeName="opacity" dur="0.2" to="1" begin="A05.mouseover" fill="freeze" xlink:href="#T05"/> 
        <animate attributeName="opacity" dur="0.2" to="0" begin="A05.mouseout" fill="freeze" xlink:href="#T05"/>
    </rect>
    <rect id="A04" x="10.03" y="165.744" display="inline" fill="#FFFFFF" fill-opacity="0" width="69.989" height="48">
        <animate attributeName="opacity" dur="0.2" to="1" begin="A04.mouseover" fill="freeze" xlink:href="#T04"/> 
        <animate attributeName="opacity" dur="0.2" to="0" begin="A04.mouseout" fill="freeze" xlink:href="#T04"/>
    </rect>
    <rect id="A03" x="177.996" y="85.122" display="inline" fill="#FFFFFF" fill-opacity="0" width="69.988" height="48">
        <animate attributeName="opacity" dur="0.2" to="1" begin="A03.mouseover" fill="freeze" xlink:href="#T03"/> 
        <animate attributeName="opacity" dur="0.2" to="0" begin="A03.mouseout" fill="freeze" xlink:href="#T03"/>
    </rect>
    <rect id="A02" x="94.013" y="85.122" display="inline" fill="#FFFFFF" fill-opacity="0" width="69.989" height="48">
        <animate attributeName="opacity" dur="0.2" to="1" begin="A02.mouseover" fill="freeze" xlink:href="#T02"/> 
        <animate attributeName="opacity" dur="0.2" to="0" begin="A02.mouseout" fill="freeze" xlink:href="#T02"/>
    </rect>
	<rect id="A01" x="10.03" y="85.122" display="inline" ill="#FFFFFF" fill-opacity="0" width="69.989" height="48">
        <animate attributeName="opacity" dur="0.2" to="1" begin="A01.mouseover" fill="freeze" xlink:href="#T01"/> 
        <animate attributeName="opacity" dur="0.2" to="0" begin="A01.mouseout" fill="freeze" xlink:href="#T01"/>
    </rect>
</g>
<g id="TOOLTIP">
	<g id="T01" opacity="0">
		<polygon id="AREA_1_" points="90.64,54.729 1,54.729 1,96.729 33.567,96.729 33.567,96.729 45.14,108.906 56.713,96.729 
			56.713,96.729 90.64,96.729 		"/>
		<text transform="matrix(1 0 0 1 11.3792 88.8174)" fill="#FFFFFF" font-family="'Roboto-Light'" font-size="10">NA</text>
		<text transform="matrix(1.047 0 0 1 60.0229 88.8174)" fill="#FFFFFF" font-family="'Roboto-Light'" font-size="10">$0.12</text>
		<g>
			<g>
				<path fill="#FFFFFF" d="M41.432,87.833h0.041l0.26-0.868l2.01-5.544h0.848l-2.81,7.396h-0.656l-2.816-7.396h0.848l2.037,5.544
					L41.432,87.833z"/>
				<path fill="#FFFFFF" d="M49.939,86.028c-0.285-0.26-0.799-0.472-1.542-0.636c-0.884-0.191-1.537-0.444-1.958-0.759
					s-0.632-0.759-0.632-1.333c0-0.565,0.238-1.043,0.714-1.432c0.476-0.39,1.106-0.584,1.89-0.584c0.834,0,1.495,0.206,1.982,0.619
					c0.488,0.413,0.72,0.929,0.697,1.548l-0.014,0.041h-0.759c0-0.406-0.172-0.759-0.516-1.06c-0.344-0.301-0.808-0.451-1.391-0.451
					c-0.597,0-1.045,0.129-1.343,0.386s-0.448,0.56-0.448,0.906c0,0.342,0.129,0.625,0.386,0.848s0.772,0.419,1.542,0.588
					c0.879,0.196,1.538,0.464,1.976,0.803c0.438,0.339,0.656,0.801,0.656,1.384c0,0.615-0.25,1.113-0.749,1.494
					c-0.499,0.38-1.159,0.571-1.979,0.571c-0.898,0-1.603-0.214-2.116-0.643c-0.513-0.428-0.755-0.939-0.728-1.531l0.014-0.041
					h0.752c0.032,0.533,0.25,0.92,0.653,1.162c0.403,0.242,0.878,0.362,1.425,0.362c0.592,0,1.06-0.13,1.401-0.39
					c0.342-0.26,0.513-0.574,0.513-0.943C50.366,86.591,50.224,86.288,49.939,86.028z"/>
			</g>
		</g>
		<text transform="matrix(1 0 0 1 8.3792 72)" fill="#FFFFFF" font-family="'Georgia'" font-size="12">Chad</text>
	</g>
	<g id="T02" opacity="0">
		<polygon id="AREA_2_" points="173.827,54.729 84.187,54.729 84.187,96.729 116.754,96.729 116.754,96.729 128.327,108.906 
			139.9,96.729 139.9,96.729 173.827,96.729 		"/>
		<text transform="matrix(1 0 0 1 94.5661 88.8174)" fill="#FFFFFF" font-family="'Roboto-Light'" font-size="10">NA</text>
		<text transform="matrix(1.047 0 0 1 143.21 88.8174)" fill="#FFFFFF" font-family="'Roboto-Light'" font-size="10">$0.02</text>
		<g>
			<g>
				<path fill="#FFFFFF" d="M124.619,87.833h0.041l0.26-0.868l2.01-5.544h0.848l-2.81,7.396h-0.656l-2.816-7.396h0.848l2.037,5.544
					L124.619,87.833z"/>
				<path fill="#FFFFFF" d="M133.126,86.028c-0.285-0.26-0.799-0.472-1.542-0.636c-0.884-0.191-1.537-0.444-1.958-0.759
					c-0.421-0.315-0.632-0.759-0.632-1.333c0-0.565,0.238-1.043,0.714-1.432c0.476-0.39,1.106-0.584,1.89-0.584
					c0.834,0,1.495,0.206,1.982,0.619c0.488,0.413,0.72,0.929,0.697,1.548l-0.014,0.041h-0.759c0-0.406-0.172-0.759-0.516-1.06
					c-0.344-0.301-0.808-0.451-1.391-0.451c-0.597,0-1.045,0.129-1.343,0.386s-0.448,0.56-0.448,0.906
					c0,0.342,0.129,0.625,0.386,0.848s0.772,0.419,1.542,0.588c0.879,0.196,1.538,0.464,1.976,0.803
					c0.438,0.339,0.656,0.801,0.656,1.384c0,0.615-0.25,1.113-0.749,1.494c-0.499,0.38-1.159,0.571-1.979,0.571
					c-0.898,0-1.603-0.214-2.116-0.643c-0.513-0.428-0.755-0.939-0.728-1.531l0.014-0.041h0.752c0.032,0.533,0.249,0.92,0.653,1.162
					c0.403,0.242,0.878,0.362,1.425,0.362c0.592,0,1.06-0.13,1.401-0.39c0.342-0.26,0.513-0.574,0.513-0.943
					C133.553,86.591,133.411,86.288,133.126,86.028z"/>
			</g>
		</g>
		<text transform="matrix(1 0 0 1 91.5661 72)" fill="#FFFFFF" font-family="'Georgia'" font-size="12">Egypt</text>
	</g>
	<g id="T03" opacity="0">
		<polygon id="AREA_3_" points="258.017,54.729 168.377,54.729 168.377,96.729 200.944,96.729 200.944,96.729 212.517,108.906 
			224.09,96.729 224.09,96.729 258.017,96.729 		"/>
		<text transform="matrix(1 0 0 1 174.7561 88.8174)" fill="#FFFFFF" font-family="'Roboto-Light'" font-size="10">$0.02</text>
		<text transform="matrix(1.047 0 0 1 227.3999 88.8174)" fill="#FFFFFF" font-family="'Roboto-Light'" font-size="10">$0.03</text>
		<g>
			<g>
				<path fill="#FFFFFF" d="M208.809,87.833h0.041l0.26-0.868l2.01-5.544h0.848l-2.81,7.396h-0.656l-2.816-7.396h0.848l2.037,5.544
					L208.809,87.833z"/>
				<path fill="#FFFFFF" d="M217.316,86.028c-0.285-0.26-0.799-0.472-1.542-0.636c-0.884-0.191-1.537-0.444-1.958-0.759
					c-0.421-0.315-0.632-0.759-0.632-1.333c0-0.565,0.238-1.043,0.714-1.432c0.476-0.39,1.106-0.584,1.89-0.584
					c0.834,0,1.495,0.206,1.982,0.619c0.488,0.413,0.72,0.929,0.697,1.548l-0.014,0.041h-0.759c0-0.406-0.172-0.759-0.516-1.06
					c-0.344-0.301-0.808-0.451-1.391-0.451c-0.597,0-1.045,0.129-1.343,0.386s-0.448,0.56-0.448,0.906
					c0,0.342,0.129,0.625,0.386,0.848s0.772,0.419,1.542,0.588c0.879,0.196,1.538,0.464,1.976,0.803
					c0.438,0.339,0.656,0.801,0.656,1.384c0,0.615-0.25,1.113-0.749,1.494c-0.499,0.38-1.159,0.571-1.979,0.571
					c-0.898,0-1.603-0.214-2.116-0.643c-0.513-0.428-0.755-0.939-0.728-1.531l0.014-0.041h0.752c0.032,0.533,0.25,0.92,0.653,1.162
					c0.403,0.242,0.878,0.362,1.425,0.362c0.592,0,1.06-0.13,1.401-0.39c0.342-0.26,0.513-0.574,0.513-0.943
					C217.743,86.591,217.601,86.288,217.316,86.028z"/>
			</g>
		</g>
		<text transform="matrix(1 0 0 1 175.7561 72)" fill="#FFFFFF" font-family="'Georgia'" font-size="12">Ethiopia</text>
	</g>
	<g id="T04" opacity="0">
		<polygon id="AREA_4_" points="88.823,132.934 -0.817,132.934 -0.817,174.934 31.75,174.934 31.75,174.934 43.323,187.111 
			54.896,174.934 54.896,174.934 88.823,174.934 		"/>
		<text transform="matrix(1 0 0 1 4.2407 167.0226)" fill="#FFFFFF" font-family="'Roboto-Light'" font-size="10">$0.01</text>
		<text transform="matrix(1.047 0 0 1 58.2061 167.0225)" fill="#FFFFFF" font-family="'Roboto-Light'" font-size="10">$0.03</text>
		<g>
			<g>
				<path fill="#FFFFFF" d="M39.615,166.038h0.041l0.26-0.868l2.01-5.544h0.848l-2.81,7.396h-0.656l-2.816-7.396h0.848l2.037,5.544
					L39.615,166.038z"/>
				<path fill="#FFFFFF" d="M48.122,164.234c-0.285-0.26-0.799-0.472-1.542-0.636c-0.884-0.191-1.537-0.444-1.958-0.759
					c-0.421-0.314-0.632-0.759-0.632-1.333c0-0.565,0.238-1.042,0.714-1.432s1.106-0.584,1.89-0.584
					c0.834,0,1.495,0.206,1.982,0.619c0.488,0.413,0.72,0.929,0.697,1.548l-0.014,0.041H48.5c0-0.406-0.172-0.759-0.516-1.06
					s-0.808-0.451-1.391-0.451c-0.597,0-1.045,0.129-1.343,0.386s-0.448,0.559-0.448,0.906c0,0.342,0.129,0.624,0.386,0.848
					c0.257,0.223,0.772,0.419,1.542,0.588c0.879,0.196,1.538,0.464,1.976,0.803c0.438,0.339,0.656,0.801,0.656,1.384
					c0,0.615-0.25,1.113-0.749,1.494c-0.499,0.38-1.159,0.571-1.979,0.571c-0.898,0-1.603-0.214-2.116-0.643
					c-0.513-0.428-0.755-0.939-0.728-1.531l0.014-0.041h0.752c0.032,0.533,0.25,0.92,0.653,1.162s0.878,0.362,1.425,0.362
					c0.592,0,1.06-0.13,1.401-0.39c0.342-0.26,0.513-0.574,0.513-0.943C48.55,164.797,48.407,164.493,48.122,164.234z"/>
			</g>
		</g>
		<text transform="matrix(1 0 0 1 6.5623 150.2052)" fill="#FFFFFF" font-family="'Georgia'" font-size="12">Ghana</text>
	</g>
	<g id="T05" opacity="0">
		<polygon id="AREA_5_" points="172.597,132.934 82.957,132.934 82.957,174.934 115.524,174.934 115.524,174.934 127.097,187.111 
			138.67,174.934 138.67,174.934 172.597,174.934 		"/>
		<text transform="matrix(1 0 0 1 88.3362 167.0226)" fill="#FFFFFF" font-family="'Roboto-Light'" font-size="10">$0.01</text>
		<text transform="matrix(1.047 0 0 1 141.98 167.0225)" fill="#FFFFFF" font-family="'Roboto-Light'" font-size="10">$0.01</text>
		<g>
			<g>
				<path fill="#FFFFFF" d="M123.389,166.038h0.041l0.26-0.868l2.01-5.544h0.848l-2.81,7.396h-0.656l-2.816-7.396h0.848l2.037,5.544
					L123.389,166.038z"/>
				<path fill="#FFFFFF" d="M131.896,164.234c-0.285-0.26-0.799-0.472-1.542-0.636c-0.884-0.191-1.537-0.444-1.958-0.759
					c-0.421-0.314-0.632-0.759-0.632-1.333c0-0.565,0.238-1.042,0.714-1.432s1.106-0.584,1.89-0.584
					c0.834,0,1.495,0.206,1.982,0.619c0.488,0.413,0.72,0.929,0.697,1.548l-0.014,0.041h-0.759c0-0.406-0.172-0.759-0.516-1.06
					c-0.344-0.301-0.808-0.451-1.391-0.451c-0.597,0-1.045,0.129-1.343,0.386s-0.448,0.559-0.448,0.906
					c0,0.342,0.129,0.624,0.386,0.848c0.257,0.223,0.772,0.419,1.542,0.588c0.879,0.196,1.538,0.464,1.976,0.803
					c0.438,0.339,0.656,0.801,0.656,1.384c0,0.615-0.25,1.113-0.749,1.494c-0.499,0.38-1.159,0.571-1.979,0.571
					c-0.898,0-1.603-0.214-2.116-0.643c-0.513-0.428-0.755-0.939-0.728-1.531l0.014-0.041h0.752c0.032,0.533,0.25,0.92,0.653,1.162
					s0.878,0.362,1.425,0.362c0.592,0,1.06-0.13,1.401-0.39c0.342-0.26,0.513-0.574,0.513-0.943
					C132.323,164.797,132.181,164.493,131.896,164.234z"/>
			</g>
		</g>
		<text transform="matrix(1 0 0 1 90.3362 150.2052)" fill="#FFFFFF" font-family="'Georgia'" font-size="12">Kenya</text>
	</g>
	<g id="T06" opacity="0">
		<polygon id="AREA_6_" points="258.017,132.934 168.377,132.934 168.377,174.934 200.944,174.934 200.944,174.934 212.517,187.111 
			224.09,174.934 224.09,174.934 258.017,174.934 		"/>
		<text transform="matrix(1 0 0 1 174.7561 167.0226)" fill="#FFFFFF" font-family="'Roboto-Light'" font-size="10">FREE</text>
		<text transform="matrix(1.047 0 0 1 227.3999 167.0225)" fill="#FFFFFF" font-family="'Roboto-Light'" font-size="10">$0.10</text>
		<g>
			<g>
				<path fill="#FFFFFF" d="M208.809,166.038h0.041l0.26-0.868l2.01-5.544h0.848l-2.81,7.396h-0.656l-2.816-7.396h0.848l2.037,5.544
					L208.809,166.038z"/>
				<path fill="#FFFFFF" d="M217.316,164.234c-0.285-0.26-0.799-0.472-1.542-0.636c-0.884-0.191-1.537-0.444-1.958-0.759
					c-0.421-0.314-0.632-0.759-0.632-1.333c0-0.565,0.238-1.042,0.714-1.432s1.106-0.584,1.89-0.584
					c0.834,0,1.495,0.206,1.982,0.619c0.488,0.413,0.72,0.929,0.697,1.548l-0.014,0.041h-0.759c0-0.406-0.172-0.759-0.516-1.06
					c-0.344-0.301-0.808-0.451-1.391-0.451c-0.597,0-1.045,0.129-1.343,0.386s-0.448,0.559-0.448,0.906
					c0,0.342,0.129,0.624,0.386,0.848c0.257,0.223,0.772,0.419,1.542,0.588c0.879,0.196,1.538,0.464,1.976,0.803
					c0.438,0.339,0.656,0.801,0.656,1.384c0,0.615-0.25,1.113-0.749,1.494c-0.499,0.38-1.159,0.571-1.979,0.571
					c-0.898,0-1.603-0.214-2.116-0.643c-0.513-0.428-0.755-0.939-0.728-1.531l0.014-0.041h0.752c0.032,0.533,0.25,0.92,0.653,1.162
					s0.878,0.362,1.425,0.362c0.592,0,1.06-0.13,1.401-0.39c0.342-0.26,0.513-0.574,0.513-0.943
					C217.743,164.797,217.601,164.493,217.316,164.234z"/>
			</g>
		</g>
		<text transform="matrix(1 0 0 1 175.7561 150.2052)" fill="#FFFFFF" font-family="'Georgia'" font-size="12">Mauritius</text>
	</g>
	<g id="T07" opacity="0">
		<polygon id="AREA_7_" points="88.827,214.197 -0.813,214.197 -0.813,256.197 31.754,256.197 31.754,256.197 43.327,268.374 
			54.9,256.197 54.9,256.197 88.827,256.197 		"/>
		<text transform="matrix(1 0 0 1 8.2446 248.2856)" fill="#FFFFFF" font-family="'Roboto-Light'" font-size="10">FREE</text>
		<text transform="matrix(1.047 0 0 1 58.21 248.2856)" fill="#FFFFFF" font-family="'Roboto-Light'" font-size="10">$0.07</text>
		<g>
			<g>
				<path fill="#FFFFFF" d="M39.619,247.301h0.041l0.26-0.868l2.01-5.544h0.848l-2.81,7.396h-0.656l-2.816-7.396h0.848l2.037,5.544
					L39.619,247.301z"/>
				<path fill="#FFFFFF" d="M48.126,245.496c-0.285-0.26-0.799-0.472-1.542-0.636c-0.884-0.191-1.537-0.444-1.958-0.759
					c-0.421-0.314-0.632-0.759-0.632-1.333c0-0.565,0.238-1.042,0.714-1.432s1.106-0.584,1.89-0.584
					c0.834,0,1.495,0.206,1.982,0.619c0.488,0.413,0.72,0.929,0.697,1.548l-0.014,0.041h-0.759c0-0.406-0.172-0.759-0.516-1.06
					c-0.344-0.301-0.808-0.451-1.391-0.451c-0.597,0-1.045,0.129-1.343,0.386s-0.448,0.559-0.448,0.906
					c0,0.342,0.129,0.624,0.386,0.848c0.257,0.223,0.772,0.419,1.542,0.588c0.879,0.196,1.538,0.464,1.976,0.803
					c0.438,0.339,0.656,0.801,0.656,1.384c0,0.615-0.25,1.113-0.749,1.494c-0.499,0.38-1.159,0.571-1.979,0.571
					c-0.898,0-1.603-0.214-2.116-0.643c-0.513-0.428-0.755-0.939-0.728-1.531l0.014-0.041h0.752c0.032,0.533,0.25,0.92,0.653,1.162
					s0.878,0.362,1.425,0.362c0.592,0,1.06-0.13,1.401-0.39c0.342-0.26,0.513-0.574,0.513-0.943
					C48.553,246.06,48.411,245.756,48.126,245.496z"/>
			</g>
		</g>
		<text transform="matrix(1 0 0 1 6.5662 231.4682)" fill="#FFFFFF" font-family="'Georgia'" font-size="12">Morocco</text>
	</g>
	<g id="T08" opacity="0">
		<polygon id="AREA_8_" points="173.827,214.197 84.187,214.197 84.187,256.197 116.754,256.197 116.754,256.197 128.327,268.374 
			139.9,256.197 139.9,256.197 173.827,256.197 		"/>
		<text transform="matrix(1 0 0 1 88.3362 248.2856)" fill="#FFFFFF" font-family="'Roboto-Light'" font-size="10">$0.02</text>
		<text transform="matrix(1.047 0 0 1 143.21 248.2856)" fill="#FFFFFF" font-family="'Roboto-Light'" font-size="10">$0.03</text>
		<g>
			<g>
				<path fill="#FFFFFF" d="M124.619,247.301h0.041l0.26-0.868l2.01-5.544h0.848l-2.81,7.396h-0.656l-2.816-7.396h0.848l2.037,5.544
					L124.619,247.301z"/>
				<path fill="#FFFFFF" d="M133.126,245.496c-0.285-0.26-0.799-0.472-1.542-0.636c-0.884-0.191-1.537-0.444-1.958-0.759
					c-0.421-0.314-0.632-0.759-0.632-1.333c0-0.565,0.238-1.042,0.714-1.432s1.106-0.584,1.89-0.584
					c0.834,0,1.495,0.206,1.982,0.619c0.488,0.413,0.72,0.929,0.697,1.548l-0.014,0.041h-0.759c0-0.406-0.172-0.759-0.516-1.06
					c-0.344-0.301-0.808-0.451-1.391-0.451c-0.597,0-1.045,0.129-1.343,0.386s-0.448,0.559-0.448,0.906
					c0,0.342,0.129,0.624,0.386,0.848c0.257,0.223,0.772,0.419,1.542,0.588c0.879,0.196,1.538,0.464,1.976,0.803
					c0.438,0.339,0.656,0.801,0.656,1.384c0,0.615-0.25,1.113-0.749,1.494c-0.499,0.38-1.159,0.571-1.979,0.571
					c-0.898,0-1.603-0.214-2.116-0.643c-0.513-0.428-0.755-0.939-0.728-1.531l0.014-0.041h0.752c0.032,0.533,0.249,0.92,0.653,1.162
					c0.403,0.242,0.878,0.362,1.425,0.362c0.592,0,1.06-0.13,1.401-0.39c0.342-0.26,0.513-0.574,0.513-0.943
					C133.553,246.06,133.411,245.756,133.126,245.496z"/>
			</g>
		</g>
		<text transform="matrix(1 0 0 1 91.5662 231.4682)" fill="#FFFFFF" font-family="'Georgia'" font-size="12">Nigeria</text>
	</g>
	<g id="T09" opacity="0">
		<polygon id="AREA_9_" points="258.017,214.197 168.377,214.197 168.377,256.197 200.944,256.197 200.944,256.197 212.517,268.374 
			224.09,256.197 224.09,256.197 258.017,256.197 		"/>
		<text transform="matrix(1 0 0 1 183.7561 248.2856)" fill="#FFFFFF" font-family="'Roboto-Light'" font-size="10">NA</text>
		<text transform="matrix(1.047 0 0 1 227.3999 248.2856)" fill="#FFFFFF" font-family="'Roboto-Light'" font-size="10">$0.14</text>
		<g>
			<g>
				<path fill="#FFFFFF" d="M208.809,247.301h0.041l0.26-0.868l2.01-5.544h0.848l-2.81,7.396h-0.656l-2.816-7.396h0.848l2.037,5.544
					L208.809,247.301z"/>
				<path fill="#FFFFFF" d="M217.316,245.496c-0.285-0.26-0.799-0.472-1.542-0.636c-0.884-0.191-1.537-0.444-1.958-0.759
					c-0.421-0.314-0.632-0.759-0.632-1.333c0-0.565,0.238-1.042,0.714-1.432s1.106-0.584,1.89-0.584
					c0.834,0,1.495,0.206,1.982,0.619c0.488,0.413,0.72,0.929,0.697,1.548l-0.014,0.041h-0.759c0-0.406-0.172-0.759-0.516-1.06
					c-0.344-0.301-0.808-0.451-1.391-0.451c-0.597,0-1.045,0.129-1.343,0.386s-0.448,0.559-0.448,0.906
					c0,0.342,0.129,0.624,0.386,0.848c0.257,0.223,0.772,0.419,1.542,0.588c0.879,0.196,1.538,0.464,1.976,0.803
					c0.438,0.339,0.656,0.801,0.656,1.384c0,0.615-0.25,1.113-0.749,1.494c-0.499,0.38-1.159,0.571-1.979,0.571
					c-0.898,0-1.603-0.214-2.116-0.643c-0.513-0.428-0.755-0.939-0.728-1.531l0.014-0.041h0.752c0.032,0.533,0.25,0.92,0.653,1.162
					s0.878,0.362,1.425,0.362c0.592,0,1.06-0.13,1.401-0.39c0.342-0.26,0.513-0.574,0.513-0.943
					C217.743,246.06,217.601,245.756,217.316,245.496z"/>
			</g>
		</g>
		<text transform="matrix(1 0 0 1 175.7561 231.4682)" fill="#FFFFFF" font-family="'Georgia'" font-size="12">South Africa</text>
	</g>
	<g id="T10" opacity="0">
		<polygon id="AREA_10_" points="90.64,286.012 1,286.012 1,328.012 33.567,328.012 33.567,328.012 45.14,340.189 56.713,328.012 
			56.713,328.012 90.64,328.012 		"/>
		<text transform="matrix(1 0 0 1 8.2441 320.1004)" fill="#FFFFFF" font-family="'Roboto-Light'" font-size="10">$0.05</text>
		<text transform="matrix(1.047 0 0 1 60.0229 320.1006)" fill="#FFFFFF" font-family="'Roboto-Light'" font-size="10">$0.05</text>
		<g>
			<g>
				<path fill="#FFFFFF" d="M41.432,319.116h0.041l0.26-0.868l2.01-5.544h0.848l-2.81,7.396h-0.656l-2.816-7.396h0.848l2.037,5.544
					L41.432,319.116z"/>
				<path fill="#FFFFFF" d="M49.939,317.311c-0.285-0.26-0.799-0.472-1.542-0.636c-0.884-0.191-1.537-0.444-1.958-0.759
					s-0.632-0.759-0.632-1.333c0-0.565,0.238-1.042,0.714-1.432s1.106-0.585,1.89-0.585c0.834,0,1.495,0.206,1.982,0.619
					c0.488,0.413,0.72,0.929,0.697,1.548l-0.014,0.041h-0.759c0-0.406-0.172-0.759-0.516-1.06s-0.808-0.451-1.391-0.451
					c-0.597,0-1.045,0.129-1.343,0.386s-0.448,0.56-0.448,0.906c0,0.342,0.129,0.625,0.386,0.848s0.772,0.419,1.542,0.588
					c0.879,0.196,1.538,0.464,1.976,0.803c0.438,0.339,0.656,0.801,0.656,1.384c0,0.615-0.25,1.113-0.749,1.494
					c-0.499,0.38-1.159,0.571-1.979,0.571c-0.898,0-1.603-0.214-2.116-0.642s-0.755-0.939-0.728-1.531l0.014-0.041h0.752
					c0.032,0.533,0.25,0.92,0.653,1.162c0.403,0.242,0.878,0.362,1.425,0.362c0.592,0,1.06-0.13,1.401-0.39
					c0.342-0.26,0.513-0.574,0.513-0.943C50.366,317.874,50.224,317.571,49.939,317.311z"/>
			</g>
		</g>
		<text transform="matrix(1 0 0 1 8.3792 303.2831)" fill="#FFFFFF" font-family="'Georgia'" font-size="12">Sudan</text>
	</g>
	<g id="T11" opacity="0">
		<polygon id="AREA_11_" points="172.827,286.012 83.187,286.012 83.187,328.012 115.754,328.012 115.754,328.012 127.327,340.189 
			138.9,328.012 138.9,328.012 172.827,328.012 		"/>
		<text transform="matrix(1 0 0 1 88.3362 320.1004)" fill="#FFFFFF" font-family="'Roboto-Light'" font-size="10">$0.01</text>
		<text transform="matrix(1.047 0 0 1 142.21 320.1006)" fill="#FFFFFF" font-family="'Roboto-Light'" font-size="10">$0.04</text>
		<g>
			<g>
				<path fill="#FFFFFF" d="M123.619,319.116h0.041l0.26-0.868l2.01-5.544h0.848l-2.81,7.396h-0.656l-2.816-7.396h0.848l2.037,5.544
					L123.619,319.116z"/>
				<path fill="#FFFFFF" d="M132.126,317.311c-0.285-0.26-0.799-0.472-1.542-0.636c-0.884-0.191-1.537-0.444-1.958-0.759
					c-0.421-0.315-0.632-0.759-0.632-1.333c0-0.565,0.238-1.042,0.714-1.432s1.106-0.585,1.89-0.585
					c0.834,0,1.495,0.206,1.982,0.619c0.488,0.413,0.72,0.929,0.697,1.548l-0.014,0.041h-0.759c0-0.406-0.172-0.759-0.516-1.06
					c-0.344-0.301-0.808-0.451-1.391-0.451c-0.597,0-1.045,0.129-1.343,0.386s-0.448,0.56-0.448,0.906
					c0,0.342,0.129,0.625,0.386,0.848s0.772,0.419,1.542,0.588c0.879,0.196,1.538,0.464,1.976,0.803
					c0.438,0.339,0.656,0.801,0.656,1.384c0,0.615-0.25,1.113-0.749,1.494c-0.499,0.38-1.159,0.571-1.979,0.571
					c-0.898,0-1.603-0.214-2.116-0.642s-0.755-0.939-0.728-1.531l0.014-0.041h0.752c0.032,0.533,0.249,0.92,0.653,1.162
					c0.403,0.242,0.878,0.362,1.425,0.362c0.592,0,1.06-0.13,1.401-0.39c0.342-0.26,0.513-0.574,0.513-0.943
					C132.553,317.874,132.411,317.571,132.126,317.311z"/>
			</g>
		</g>
		<text transform="matrix(1 0 0 1 90.5662 303.2831)" fill="#FFFFFF" font-family="'Georgia'" font-size="12">Tanzania</text>
	</g>
	<g id="T12" opacity="0">
		<polygon id="AREA_12_" points="257.803,286.012 168.164,286.012 168.164,328.012 200.73,328.012 200.73,328.012 212.303,340.189 
			223.877,328.012 223.877,328.012 257.803,328.012 		"/>
		<text transform="matrix(1 0 0 1 174.7565 320.1004)" fill="#FFFFFF" font-family="'Roboto-Light'" font-size="10">FREE</text>
		<text transform="matrix(1.047 0 0 1 226.1865 320.1006)" fill="#FFFFFF" font-family="'Roboto-Light'" font-size="10">NA</text>
		<g>
			<g>
				<path fill="#FFFFFF" d="M208.595,319.116h0.041l0.26-0.868l2.01-5.544h0.848l-2.81,7.396h-0.656l-2.816-7.396h0.848l2.037,5.544
					L208.595,319.116z"/>
				<path fill="#FFFFFF" d="M217.103,317.311c-0.285-0.26-0.799-0.472-1.542-0.636c-0.884-0.191-1.537-0.444-1.958-0.759
					c-0.421-0.315-0.632-0.759-0.632-1.333c0-0.565,0.238-1.042,0.714-1.432s1.106-0.585,1.89-0.585
					c0.834,0,1.495,0.206,1.982,0.619c0.488,0.413,0.72,0.929,0.697,1.548l-0.014,0.041h-0.759c0-0.406-0.172-0.759-0.516-1.06
					c-0.344-0.301-0.808-0.451-1.391-0.451c-0.597,0-1.045,0.129-1.343,0.386s-0.448,0.56-0.448,0.906
					c0,0.342,0.129,0.625,0.386,0.848s0.772,0.419,1.542,0.588c0.879,0.196,1.538,0.464,1.976,0.803
					c0.438,0.339,0.656,0.801,0.656,1.384c0,0.615-0.25,1.113-0.749,1.494c-0.499,0.38-1.159,0.571-1.979,0.571
					c-0.898,0-1.603-0.214-2.116-0.642s-0.755-0.939-0.728-1.531l0.014-0.041h0.752c0.032,0.533,0.249,0.92,0.653,1.162
					c0.403,0.242,0.878,0.362,1.425,0.362c0.592,0,1.06-0.13,1.401-0.39c0.342-0.26,0.513-0.574,0.513-0.943
					C217.53,317.874,217.387,317.571,217.103,317.311z"/>
			</g>
		</g>
		<text transform="matrix(1 0 0 1 175.5426 303.2831)" fill="#FFFFFF" font-family="'Georgia'" font-size="12">Tunisia</text>
	</g>
	<g id="T13" opacity="0">
		<polygon id="AREA_13_" points="89.41,354.634 -0.23,354.634 -0.23,396.634 32.337,396.634 32.337,396.634 43.91,408.811 
			55.483,396.634 55.483,396.634 89.41,396.634 		"/>
		<text transform="matrix(1 0 0 1 8.8276 388.7223)" fill="#FFFFFF" font-family="'Roboto-Light'" font-size="10">FREE</text>
		<text transform="matrix(1.047 0 0 1 58.793 388.7227)" fill="#FFFFFF" font-family="'Roboto-Light'" font-size="10">$0.04</text>
		<g>
			<g>
				<path fill="#FFFFFF" d="M40.202,387.738h0.041l0.26-0.868l2.01-5.544h0.848l-2.81,7.396h-0.656l-2.816-7.396h0.848l2.037,5.544
					L40.202,387.738z"/>
				<path fill="#FFFFFF" d="M48.709,385.933c-0.285-0.26-0.799-0.472-1.542-0.636c-0.884-0.191-1.537-0.444-1.958-0.759
					s-0.632-0.759-0.632-1.333c0-0.565,0.238-1.042,0.714-1.432s1.106-0.585,1.89-0.585c0.834,0,1.495,0.206,1.982,0.619
					c0.488,0.413,0.72,0.929,0.697,1.548l-0.014,0.041h-0.759c0-0.406-0.172-0.759-0.516-1.06s-0.808-0.451-1.391-0.451
					c-0.597,0-1.045,0.129-1.343,0.386s-0.448,0.56-0.448,0.906c0,0.342,0.129,0.625,0.386,0.848s0.772,0.419,1.542,0.588
					c0.879,0.196,1.538,0.464,1.976,0.803c0.438,0.339,0.656,0.801,0.656,1.384c0,0.615-0.25,1.113-0.749,1.494
					c-0.499,0.38-1.159,0.571-1.979,0.571c-0.898,0-1.603-0.214-2.116-0.642s-0.755-0.939-0.728-1.531l0.014-0.041h0.752
					c0.032,0.533,0.25,0.92,0.653,1.162c0.403,0.242,0.878,0.362,1.425,0.362c0.592,0,1.06-0.13,1.401-0.39
					c0.342-0.26,0.513-0.574,0.513-0.943C49.136,386.496,48.994,386.193,48.709,385.933z"/>
			</g>
		</g>
		<text transform="matrix(1 0 0 1 7.1492 371.9049)" fill="#FFFFFF" font-family="'Georgia'" font-size="12">Uganda</text>
	</g>
</g>
<g id="TOP">
	<g id="KEY">
		<circle fill="none" stroke="#000000" stroke-miterlimit="10" cx="213.197" cy="44.5" r="10"/>
		<circle fill="none" stroke="#000000" stroke-miterlimit="10" cx="213.197" cy="34.5" r="20"/>
		<text transform="matrix(1 0 0 1 207.0801 11.8118)" font-family="'Roboto-Bold'" font-size="8">20$</text>
		<text transform="matrix(1 0 0 1 206.0801 31.6038)" font-family="'Roboto-Bold'" font-size="8">10$</text>
	</g>
	<circle fill="#790700" cx="23.033" cy="34.5" r="6.076"/>
	<circle fill="#D6D6D6" cx="87.11" cy="34.5" r="6.076"/>
	<text transform="matrix(1 0 0 1 32.9575 38.0072)" font-family="'Arial'" font-size="12">Public</text>
	<text transform="matrix(1 0 0 1 96.9468 38.0072)" font-family="'Arial'" font-size="12">Private</text>
	<g>
		<text transform="matrix(1.0075 0 0 1 190.2783 62.8335)" font-family="'Roboto-Bold'" font-size="8">Less than 5$</text>
	</g>
	<circle fill="none" stroke="#000000" stroke-miterlimit="10" cx="213.197" cy="49.5" r="5"/>
</g>
<g id="INTERACT">
	<g>
		<path fill="#191818" d="M145.287,431.79h-3.198c-0.468,0-0.848-0.38-0.848-0.848c0-0.469,0.38-0.848,0.848-0.848h3.198
			c0.468,0,0.848,0.38,0.848,0.848C146.135,431.41,145.755,431.79,145.287,431.79z"/>
		<path fill="#191818" d="M136.972,426.674c-0.469,0-0.848-0.38-0.848-0.848v-3.198c0-0.468,0.38-0.848,0.848-0.848
			c0.468,0,0.848,0.38,0.848,0.848v3.198C137.821,426.294,137.441,426.674,136.972,426.674z"/>
		<path fill="#191818" d="M131.856,431.79h-3.198c-0.468,0-0.848-0.38-0.848-0.848c0-0.469,0.38-0.848,0.848-0.848h3.198
			c0.468,0,0.848,0.38,0.848,0.848C132.704,431.41,132.324,431.79,131.856,431.79z"/>
		<path fill="#191818" d="M140.59,428.172c-0.217,0-0.434-0.083-0.6-0.249c-0.331-0.331-0.331-0.869,0-1.199l2.138-2.138
			c0.331-0.331,0.868-0.331,1.2,0c0.331,0.331,0.331,0.869,0,1.199l-2.138,2.138C141.024,428.089,140.807,428.172,140.59,428.172z"
			/>
		<path fill="#191818" d="M133.354,428.172c-0.217,0-0.434-0.083-0.6-0.249l-2.138-2.138c-0.331-0.331-0.331-0.868,0-1.199
			c0.331-0.331,0.868-0.331,1.2,0l2.138,2.138c0.331,0.331,0.331,0.868,0,1.199C133.788,428.089,133.571,428.172,133.354,428.172z"
			/>
		<path fill="#191818" d="M143.577,445.013h-1.697v-3.838c0-0.59-0.48-1.071-1.071-1.071c-0.59,0-1.07,0.48-1.07,1.071v0.64h-1.697
			v-0.64c0-1.526,1.241-2.767,2.767-2.767c1.526,0,2.767,1.241,2.767,2.767V445.013z"/>
		<path fill="#191818" d="M147.414,445.652h-1.697v-3.838c0-0.59-0.48-1.07-1.071-1.07c-0.59,0-1.07,0.48-1.07,1.07v3.198h-1.697
			v-3.198c0-1.525,1.241-2.767,2.767-2.767c1.526,0,2.767,1.241,2.767,2.767V445.652z"/>
		<path fill="#191818" d="M135.902,449.49h-1.697v-18.548c0-1.525,1.241-2.767,2.767-2.767c1.526,0,2.767,1.241,2.767,2.767v14.071
			h-1.697v-14.071c0-0.59-0.48-1.07-1.071-1.07c-0.59,0-1.07,0.48-1.07,1.07V449.49z"/>
		<path fill="#191818" d="M135.902,459.723h-1.697c0-0.541-0.707-1.495-1.456-2.504c-1.279-1.724-3.031-4.085-3.337-7.11
			c-0.078-0.771-0.106-1.917-0.084-3.406c0.026-1.687,1.18-3.173,2.809-3.615l2.8-0.759l0.444,1.638l-2.8,0.759
			c-0.902,0.244-1.542,1.068-1.556,2.003c-0.022,1.404,0.005,2.514,0.075,3.21c0.259,2.561,1.785,4.618,3.011,6.27
			C135.112,457.556,135.902,458.62,135.902,459.723z"/>
		<path fill="#191818" d="M149.333,459.723h-1.697c0-0.506,0.21-1.214,0.529-2.285c0.809-2.721,2.316-7.787,1.147-13.515
			c-0.247-1.212-0.651-1.244-0.893-1.262c-0.715-0.059-1.282,0.421-1.288,0.426l-1.13-1.265c0.111-0.099,1.125-0.967,2.549-0.853
			c1.275,0.099,2.091,0.979,2.424,2.615c1.253,6.143-0.332,11.473-1.183,14.337C149.566,458.679,149.333,459.463,149.333,459.723z"
			/>
	</g>
	<g>
		<path fill="#191818" d="M159.995,439.049h-1.609v-9.646h1.609V439.049z"/>
		<path fill="#191818" d="M162.769,431.88l0.094,1.034c0.234-0.367,0.527-0.652,0.885-0.858c0.355-0.205,0.756-0.308,1.201-0.308
			c0.746,0,1.328,0.227,1.746,0.679c0.418,0.453,0.627,1.158,0.627,2.117v4.505h-1.611v-4.492c0-0.538-0.111-0.922-0.334-1.149
			s-0.562-0.341-1.018-0.341c-0.312,0-0.594,0.069-0.84,0.209c-0.248,0.139-0.451,0.33-0.611,0.572v5.201h-1.609v-7.169H162.769z"/>
		<path fill="#191818" d="M170.32,430.138v1.742h1.285v1.193h-1.285v3.962c0,0.296,0.064,0.507,0.191,0.632
			c0.129,0.126,0.299,0.189,0.51,0.189c0.09,0,0.176-0.008,0.26-0.023s0.162-0.036,0.238-0.062l0.172,1.179
			c-0.137,0.075-0.301,0.134-0.49,0.176s-0.387,0.062-0.59,0.062c-0.592,0-1.055-0.173-1.391-0.52s-0.504-0.892-0.504-1.633v-3.962
			h-1.094v-1.193h1.094v-1.742H170.32z"/>
		<path fill="#191818" d="M175.431,439.187c-1.016,0-1.824-0.332-2.428-0.997c-0.604-0.664-0.904-1.518-0.904-2.561v-0.265
			c0-1.042,0.299-1.907,0.898-2.594c0.598-0.687,1.348-1.028,2.248-1.023c0.969,0,1.709,0.292,2.223,0.878
			c0.516,0.585,0.773,1.37,0.773,2.354v0.948h-4.473l-0.014,0.032c0.027,0.568,0.193,1.032,0.5,1.394s0.732,0.542,1.275,0.542
			c0.434,0,0.805-0.054,1.113-0.159c0.309-0.106,0.607-0.259,0.895-0.457l0.518,1.056c-0.27,0.239-0.627,0.441-1.074,0.605
			C176.536,439.105,176.019,439.187,175.431,439.187z M175.245,433.04c-0.396,0-0.723,0.157-0.98,0.474
			c-0.256,0.315-0.414,0.717-0.477,1.202l0.014,0.033h2.842v-0.166c0-0.454-0.115-0.825-0.348-1.112S175.714,433.04,175.245,433.04z
			"/>
		<path fill="#191818" d="M182.431,433.331l-0.688-0.026c-0.314,0-0.576,0.066-0.785,0.199c-0.211,0.132-0.373,0.32-0.488,0.562
			v4.982h-1.609v-7.169h1.471l0.105,1.041c0.182-0.367,0.414-0.654,0.699-0.861c0.285-0.208,0.613-0.312,0.984-0.312
			c0.098,0,0.188,0.008,0.271,0.022c0.084,0.016,0.16,0.035,0.232,0.057L182.431,433.331z"/>
		<path fill="#191818" d="M187.193,439.049c-0.057-0.181-0.105-0.357-0.143-0.53c-0.037-0.172-0.062-0.345-0.076-0.517
			c-0.221,0.336-0.51,0.617-0.871,0.845c-0.359,0.228-0.762,0.341-1.209,0.341c-0.746,0-1.318-0.191-1.719-0.576
			c-0.4-0.384-0.6-0.912-0.6-1.583c0-0.693,0.273-1.233,0.822-1.62c0.547-0.387,1.318-0.58,2.311-0.58h1.252v-0.629
			c0-0.375-0.109-0.669-0.33-0.881S186.093,433,185.683,433c-0.367,0-0.658,0.088-0.875,0.265s-0.324,0.404-0.324,0.683h-1.551
			l-0.006-0.04c-0.031-0.564,0.221-1.066,0.758-1.504c0.537-0.437,1.236-0.655,2.098-0.655c0.834,0,1.508,0.212,2.02,0.636
			c0.514,0.424,0.77,1.033,0.77,1.828v3.188c0,0.296,0.02,0.579,0.059,0.851c0.041,0.272,0.104,0.538,0.193,0.799H187.193z
			 M185.218,437.896c0.406,0,0.773-0.102,1.098-0.306c0.324-0.203,0.539-0.435,0.645-0.695v-1.06h-1.277
			c-0.469,0-0.836,0.115-1.1,0.348c-0.266,0.231-0.398,0.505-0.398,0.818c0,0.273,0.09,0.491,0.27,0.652
			C184.632,437.815,184.888,437.896,185.218,437.896z"/>
		<path fill="#191818" d="M192.544,437.896c0.393,0,0.725-0.115,0.994-0.347c0.268-0.23,0.402-0.52,0.402-0.866h1.459l0.014,0.04
			c0.021,0.671-0.252,1.25-0.818,1.735c-0.568,0.486-1.252,0.729-2.051,0.729c-1.057,0-1.865-0.34-2.428-1.02
			c-0.564-0.681-0.846-1.542-0.846-2.584v-0.232c0-1.037,0.281-1.897,0.846-2.58c0.562-0.683,1.371-1.023,2.428-1.023
			c0.861,0,1.561,0.25,2.096,0.752c0.537,0.501,0.797,1.139,0.779,1.911l-0.014,0.04h-1.465c0-0.394-0.129-0.727-0.387-1.001
			c-0.258-0.273-0.596-0.41-1.01-0.41c-0.605,0-1.033,0.219-1.285,0.658c-0.252,0.438-0.379,0.989-0.379,1.65v0.231
			c0,0.675,0.127,1.229,0.379,1.664S191.939,437.896,192.544,437.896z"/>
		<path fill="#191818" d="M198.027,430.138v1.742h1.285v1.193h-1.285v3.962c0,0.296,0.064,0.507,0.191,0.632
			c0.129,0.126,0.299,0.189,0.51,0.189c0.09,0,0.176-0.008,0.26-0.023s0.162-0.036,0.238-0.062l0.172,1.179
			c-0.137,0.075-0.301,0.134-0.49,0.176s-0.387,0.062-0.59,0.062c-0.592,0-1.055-0.173-1.391-0.52s-0.504-0.892-0.504-1.633v-3.962
			h-1.094v-1.193h1.094v-1.742H198.027z"/>
		<path fill="#191818" d="M201.78,430.125h-1.609v-1.411h1.609V430.125z M201.78,439.049h-1.609v-7.169h1.609V439.049z"/>
		<path fill="#191818" d="M205.394,436.624l0.119,0.583h0.041l0.125-0.583l1.426-4.744h1.662l-2.545,7.169h-1.396l-2.559-7.169
			h1.664L205.394,436.624z"/>
		<path fill="#191818" d="M212.083,439.187c-1.016,0-1.824-0.332-2.428-0.997c-0.604-0.664-0.904-1.518-0.904-2.561v-0.265
			c0-1.042,0.299-1.907,0.898-2.594c0.598-0.687,1.348-1.028,2.248-1.023c0.969,0,1.709,0.292,2.223,0.878
			c0.516,0.585,0.773,1.37,0.773,2.354v0.948h-4.473l-0.014,0.032c0.027,0.568,0.193,1.032,0.5,1.394s0.732,0.542,1.275,0.542
			c0.434,0,0.805-0.054,1.113-0.159c0.309-0.106,0.607-0.259,0.895-0.457l0.518,1.056c-0.27,0.239-0.627,0.441-1.074,0.605
			C213.189,439.105,212.671,439.187,212.083,439.187z M211.898,433.04c-0.396,0-0.723,0.157-0.98,0.474
			c-0.256,0.315-0.414,0.717-0.477,1.202l0.014,0.033h2.842v-0.166c0-0.454-0.115-0.825-0.348-1.112S212.366,433.04,211.898,433.04z
			"/>
		<path fill="#191818" d="M165.482,453.573c-0.256,0.367-0.678,0.699-1.262,0.998c-0.586,0.298-1.338,0.446-2.256,0.446
			c-1.162,0-2.119-0.367-2.869-1.103s-1.127-1.687-1.127-2.853v-2.014c0-1.166,0.355-2.117,1.064-2.853s1.623-1.103,2.746-1.103
			c1.135,0,2.018,0.279,2.646,0.838s0.951,1.286,0.965,2.183l-0.014,0.04h-1.523c-0.037-0.53-0.225-0.957-0.566-1.282
			c-0.344-0.324-0.84-0.486-1.488-0.486c-0.666,0-1.205,0.249-1.613,0.748c-0.408,0.498-0.613,1.132-0.613,1.899v2.025
			c0,0.776,0.223,1.415,0.666,1.916s1.02,0.752,1.727,0.752c0.504,0,0.912-0.059,1.225-0.176c0.314-0.116,0.541-0.254,0.684-0.413
			v-1.956h-1.916v-1.205h3.525V453.573z"/>
		<path fill="#191818" d="M170.144,449.161l-0.689-0.026c-0.314,0-0.576,0.066-0.785,0.199c-0.209,0.132-0.371,0.32-0.486,0.562
			v4.982h-1.611v-7.169h1.471l0.107,1.041c0.18-0.367,0.414-0.654,0.699-0.861c0.285-0.208,0.611-0.312,0.982-0.312
			c0.098,0,0.188,0.008,0.271,0.022c0.084,0.016,0.162,0.035,0.232,0.057L170.144,449.161z"/>
		<path fill="#191818" d="M174.903,454.879c-0.057-0.181-0.105-0.357-0.143-0.53c-0.037-0.172-0.062-0.345-0.076-0.517
			c-0.221,0.336-0.51,0.617-0.871,0.845c-0.359,0.228-0.762,0.341-1.209,0.341c-0.746,0-1.318-0.191-1.719-0.576
			c-0.4-0.384-0.6-0.912-0.6-1.583c0-0.693,0.273-1.233,0.822-1.62c0.547-0.387,1.318-0.58,2.311-0.58h1.252v-0.629
			c0-0.375-0.109-0.669-0.33-0.881s-0.537-0.318-0.947-0.318c-0.367,0-0.658,0.088-0.875,0.265s-0.324,0.404-0.324,0.683h-1.551
			l-0.006-0.04c-0.031-0.564,0.221-1.066,0.758-1.504c0.537-0.437,1.236-0.655,2.098-0.655c0.834,0,1.508,0.212,2.02,0.636
			c0.514,0.424,0.77,1.033,0.77,1.828v3.188c0,0.296,0.02,0.579,0.059,0.851c0.041,0.272,0.104,0.538,0.193,0.799H174.903z
			 M172.929,453.727c0.406,0,0.773-0.102,1.098-0.306c0.324-0.203,0.539-0.435,0.645-0.695v-1.06h-1.277
			c-0.469,0-0.836,0.115-1.1,0.348c-0.266,0.231-0.398,0.505-0.398,0.818c0,0.273,0.09,0.491,0.27,0.652
			C172.343,453.645,172.599,453.727,172.929,453.727z"/>
		<path fill="#191818" d="M183.573,451.533c0,1.042-0.244,1.884-0.734,2.524s-1.174,0.96-2.049,0.96
			c-0.406,0-0.766-0.072-1.078-0.218c-0.314-0.146-0.584-0.36-0.809-0.643v3.478h-1.611v-9.925h1.359l0.158,0.901
			c0.23-0.336,0.508-0.592,0.832-0.769s0.701-0.265,1.129-0.265c0.885,0,1.572,0.35,2.064,1.05s0.738,1.622,0.738,2.766V451.533z
			 M181.97,451.391c0-0.732-0.137-1.331-0.414-1.796c-0.275-0.466-0.688-0.698-1.234-0.698c-0.336,0-0.621,0.071-0.855,0.215
			s-0.422,0.343-0.562,0.599v3.235c0.141,0.252,0.328,0.444,0.562,0.579s0.523,0.202,0.867,0.202c0.549,0,0.959-0.202,1.23-0.605
			c0.271-0.404,0.406-0.935,0.406-1.592V451.391z"/>
		<path fill="#191818" d="M185.89,448.638c0.238-0.335,0.529-0.596,0.871-0.781s0.721-0.278,1.137-0.278
			c0.76,0,1.352,0.239,1.779,0.719c0.426,0.479,0.639,1.218,0.639,2.216v4.366h-1.609V450.5c0-0.565-0.113-0.975-0.338-1.226
			c-0.227-0.252-0.564-0.378-1.014-0.378c-0.314,0-0.596,0.065-0.846,0.195s-0.455,0.311-0.619,0.54v5.247h-1.609v-10.335h1.609
			V448.638z"/>
		<path fill="#191818" d="M193.023,445.955h-1.609v-1.411h1.609V445.955z M193.023,454.879h-1.609v-7.169h1.609V454.879z"/>
		<path fill="#191818" d="M197.109,453.727c0.393,0,0.725-0.115,0.994-0.347c0.268-0.23,0.402-0.52,0.402-0.866h1.459l0.014,0.04
			c0.021,0.671-0.252,1.25-0.818,1.735c-0.568,0.486-1.252,0.729-2.051,0.729c-1.057,0-1.865-0.34-2.428-1.02
			c-0.564-0.681-0.846-1.542-0.846-2.584v-0.232c0-1.037,0.281-1.897,0.846-2.58c0.562-0.683,1.371-1.023,2.428-1.023
			c0.861,0,1.561,0.25,2.096,0.752c0.537,0.501,0.797,1.139,0.779,1.911l-0.014,0.04h-1.465c0-0.394-0.129-0.727-0.387-1.001
			c-0.258-0.273-0.596-0.41-1.01-0.41c-0.605,0-1.033,0.219-1.285,0.658c-0.252,0.438-0.379,0.989-0.379,1.65v0.231
			c0,0.675,0.127,1.229,0.379,1.664S196.503,453.727,197.109,453.727z"/>
	</g>
</g>
</svg>
