<?xml version="1.0" encoding="utf-8"?>
<!DOCTYPE svg PUBLIC "-//W3C//DTD SVG 1.1//EN" "http://www.w3.org/Graphics/SVG/1.1/DTD/svg11.dtd">

<svg version="1.1" id="GRAPHIC" xmlns="http://www.w3.org/2000/svg" xmlns:xlink="http://www.w3.org/1999/xlink" x="0px" y="0px"
	 width="258.014px" height="501.145px" viewBox="0 0 258.014 501.145" enable-background="new 0 0 258.014 501.145"
	 xml:space="preserve">
<style type="text/css">
       @font-face {
            font-family: 'Roboto-Light';
            font-weight: 100;
            src: url(https://fonts.googleapis.com/css?family=Roboto:300);
        }
        @font-face {
            font-family: 'Roboto-Bold';
            src: url(http://www.nacion.com/static/LNCNacionBeta/fonts/opensans/opensans_semibold.woff);    
            font-weight: 300;
        }
        @font-face {
            font-family: 'Open Sans Bold';
            src: url(http://www.nacion.com/static/LNCNacionBeta/fonts/opensans/opensans_extrabold.woff);    
            font-weight: 800;
        }
    </style>
<g id="AREA">
    <rect id="A13" x="10.03" y="399.406" fill="#FFFFFF" fill-opacity="0" width="69.989" height="48">
        <animate attributeName="opacity" dur="0.2" to="1" begin="A13.mouseover" fill="freeze" xlink:href="#T13"/> 
        <animate attributeName="opacity" dur="0.2" to="0" begin="A13.mouseout" fill="freeze" xlink:href="#T13"/>
    </rect>
	<rect id="A12" x="177.996" y="318.492" fill="#FFFFFF" fill-opacity="0" width="69.988" height="48">
        <animate attributeName="opacity" dur="0.2" to="1" begin="A12.mouseover" fill="freeze" xlink:href="#T12"/> 
        <animate attributeName="opacity" dur="0.2" to="0" begin="A12.mouseout" fill="freeze" xlink:href="#T12"/>
    </rect>
	<rect id="A11" x="94.013" y="318.492" fill="#FFFFFF" fill-opacity="0" width="69.989" height="48">
        <animate attributeName="opacity" dur="0.2" to="1" begin="A11.mouseover" fill="freeze" xlink:href="#T11"/> 
        <animate attributeName="opacity" dur="0.2" to="0" begin="A11.mouseout" fill="freeze" xlink:href="#T11"/>
    </rect>
	<rect id="A10" x="10.03" y="318.492" fill="#FFFFFF" fill-opacity="0" width="69.989" height="48">
        <animate attributeName="opacity" dur="0.2" to="1" begin="A10.mouseover" fill="freeze" xlink:href="#T10"/> 
        <animate attributeName="opacity" dur="0.2" to="0" begin="A10.mouseout" fill="freeze" xlink:href="#T10"/>
    </rect>
	<rect id="A09" x="177.996" y="241.172" fill="#FFFFFF" fill-opacity="0" width="69.988" height="48">
        <animate attributeName="opacity" dur="0.2" to="1" begin="A09.mouseover" fill="freeze" xlink:href="#T09"/> 
        <animate attributeName="opacity" dur="0.2" to="0" begin="A09.mouseout" fill="freeze" xlink:href="#T09"/>
    </rect>
	<rect id="A08" x="94.013" y="241.172" fill="#FFFFFF" fill-opacity="0" width="69.989" height="48">
        <animate attributeName="opacity" dur="0.2" to="1" begin="A08.mouseover" fill="freeze" xlink:href="#T08"/> 
        <animate attributeName="opacity" dur="0.2" to="0" begin="A08.mouseout" fill="freeze" xlink:href="#T08"/>
    </rect>
	<rect id="A07" x="10.03" y="241.172" fill="#FFFFFF" fill-opacity="0" width="69.989" height="48">
        <animate attributeName="opacity" dur="0.2" to="1" begin="A07.mouseover" fill="freeze" xlink:href="#T07"/> 
        <animate attributeName="opacity" dur="0.2" to="0" begin="A07.mouseout" fill="freeze" xlink:href="#T07"/>
    </rect>
	<rect id="A06" x="177.996" y="161.744" fill="#FFFFFF" fill-opacity="0" width="69.988" height="48">
        <animate attributeName="opacity" dur="0.2" to="1" begin="A06.mouseover" fill="freeze" xlink:href="#T06"/> 
        <animate attributeName="opacity" dur="0.2" to="0" begin="A06.mouseout" fill="freeze" xlink:href="#T06"/>
    </rect>
	<rect id="A05" x="94.013" y="161.744" fill="#FFFFFF" fill-opacity="0" width="69.989" height="48">
        <animate attributeName="opacity" dur="0.2" to="1" begin="A05.mouseover" fill="freeze" xlink:href="#T05"/> 
        <animate attributeName="opacity" dur="0.2" to="0" begin="A05.mouseout" fill="freeze" xlink:href="#T05"/>
    </rect>
	<rect id="A04" x="10.03" y="161.744" fill="#FFFFFF" fill-opacity="0" width="69.989" height="48">
        <animate attributeName="opacity" dur="0.2" to="1" begin="A04.mouseover" fill="freeze" xlink:href="#T04"/> 
        <animate attributeName="opacity" dur="0.2" to="0" begin="A04.mouseout" fill="freeze" xlink:href="#T04"/>
    </rect>
	<rect id="A03" x="177.996" y="85.122" fill="#FFFFFF" fill-opacity="0" width="69.988" height="48">
        <animate attributeName="opacity" dur="0.2" to="1" begin="A03.mouseover" fill="freeze" xlink:href="#T03"/> 
        <animate attributeName="opacity" dur="0.2" to="0" begin="A03.mouseout" fill="freeze" xlink:href="#T03"/>
    </rect>
	<rect id="A02" x="94.013" y="85.122" fill="#FFFFFF" fill-opacity="0" width="69.989" height="48">
        <animate attributeName="opacity" dur="0.2" to="1" begin="A02.mouseover" fill="freeze" xlink:href="#T02"/> 
        <animate attributeName="opacity" dur="0.2" to="0" begin="A02.mouseout" fill="freeze" xlink:href="#T02"/>
    </rect>
	<rect id="A01" x="10.03" y="85.122" fill="#FFFFFF" width="69.989" height="48">
        <animate attributeName="opacity" dur="0.2" to="1" begin="A01.mouseover" fill="freeze" xlink:href="#T01"/> 
        <animate attributeName="opacity" dur="0.2" to="0" begin="A01.mouseout" fill="freeze" xlink:href="#T01"/>
    </rect>
</g>
<g id="INTERACT">
	<g>
		<path fill="#191818" d="M174.517,439.09h-3.197c-0.468,0-0.848-0.38-0.848-0.848c0-0.468,0.38-0.848,0.848-0.848h3.197
			c0.469,0,0.848,0.38,0.848,0.848C175.365,438.711,174.985,439.09,174.517,439.09z"/>
		<path fill="#191818" d="M166.202,433.974c-0.469,0-0.848-0.38-0.848-0.848v-3.198c0-0.469,0.38-0.848,0.848-0.848
			c0.468,0,0.848,0.38,0.848,0.848v3.198C167.051,433.594,166.671,433.974,166.202,433.974z"/>
		<path fill="#191818" d="M161.086,439.09h-3.198c-0.469,0-0.848-0.38-0.848-0.848c0-0.468,0.38-0.848,0.848-0.848h3.198
			c0.468,0,0.848,0.38,0.848,0.848C161.934,438.711,161.554,439.09,161.086,439.09z"/>
		<path fill="#191818" d="M169.82,435.472c-0.217,0-0.434-0.083-0.6-0.249c-0.331-0.331-0.331-0.869,0-1.199l2.139-2.138
			c0.331-0.331,0.868-0.331,1.2,0c0.331,0.331,0.331,0.868,0,1.199l-2.139,2.138C170.254,435.39,170.037,435.472,169.82,435.472z"/>
		<path fill="#191818" d="M162.584,435.472c-0.217,0-0.434-0.083-0.6-0.249l-2.138-2.138c-0.331-0.331-0.331-0.868,0-1.199
			c0.331-0.331,0.868-0.331,1.2,0l2.138,2.138c0.331,0.331,0.331,0.868,0,1.199C163.019,435.39,162.802,435.472,162.584,435.472z"/>
		<path fill="#191818" d="M172.807,452.313h-1.697v-3.838c0-0.59-0.48-1.071-1.071-1.071c-0.59,0-1.07,0.48-1.07,1.071v0.639h-1.697
			v-0.639c0-1.526,1.241-2.767,2.767-2.767c1.526,0,2.767,1.241,2.767,2.767V452.313z"/>
		<path fill="#191818" d="M176.645,452.953h-1.696v-3.838c0-0.59-0.481-1.07-1.071-1.07s-1.07,0.48-1.07,1.07v3.198h-1.697v-3.198
			c0-1.525,1.241-2.767,2.767-2.767c1.526,0,2.767,1.241,2.767,2.767V452.953z"/>
		<path fill="#191818" d="M165.132,456.79h-1.697v-18.548c0-1.525,1.241-2.767,2.767-2.767c1.526,0,2.767,1.241,2.767,2.767v14.071
			h-1.697v-14.071c0-0.59-0.48-1.07-1.071-1.07c-0.59,0-1.07,0.48-1.07,1.07V456.79z"/>
		<path fill="#191818" d="M165.132,467.023h-1.697c0-0.541-0.708-1.495-1.456-2.504c-1.279-1.724-3.031-4.085-3.337-7.11
			c-0.078-0.771-0.106-1.917-0.084-3.406c0.026-1.687,1.18-3.173,2.809-3.615l2.8-0.759l0.444,1.638l-2.8,0.759
			c-0.902,0.244-1.542,1.068-1.556,2.003c-0.022,1.404,0.005,2.514,0.075,3.21c0.259,2.561,1.785,4.618,3.011,6.27
			C164.342,464.856,165.132,465.921,165.132,467.023z"/>
		<path fill="#191818" d="M178.563,467.023h-1.696c0-0.506,0.21-1.214,0.529-2.285c0.809-2.721,2.316-7.787,1.147-13.515
			c-0.247-1.212-0.651-1.244-0.893-1.263c-0.715-0.059-1.282,0.421-1.288,0.426l-1.13-1.265c0.111-0.099,1.125-0.967,2.549-0.853
			c1.275,0.099,2.091,0.979,2.424,2.615c1.253,6.143-0.332,11.474-1.183,14.337C178.796,465.979,178.563,466.764,178.563,467.023z"
			/>
	</g>
	<g>
		<path fill="#191818" d="M189.226,446.349h-1.609v-9.647h1.609V446.349z"/>
		<path fill="#191818" d="M191.999,439.18l0.094,1.034c0.234-0.367,0.527-0.652,0.885-0.858c0.355-0.205,0.756-0.308,1.201-0.308
			c0.746,0,1.328,0.227,1.746,0.679c0.418,0.453,0.627,1.158,0.627,2.117v4.505h-1.611v-4.492c0-0.538-0.111-0.922-0.334-1.149
			c-0.223-0.228-0.562-0.341-1.018-0.341c-0.312,0-0.594,0.069-0.84,0.209c-0.248,0.139-0.451,0.33-0.611,0.572v5.201h-1.609v-7.169
			H191.999z"/>
		<path fill="#191818" d="M199.55,437.438v1.742h1.285v1.193h-1.285v3.962c0,0.296,0.064,0.507,0.191,0.632
			c0.129,0.126,0.299,0.189,0.51,0.189c0.09,0,0.176-0.008,0.26-0.023s0.162-0.036,0.238-0.062l0.172,1.179
			c-0.137,0.075-0.301,0.134-0.49,0.176c-0.189,0.042-0.387,0.062-0.59,0.062c-0.592,0-1.055-0.173-1.391-0.52
			c-0.336-0.347-0.504-0.892-0.504-1.633v-3.962h-1.094v-1.193h1.094v-1.742H199.55z"/>
		<path fill="#191818" d="M204.661,446.488c-1.016,0-1.824-0.332-2.428-0.997c-0.604-0.664-0.904-1.518-0.904-2.56v-0.265
			c0-1.042,0.299-1.907,0.898-2.594c0.598-0.686,1.348-1.028,2.248-1.023c0.969,0,1.709,0.292,2.223,0.878
			c0.516,0.585,0.773,1.37,0.773,2.354v0.948h-4.473l-0.014,0.032c0.027,0.568,0.193,1.032,0.5,1.394
			c0.307,0.361,0.732,0.542,1.275,0.542c0.434,0,0.805-0.054,1.113-0.159c0.309-0.106,0.607-0.259,0.895-0.457l0.518,1.056
			c-0.27,0.239-0.627,0.441-1.074,0.605C205.767,446.406,205.249,446.488,204.661,446.488z M204.476,440.34
			c-0.396,0-0.723,0.157-0.98,0.474c-0.256,0.315-0.414,0.717-0.477,1.202l0.014,0.033h2.842v-0.166
			c0-0.454-0.115-0.825-0.348-1.112C205.294,440.484,204.944,440.34,204.476,440.34z"/>
		<path fill="#191818" d="M211.661,440.631l-0.688-0.026c-0.314,0-0.576,0.066-0.785,0.199c-0.211,0.132-0.373,0.32-0.488,0.562
			v4.982h-1.609v-7.169h1.471l0.105,1.041c0.182-0.367,0.414-0.654,0.699-0.861c0.285-0.208,0.613-0.312,0.984-0.312
			c0.098,0,0.188,0.008,0.271,0.022c0.084,0.016,0.16,0.035,0.232,0.057L211.661,440.631z"/>
		<path fill="#191818" d="M216.423,446.349c-0.057-0.181-0.105-0.357-0.143-0.53c-0.037-0.172-0.062-0.345-0.076-0.517
			c-0.221,0.336-0.51,0.617-0.871,0.845c-0.359,0.228-0.762,0.341-1.209,0.341c-0.746,0-1.318-0.191-1.719-0.576
			c-0.4-0.384-0.6-0.912-0.6-1.583c0-0.693,0.274-1.233,0.822-1.62c0.547-0.387,1.318-0.58,2.31-0.58h1.252V441.5
			c0-0.375-0.109-0.669-0.33-0.881c-0.221-0.212-0.537-0.318-0.947-0.318c-0.367,0-0.658,0.088-0.875,0.265
			c-0.217,0.177-0.324,0.404-0.324,0.683h-1.551l-0.006-0.04c-0.031-0.564,0.221-1.066,0.758-1.504
			c0.537-0.436,1.236-0.655,2.098-0.655c0.834,0,1.508,0.212,2.02,0.636c0.514,0.424,0.77,1.033,0.77,1.828v3.188
			c0,0.296,0.02,0.579,0.059,0.851c0.041,0.273,0.104,0.538,0.193,0.799H216.423z M214.448,445.197c0.406,0,0.773-0.102,1.098-0.306
			c0.324-0.203,0.539-0.435,0.645-0.695v-1.06h-1.277c-0.469,0-0.836,0.115-1.1,0.348c-0.266,0.231-0.398,0.505-0.398,0.818
			c0,0.273,0.09,0.491,0.27,0.652C213.862,445.116,214.118,445.197,214.448,445.197z"/>
		<path fill="#191818" d="M221.774,445.197c0.393,0,0.725-0.115,0.994-0.347c0.268-0.23,0.402-0.52,0.402-0.866h1.459l0.014,0.04
			c0.021,0.671-0.252,1.25-0.818,1.735c-0.568,0.486-1.252,0.728-2.051,0.728c-1.057,0-1.865-0.34-2.428-1.02
			c-0.564-0.681-0.846-1.542-0.846-2.584v-0.232c0-1.037,0.281-1.898,0.846-2.58c0.563-0.683,1.371-1.023,2.428-1.023
			c0.861,0,1.56,0.25,2.096,0.752c0.537,0.501,0.797,1.139,0.779,1.911l-0.014,0.04h-1.465c0-0.394-0.129-0.727-0.387-1.001
			c-0.258-0.273-0.596-0.41-1.01-0.41c-0.605,0-1.033,0.219-1.285,0.658c-0.252,0.439-0.379,0.989-0.379,1.65v0.232
			c0,0.675,0.127,1.229,0.379,1.664C220.741,444.979,221.169,445.197,221.774,445.197z"/>
		<path fill="#191818" d="M227.257,437.438v1.742h1.285v1.193h-1.285v3.962c0,0.296,0.064,0.507,0.191,0.632
			c0.129,0.126,0.299,0.189,0.51,0.189c0.09,0,0.176-0.008,0.26-0.023c0.084-0.016,0.162-0.036,0.238-0.062l0.172,1.179
			c-0.137,0.075-0.301,0.134-0.49,0.176c-0.189,0.042-0.387,0.062-0.59,0.062c-0.592,0-1.055-0.173-1.391-0.52
			c-0.336-0.347-0.504-0.892-0.504-1.633v-3.962h-1.094v-1.193h1.094v-1.742H227.257z"/>
		<path fill="#191818" d="M231.011,437.425h-1.609v-1.411h1.609V437.425z M231.011,446.349h-1.609v-7.169h1.609V446.349z"/>
		<path fill="#191818" d="M234.624,443.924l0.119,0.583h0.041l0.125-0.583l1.426-4.744h1.662l-2.545,7.169h-1.397l-2.559-7.169
			h1.664L234.624,443.924z"/>
		<path fill="#191818" d="M241.313,446.488c-1.016,0-1.824-0.332-2.428-0.997c-0.604-0.664-0.904-1.518-0.904-2.56v-0.265
			c0-1.042,0.299-1.907,0.899-2.594c0.598-0.686,1.348-1.028,2.248-1.023c0.969,0,1.709,0.292,2.223,0.878
			c0.516,0.585,0.773,1.37,0.773,2.354v0.948h-4.473l-0.014,0.032c0.027,0.568,0.193,1.032,0.5,1.394
			c0.307,0.361,0.732,0.542,1.275,0.542c0.433,0,0.805-0.054,1.113-0.159c0.309-0.106,0.607-0.259,0.895-0.457l0.517,1.056
			c-0.27,0.239-0.627,0.441-1.074,0.605C242.419,446.406,241.901,446.488,241.313,446.488z M241.128,440.34
			c-0.397,0-0.723,0.157-0.981,0.474c-0.256,0.315-0.414,0.717-0.476,1.202l0.014,0.033h2.842v-0.166
			c0-0.454-0.115-0.825-0.348-1.112C241.946,440.484,241.597,440.34,241.128,440.34z"/>
		<path fill="#191818" d="M194.712,460.874c-0.256,0.367-0.678,0.699-1.262,0.998c-0.586,0.298-1.338,0.446-2.256,0.446
			c-1.162,0-2.119-0.367-2.869-1.103c-0.75-0.735-1.127-1.686-1.127-2.853v-2.014c0-1.166,0.355-2.117,1.064-2.853
			c0.709-0.735,1.623-1.103,2.746-1.103c1.135,0,2.018,0.279,2.646,0.838s0.951,1.286,0.965,2.183l-0.014,0.04h-1.523
			c-0.037-0.53-0.225-0.957-0.566-1.282c-0.344-0.324-0.84-0.486-1.488-0.486c-0.666,0-1.205,0.249-1.613,0.748
			c-0.408,0.498-0.613,1.132-0.613,1.899v2.025c0,0.776,0.223,1.415,0.666,1.916c0.443,0.501,1.02,0.752,1.727,0.752
			c0.504,0,0.912-0.059,1.225-0.176c0.314-0.116,0.541-0.254,0.684-0.413v-1.956h-1.916v-1.205h3.525V460.874z"/>
		<path fill="#191818" d="M199.374,456.461l-0.689-0.026c-0.314,0-0.576,0.066-0.785,0.199c-0.209,0.132-0.371,0.32-0.486,0.562
			v4.982h-1.611v-7.169h1.471l0.107,1.041c0.18-0.367,0.414-0.654,0.699-0.861c0.285-0.208,0.611-0.311,0.982-0.311
			c0.098,0,0.188,0.008,0.271,0.022c0.084,0.016,0.162,0.035,0.232,0.057L199.374,456.461z"/>
		<path fill="#191818" d="M204.134,462.179c-0.057-0.181-0.105-0.357-0.143-0.53c-0.037-0.172-0.062-0.345-0.076-0.517
			c-0.221,0.336-0.51,0.617-0.871,0.845c-0.359,0.228-0.762,0.341-1.209,0.341c-0.746,0-1.318-0.191-1.719-0.576
			c-0.4-0.384-0.6-0.912-0.6-1.583c0-0.693,0.273-1.233,0.822-1.62c0.547-0.387,1.318-0.58,2.311-0.58h1.252v-0.629
			c0-0.375-0.109-0.669-0.33-0.881c-0.221-0.212-0.537-0.318-0.947-0.318c-0.367,0-0.658,0.088-0.875,0.265
			c-0.217,0.177-0.324,0.404-0.324,0.683h-1.551l-0.006-0.04c-0.031-0.564,0.221-1.066,0.758-1.504
			c0.537-0.437,1.236-0.655,2.098-0.655c0.834,0,1.508,0.212,2.02,0.636c0.514,0.424,0.77,1.033,0.77,1.828v3.188
			c0,0.296,0.02,0.579,0.059,0.851c0.041,0.272,0.104,0.538,0.193,0.799H204.134z M202.159,461.027c0.406,0,0.773-0.102,1.098-0.306
			c0.324-0.203,0.539-0.435,0.645-0.695v-1.06h-1.277c-0.469,0-0.836,0.115-1.1,0.348c-0.266,0.231-0.399,0.505-0.399,0.818
			c0,0.273,0.09,0.491,0.27,0.652C201.573,460.946,201.829,461.027,202.159,461.027z"/>
		<path fill="#191818" d="M212.804,458.833c0,1.042-0.244,1.884-0.734,2.524c-0.49,0.641-1.174,0.96-2.049,0.96
			c-0.406,0-0.766-0.072-1.078-0.218c-0.314-0.146-0.584-0.36-0.809-0.643v3.478h-1.611v-9.925h1.359l0.158,0.901
			c0.23-0.336,0.508-0.592,0.832-0.769c0.324-0.177,0.701-0.265,1.129-0.265c0.885,0,1.572,0.35,2.065,1.05
			c0.492,0.7,0.738,1.622,0.738,2.766V458.833z M211.2,458.691c0-0.732-0.137-1.331-0.414-1.796
			c-0.275-0.466-0.688-0.698-1.234-0.698c-0.336,0-0.621,0.071-0.855,0.215c-0.234,0.144-0.422,0.343-0.562,0.599v3.235
			c0.141,0.252,0.328,0.444,0.562,0.579c0.234,0.135,0.523,0.202,0.867,0.202c0.549,0,0.959-0.202,1.231-0.605
			c0.271-0.404,0.406-0.935,0.406-1.592V458.691z"/>
		<path fill="#191818" d="M215.12,455.938c0.238-0.335,0.529-0.596,0.871-0.781c0.342-0.185,0.721-0.278,1.137-0.278
			c0.76,0,1.352,0.239,1.779,0.719c0.426,0.48,0.639,1.218,0.639,2.216v4.366h-1.609V457.8c0-0.565-0.113-0.975-0.338-1.226
			c-0.227-0.252-0.564-0.378-1.014-0.378c-0.314,0-0.596,0.065-0.846,0.195c-0.25,0.13-0.455,0.31-0.619,0.54v5.247h-1.609v-10.335
			h1.609V455.938z"/>
		<path fill="#191818" d="M222.253,453.255h-1.609v-1.411h1.609V453.255z M222.253,462.179h-1.609v-7.169h1.609V462.179z"/>
		<path fill="#191818" d="M226.339,461.027c0.393,0,0.725-0.115,0.994-0.347c0.268-0.23,0.402-0.52,0.402-0.866h1.459l0.014,0.04
			c0.021,0.671-0.252,1.25-0.818,1.735c-0.568,0.486-1.252,0.728-2.051,0.728c-1.057,0-1.865-0.34-2.428-1.02
			c-0.565-0.681-0.846-1.542-0.846-2.584v-0.233c0-1.037,0.281-1.897,0.846-2.58c0.562-0.683,1.371-1.023,2.428-1.023
			c0.861,0,1.561,0.25,2.096,0.752c0.537,0.501,0.797,1.139,0.779,1.911l-0.014,0.04h-1.465c0-0.393-0.129-0.727-0.387-1.001
			c-0.258-0.273-0.596-0.41-1.01-0.41c-0.605,0-1.033,0.219-1.285,0.658c-0.252,0.439-0.379,0.989-0.379,1.65v0.231
			c0,0.675,0.127,1.229,0.379,1.664C225.306,460.809,225.733,461.027,226.339,461.027z"/>
	</g>
</g>
<g id="STUFF" pointer-events="none">
	<text transform="matrix(1 0 0 1 187.2028 231.1725)" font-family="'Arial'" font-size="14">Ethiopia</text>
	<text transform="matrix(1 0 0 1 23.2031 231.1724)" font-family="'Arial'" font-size="14">Congo</text>
	<text transform="matrix(1 0 0 1 102.8212 225.8381)" enable-background="new    "><tspan x="0" y="0" font-family="'Arial'" font-size="10">Democratic</tspan><tspan x="-15.334" y="10" font-family="'Arial'" font-size="10">Republic of Congo</tspan></text>
	<text transform="matrix(1 0 0 1 102.8767 153.107)" fill="#790700" font-family="'Arial'" font-size="14">Burundi</text>
	<text transform="matrix(1 0 0 1 180.3801 153.107)" fill="#790700" font-family="'Arial'" font-size="14">Cameroon</text>
	<text transform="matrix(1 0 0 1 3.2131 153.107)" fill="#790700" font-family="'Arial'" font-size="14">Burkina Faso</text>
	<text transform="matrix(1 0 0 1 33.0049 309.2385)" font-family="'Arial'" font-size="14">Mali</text>
	<text transform="matrix(0.8957 0 0 1 104.7162 309.6174)" font-family="'Arial'" font-size="14">Mauritius</text>
	<text transform="matrix(1 0 0 1 25.6256 385.9691)" font-family="'Arial'" font-size="14">Nigeria</text>
	<g>
		<text transform="matrix(1 0 0 1 105.9926 381.9691)"><tspan x="0" y="0" font-family="'Arial'" font-size="10">São Tomé</tspan><tspan x="-5.354" y="10" font-family="'Arial'" font-size="10">and Príncipe</tspan></text>
	</g>
	<text transform="matrix(1 0 0 1 185.2028 307.9027)" font-family="'Arial'" font-size="14">Morocco</text>
	<text transform="matrix(1 0 0 1 196.4756 387.3033)" font-family="'Arial'" font-size="14">Sudan</text>
	<text transform="matrix(1 0 0 1 25.8821 465.3694)" font-family="'Arial'" font-size="14">Tunisia</text>
	<path fill="#790700" d="M214.586,111.058c0,2.761-2.239,5-5.001,5c-2.761,0-4.999-2.239-4.999-5c0-2.762,2.238-5,4.999-5
		C212.347,106.058,214.586,108.297,214.586,111.058z"/>
	<path opacity="0.8" fill="#D6D6D6" enable-background="new    " d="M220.651,111.058c0,2.762-2.238,5-5.001,5
		c-2.761,0-4.999-2.238-4.999-5c0-2.762,2.238-5,4.999-5C218.413,106.058,220.651,108.297,220.651,111.058z"/>
	<path fill="#790700" d="M130.379,111.058c0,2.761-2.239,5-5.001,5c-2.761,0-4.999-2.239-4.999-5c0-2.762,2.238-5,4.999-5
		C128.14,106.058,130.379,108.297,130.379,111.058z"/>
	<path opacity="0.8" fill="#D6D6D6" enable-background="new    " d="M136.445,111.058c0,2.762-2.238,5-5.001,5
		c-2.761,0-4.999-2.238-4.999-5c0-2.762,2.238-5,4.999-5C134.206,106.058,136.445,108.297,136.445,111.058z"/>
	<path fill="#790700" d="M45.907,111.058c0,2.761-2.239,5-5.001,5c-2.761,0-4.999-2.239-4.999-5c0-2.762,2.238-5,4.999-5
		C43.669,106.058,45.907,108.297,45.907,111.058z"/>
	<path opacity="0.8" fill="#D6D6D6" enable-background="new    " d="M51.973,111.058c0,2.762-2.238,5-5.001,5
		c-2.761,0-4.999-2.238-4.999-5c0-2.762,2.238-5,4.999-5C49.735,106.058,51.973,108.297,51.973,111.058z"/>
	<path fill="#790700" d="M130.379,188.883c0,2.761-2.239,5-5.001,5c-2.761,0-4.999-2.239-4.999-5c0-2.762,2.238-5,4.999-5
		C128.14,183.883,130.379,186.122,130.379,188.883z"/>
	<path opacity="0.8" fill="#D6D6D6" enable-background="new    " d="M136.444,188.883c0,2.762-2.238,5-5.001,5
		c-2.761,0-4.999-2.238-4.999-5c0-2.762,2.238-5,4.999-5C134.206,183.883,136.444,186.122,136.444,188.883z"/>
	<path fill="#790700" d="M46.544,188.883c0,2.761-2.239,5-5.001,5c-2.761,0-4.999-2.239-4.999-5c0-2.762,2.238-5,4.999-5
		C44.305,183.883,46.544,186.122,46.544,188.883z"/>
	<path opacity="0.8" fill="#D6D6D6" enable-background="new    " d="M52.61,188.883c0,2.762-2.238,5-5.001,5
		c-2.761,0-4.999-2.238-4.999-5c0-2.762,2.238-5,4.999-5C50.371,183.883,52.61,186.122,52.61,188.883z"/>
	<path fill="#790700" d="M214.618,188.883c0,2.761-2.239,5-5.001,5c-2.761,0-4.999-2.239-4.999-5c0-2.762,2.238-5,4.999-5
		C212.379,183.883,214.618,186.122,214.618,188.883z"/>
	<path opacity="0.8" fill="#D6D6D6" enable-background="new    " d="M220.684,188.883c0,2.762-2.238,5-5.001,5
		c-2.761,0-4.999-2.238-4.999-5c0-2.762,2.238-5,4.999-5C218.445,183.883,220.684,186.122,220.684,188.883z"/>
	<path fill="#790700" d="M129.978,266.948c0,2.761-2.239,5-5.001,5c-2.761,0-4.999-2.239-4.999-5c0-2.762,2.238-5,4.999-5
		C127.739,261.948,129.978,264.187,129.978,266.948z"/>
	<path opacity="0.8" fill="#D6D6D6" enable-background="new    " d="M136.043,266.948c0,2.762-2.238,5-5.001,5
		c-2.761,0-4.999-2.238-4.999-5c0-2.762,2.238-5,4.999-5C133.805,261.948,136.043,264.187,136.043,266.948z"/>
	<path fill="#790700" d="M46.15,266.948c0,2.761-2.239,5-5.001,5c-2.761,0-4.999-2.239-4.999-5c0-2.762,2.238-5,4.999-5
		C43.911,261.948,46.15,264.187,46.15,266.948z"/>
	<path opacity="0.8" fill="#D6D6D6" enable-background="new    " d="M52.216,266.948c0,2.762-2.238,5-5.001,5
		c-2.761,0-4.999-2.238-4.999-5c0-2.762,2.238-5,4.999-5C49.977,261.948,52.216,264.187,52.216,266.948z"/>
	<path fill="#790700" d="M130.379,345.014c0,2.761-2.239,5-5.001,5c-2.761,0-4.999-2.239-4.999-5c0-2.762,2.238-5,4.999-5
		C128.14,340.014,130.379,342.253,130.379,345.014z"/>
	<path opacity="0.8" fill="#D6D6D6" enable-background="new    " d="M136.444,345.014c0,2.762-2.238,5-5.001,5
		c-2.761,0-4.999-2.238-4.999-5s2.238-5,4.999-5C134.206,340.014,136.444,342.253,136.444,345.014z"/>
	<path fill="#790700" d="M46.007,345.014c0,2.761-2.239,5-5.001,5c-2.761,0-4.999-2.239-4.999-5c0-2.762,2.238-5,4.999-5
		C43.768,340.014,46.007,342.253,46.007,345.014z"/>
	<path opacity="0.8" fill="#D6D6D6" enable-background="new    " d="M52.073,345.014c0,2.762-2.238,5-5.001,5
		c-2.761,0-4.999-2.238-4.999-5s2.238-5,4.999-5C49.834,340.014,52.073,342.253,52.073,345.014z"/>
	<path fill="#790700" d="M215.725,266.948c0,2.761-2.239,5-5.001,5c-2.761,0-4.999-2.239-4.999-5c0-2.762,2.238-5,4.999-5
		C213.487,261.948,215.725,264.187,215.725,266.948z"/>
	<path opacity="0.8" fill="#D6D6D6" enable-background="new    " d="M221.791,266.948c0,2.762-2.238,5-5.001,5
		c-2.761,0-4.999-2.238-4.999-5c0-2.762,2.238-5,4.999-5C219.553,261.948,221.791,264.187,221.791,266.948z"/>
	<path fill="#790700" d="M214.358,345.014c0,2.761-2.239,5-5.001,5c-2.761,0-4.999-2.239-4.999-5c0-2.762,2.238-5,4.999-5
		C212.119,340.014,214.358,342.253,214.358,345.014z"/>
	<path opacity="0.8" fill="#D6D6D6" enable-background="new    " d="M220.424,345.014c0,2.762-2.238,5-5.001,5
		c-2.761,0-4.999-2.238-4.999-5s2.238-5,4.999-5C218.185,340.014,220.424,342.253,220.424,345.014z"/>
	<path fill="#790700" d="M45.907,423.079c0,2.761-2.239,5-5.001,5c-2.761,0-4.999-2.239-4.999-5c0-2.762,2.238-5,4.999-5
		C43.669,418.079,45.907,420.318,45.907,423.079z"/>
	<path opacity="0.8" fill="#D6D6D6" enable-background="new    " d="M51.973,423.079c0,2.762-2.238,5-5.001,5
		c-2.761,0-4.999-2.238-4.999-5s2.238-5,4.999-5C49.735,418.079,51.973,420.318,51.973,423.079z"/>
</g>
<g id="TOOLTIP">
	<g id="T01" opacity="0">
		<polygon id="AREA_3_" points="89.37,58.034 -0.27,58.034 -0.27,100.034 32.297,100.034 32.297,100.034 43.87,112.211 
			55.443,100.034 55.443,100.034 89.37,100.034 		"/>
		<text transform="matrix(1 0 0 1 8.1091 75.3047)" fill="#FFFFFF" font-family="'PlayfairDisplay-Bold'" font-size="12">Burkina Faso</text>
		<text transform="matrix(1 0 0 1 6.6873 93.1187)" fill="#FFFFFF" font-family="'Roboto-Light'" font-size="10">$0.10</text>
		<text transform="matrix(1.047 0 0 1 57.3308 93.1187)" fill="#FFFFFF" font-family="'Roboto-Light'" font-size="10">$0.11</text>
		<path fill="#FFFFFF" d="M40.74,92.134h0.041l0.26-0.868l2.01-5.544h0.848l-2.81,7.396h-0.656l-2.816-7.396h0.848l2.037,5.544
			L40.74,92.134z"/>
		<path fill="#FFFFFF" d="M49.247,90.33c-0.285-0.26-0.799-0.472-1.542-0.636c-0.884-0.191-1.537-0.444-1.958-0.759
			c-0.421-0.315-0.632-0.759-0.632-1.333c0-0.565,0.238-1.043,0.714-1.432c0.476-0.39,1.106-0.584,1.89-0.584
			c0.834,0,1.495,0.206,1.982,0.619c0.488,0.413,0.72,0.929,0.697,1.548l-0.014,0.041h-0.759c0-0.406-0.172-0.759-0.516-1.06
			c-0.344-0.301-0.808-0.451-1.391-0.451c-0.597,0-1.045,0.129-1.343,0.386c-0.298,0.257-0.448,0.56-0.448,0.906
			c0,0.342,0.129,0.625,0.386,0.848c0.257,0.223,0.771,0.419,1.542,0.588c0.879,0.196,1.538,0.464,1.976,0.803
			c0.438,0.339,0.656,0.801,0.656,1.384c0,0.615-0.25,1.113-0.749,1.494c-0.499,0.38-1.159,0.571-1.979,0.571
			c-0.898,0-1.603-0.214-2.116-0.643c-0.513-0.428-0.755-0.939-0.728-1.531l0.014-0.041h0.752c0.032,0.533,0.25,0.92,0.653,1.162
			c0.403,0.242,0.878,0.362,1.425,0.362c0.592,0,1.06-0.13,1.401-0.39c0.342-0.26,0.513-0.574,0.513-0.943
			C49.675,90.893,49.532,90.589,49.247,90.33z"/>
	</g>
	<g id="T02" opacity="0">
		<polygon id="AREA_1_" points="173.827,58.034 84.188,58.034 84.188,100.034 116.754,100.034 116.754,100.034 128.327,112.211 
			139.901,100.034 139.901,100.034 173.827,100.034 		"/>
		<text transform="matrix(1 0 0 1 92.5667 75.3047)" fill="#FFFFFF" font-family="'PlayfairDisplay-Bold'" font-size="12">Burundi</text>
		<text transform="matrix(1 0 0 1 91.1448 93.1187)" fill="#FFFFFF" font-family="'Roboto-Light'" font-size="10">$0.05</text>
		<text transform="matrix(1.047 0 0 1 141.7883 93.1187)" fill="#FFFFFF" font-family="'Roboto-Light'" font-size="10">$0.07</text>
		<path fill="#FFFFFF" d="M125.197,92.134h0.041l0.26-0.868l2.01-5.544h0.848l-2.81,7.396h-0.656l-2.816-7.396h0.848l2.037,5.544
			L125.197,92.134z"/>
		<path fill="#FFFFFF" d="M133.705,90.33c-0.285-0.26-0.799-0.472-1.542-0.636c-0.884-0.191-1.537-0.444-1.958-0.759
			c-0.421-0.315-0.632-0.759-0.632-1.333c0-0.565,0.238-1.043,0.714-1.432c0.476-0.39,1.106-0.584,1.89-0.584
			c0.834,0,1.495,0.206,1.982,0.619c0.488,0.413,0.72,0.929,0.697,1.548l-0.014,0.041h-0.759c0-0.406-0.172-0.759-0.516-1.06
			c-0.344-0.301-0.808-0.451-1.391-0.451c-0.597,0-1.045,0.129-1.343,0.386c-0.298,0.257-0.448,0.56-0.448,0.906
			c0,0.342,0.129,0.625,0.386,0.848c0.257,0.223,0.771,0.419,1.541,0.588c0.879,0.196,1.538,0.464,1.976,0.803
			c0.438,0.339,0.656,0.801,0.656,1.384c0,0.615-0.25,1.113-0.749,1.494c-0.499,0.38-1.159,0.571-1.979,0.571
			c-0.898,0-1.603-0.214-2.116-0.643c-0.513-0.428-0.755-0.939-0.728-1.531l0.014-0.041h0.752c0.032,0.533,0.249,0.92,0.653,1.162
			s0.878,0.362,1.425,0.362c0.592,0,1.06-0.13,1.401-0.39c0.342-0.26,0.513-0.574,0.513-0.943
			C134.132,90.893,133.989,90.589,133.705,90.33z"/>
	</g>
	<g id="T03" opacity="0">
		<polygon id="AREA_2_" points="258.017,58.034 168.377,58.034 168.377,100.034 200.944,100.034 200.944,100.034 212.517,112.211 
			224.09,100.034 224.09,100.034 258.017,100.034 		"/>
		<text transform="matrix(1 0 0 1 176.756 75.3047)" fill="#FFFFFF" font-family="'PlayfairDisplay-Bold'" font-size="12">Cameroon</text>
		<text transform="matrix(1 0 0 1 175.3342 93.1187)" fill="#FFFFFF" font-family="'Roboto-Light'" font-size="10">$0.08</text>
		<text transform="matrix(1.047 0 0 1 225.9777 93.1187)" fill="#FFFFFF" font-family="'Roboto-Light'" font-size="10">$0.15</text>
		<path fill="#FFFFFF" d="M209.387,92.134h0.041l0.26-0.868l2.01-5.544h0.848l-2.81,7.396h-0.656l-2.816-7.396h0.848l2.037,5.544
			L209.387,92.134z"/>
		<path fill="#FFFFFF" d="M217.894,90.33c-0.285-0.26-0.799-0.472-1.542-0.636c-0.884-0.191-1.537-0.444-1.958-0.759
			c-0.421-0.315-0.632-0.759-0.632-1.333c0-0.565,0.238-1.043,0.714-1.432c0.476-0.39,1.106-0.584,1.89-0.584
			c0.834,0,1.495,0.206,1.982,0.619c0.488,0.413,0.72,0.929,0.697,1.548l-0.014,0.041h-0.759c0-0.406-0.172-0.759-0.516-1.06
			c-0.344-0.301-0.808-0.451-1.391-0.451c-0.597,0-1.045,0.129-1.343,0.386c-0.298,0.257-0.448,0.56-0.448,0.906
			c0,0.342,0.129,0.625,0.386,0.848c0.257,0.223,0.771,0.419,1.541,0.588c0.879,0.196,1.538,0.464,1.976,0.803
			c0.438,0.339,0.656,0.801,0.656,1.384c0,0.615-0.25,1.113-0.749,1.494c-0.499,0.38-1.159,0.571-1.979,0.571
			c-0.898,0-1.603-0.214-2.116-0.643c-0.513-0.428-0.755-0.939-0.728-1.531l0.014-0.041h0.752c0.032,0.533,0.249,0.92,0.653,1.162
			s0.878,0.362,1.425,0.362c0.592,0,1.06-0.13,1.401-0.39c0.342-0.26,0.513-0.574,0.513-0.943
			C218.321,90.893,218.179,90.589,217.894,90.33z"/>
	</g>
	<g id="T04" opacity="0">
		<polygon id="AREA_4_" points="89.734,134.656 0.095,134.656 0.095,176.656 32.661,176.656 32.661,176.656 44.234,188.833 
			55.808,176.656 55.808,176.656 89.734,176.656 		"/>
		<text transform="matrix(1 0 0 1 8.4737 151.9267)" fill="#FFFFFF" font-family="'PlayfairDisplay-Bold'" font-size="12">Congo</text>
		<text transform="matrix(1 0 0 1 7.0519 169.7407)" fill="#FFFFFF" font-family="'Roboto-Light'" font-size="10">$0.10</text>
		<text transform="matrix(1.047 0 0 1 57.6954 169.7407)" fill="#FFFFFF" font-family="'Roboto-Light'" font-size="10">$0.25</text>
		<path fill="#FFFFFF" d="M41.105,168.756h0.041l0.26-0.868l2.01-5.544h0.848l-2.81,7.396h-0.656l-2.816-7.396h0.848l2.037,5.544
			L41.105,168.756z"/>
		<path fill="#FFFFFF" d="M49.612,166.952c-0.285-0.26-0.799-0.472-1.542-0.636c-0.884-0.191-1.537-0.444-1.958-0.759
			c-0.421-0.314-0.632-0.759-0.632-1.333c0-0.565,0.238-1.042,0.714-1.432c0.476-0.39,1.106-0.585,1.89-0.585
			c0.834,0,1.495,0.206,1.982,0.619c0.488,0.413,0.72,0.929,0.697,1.548l-0.014,0.041h-0.759c0-0.406-0.172-0.759-0.516-1.06
			s-0.808-0.451-1.391-0.451c-0.597,0-1.045,0.129-1.343,0.386c-0.298,0.257-0.448,0.56-0.448,0.906
			c0,0.342,0.129,0.625,0.386,0.848c0.257,0.223,0.771,0.419,1.542,0.588c0.879,0.196,1.538,0.464,1.976,0.803
			c0.438,0.339,0.656,0.801,0.656,1.384c0,0.615-0.25,1.113-0.749,1.494c-0.499,0.38-1.159,0.571-1.979,0.571
			c-0.898,0-1.603-0.214-2.116-0.643c-0.513-0.428-0.755-0.939-0.728-1.531l0.014-0.041h0.752c0.032,0.533,0.25,0.92,0.653,1.162
			c0.403,0.242,0.878,0.362,1.425,0.362c0.592,0,1.06-0.13,1.401-0.39c0.342-0.26,0.513-0.574,0.513-0.943
			C50.039,167.515,49.897,167.211,49.612,166.952z"/>
	</g>
	<g id="T05" opacity="0">
		<polygon id="AREA_5_" points="173.827,134.656 84.187,134.656 84.187,176.656 116.754,176.656 116.754,176.656 128.327,188.833 
			139.9,176.656 139.9,176.656 173.827,176.656 		"/>
		<text transform="matrix(1 0 0 1 92.5661 151.9267)" fill="#FFFFFF" font-family="'PlayfairDisplay-Bold'" font-size="12">R. Congo</text>
		<text transform="matrix(1 0 0 1 91.1443 169.7407)" fill="#FFFFFF" font-family="'Roboto-Light'" font-size="10">$0.05</text>
		<text transform="matrix(1.047 0 0 1 141.7878 169.7407)" fill="#FFFFFF" font-family="'Roboto-Light'" font-size="10">$0.05</text>
		<path fill="#FFFFFF" d="M125.197,168.756h0.041l0.26-0.868l2.01-5.544h0.848l-2.81,7.396h-0.656l-2.816-7.396h0.848l2.037,5.544
			L125.197,168.756z"/>
		<path fill="#FFFFFF" d="M133.704,166.952c-0.285-0.26-0.799-0.472-1.542-0.636c-0.884-0.191-1.537-0.444-1.958-0.759
			c-0.421-0.314-0.632-0.759-0.632-1.333c0-0.565,0.238-1.042,0.714-1.432c0.476-0.39,1.106-0.585,1.89-0.585
			c0.834,0,1.495,0.206,1.982,0.619c0.488,0.413,0.72,0.929,0.697,1.548l-0.014,0.041h-0.759c0-0.406-0.172-0.759-0.516-1.06
			c-0.344-0.301-0.808-0.451-1.391-0.451c-0.597,0-1.045,0.129-1.343,0.386c-0.298,0.257-0.448,0.56-0.448,0.906
			c0,0.342,0.129,0.625,0.386,0.848c0.257,0.223,0.771,0.419,1.541,0.588c0.879,0.196,1.538,0.464,1.976,0.803
			c0.438,0.339,0.656,0.801,0.656,1.384c0,0.615-0.25,1.113-0.749,1.494c-0.499,0.38-1.159,0.571-1.979,0.571
			c-0.898,0-1.603-0.214-2.116-0.643c-0.513-0.428-0.755-0.939-0.728-1.531l0.014-0.041h0.752c0.032,0.533,0.249,0.92,0.653,1.162
			s0.878,0.362,1.425,0.362c0.592,0,1.06-0.13,1.401-0.39c0.342-0.26,0.513-0.574,0.513-0.943
			C134.132,167.515,133.989,167.211,133.704,166.952z"/>
	</g>
	<g id="T06" opacity="0">
		<polygon id="AREA_6_" points="258.381,134.656 168.742,134.656 168.742,176.656 201.308,176.656 201.308,176.656 212.881,188.833 
			224.455,176.656 224.455,176.656 258.381,176.656 		"/>
		<text transform="matrix(1 0 0 1 177.1207 151.9267)" fill="#FFFFFF" font-family="'PlayfairDisplay-Bold'" font-size="12">Ethiopia</text>
		<text transform="matrix(1 0 0 1 175.6988 169.7407)" fill="#FFFFFF" font-family="'Roboto-Light'" font-size="10">$0.05</text>
		<text transform="matrix(1.047 0 0 1 226.3423 169.7407)" fill="#FFFFFF" font-family="'Roboto-Light'" font-size="10">$0.05</text>
		<path fill="#FFFFFF" d="M209.751,168.756h0.041l0.26-0.868l2.01-5.544h0.848l-2.81,7.396h-0.656l-2.816-7.396h0.848l2.037,5.544
			L209.751,168.756z"/>
		<path fill="#FFFFFF" d="M218.259,166.952c-0.285-0.26-0.799-0.472-1.542-0.636c-0.884-0.191-1.537-0.444-1.958-0.759
			c-0.421-0.314-0.632-0.759-0.632-1.333c0-0.565,0.238-1.042,0.714-1.432c0.476-0.39,1.106-0.585,1.89-0.585
			c0.834,0,1.495,0.206,1.982,0.619s0.72,0.929,0.697,1.548l-0.014,0.041h-0.759c0-0.406-0.172-0.759-0.516-1.06
			c-0.344-0.301-0.808-0.451-1.391-0.451c-0.597,0-1.045,0.129-1.343,0.386c-0.298,0.257-0.448,0.56-0.448,0.906
			c0,0.342,0.129,0.625,0.386,0.848c0.257,0.223,0.771,0.419,1.542,0.588c0.879,0.196,1.538,0.464,1.976,0.803
			c0.438,0.339,0.656,0.801,0.656,1.384c0,0.615-0.25,1.113-0.749,1.494c-0.499,0.38-1.159,0.571-1.979,0.571
			c-0.898,0-1.603-0.214-2.116-0.643c-0.513-0.428-0.755-0.939-0.728-1.531l0.014-0.041h0.752c0.032,0.533,0.249,0.92,0.653,1.162
			c0.403,0.242,0.878,0.362,1.425,0.362c0.592,0,1.06-0.13,1.401-0.39c0.342-0.26,0.513-0.574,0.513-0.943
			C218.686,167.515,218.543,167.211,218.259,166.952z"/>
	</g>
	<g id="T07" opacity="0">
		<polygon id="AREA_7_" points="90.099,212.772 0.459,212.772 0.459,254.772 33.026,254.772 33.026,254.772 44.599,266.948 
			56.172,254.772 56.172,254.772 90.099,254.772 		"/>
		<text transform="matrix(1 0 0 1 8.8384 230.0426)" fill="#FFFFFF" font-family="'PlayfairDisplay-Bold'" font-size="12">Mali</text>
		<text transform="matrix(1 0 0 1 7.4165 247.8566)" fill="#FFFFFF" font-family="'Roboto-Light'" font-size="10">$0.07</text>
		<text transform="matrix(1.047 0 0 1 58.0601 247.8566)" fill="#FFFFFF" font-family="'Roboto-Light'" font-size="10">$0.15</text>
		<path fill="#FFFFFF" d="M41.469,246.872h0.041l0.26-0.868l2.01-5.544h0.848l-2.81,7.396h-0.656l-2.816-7.396h0.848l2.037,5.544
			L41.469,246.872z"/>
		<path fill="#FFFFFF" d="M49.976,245.068c-0.285-0.26-0.799-0.472-1.542-0.636c-0.884-0.191-1.537-0.444-1.958-0.759
			c-0.421-0.314-0.632-0.759-0.632-1.333c0-0.565,0.238-1.042,0.714-1.432c0.476-0.39,1.106-0.585,1.89-0.585
			c0.834,0,1.495,0.206,1.982,0.619c0.488,0.413,0.72,0.929,0.697,1.548l-0.014,0.041h-0.759c0-0.406-0.172-0.759-0.516-1.06
			s-0.808-0.451-1.391-0.451c-0.597,0-1.045,0.129-1.343,0.386c-0.298,0.257-0.448,0.56-0.448,0.906
			c0,0.342,0.129,0.625,0.386,0.848c0.257,0.223,0.771,0.419,1.542,0.588c0.879,0.196,1.538,0.464,1.976,0.803
			c0.438,0.339,0.656,0.801,0.656,1.384c0,0.615-0.25,1.113-0.749,1.494C49.97,247.81,49.31,248,48.49,248
			c-0.898,0-1.603-0.214-2.116-0.643c-0.513-0.428-0.755-0.939-0.728-1.531l0.014-0.041h0.752c0.032,0.533,0.25,0.92,0.653,1.162
			c0.403,0.242,0.878,0.362,1.425,0.362c0.592,0,1.06-0.13,1.401-0.39c0.342-0.26,0.513-0.574,0.513-0.943
			C50.404,245.631,50.261,245.327,49.976,245.068z"/>
	</g>
	<g id="T08" opacity="0">
		<polygon id="AREA_8_" points="173.248,212.772 83.608,212.772 83.608,254.772 116.175,254.772 116.175,254.772 127.748,266.948 
			139.321,254.772 139.321,254.772 173.248,254.772 		"/>
		<text transform="matrix(1 0 0 1 91.9871 230.0426)" fill="#FFFFFF" font-family="'PlayfairDisplay-Bold'" font-size="12">Mauritius</text>
		<text transform="matrix(1 0 0 1 90.5652 247.8566)" fill="#FFFFFF" font-family="'Roboto-Light'" font-size="10">FREE</text>
		<text transform="matrix(1.047 0 0 1 141.2088 247.8566)" fill="#FFFFFF" font-family="'Roboto-Light'" font-size="10">$0.31</text>
		<path fill="#FFFFFF" d="M124.618,246.872h0.041l0.26-0.868l2.01-5.544h0.848l-2.81,7.396h-0.656l-2.816-7.396h0.848l2.037,5.544
			L124.618,246.872z"/>
		<path fill="#FFFFFF" d="M133.125,245.068c-0.285-0.26-0.799-0.472-1.542-0.636c-0.884-0.191-1.537-0.444-1.958-0.759
			c-0.421-0.314-0.632-0.759-0.632-1.333c0-0.565,0.238-1.042,0.714-1.432c0.476-0.39,1.106-0.585,1.89-0.585
			c0.834,0,1.495,0.206,1.982,0.619c0.488,0.413,0.72,0.929,0.697,1.548l-0.014,0.041h-0.759c0-0.406-0.172-0.759-0.516-1.06
			c-0.344-0.301-0.808-0.451-1.391-0.451c-0.597,0-1.045,0.129-1.343,0.386c-0.298,0.257-0.448,0.56-0.448,0.906
			c0,0.342,0.129,0.625,0.386,0.848c0.257,0.223,0.771,0.419,1.541,0.588c0.879,0.196,1.538,0.464,1.976,0.803
			c0.438,0.339,0.656,0.801,0.656,1.384c0,0.615-0.25,1.113-0.749,1.494c-0.499,0.38-1.159,0.571-1.979,0.571
			c-0.898,0-1.603-0.214-2.116-0.643c-0.513-0.428-0.755-0.939-0.728-1.531l0.014-0.041h0.752c0.032,0.533,0.249,0.92,0.653,1.162
			s0.878,0.362,1.425,0.362c0.592,0,1.06-0.13,1.401-0.39c0.342-0.26,0.513-0.574,0.513-0.943
			C133.552,245.631,133.41,245.327,133.125,245.068z"/>
	</g>
	<g id="T09" opacity="0">
		<polygon id="AREA_9_" points="259.178,212.772 169.538,212.772 169.538,254.772 202.105,254.772 202.105,254.772 213.678,266.948 
			225.251,254.772 225.251,254.772 259.178,254.772 		"/>
		<text transform="matrix(1 0 0 1 177.9171 230.0426)" fill="#FFFFFF" font-family="'PlayfairDisplay-Bold'" font-size="12">Morocco</text>
		<text transform="matrix(1 0 0 1 176.4953 247.8566)" fill="#FFFFFF" font-family="'Roboto-Light'" font-size="10">FREE</text>
		<text transform="matrix(1.047 0 0 1 227.1388 247.8566)" fill="#FFFFFF" font-family="'Roboto-Light'" font-size="10">$0.33 </text>
		<path fill="#FFFFFF" d="M210.548,246.872h0.041l0.26-0.868l2.01-5.544h0.848l-2.81,7.396h-0.656l-2.816-7.396h0.848l2.037,5.544
			L210.548,246.872z"/>
		<path fill="#FFFFFF" d="M219.055,245.068c-0.285-0.26-0.799-0.472-1.542-0.636c-0.884-0.191-1.537-0.444-1.958-0.759
			c-0.421-0.314-0.632-0.759-0.632-1.333c0-0.565,0.238-1.042,0.714-1.432c0.476-0.39,1.106-0.585,1.89-0.585
			c0.834,0,1.495,0.206,1.982,0.619s0.72,0.929,0.697,1.548l-0.014,0.041h-0.759c0-0.406-0.172-0.759-0.516-1.06
			c-0.344-0.301-0.808-0.451-1.391-0.451c-0.597,0-1.045,0.129-1.343,0.386c-0.298,0.257-0.448,0.56-0.448,0.906
			c0,0.342,0.129,0.625,0.386,0.848c0.257,0.223,0.771,0.419,1.542,0.588c0.879,0.196,1.538,0.464,1.976,0.803
			c0.438,0.339,0.656,0.801,0.656,1.384c0,0.615-0.25,1.113-0.749,1.494c-0.499,0.38-1.159,0.571-1.979,0.571
			c-0.898,0-1.603-0.214-2.116-0.643c-0.513-0.428-0.755-0.939-0.728-1.531l0.014-0.041h0.752c0.032,0.533,0.249,0.92,0.653,1.162
			c0.403,0.242,0.878,0.362,1.425,0.362c0.592,0,1.06-0.13,1.401-0.39c0.342-0.26,0.513-0.574,0.513-0.943
			C219.483,245.631,219.34,245.327,219.055,245.068z"/>
	</g>
	<g id="T10" opacity="0">
		<polygon id="AREA_10_" points="90.099,291.404 0.459,291.404 0.459,333.404 33.026,333.404 33.026,333.404 44.599,345.581 
			56.172,333.404 56.172,333.404 90.099,333.404 		"/>
		<text transform="matrix(1 0 0 1 8.8384 308.6748)" fill="#FFFFFF" font-family="'PlayfairDisplay-Bold'" font-size="12">Nigeria</text>
		<text transform="matrix(1 0 0 1 7.4165 326.4888)" fill="#FFFFFF" font-family="'Roboto-Light'" font-size="10">$0.08</text>
		<text transform="matrix(1.047 0 0 1 58.0601 326.4888)" fill="#FFFFFF" font-family="'Roboto-Light'" font-size="10">$0.08</text>
		<path fill="#FFFFFF" d="M41.469,325.504h0.041l0.26-0.868l2.01-5.544h0.848l-2.81,7.396h-0.656l-2.816-7.396h0.848l2.037,5.544
			L41.469,325.504z"/>
		<path fill="#FFFFFF" d="M49.976,323.7c-0.285-0.26-0.799-0.472-1.542-0.636c-0.884-0.191-1.537-0.444-1.958-0.759
			c-0.421-0.314-0.632-0.759-0.632-1.333c0-0.565,0.238-1.043,0.714-1.432c0.476-0.39,1.106-0.585,1.89-0.585
			c0.834,0,1.495,0.206,1.982,0.619c0.488,0.413,0.72,0.929,0.697,1.548l-0.014,0.041h-0.759c0-0.406-0.172-0.759-0.516-1.06
			c-0.344-0.301-0.808-0.451-1.391-0.451c-0.597,0-1.045,0.129-1.343,0.386c-0.298,0.257-0.448,0.56-0.448,0.906
			c0,0.342,0.129,0.625,0.386,0.848c0.257,0.223,0.771,0.419,1.542,0.588c0.879,0.196,1.538,0.464,1.976,0.803
			c0.438,0.339,0.656,0.801,0.656,1.384c0,0.615-0.25,1.113-0.749,1.494c-0.499,0.38-1.159,0.571-1.979,0.571
			c-0.898,0-1.603-0.214-2.116-0.643c-0.513-0.428-0.755-0.939-0.728-1.531l0.014-0.041h0.752c0.032,0.533,0.25,0.92,0.653,1.162
			c0.403,0.242,0.878,0.362,1.425,0.362c0.592,0,1.06-0.13,1.401-0.39c0.342-0.26,0.513-0.574,0.513-0.943
			C50.404,324.263,50.261,323.96,49.976,323.7z"/>
	</g>
	<g id="T11" opacity="0">
		<polygon id="AREA_11_" points="174.797,291.404 85.158,291.404 85.158,333.404 117.724,333.404 117.724,333.404 129.297,345.581 
			140.871,333.404 140.871,333.404 174.797,333.404 		"/>
		<text transform="matrix(1 0 0 1 93.5366 308.6748)" fill="#FFFFFF" font-family="'PlayfairDisplay-Bold'" font-size="12">ST Príncipe</text>
		<text transform="matrix(1 0 0 1 92.1147 326.4888)" fill="#FFFFFF" font-family="'Roboto-Light'" font-size="10">$0.06</text>
		<text transform="matrix(1.047 0 0 1 142.7583 326.4888)" fill="#FFFFFF" font-family="'Roboto-Light'" font-size="10">$0.14</text>
		<path fill="#FFFFFF" d="M126.167,325.504h0.041l0.26-0.868l2.01-5.544h0.848l-2.81,7.396h-0.656l-2.816-7.396h0.848l2.037,5.544
			L126.167,325.504z"/>
		<path fill="#FFFFFF" d="M134.675,323.7c-0.285-0.26-0.799-0.472-1.542-0.636c-0.884-0.191-1.537-0.444-1.958-0.759
			c-0.421-0.314-0.632-0.759-0.632-1.333c0-0.565,0.238-1.043,0.714-1.432c0.476-0.39,1.106-0.585,1.89-0.585
			c0.834,0,1.495,0.206,1.982,0.619s0.72,0.929,0.697,1.548l-0.014,0.041h-0.759c0-0.406-0.172-0.759-0.516-1.06
			c-0.344-0.301-0.808-0.451-1.391-0.451c-0.597,0-1.045,0.129-1.343,0.386c-0.298,0.257-0.448,0.56-0.448,0.906
			c0,0.342,0.129,0.625,0.386,0.848c0.257,0.223,0.771,0.419,1.542,0.588c0.879,0.196,1.538,0.464,1.976,0.803
			c0.438,0.339,0.656,0.801,0.656,1.384c0,0.615-0.25,1.113-0.749,1.494c-0.499,0.38-1.159,0.571-1.979,0.571
			c-0.898,0-1.603-0.214-2.116-0.643c-0.513-0.428-0.755-0.939-0.728-1.531l0.014-0.041h0.752c0.032,0.533,0.249,0.92,0.653,1.162
			c0.403,0.242,0.878,0.362,1.425,0.362c0.592,0,1.06-0.13,1.401-0.39c0.342-0.26,0.513-0.574,0.513-0.943
			C135.102,324.263,134.959,323.96,134.675,323.7z"/>
	</g>
	<g id="T12" opacity="0">
		<polygon id="AREA_12_" points="257.81,291.404 168.171,291.404 168.171,333.404 200.737,333.404 200.737,333.404 212.31,345.581 
			223.884,333.404 223.884,333.404 257.81,333.404 		"/>
		<text transform="matrix(1 0 0 1 176.5496 308.6748)" fill="#FFFFFF" font-family="'PlayfairDisplay-Bold'" font-size="12">Sudan</text>
		<text transform="matrix(1 0 0 1 175.1277 326.4888)" fill="#FFFFFF" font-family="'Roboto-Light'" font-size="10">$0.10</text>
		<text transform="matrix(1.047 0 0 1 225.7712 326.4888)" fill="#FFFFFF" font-family="'Roboto-Light'" font-size="10">$0.10</text>
		<path fill="#FFFFFF" d="M209.18,325.504h0.041l0.26-0.868l2.01-5.544h0.848l-2.81,7.396h-0.656l-2.816-7.396h0.848l2.037,5.544
			L209.18,325.504z"/>
		<path fill="#FFFFFF" d="M217.688,323.7c-0.285-0.26-0.799-0.472-1.542-0.636c-0.884-0.191-1.537-0.444-1.958-0.759
			c-0.421-0.314-0.632-0.759-0.632-1.333c0-0.565,0.238-1.043,0.714-1.432c0.476-0.39,1.106-0.585,1.89-0.585
			c0.834,0,1.495,0.206,1.982,0.619c0.488,0.413,0.72,0.929,0.697,1.548l-0.014,0.041h-0.759c0-0.406-0.172-0.759-0.516-1.06
			c-0.344-0.301-0.808-0.451-1.391-0.451c-0.597,0-1.045,0.129-1.343,0.386c-0.298,0.257-0.448,0.56-0.448,0.906
			c0,0.342,0.129,0.625,0.386,0.848c0.257,0.223,0.771,0.419,1.541,0.588c0.879,0.196,1.538,0.464,1.976,0.803
			c0.438,0.339,0.656,0.801,0.656,1.384c0,0.615-0.25,1.113-0.749,1.494c-0.499,0.38-1.159,0.571-1.979,0.571
			c-0.898,0-1.603-0.214-2.116-0.643c-0.513-0.428-0.755-0.939-0.728-1.531l0.014-0.041h0.752c0.032,0.533,0.249,0.92,0.653,1.162
			s0.878,0.362,1.425,0.362c0.592,0,1.06-0.13,1.401-0.39c0.342-0.26,0.513-0.574,0.513-0.943
			C218.115,324.263,217.972,323.96,217.688,323.7z"/>
	</g>
	<g id="T13" opacity="0">
		<polygon id="AREA_13_" points="89.37,369.229 -0.27,369.229 -0.27,411.229 32.297,411.229 32.297,411.229 43.87,423.406 
			55.443,411.229 55.443,411.229 89.37,411.229 		"/>
		<text transform="matrix(1 0 0 1 8.1091 386.5004)" fill="#FFFFFF" font-family="'PlayfairDisplay-Bold'" font-size="12">Tunisia</text>
		<text transform="matrix(1 0 0 1 6.6873 404.3144)" fill="#FFFFFF" font-family="'Roboto-Light'" font-size="10">FREE</text>
		<text transform="matrix(1.047 0 0 1 57.3308 404.3144)" fill="#FFFFFF" font-family="'Roboto-Light'" font-size="10">$0.17</text>
		<path fill="#FFFFFF" d="M40.74,403.33h0.041l0.26-0.868l2.01-5.544h0.848l-2.81,7.396h-0.656l-2.816-7.396h0.848l2.037,5.544
			L40.74,403.33z"/>
		<path fill="#FFFFFF" d="M49.247,401.525c-0.285-0.26-0.799-0.472-1.542-0.636c-0.884-0.191-1.537-0.444-1.958-0.759
			c-0.421-0.314-0.632-0.759-0.632-1.333c0-0.565,0.238-1.043,0.714-1.432c0.476-0.39,1.106-0.585,1.89-0.585
			c0.834,0,1.495,0.206,1.982,0.619c0.488,0.413,0.72,0.929,0.697,1.548l-0.014,0.041h-0.759c0-0.406-0.172-0.759-0.516-1.06
			c-0.344-0.301-0.808-0.451-1.391-0.451c-0.597,0-1.045,0.129-1.343,0.386c-0.298,0.257-0.448,0.56-0.448,0.906
			c0,0.342,0.129,0.625,0.386,0.848c0.257,0.223,0.771,0.419,1.542,0.588c0.879,0.196,1.538,0.464,1.976,0.803
			c0.438,0.339,0.656,0.801,0.656,1.384c0,0.615-0.25,1.113-0.749,1.494c-0.499,0.38-1.159,0.571-1.979,0.571
			c-0.898,0-1.603-0.214-2.116-0.643c-0.513-0.428-0.755-0.939-0.728-1.531l0.014-0.041h0.752c0.032,0.533,0.25,0.92,0.653,1.162
			c0.403,0.242,0.878,0.362,1.425,0.362c0.592,0,1.06-0.13,1.401-0.39c0.342-0.26,0.513-0.574,0.513-0.943
			C49.675,402.088,49.532,401.785,49.247,401.525z"/>
	</g>
</g>
<g id="TOP">
	<g id="KEY">
		<circle fill="none" stroke="#000000" stroke-miterlimit="10" cx="213.197" cy="44.501" r="10"/>
		<circle fill="none" stroke="#000000" stroke-miterlimit="10" cx="213.197" cy="34.501" r="20"/>
		<text transform="matrix(1 0 0 1 207.0798 11.8123)" font-family="'Roboto-Bold'" font-size="8">20$</text>
		<text transform="matrix(1 0 0 1 206.0798 31.6042)" font-family="'Roboto-Bold'" font-size="8">10$</text>
	</g>
	<circle fill="#790700" cx="23.032" cy="34.501" r="6.076"/>
	<circle fill="#D6D6D6" cx="87.11" cy="34.501" r="6.076"/>
	<text transform="matrix(1 0 0 1 32.9573 38.0077)" font-family="'Arial'" font-size="12">Public</text>
	<text transform="matrix(1 0 0 1 96.9465 38.0077)" font-family="'Arial'" font-size="12">Private</text>
	<g>
		<text transform="matrix(1.0075 0 0 1 190.2781 62.8339)" font-family="'Roboto-Bold'" font-size="8">Less than 5$</text>
	</g>
	<circle fill="none" stroke="#000000" stroke-miterlimit="10" cx="213.197" cy="49.501" r="5"/>
</g>
</svg>
