<?xml version="1.0" encoding="utf-8"?>
<!DOCTYPE svg PUBLIC "-//W3C//DTD SVG 1.1//EN" "http://www.w3.org/Graphics/SVG/1.1/DTD/svg11.dtd">
<svg version="1.1" id="GRAPHIC" xmlns="http://www.w3.org/2000/svg" xmlns:xlink="http://www.w3.org/1999/xlink" x="0px" y="0px"
	 width="258.014px" height="547.521px" viewBox="0 0 258.014 547.521" enable-background="new 0 0 258.014 547.521"
	 xml:space="preserve">
    <style type="text/css">
       @font-face {
            font-family: 'Roboto-Light';
            font-weight: 100;
            src: url(https://fonts.googleapis.com/css?family=Roboto:300);
        }
        @font-face {
            font-family: 'Roboto-Bold';
            src: url(http://www.nacion.com/static/LNCNacionBeta/fonts/opensans/opensans_semibold.woff);    
            font-weight: 300;
        }
        @font-face {
            font-family: 'Open Sans Bold';
            src: url(http://www.nacion.com/static/LNCNacionBeta/fonts/opensans/opensans_extrabold.woff);    
            font-weight: 800;
        }
    </style>
<g id="AREA">
    <rect id="A15" x="177.996" y="401.406" fill="#FFFFFF" fill-opacity="0" width="69.988" height="48">
        <animate attributeName="opacity" dur="0.2" to="1" begin="A15.mouseover" fill="freeze" xlink:href="#T15"/> 
        <animate attributeName="opacity" dur="0.2" to="0" begin="A15.mouseout" fill="freeze" xlink:href="#T15"/>
    </rect>
    <rect id="A14" x="94.013" y="401.406" fill="#FFFFFF" fill-opacity="0" width="69.989" height="48">
        <animate attributeName="opacity" dur="0.2" to="1" begin="A14.mouseover" fill="freeze" xlink:href="#T14"/> 
        <animate attributeName="opacity" dur="0.2" to="0" begin="A14.mouseout" fill="freeze" xlink:href="#T14"/>
    </rect>
    <rect id="A13" x="10.03" y="401.406" fill="#FFFFFF" fill-opacity="0" width="69.989" height="48">
        <animate attributeName="opacity" dur="0.2" to="1" begin="A13.mouseover" fill="freeze" xlink:href="#T13"/> 
        <animate attributeName="opacity" dur="0.2" to="0" begin="A13.mouseout" fill="freeze" xlink:href="#T13"/>
    </rect>
	<rect id="A12" x="177.996" y="320.492" fill="#FFFFFF" fill-opacity="0" width="69.988" height="48">
        <animate attributeName="opacity" dur="0.2" to="1" begin="A12.mouseover" fill="freeze" xlink:href="#T12"/> 
        <animate attributeName="opacity" dur="0.2" to="0" begin="A12.mouseout" fill="freeze" xlink:href="#T12"/>
    </rect>
	<rect id="A11" x="94.013" y="320.492" fill="#FFFFFF" fill-opacity="0" width="69.989" height="48">
        <animate attributeName="opacity" dur="0.2" to="1" begin="A11.mouseover" fill="freeze" xlink:href="#T11"/> 
        <animate attributeName="opacity" dur="0.2" to="0" begin="A11.mouseout" fill="freeze" xlink:href="#T11"/>
    </rect>
	<rect id="A10" x="10.03" y="320.492" fill="#FFFFFF" fill-opacity="0" width="69.989" height="48">
        <animate attributeName="opacity" dur="0.2" to="1" begin="A10.mouseover" fill="freeze" xlink:href="#T10"/> 
        <animate attributeName="opacity" dur="0.2" to="0" begin="A10.mouseout" fill="freeze" xlink:href="#T10"/>
    </rect>
	<rect id="A09" x="177.996" y="243.172" fill="#FFFFFF" fill-opacity="0" width="69.988" height="48">
        <animate attributeName="opacity" dur="0.2" to="1" begin="A09.mouseover" fill="freeze" xlink:href="#T09"/> 
        <animate attributeName="opacity" dur="0.2" to="0" begin="A09.mouseout" fill="freeze" xlink:href="#T09"/>
    </rect>	
    <rect id="A08" x="94.013" y="243.172" fill="#FFFFFF" fill-opacity="0" width="69.989" height="48">
        <animate attributeName="opacity" dur="0.2" to="1" begin="A08.mouseover" fill="freeze" xlink:href="#T08"/> 
        <animate attributeName="opacity" dur="0.2" to="0" begin="A08.mouseout" fill="freeze" xlink:href="#T08"/>
    </rect>
	<rect id="A07" x="10.03" y="243.172" fill="#FFFFFF" fill-opacity="0" width="69.989" height="48">
        <animate attributeName="opacity" dur="0.2" to="1" begin="A07.mouseover" fill="freeze" xlink:href="#T07"/> 
        <animate attributeName="opacity" dur="0.2" to="0" begin="A07.mouseout" fill="freeze" xlink:href="#T07"/>
    </rect>
	<rect id="A06" x="177.996" y="163.744" fill="#FFFFFF" fill-opacity="0" width="69.988" height="48">
        <animate attributeName="opacity" dur="0.2" to="1" begin="A06.mouseover" fill="freeze" xlink:href="#T06"/> 
        <animate attributeName="opacity" dur="0.2" to="0" begin="A06.mouseout" fill="freeze" xlink:href="#T06"/>
    </rect>
	<rect id="A05" x="94.013" y="163.744" fill="#FFFFFF" fill-opacity="0" width="69.989" height="48">
        <animate attributeName="opacity" dur="0.2" to="1" begin="A05.mouseover" fill="freeze" xlink:href="#T05"/> 
        <animate attributeName="opacity" dur="0.2" to="0" begin="A05.mouseout" fill="freeze" xlink:href="#T05"/>
    </rect>
	<rect id="A04" x="10.03" y="163.744" fill="#FFFFFF" fill-opacity="0" width="69.989" height="48">
        <animate attributeName="opacity" dur="0.2" to="1" begin="A04.mouseover" fill="freeze" xlink:href="#T04"/> 
        <animate attributeName="opacity" dur="0.2" to="0" begin="A04.mouseout" fill="freeze" xlink:href="#T04"/>
    </rect>
	<rect id="A03" x="177.996" y="87.122" fill="#FFFFFF" fill-opacity="0" width="69.988" height="48">
        <animate attributeName="opacity" dur="0.2" to="1" begin="A03.mouseover" fill="freeze" xlink:href="#T03"/> 
        <animate attributeName="opacity" dur="0.2" to="0" begin="A03.mouseout" fill="freeze" xlink:href="#T03"/>
    </rect>
	<rect id="A02" x="94.013" y="87.122" fill="#FFFFFF" fill-opacity="0" width="69.989" height="48">
        <animate attributeName="opacity" dur="0.2" to="1" begin="A02.mouseover" fill="freeze" xlink:href="#T02"/> 
        <animate attributeName="opacity" dur="0.2" to="0" begin="A02.mouseout" fill="freeze" xlink:href="#T02"/>
    </rect>
	<rect id="A01" x="10.03" y="87.122" fill="#FFFFFF" fill-opacity="0" width="69.989" height="48">
        <animate attributeName="opacity" dur="0.2" to="1" begin="A01.mouseover" fill="freeze" xlink:href="#T01"/> 
        <animate attributeName="opacity" dur="0.2" to="0" begin="A01.mouseout" fill="freeze" xlink:href="#T01"/>
    </rect>
</g>
<g id="GUIDE">
	<g id="KEY">
		<circle fill="none" stroke="#000000" stroke-miterlimit="10" cx="213.197" cy="44.501" r="10"/>
		<circle fill="none" stroke="#000000" stroke-miterlimit="10" cx="213.197" cy="34.501" r="20"/>
		<text transform="matrix(1 0 0 1 207.0798 11.8123)" font-family="'Roboto-Bold'" font-size="8">20$</text>
		<text transform="matrix(1 0 0 1 206.0798 31.6042)" font-family="'Roboto-Bold'" font-size="8">10$</text>
	</g>
	<circle fill="#790700" cx="23.032" cy="34.501" r="6.076"/>
	<circle fill="#D6D6D6" cx="87.11" cy="34.501" r="6.076"/>
	<text transform="matrix(1 0 0 1 32.9573 38.0077)" font-family="'Arial'" font-size="12">Public</text>
	<text transform="matrix(1 0 0 1 96.9465 38.0077)" font-family="'Arial'" font-size="12">Private</text>
	<g>
		<text transform="matrix(1.0075 0 0 1 190.2783 62.834)" font-family="'Roboto-Bold'" font-size="8">Less than 5$</text>
	</g>
	<circle fill="none" stroke="#000000" stroke-miterlimit="10" cx="213.197" cy="49.501" r="5"/>
</g>
<g id="INTERACT">
	<g>
		<path fill="#191818" d="M99.907,494.384H96.71c-0.468,0-0.848-0.38-0.848-0.848c0-0.469,0.38-0.848,0.848-0.848h3.197
			c0.469,0,0.848,0.38,0.848,0.848S100.375,494.384,99.907,494.384z"/>
		<path fill="#191818" d="M91.592,489.267c-0.469,0-0.848-0.38-0.848-0.848v-3.198c0-0.469,0.38-0.848,0.848-0.848
			s0.848,0.38,0.848,0.848v3.198C92.441,488.888,92.061,489.267,91.592,489.267z"/>
		<path fill="#191818" d="M86.476,494.384h-3.198c-0.469,0-0.848-0.38-0.848-0.848c0-0.469,0.38-0.848,0.848-0.848h3.198
			c0.468,0,0.848,0.38,0.848,0.848S86.944,494.384,86.476,494.384z"/>
		<path fill="#191818" d="M95.21,490.766c-0.217,0-0.434-0.083-0.6-0.249c-0.331-0.331-0.331-0.869,0-1.199l2.139-2.138
			c0.331-0.331,0.868-0.331,1.2,0c0.331,0.331,0.331,0.868,0,1.199l-2.139,2.138C95.644,490.683,95.427,490.766,95.21,490.766z"/>
		<path fill="#191818" d="M87.974,490.766c-0.217,0-0.434-0.083-0.6-0.249l-2.138-2.138c-0.331-0.331-0.331-0.868,0-1.199
			s0.868-0.331,1.2,0l2.138,2.138c0.331,0.331,0.331,0.868,0,1.199C88.409,490.683,88.192,490.766,87.974,490.766z"/>
		<path fill="#191818" d="M98.197,507.607H96.5v-3.838c0-0.59-0.48-1.071-1.071-1.071c-0.59,0-1.07,0.48-1.07,1.071v0.64h-1.697
			v-0.64c0-1.526,1.241-2.767,2.767-2.767s2.767,1.241,2.767,2.767v3.838H98.197z"/>
		<path fill="#191818" d="M102.035,508.246h-1.696v-3.838c0-0.59-0.481-1.07-1.071-1.07s-1.07,0.48-1.07,1.07v3.198h-1.697v-3.198
			c0-1.525,1.241-2.767,2.767-2.767s2.767,1.241,2.767,2.767L102.035,508.246L102.035,508.246z"/>
		<path fill="#191818" d="M90.522,512.084h-1.697v-18.548c0-1.526,1.241-2.767,2.767-2.767s2.767,1.241,2.767,2.767v14.071h-1.697
			v-14.071c0-0.59-0.48-1.07-1.071-1.07c-0.59,0-1.07,0.48-1.07,1.07v18.548H90.522z"/>
		<path fill="#191818" d="M90.522,522.316h-1.697c0-0.541-0.708-1.495-1.456-2.504c-1.279-1.724-3.031-4.085-3.337-7.11
			c-0.078-0.771-0.106-1.917-0.084-3.406c0.026-1.687,1.18-3.173,2.809-3.615l2.8-0.759l0.444,1.638l-2.8,0.759
			c-0.902,0.244-1.542,1.068-1.556,2.003c-0.022,1.404,0.005,2.514,0.075,3.21c0.259,2.561,1.785,4.618,3.011,6.27
			C89.732,520.149,90.522,521.214,90.522,522.316z"/>
		<path fill="#191818" d="M103.953,522.316h-1.696c0-0.506,0.21-1.214,0.529-2.285c0.809-2.721,2.316-7.787,1.147-13.515
			c-0.247-1.212-0.651-1.244-0.893-1.263c-0.715-0.059-1.282,0.421-1.288,0.426l-1.13-1.265c0.111-0.099,1.125-0.967,2.549-0.853
			c1.275,0.099,2.091,0.979,2.424,2.615c1.253,6.143-0.332,11.474-1.183,14.337C104.186,521.273,103.953,522.057,103.953,522.316z"
			/>
	</g>
	<g>
		<path fill="#191818" d="M114.616,501.643h-1.609v-9.646h1.609V501.643z"/>
		<path fill="#191818" d="M117.389,494.474l0.094,1.034c0.234-0.367,0.527-0.652,0.885-0.858c0.355-0.205,0.756-0.308,1.201-0.308
			c0.746,0,1.328,0.227,1.746,0.679c0.418,0.453,0.627,1.158,0.627,2.117v4.505h-1.611v-4.492c0-0.538-0.111-0.922-0.334-1.149
			c-0.223-0.228-0.562-0.341-1.018-0.341c-0.312,0-0.594,0.069-0.84,0.209c-0.248,0.139-0.451,0.33-0.611,0.572v5.201h-1.609v-7.169
			L117.389,494.474L117.389,494.474z"/>
		<path fill="#191818" d="M124.94,492.732v1.742h1.285v1.193h-1.285v3.962c0,0.296,0.064,0.507,0.191,0.632
			c0.129,0.126,0.299,0.189,0.51,0.189c0.09,0,0.176-0.008,0.26-0.023c0.084-0.016,0.162-0.036,0.238-0.062l0.172,1.179
			c-0.137,0.075-0.301,0.134-0.49,0.176c-0.189,0.042-0.387,0.062-0.59,0.062c-0.592,0-1.055-0.173-1.391-0.519
			c-0.336-0.347-0.504-0.892-0.504-1.633v-3.962h-1.094v-1.193h1.094v-1.742h1.604V492.732z"/>
		<path fill="#191818" d="M130.051,501.781c-1.016,0-1.824-0.332-2.428-0.997c-0.604-0.664-0.904-1.518-0.904-2.56v-0.265
			c0-1.042,0.299-1.907,0.898-2.594c0.598-0.686,1.348-1.028,2.248-1.023c0.969,0,1.709,0.292,2.223,0.878
			c0.516,0.585,0.773,1.37,0.773,2.354v0.948h-4.473l-0.014,0.032c0.027,0.568,0.193,1.032,0.5,1.394
			c0.307,0.361,0.732,0.542,1.275,0.542c0.434,0,0.805-0.054,1.113-0.159c0.309-0.107,0.607-0.259,0.895-0.457l0.518,1.056
			c-0.27,0.239-0.627,0.441-1.074,0.605C131.157,501.699,130.639,501.781,130.051,501.781z M129.866,495.634
			c-0.396,0-0.723,0.157-0.98,0.474c-0.256,0.315-0.414,0.717-0.477,1.202l0.014,0.033h2.842v-0.166
			c0-0.454-0.115-0.825-0.348-1.112C130.684,495.777,130.334,495.634,129.866,495.634z"/>
		<path fill="#191818" d="M137.051,495.925l-0.688-0.026c-0.314,0-0.576,0.066-0.785,0.199c-0.211,0.132-0.373,0.32-0.488,0.562
			v4.982h-1.609v-7.169h1.471l0.105,1.041c0.182-0.367,0.414-0.654,0.699-0.861c0.285-0.208,0.613-0.312,0.984-0.312
			c0.098,0,0.188,0.008,0.271,0.023c0.084,0.016,0.16,0.035,0.232,0.057L137.051,495.925z"/>
		<path fill="#191818" d="M141.813,501.643c-0.057-0.181-0.105-0.357-0.143-0.53c-0.037-0.172-0.062-0.345-0.076-0.517
			c-0.221,0.336-0.51,0.617-0.871,0.845c-0.359,0.227-0.762,0.341-1.209,0.341c-0.746,0-1.318-0.191-1.719-0.576
			c-0.4-0.384-0.6-0.912-0.6-1.583c0-0.693,0.274-1.233,0.822-1.62c0.547-0.387,1.318-0.58,2.31-0.58h1.252v-0.629
			c0-0.375-0.109-0.669-0.33-0.881c-0.221-0.212-0.537-0.318-0.947-0.318c-0.367,0-0.658,0.088-0.875,0.265
			s-0.324,0.404-0.324,0.683h-1.551l-0.006-0.04c-0.031-0.564,0.221-1.066,0.758-1.504c0.537-0.437,1.236-0.655,2.098-0.655
			c0.834,0,1.508,0.212,2.02,0.636c0.514,0.424,0.77,1.033,0.77,1.828v3.188c0,0.296,0.02,0.579,0.059,0.851
			c0.041,0.273,0.104,0.538,0.193,0.799h-1.631V501.643z M139.838,500.49c0.406,0,0.773-0.102,1.098-0.306
			c0.324-0.203,0.539-0.435,0.645-0.695v-1.06h-1.277c-0.469,0-0.836,0.115-1.1,0.348c-0.266,0.231-0.398,0.505-0.398,0.818
			c0,0.273,0.09,0.491,0.27,0.652C139.252,500.409,139.508,500.49,139.838,500.49z"/>
		<path fill="#191818" d="M147.164,500.49c0.393,0,0.725-0.115,0.994-0.347c0.268-0.23,0.402-0.519,0.402-0.866h1.459l0.014,0.04
			c0.021,0.671-0.252,1.25-0.818,1.735c-0.568,0.486-1.252,0.729-2.051,0.729c-1.057,0-1.865-0.34-2.428-1.019
			c-0.564-0.681-0.846-1.542-0.846-2.584v-0.232c0-1.037,0.281-1.898,0.846-2.58c0.563-0.683,1.371-1.023,2.428-1.023
			c0.861,0,1.56,0.25,2.096,0.752c0.537,0.501,0.797,1.139,0.779,1.911l-0.014,0.04h-1.465c0-0.394-0.129-0.727-0.387-1.001
			c-0.258-0.273-0.596-0.41-1.01-0.41c-0.605,0-1.033,0.219-1.285,0.658c-0.252,0.438-0.379,0.989-0.379,1.65v0.232
			c0,0.675,0.127,1.229,0.379,1.664C146.131,500.273,146.559,500.49,147.164,500.49z"/>
		<path fill="#191818" d="M152.647,492.732v1.742h1.285v1.193h-1.285v3.962c0,0.296,0.064,0.507,0.191,0.632
			c0.129,0.126,0.299,0.189,0.51,0.189c0.09,0,0.176-0.008,0.26-0.023c0.084-0.016,0.162-0.036,0.238-0.062l0.172,1.179
			c-0.137,0.075-0.301,0.134-0.49,0.176c-0.189,0.042-0.387,0.062-0.59,0.062c-0.592,0-1.055-0.173-1.391-0.519
			c-0.336-0.347-0.504-0.892-0.504-1.633v-3.962h-1.094v-1.193h1.094v-1.742h1.604V492.732z"/>
		<path fill="#191818" d="M156.401,492.719h-1.609v-1.411h1.609V492.719z M156.401,501.643h-1.609v-7.169h1.609V501.643z"/>
		<path fill="#191818" d="M160.014,499.218l0.119,0.583h0.041l0.125-0.583l1.426-4.744h1.662l-2.545,7.169h-1.397l-2.559-7.169
			h1.664L160.014,499.218z"/>
		<path fill="#191818" d="M166.703,501.781c-1.016,0-1.824-0.332-2.428-0.997c-0.604-0.664-0.904-1.518-0.904-2.56v-0.265
			c0-1.042,0.299-1.907,0.899-2.594c0.598-0.686,1.348-1.028,2.248-1.023c0.969,0,1.709,0.292,2.223,0.878
			c0.516,0.585,0.773,1.37,0.773,2.354v0.948h-4.473l-0.014,0.032c0.027,0.568,0.193,1.032,0.5,1.394
			c0.307,0.361,0.732,0.542,1.275,0.542c0.433,0,0.805-0.054,1.113-0.159c0.309-0.107,0.607-0.259,0.895-0.457l0.517,1.056
			c-0.27,0.239-0.627,0.441-1.074,0.605C167.809,501.699,167.291,501.781,166.703,501.781z M166.518,495.634
			c-0.397,0-0.723,0.157-0.981,0.474c-0.256,0.315-0.414,0.717-0.476,1.202l0.014,0.033h2.842v-0.166
			c0-0.454-0.115-0.825-0.348-1.112C167.336,495.777,166.987,495.634,166.518,495.634z"/>
		<path fill="#191818" d="M120.102,516.167c-0.256,0.367-0.678,0.699-1.262,0.998c-0.586,0.298-1.338,0.446-2.256,0.446
			c-1.162,0-2.119-0.367-2.869-1.103s-1.127-1.687-1.127-2.853v-2.014c0-1.166,0.355-2.117,1.064-2.853
			c0.709-0.735,1.623-1.103,2.746-1.103c1.135,0,2.018,0.279,2.646,0.838c0.629,0.559,0.951,1.286,0.965,2.183l-0.014,0.04h-1.523
			c-0.037-0.53-0.225-0.957-0.566-1.282c-0.344-0.324-0.84-0.486-1.488-0.486c-0.666,0-1.205,0.249-1.613,0.748
			c-0.408,0.498-0.613,1.132-0.613,1.899v2.025c0,0.776,0.223,1.415,0.666,1.916c0.443,0.501,1.02,0.752,1.727,0.752
			c0.504,0,0.912-0.059,1.225-0.176c0.314-0.116,0.541-0.254,0.684-0.413v-1.956h-1.916v-1.205h3.525L120.102,516.167
			L120.102,516.167z"/>
		<path fill="#191818" d="M124.764,511.755l-0.689-0.026c-0.314,0-0.576,0.066-0.785,0.199c-0.209,0.132-0.371,0.32-0.486,0.562
			v4.982h-1.611v-7.169h1.471l0.107,1.041c0.18-0.367,0.414-0.654,0.699-0.861c0.285-0.208,0.611-0.311,0.982-0.311
			c0.098,0,0.188,0.008,0.271,0.022c0.084,0.016,0.162,0.035,0.232,0.057L124.764,511.755z"/>
		<path fill="#191818" d="M129.524,517.473c-0.057-0.181-0.105-0.357-0.143-0.53c-0.037-0.172-0.062-0.345-0.076-0.517
			c-0.221,0.336-0.51,0.617-0.871,0.845c-0.359,0.228-0.762,0.341-1.209,0.341c-0.746,0-1.318-0.191-1.719-0.576
			c-0.4-0.384-0.6-0.912-0.6-1.583c0-0.693,0.273-1.233,0.822-1.62c0.547-0.387,1.318-0.58,2.311-0.58h1.252v-0.629
			c0-0.375-0.109-0.669-0.33-0.881c-0.221-0.212-0.537-0.318-0.947-0.318c-0.367,0-0.658,0.088-0.875,0.265
			s-0.324,0.404-0.324,0.683h-1.551l-0.006-0.04c-0.031-0.565,0.221-1.066,0.758-1.504c0.537-0.436,1.236-0.655,2.098-0.655
			c0.834,0,1.508,0.212,2.02,0.636c0.514,0.424,0.77,1.033,0.77,1.828v3.188c0,0.296,0.02,0.579,0.059,0.851
			c0.041,0.272,0.104,0.538,0.193,0.799h-1.632V517.473z M127.549,516.321c0.406,0,0.773-0.102,1.098-0.306
			c0.324-0.203,0.539-0.435,0.645-0.695v-1.06h-1.277c-0.469,0-0.836,0.115-1.1,0.348c-0.266,0.231-0.399,0.505-0.399,0.818
			c0,0.273,0.09,0.491,0.27,0.652C126.963,516.24,127.219,516.321,127.549,516.321z"/>
		<path fill="#191818" d="M138.194,514.128c0,1.042-0.244,1.884-0.734,2.524c-0.49,0.641-1.174,0.96-2.049,0.96
			c-0.406,0-0.766-0.072-1.078-0.218c-0.314-0.146-0.584-0.36-0.809-0.643v3.478h-1.611v-9.925h1.359l0.158,0.901
			c0.23-0.336,0.508-0.592,0.832-0.768c0.324-0.177,0.701-0.265,1.129-0.265c0.885,0,1.572,0.35,2.065,1.05
			c0.492,0.7,0.738,1.622,0.738,2.766L138.194,514.128L138.194,514.128z M136.59,513.985c0-0.732-0.137-1.331-0.414-1.796
			c-0.275-0.466-0.688-0.698-1.234-0.698c-0.336,0-0.621,0.071-0.855,0.215c-0.234,0.144-0.422,0.343-0.562,0.599v3.235
			c0.141,0.252,0.328,0.444,0.562,0.579s0.523,0.202,0.867,0.202c0.549,0,0.959-0.202,1.231-0.606
			c0.271-0.404,0.406-0.935,0.406-1.592v-0.138H136.59z"/>
		<path fill="#191818" d="M140.51,511.232c0.238-0.335,0.529-0.596,0.871-0.781s0.721-0.278,1.137-0.278
			c0.76,0,1.352,0.239,1.779,0.719c0.426,0.479,0.639,1.218,0.639,2.216v4.366h-1.609v-4.379c0-0.565-0.113-0.975-0.338-1.226
			c-0.227-0.252-0.564-0.378-1.014-0.378c-0.314,0-0.596,0.065-0.846,0.195s-0.455,0.311-0.619,0.54v5.247h-1.609v-10.335h1.609
			L140.51,511.232L140.51,511.232z"/>
		<path fill="#191818" d="M147.643,508.549h-1.609v-1.411h1.609V508.549z M147.643,517.473h-1.609v-7.169h1.609V517.473z"/>
		<path fill="#191818" d="M151.729,516.321c0.393,0,0.725-0.115,0.994-0.347c0.268-0.231,0.402-0.52,0.402-0.866h1.459l0.014,0.04
			c0.021,0.671-0.252,1.25-0.818,1.735c-0.568,0.486-1.252,0.729-2.051,0.729c-1.057,0-1.865-0.34-2.428-1.02
			c-0.565-0.681-0.846-1.542-0.846-2.584v-0.232c0-1.037,0.281-1.897,0.846-2.58c0.562-0.683,1.371-1.023,2.428-1.023
			c0.861,0,1.561,0.25,2.096,0.752c0.537,0.501,0.797,1.139,0.779,1.911l-0.014,0.04h-1.465c0-0.393-0.129-0.727-0.387-1.001
			c-0.258-0.273-0.596-0.41-1.01-0.41c-0.605,0-1.033,0.219-1.285,0.658c-0.252,0.438-0.379,0.989-0.379,1.65v0.231
			c0,0.675,0.127,1.229,0.379,1.664C150.696,516.103,151.123,516.321,151.729,516.321z"/>
	</g>
</g>
<g pointer-events="none">
	<text transform="matrix(1 0 0 1 107.9108 231.1725)" font-family="'Arial'" font-size="14">Ghana</text>
	<text transform="matrix(1 0 0 1 25.6038 231.1725)" font-family="'Arial'" font-size="14">Egypt</text>
	<text transform="matrix(1 0 0 1 108.0374 153.1069)" font-family="'Arial'" font-size="14">Congo</text>
	<text transform="matrix(1 0 0 1 187.0276 147.7726)" font-family="'Arial'" font-size="10">Democratic</text>
	<text transform="matrix(1 0 0 1 171.6936 157.7726)" font-family="'Arial'" font-size="10">Republic of Congo</text>
	<text transform="matrix(1 0 0 1 3.2131 153.107)" fill="#790700" font-family="'Arial'" font-size="14">Burkina Faso</text>
	<text transform="matrix(1 0 0 1 30.2668 309.2379)" font-family="'Arial'" font-size="14">Mali</text>
	<text transform="matrix(0.8957 0 0 1 104.5853 309.617)" font-family="'Arial'" font-size="14">Mauritius</text>
	<text transform="matrix(1 0 0 1 193.2616 231.1724)" font-family="'Arial'" font-size="14">Kenya</text>
	<text transform="matrix(1 0 0 1 25.7525 385.9691)" font-family="'Arial'" font-size="14">Nigeria</text>
	<g>
		<text transform="matrix(1 0 0 1 105.4596 381.9691)" font-family="'Arial'" font-size="10">São Tomé</text>
		<text transform="matrix(1 0 0 1 100.1056 391.9691)" font-family="'Arial'" font-size="10">and Príncipe</text>
	</g>
	<text transform="matrix(1 0 0 1 23.2704 465.3764)" font-family="'Arial'" font-size="14">Sudan</text>
	<text transform="matrix(1 0 0 1 100.1055 465.3683)" font-family="'Arial'" font-size="14">Tanzania</text>
	<g>
		<text transform="matrix(1 0 0 1 184.5974 381.9683)" font-family="'Arial'" font-size="10">South Africa</text>
		<text transform="matrix(1 0 0 1 172.5804 391.9683)" font-family="'Arial'" font-size="10">Gauteng Province</text>
	</g>
	<text transform="matrix(1 0 0 1 189.3088 465.2474)" font-family="'Arial'" font-size="14">Tunisia</text>
	<path fill="#790700" d="M45.907,111.058c0,2.761-2.239,5-5.001,5c-2.761,0-4.999-2.239-4.999-5c0-2.762,2.238-5,4.999-5
		C43.669,106.058,45.907,108.297,45.907,111.058z"/>
	<path opacity="0.8" fill="#D6D6D6" enable-background="new    " d="M51.973,111.058c0,2.762-2.238,5-5.001,5
		c-2.761,0-4.999-2.238-4.999-5s2.238-5,4.999-5C49.735,106.058,51.973,108.297,51.973,111.058z"/>
	<path fill="#790700" d="M214.586,110.817c0,2.761-2.239,5-5.001,5c-2.761,0-4.999-2.239-4.999-5c0-2.762,2.238-5,4.999-5
		C212.347,105.817,214.586,108.056,214.586,110.817z"/>
	<path opacity="0.8" fill="#D6D6D6" enable-background="new    " d="M220.651,110.817c0,2.762-2.238,5-5.001,5
		c-2.761,0-4.999-2.238-4.999-5s2.238-5,4.999-5C218.413,105.817,220.651,108.056,220.651,110.817z"/>
	<path fill="#790700" d="M130.379,110.817c0,2.761-2.239,5-5.001,5c-2.761,0-4.999-2.239-4.999-5c0-2.762,2.238-5,4.999-5
		C128.14,105.817,130.379,108.056,130.379,110.817z"/>
	<path opacity="0.8" fill="#D6D6D6" enable-background="new    " d="M136.445,110.817c0,2.762-2.238,5-5.001,5
		c-2.761,0-4.999-2.238-4.999-5s2.238-5,4.999-5C134.206,105.817,136.445,108.056,136.445,110.817z"/>
	<path fill="#790700" d="M130.347,188.883c0,2.761-2.239,5-5.001,5c-2.761,0-4.999-2.239-4.999-5c0-2.762,2.238-5,4.999-5
		C128.108,183.883,130.347,186.122,130.347,188.883z"/>
	<path opacity="0.8" fill="#D6D6D6" enable-background="new    " d="M136.412,188.883c0,2.762-2.238,5-5.001,5
		c-2.761,0-4.999-2.238-4.999-5s2.238-5,4.999-5C134.174,183.883,136.412,186.122,136.412,188.883z"/>
	<path fill="#790700" d="M45.907,188.883c0,2.761-2.239,5-5.001,5c-2.761,0-4.999-2.239-4.999-5c0-2.762,2.238-5,4.999-5
		C43.669,183.883,45.907,186.122,45.907,188.883z"/>
	<path opacity="0.8" fill="#D6D6D6" enable-background="new    " d="M51.973,188.883c0,2.762-2.238,5-5.001,5
		c-2.761,0-4.999-2.238-4.999-5s2.238-5,4.999-5C49.735,183.883,51.973,186.122,51.973,188.883z"/>
	<path fill="#790700" d="M129.847,266.948c0,2.761-2.239,5-5.001,5c-2.761,0-4.999-2.239-4.999-5c0-2.762,2.238-5,4.999-5
		C127.608,261.948,129.847,264.187,129.847,266.948z"/>
	<path opacity="0.8" fill="#D6D6D6" enable-background="new    " d="M135.912,266.948c0,2.762-2.238,5-5.001,5
		c-2.761,0-4.999-2.238-4.999-5s2.238-5,4.999-5C133.674,261.948,135.912,264.187,135.912,266.948z"/>
	<path fill="#790700" d="M46.412,266.948c0,2.761-2.239,5-5.001,5c-2.761,0-4.999-2.239-4.999-5c0-2.762,2.238-5,4.999-5
		C44.173,261.948,46.412,264.187,46.412,266.948z"/>
	<path opacity="0.8" fill="#D6D6D6" enable-background="new    " d="M52.478,266.948c0,2.762-2.238,5-5.001,5
		c-2.761,0-4.999-2.238-4.999-5s2.238-5,4.999-5C50.239,261.948,52.478,264.187,52.478,266.948z"/>
	<path fill="#790700" d="M214.619,188.882c0,2.761-2.239,5-5.001,5c-2.761,0-4.999-2.239-4.999-5c0-2.762,2.238-5,4.999-5
		C212.381,183.882,214.619,186.121,214.619,188.882z"/>
	<path opacity="0.8" fill="#D6D6D6" enable-background="new    " d="M220.685,188.882c0,2.762-2.238,5-5.001,5
		c-2.761,0-4.999-2.238-4.999-5s2.238-5,4.999-5C218.447,183.882,220.685,186.121,220.685,188.882z"/>
	<path fill="#790700" d="M129.847,345.013c0,2.761-2.239,5-5.001,5c-2.761,0-4.999-2.239-4.999-5c0-2.762,2.238-5,4.999-5
		C127.608,340.013,129.847,342.252,129.847,345.013z"/>
	<path opacity="0.8" fill="#D6D6D6" enable-background="new    " d="M135.912,345.013c0,2.762-2.238,5-5.001,5
		c-2.761,0-4.999-2.238-4.999-5c0-2.762,2.238-5,4.999-5C133.674,340.013,135.912,342.252,135.912,345.013z"/>
	<path fill="#790700" d="M46.134,345.013c0,2.761-2.239,5-5.001,5c-2.761,0-4.999-2.239-4.999-5c0-2.762,2.238-5,4.999-5
		C43.895,340.013,46.134,342.252,46.134,345.013z"/>
	<path opacity="0.8" fill="#D6D6D6" enable-background="new    " d="M52.2,345.013c0,2.762-2.238,5-5.001,5
		c-2.761,0-4.999-2.238-4.999-5c0-2.762,2.238-5,4.999-5C49.961,340.013,52.2,342.252,52.2,345.013z"/>
	<text transform="matrix(1 0 0 1 184.8452 308.0236)" font-family="'Arial'" font-size="14">Morocco</text>
	<path fill="#790700" d="M214.536,267.069c0,2.761-2.239,5-5.001,5c-2.761,0-4.999-2.239-4.999-5c0-2.762,2.238-5,4.999-5
		C212.298,262.069,214.536,264.308,214.536,267.069z"/>
	<path opacity="0.8" fill="#D6D6D6" enable-background="new    " d="M220.602,267.069c0,2.762-2.238,5-5.001,5
		c-2.761,0-4.999-2.238-4.999-5s2.238-5,4.999-5C218.364,262.069,220.602,264.308,220.602,267.069z"/>
	<path fill="#790700" d="M130.377,423.079c0,2.761-2.239,5-5.001,5c-2.761,0-4.999-2.239-4.999-5c0-2.762,2.238-5,4.999-5
		C128.138,418.079,130.377,420.318,130.377,423.079z"/>
	<path opacity="0.8" fill="#D6D6D6" enable-background="new    " d="M136.442,423.079c0,2.762-2.238,5-5.001,5
		c-2.761,0-4.999-2.238-4.999-5s2.238-5,4.999-5C134.204,418.079,136.442,420.318,136.442,423.079z"/>
	<path fill="#790700" d="M46.134,423.087c0,2.761-2.239,5-5.001,5c-2.761,0-4.999-2.239-4.999-5c0-2.762,2.238-5,4.999-5
		C43.895,418.087,46.134,420.326,46.134,423.087z"/>
	<path opacity="0.8" fill="#D6D6D6" enable-background="new    " d="M52.2,423.087c0,2.762-2.238,5-5.001,5
		c-2.761,0-4.999-2.238-4.999-5s2.238-5,4.999-5C49.961,418.087,52.2,420.326,52.2,423.087z"/>
	<path fill="#790700" d="M214.455,345.013c0,2.761-2.239,5-5.001,5c-2.761,0-4.999-2.239-4.999-5c0-2.762,2.238-5,4.999-5
		C212.217,340.013,214.455,342.252,214.455,345.013z"/>
	<path opacity="0.8" fill="#D6D6D6" enable-background="new    " d="M220.521,345.013c0,2.762-2.238,5-5.001,5
		c-2.761,0-4.999-2.238-4.999-5c0-2.762,2.238-5,4.999-5C218.283,340.013,220.521,342.252,220.521,345.013z"/>
	<path fill="#790700" d="M214.279,422.957c0,2.761-2.239,5-5.001,5c-2.761,0-4.999-2.239-4.999-5c0-2.762,2.238-5,4.999-5
		C212.041,417.957,214.279,420.196,214.279,422.957z"/>
	<path opacity="0.8" fill="#D6D6D6" enable-background="new    " d="M220.345,422.957c0,2.762-2.238,5-5.001,5
		c-2.761,0-4.999-2.238-4.999-5s2.238-5,4.999-5C218.107,417.957,220.345,420.196,220.345,422.957z"/>
</g>
<g id="TOOLTIP">
	<g id="T01" opacity="0">
		<polygon id="AREA_1_" points="89.64,56.501 0,56.501 0,98.501 32.567,98.501 32.567,98.501 44.14,110.677 55.713,98.501 
			55.713,98.501 89.64,98.501 		"/>
		<text transform="matrix(1 0 0 1 8.3792 72.7716)" fill="#FFFFFF" font-family="'PlayfairDisplay-Bold'" font-size="12">Burkina Faso</text>
		<text transform="matrix(1 0 0 1 6.9573 90.5856)" fill="#FFFFFF" font-family="'Roboto-Light'" font-size="10">$0.03</text>
		<text transform="matrix(1.047 0 0 1 55.6011 90.5854)" fill="#FFFFFF" font-family="'Roboto-Light'" font-size="10">$0.17</text>
		<path fill="#FFFFFF" d="M40.01,90.601h0.041l0.26-0.868l2.01-5.544h0.848l-2.81,7.396h-0.656l-2.816-7.396h0.848l2.037,5.544
			L40.01,90.601z"/>
		<path fill="#FFFFFF" d="M48.517,88.797c-0.285-0.26-0.799-0.472-1.542-0.636c-0.884-0.191-1.537-0.444-1.958-0.759
			c-0.421-0.314-0.632-0.759-0.632-1.333c0-0.565,0.238-1.042,0.714-1.432s1.106-0.585,1.89-0.585c0.834,0,1.495,0.206,1.982,0.619
			c0.488,0.413,0.72,0.929,0.697,1.548l-0.014,0.041h-0.759c0-0.406-0.172-0.759-0.516-1.06c-0.344-0.301-0.808-0.451-1.391-0.451
			c-0.597,0-1.045,0.129-1.343,0.386s-0.448,0.56-0.448,0.906c0,0.342,0.129,0.624,0.386,0.848c0.257,0.223,0.771,0.419,1.542,0.588
			c0.879,0.196,1.538,0.464,1.976,0.803c0.438,0.339,0.656,0.801,0.656,1.384c0,0.615-0.25,1.113-0.749,1.494
			c-0.499,0.38-1.159,0.571-1.979,0.571c-0.898,0-1.603-0.214-2.116-0.643c-0.513-0.428-0.755-0.939-0.728-1.531l0.014-0.041h0.752
			c0.032,0.533,0.25,0.92,0.653,1.162c0.403,0.242,0.878,0.362,1.425,0.362c0.592,0,1.06-0.13,1.401-0.39
			c0.342-0.26,0.513-0.574,0.513-0.943C48.945,89.36,48.802,89.056,48.517,88.797z"/>
	</g>
	<g id="T02" opacity="0">
		<polygon id="AREA_2_" points="173.827,56.501 84.188,56.501 84.188,98.501 116.755,98.501 116.755,98.501 128.327,110.677 
			139.9,98.501 139.9,98.501 173.827,98.501 		"/>
		<text transform="matrix(1 0 0 1 92.5667 72.7716)" fill="#FFFFFF" font-family="'PlayfairDisplay-Bold'" font-size="12">Congo</text>
		<text transform="matrix(1 0 0 1 91.1448 90.5856)" fill="#FFFFFF" font-family="'Roboto-Light'" font-size="10">NA</text>
		<text transform="matrix(1.047 0 0 1 139.7886 90.5854)" fill="#FFFFFF" font-family="'Roboto-Light'" font-size="10">$0.21</text>
		<path fill="#FFFFFF" d="M121.197,90.601h0.041l0.26-0.868l2.01-5.544h0.848l-2.81,7.396h-0.656l-2.816-7.396h0.848l2.037,5.544
			L121.197,90.601z"/>
		<path fill="#FFFFFF" d="M129.704,88.797c-0.285-0.26-0.799-0.472-1.542-0.636c-0.884-0.191-1.537-0.444-1.958-0.759
			c-0.421-0.314-0.632-0.759-0.632-1.333c0-0.565,0.238-1.042,0.714-1.432s1.106-0.585,1.89-0.585c0.834,0,1.495,0.206,1.982,0.619
			c0.488,0.413,0.72,0.929,0.697,1.548l-0.014,0.041h-0.759c0-0.406-0.172-0.759-0.516-1.06c-0.344-0.301-0.808-0.451-1.391-0.451
			c-0.597,0-1.045,0.129-1.343,0.386c-0.298,0.257-0.448,0.56-0.448,0.906c0,0.342,0.129,0.624,0.386,0.848
			c0.257,0.223,0.771,0.419,1.542,0.588c0.879,0.196,1.538,0.464,1.976,0.803c0.438,0.339,0.656,0.801,0.656,1.384
			c0,0.615-0.25,1.113-0.749,1.494c-0.499,0.38-1.159,0.571-1.979,0.571c-0.898,0-1.603-0.214-2.116-0.643
			c-0.513-0.428-0.755-0.939-0.728-1.531l0.014-0.041h0.752c0.032,0.533,0.25,0.92,0.653,1.162c0.403,0.242,0.878,0.362,1.425,0.362
			c0.592,0,1.06-0.13,1.401-0.39c0.342-0.26,0.513-0.574,0.513-0.943C130.133,89.36,129.99,89.056,129.704,88.797z"/>
	</g>
	<g id="T03" opacity="0">
		<polygon id="AREA_3_" points="258.017,56.501 168.377,56.501 168.377,98.501 200.944,98.501 200.944,98.501 212.517,110.677 
			224.09,98.501 224.09,98.501 258.017,98.501 		"/>
		<text transform="matrix(1 0 0 1 176.7562 72.7716)" fill="#FFFFFF" font-family="'PlayfairDisplay-Bold'" font-size="12">D.R. Congo</text>
		<text transform="matrix(1 0 0 1 175.3343 90.5856)" fill="#FFFFFF" font-family="'Roboto-Light'" font-size="10">NA</text>
		<text transform="matrix(1.047 0 0 1 223.9781 90.5854)" fill="#FFFFFF" font-family="'Roboto-Light'" font-size="10">$0.16</text>
		<path fill="#FFFFFF" d="M205.387,90.601h0.041l0.26-0.868l2.01-5.544h0.848l-2.81,7.396h-0.656l-2.816-7.396h0.848l2.037,5.544
			L205.387,90.601z"/>
		<path fill="#FFFFFF" d="M213.894,88.797c-0.285-0.26-0.799-0.472-1.542-0.636c-0.884-0.191-1.537-0.444-1.958-0.759
			c-0.421-0.314-0.632-0.759-0.632-1.333c0-0.565,0.238-1.042,0.714-1.432c0.476-0.39,1.106-0.585,1.89-0.585
			c0.834,0,1.495,0.206,1.982,0.619c0.488,0.413,0.72,0.929,0.697,1.548l-0.014,0.041h-0.759c0-0.406-0.172-0.759-0.516-1.06
			c-0.344-0.301-0.808-0.451-1.391-0.451c-0.597,0-1.045,0.129-1.343,0.386s-0.448,0.56-0.448,0.906
			c0,0.342,0.129,0.624,0.386,0.848c0.257,0.223,0.771,0.419,1.542,0.588c0.879,0.196,1.538,0.464,1.976,0.803
			c0.438,0.339,0.656,0.801,0.656,1.384c0,0.615-0.25,1.113-0.749,1.494c-0.499,0.38-1.159,0.571-1.979,0.571
			c-0.898,0-1.603-0.214-2.116-0.643c-0.513-0.428-0.755-0.939-0.728-1.531l0.014-0.041h0.752c0.032,0.533,0.25,0.92,0.653,1.162
			c0.403,0.242,0.878,0.362,1.425,0.362c0.592,0,1.06-0.13,1.401-0.39c0.342-0.26,0.513-0.574,0.513-0.943
			C214.322,89.36,214.179,89.056,213.894,88.797z"/>
	</g>
	<g id="T04" opacity="0">
		<polygon id="AREA_4_" points="89.845,135.122 0.205,135.122 0.205,177.122 32.772,177.122 32.772,177.122 44.345,189.298 
			55.918,177.122 55.918,177.122 89.845,177.122 		"/>
		<text transform="matrix(1 0 0 1 8.5837 151.3926)" fill="#FFFFFF" font-family="'PlayfairDisplay-Bold'" font-size="12">Egypt</text>
		<text transform="matrix(1 0 0 1 7.1618 169.2066)" fill="#FFFFFF" font-family="'Roboto-Light'" font-size="10">NA</text>
		<text transform="matrix(1.047 0 0 1 55.8056 169.2065)" fill="#FFFFFF" font-family="'Roboto-Light'" font-size="10">$0.05</text>
		<path fill="#FFFFFF" d="M37.215,169.222h0.041l0.26-0.868l2.01-5.544h0.848l-2.81,7.396h-0.656l-2.816-7.396h0.848l2.037,5.544
			L37.215,169.222z"/>
		<path fill="#FFFFFF" d="M45.722,167.418c-0.285-0.26-0.799-0.472-1.542-0.636c-0.884-0.191-1.537-0.444-1.958-0.759
			c-0.421-0.314-0.632-0.759-0.632-1.333c0-0.565,0.238-1.042,0.714-1.432c0.476-0.39,1.106-0.585,1.89-0.585
			c0.834,0,1.495,0.206,1.982,0.619c0.488,0.413,0.72,0.929,0.697,1.548l-0.014,0.041H46.1c0-0.406-0.172-0.759-0.516-1.06
			c-0.344-0.301-0.808-0.451-1.391-0.451c-0.597,0-1.045,0.129-1.343,0.386s-0.448,0.56-0.448,0.906
			c0,0.342,0.129,0.624,0.386,0.848c0.257,0.223,0.771,0.419,1.542,0.588c0.879,0.196,1.538,0.464,1.976,0.803
			c0.438,0.339,0.656,0.801,0.656,1.384c0,0.615-0.25,1.113-0.749,1.494c-0.499,0.38-1.159,0.571-1.979,0.571
			c-0.898,0-1.603-0.214-2.116-0.643c-0.513-0.428-0.755-0.939-0.728-1.531l0.014-0.041h0.752c0.032,0.533,0.25,0.92,0.653,1.162
			c0.403,0.242,0.878,0.362,1.425,0.362c0.592,0,1.06-0.13,1.401-0.39c0.342-0.26,0.513-0.574,0.513-0.943
			C46.15,167.981,46.007,167.677,45.722,167.418z"/>
	</g>
	<g id="T05" opacity="0">
		<polygon id="AREA_5_" points="173.827,135.122 84.188,135.122 84.188,177.122 116.755,177.122 116.755,177.122 128.327,189.298 
			139.9,177.122 139.9,177.122 173.827,177.122 		"/>
		<text transform="matrix(1 0 0 1 92.5667 151.3926)" fill="#FFFFFF" font-family="'PlayfairDisplay-Bold'" font-size="12">Ghana</text>
		<text transform="matrix(1 0 0 1 91.1448 169.2066)" fill="#FFFFFF" font-family="'Roboto-Light'" font-size="10">NA</text>
		<text transform="matrix(1.047 0 0 1 139.7886 169.2065)" fill="#FFFFFF" font-family="'Roboto-Light'" font-size="10">$0.15</text>
		<path fill="#FFFFFF" d="M121.197,169.222h0.041l0.26-0.868l2.01-5.544h0.848l-2.81,7.396h-0.656l-2.816-7.396h0.848l2.037,5.544
			L121.197,169.222z"/>
		<path fill="#FFFFFF" d="M129.704,167.418c-0.285-0.26-0.799-0.472-1.542-0.636c-0.884-0.191-1.537-0.444-1.958-0.759
			c-0.421-0.314-0.632-0.759-0.632-1.333c0-0.565,0.238-1.042,0.714-1.432c0.476-0.39,1.106-0.585,1.89-0.585
			c0.834,0,1.495,0.206,1.982,0.619c0.488,0.413,0.72,0.929,0.697,1.548l-0.014,0.041h-0.759c0-0.406-0.172-0.759-0.516-1.06
			c-0.344-0.301-0.808-0.451-1.391-0.451c-0.597,0-1.045,0.129-1.343,0.386c-0.298,0.257-0.448,0.56-0.448,0.906
			c0,0.342,0.129,0.624,0.386,0.848c0.257,0.223,0.771,0.419,1.542,0.588c0.879,0.196,1.538,0.464,1.976,0.803
			c0.438,0.339,0.656,0.801,0.656,1.384c0,0.615-0.25,1.113-0.749,1.494c-0.499,0.38-1.159,0.571-1.979,0.571
			c-0.898,0-1.603-0.214-2.116-0.643c-0.513-0.428-0.755-0.939-0.728-1.531l0.014-0.041h0.752c0.032,0.533,0.25,0.92,0.653,1.162
			c0.403,0.242,0.878,0.362,1.425,0.362c0.592,0,1.06-0.13,1.401-0.39c0.342-0.26,0.513-0.574,0.513-0.943
			C130.133,167.981,129.99,167.677,129.704,167.418z"/>
	</g>
	<g id="T06" opacity="0">
		<polygon id="AREA_6_" points="258.017,135.122 168.377,135.122 168.377,177.122 200.944,177.122 200.944,177.122 212.517,189.298 
			224.09,177.122 224.09,177.122 258.017,177.122 		"/>
		<text transform="matrix(1 0 0 1 176.7562 151.3926)" fill="#FFFFFF" font-family="'PlayfairDisplay-Bold'" font-size="12">Kenya</text>
		<text transform="matrix(1 0 0 1 175.3343 169.2066)" fill="#FFFFFF" font-family="'Roboto-Light'" font-size="10">NA</text>
		<text transform="matrix(1.047 0 0 1 223.9781 169.2065)" fill="#FFFFFF" font-family="'Roboto-Light'" font-size="10">$0.15</text>
		<path fill="#FFFFFF" d="M205.387,169.222h0.041l0.26-0.868l2.01-5.544h0.848l-2.81,7.396h-0.656l-2.816-7.396h0.848l2.037,5.544
			L205.387,169.222z"/>
		<path fill="#FFFFFF" d="M213.894,167.418c-0.285-0.26-0.799-0.472-1.542-0.636c-0.884-0.191-1.537-0.444-1.958-0.759
			c-0.421-0.314-0.632-0.759-0.632-1.333c0-0.565,0.238-1.042,0.714-1.432c0.476-0.39,1.106-0.585,1.89-0.585
			c0.834,0,1.495,0.206,1.982,0.619c0.488,0.413,0.72,0.929,0.697,1.548l-0.014,0.041h-0.759c0-0.406-0.172-0.759-0.516-1.06
			c-0.344-0.301-0.808-0.451-1.391-0.451c-0.597,0-1.045,0.129-1.343,0.386s-0.448,0.56-0.448,0.906
			c0,0.342,0.129,0.624,0.386,0.848c0.257,0.223,0.771,0.419,1.542,0.588c0.879,0.196,1.538,0.464,1.976,0.803
			c0.438,0.339,0.656,0.801,0.656,1.384c0,0.615-0.25,1.113-0.749,1.494c-0.499,0.38-1.159,0.571-1.979,0.571
			c-0.898,0-1.603-0.214-2.116-0.643c-0.513-0.428-0.755-0.939-0.728-1.531l0.014-0.041h0.752c0.032,0.533,0.25,0.92,0.653,1.162
			c0.403,0.242,0.878,0.362,1.425,0.362c0.592,0,1.06-0.13,1.401-0.39c0.342-0.26,0.513-0.574,0.513-0.943
			C214.322,167.981,214.179,167.677,213.894,167.418z"/>
	</g>
	<g id="T07" opacity="0">
		<polygon id="AREA_7_" points="89.845,212.996 0.205,212.996 0.205,254.996 32.772,254.996 32.772,254.996 44.345,267.172 
			55.918,254.996 55.918,254.996 89.845,254.996 		"/>
		<text transform="matrix(1 0 0 1 8.5837 229.2666)" fill="#FFFFFF" font-family="'PlayfairDisplay-Bold'" font-size="12">Mali</text>
		<text transform="matrix(1 0 0 1 7.1618 247.0806)" fill="#FFFFFF" font-family="'Roboto-Light'" font-size="10">NA</text>
		<text transform="matrix(1.047 0 0 1 55.8056 247.0804)" fill="#FFFFFF" font-family="'Roboto-Light'" font-size="10">$0.16</text>
		<path fill="#FFFFFF" d="M37.215,247.096h0.041l0.26-0.868l2.01-5.544h0.848l-2.81,7.396h-0.656l-2.816-7.396h0.848l2.037,5.544
			L37.215,247.096z"/>
		<path fill="#FFFFFF" d="M45.722,245.292c-0.285-0.26-0.799-0.472-1.542-0.636c-0.884-0.191-1.537-0.444-1.958-0.759
			c-0.421-0.314-0.632-0.759-0.632-1.333c0-0.565,0.238-1.042,0.714-1.432s1.106-0.585,1.89-0.585c0.834,0,1.495,0.206,1.982,0.619
			c0.488,0.413,0.72,0.929,0.697,1.548l-0.014,0.041H46.1c0-0.406-0.172-0.759-0.516-1.06c-0.344-0.301-0.808-0.451-1.391-0.451
			c-0.597,0-1.045,0.129-1.343,0.386c-0.298,0.257-0.448,0.56-0.448,0.906c0,0.342,0.129,0.624,0.386,0.848
			c0.257,0.223,0.771,0.419,1.542,0.588c0.879,0.196,1.538,0.464,1.976,0.803c0.438,0.339,0.656,0.801,0.656,1.384
			c0,0.615-0.25,1.113-0.749,1.494c-0.499,0.38-1.159,0.571-1.979,0.571c-0.898,0-1.603-0.214-2.116-0.643
			c-0.513-0.428-0.755-0.939-0.728-1.531l0.014-0.041h0.752c0.032,0.533,0.25,0.92,0.653,1.162c0.403,0.242,0.878,0.362,1.425,0.362
			c0.592,0,1.06-0.13,1.401-0.39c0.342-0.26,0.513-0.574,0.513-0.943C46.15,245.855,46.007,245.551,45.722,245.292z"/>
	</g>
	<g id="T08" opacity="0">
		<polygon id="AREA_8_" points="173.827,212.996 84.188,212.996 84.188,254.996 116.755,254.996 116.755,254.996 128.327,267.172 
			139.9,254.996 139.9,254.996 173.827,254.996 		"/>
		<text transform="matrix(1 0 0 1 92.5667 229.2666)" fill="#FFFFFF" font-family="'PlayfairDisplay-Bold'" font-size="12">Mauritius</text>
		<text transform="matrix(1 0 0 1 91.1448 247.0806)" fill="#FFFFFF" font-family="'Roboto-Light'" font-size="10">NA</text>
		<text transform="matrix(1.047 0 0 1 139.7886 247.0804)" fill="#FFFFFF" font-family="'Roboto-Light'" font-size="10">$0.08</text>
		<path fill="#FFFFFF" d="M121.197,247.096h0.041l0.26-0.868l2.01-5.544h0.848l-2.81,7.396h-0.656l-2.816-7.396h0.848l2.037,5.544
			L121.197,247.096z"/>
		<path fill="#FFFFFF" d="M129.704,245.292c-0.285-0.26-0.799-0.472-1.542-0.636c-0.884-0.191-1.537-0.444-1.958-0.759
			c-0.421-0.314-0.632-0.759-0.632-1.333c0-0.565,0.238-1.042,0.714-1.432s1.106-0.585,1.89-0.585c0.834,0,1.495,0.206,1.982,0.619
			c0.488,0.413,0.72,0.929,0.697,1.548l-0.014,0.041h-0.759c0-0.406-0.172-0.759-0.516-1.06c-0.344-0.301-0.808-0.451-1.391-0.451
			c-0.597,0-1.045,0.129-1.343,0.386c-0.298,0.257-0.448,0.56-0.448,0.906c0,0.342,0.129,0.624,0.386,0.848
			c0.257,0.223,0.771,0.419,1.542,0.588c0.879,0.196,1.538,0.464,1.976,0.803c0.438,0.339,0.656,0.801,0.656,1.384
			c0,0.615-0.25,1.113-0.749,1.494c-0.499,0.38-1.159,0.571-1.979,0.571c-0.898,0-1.603-0.214-2.116-0.643
			c-0.513-0.428-0.755-0.939-0.728-1.531l0.014-0.041h0.752c0.032,0.533,0.25,0.92,0.653,1.162c0.403,0.242,0.878,0.362,1.425,0.362
			c0.592,0,1.06-0.13,1.401-0.39c0.342-0.26,0.513-0.574,0.513-0.943C130.133,245.855,129.99,245.551,129.704,245.292z"/>
	</g>
	<g id="T09" opacity="0">
		<polygon id="AREA_9_" points="258.017,212.996 168.377,212.996 168.377,254.996 200.944,254.996 200.944,254.996 212.517,267.172 
			224.09,254.996 224.09,254.996 258.017,254.996 		"/>
		<text transform="matrix(1 0 0 1 176.7562 229.2666)" fill="#FFFFFF" font-family="'PlayfairDisplay-Bold'" font-size="12">Morocco</text>
		<text transform="matrix(1 0 0 1 175.3343 247.0806)" fill="#FFFFFF" font-family="'Roboto-Light'" font-size="10">NA</text>
		<text transform="matrix(1.047 0 0 1 223.9781 247.0804)" fill="#FFFFFF" font-family="'Roboto-Light'" font-size="10">$0.35</text>
		<path fill="#FFFFFF" d="M205.387,247.096h0.041l0.26-0.868l2.01-5.544h0.848l-2.81,7.396h-0.656l-2.816-7.396h0.848l2.037,5.544
			L205.387,247.096z"/>
		<path fill="#FFFFFF" d="M213.894,245.292c-0.285-0.26-0.799-0.472-1.542-0.636c-0.884-0.191-1.537-0.444-1.958-0.759
			c-0.421-0.314-0.632-0.759-0.632-1.333c0-0.565,0.238-1.042,0.714-1.432s1.106-0.585,1.89-0.585c0.834,0,1.495,0.206,1.982,0.619
			c0.488,0.413,0.72,0.929,0.697,1.548l-0.014,0.041h-0.759c0-0.406-0.172-0.759-0.516-1.06c-0.344-0.301-0.808-0.451-1.391-0.451
			c-0.597,0-1.045,0.129-1.343,0.386c-0.298,0.257-0.448,0.56-0.448,0.906c0,0.342,0.129,0.624,0.386,0.848
			c0.257,0.223,0.771,0.419,1.542,0.588c0.879,0.196,1.538,0.464,1.976,0.803c0.438,0.339,0.656,0.801,0.656,1.384
			c0,0.615-0.25,1.113-0.749,1.494c-0.499,0.38-1.159,0.571-1.979,0.571c-0.898,0-1.603-0.214-2.116-0.643
			c-0.513-0.428-0.755-0.939-0.728-1.531l0.014-0.041h0.752c0.032,0.533,0.25,0.92,0.653,1.162c0.403,0.242,0.878,0.362,1.425,0.362
			c0.592,0,1.06-0.13,1.401-0.39c0.342-0.26,0.513-0.574,0.513-0.943C214.322,245.855,214.179,245.551,213.894,245.292z"/>
	</g>
	<g id="T10" opacity="0">
		<polygon id="AREA_10_" points="89.844,291.172 0.204,291.172 0.204,333.172 32.771,333.172 32.771,333.172 44.344,345.348 
			55.917,333.172 55.917,333.172 89.844,333.172 		"/>
		<text transform="matrix(1 0 0 1 8.5837 307.4426)" fill="#FFFFFF" font-family="'PlayfairDisplay-Bold'" font-size="12">Nigeria</text>
		<text transform="matrix(1 0 0 1 7.1618 325.2566)" fill="#FFFFFF" font-family="'Roboto-Light'" font-size="10">$0.05</text>
		<text transform="matrix(1.047 0 0 1 55.8056 325.2564)" fill="#FFFFFF" font-family="'Roboto-Light'" font-size="10">$0.08</text>
		<path fill="#FFFFFF" d="M41.214,325.272h0.041l0.26-0.868l2.01-5.544h0.848l-2.81,7.396h-0.656l-2.816-7.396h0.848l2.037,5.544
			L41.214,325.272z"/>
		<path fill="#FFFFFF" d="M49.721,323.468c-0.285-0.26-0.799-0.472-1.542-0.636c-0.884-0.191-1.537-0.444-1.958-0.759
			c-0.421-0.314-0.632-0.759-0.632-1.333c0-0.565,0.238-1.042,0.714-1.432c0.476-0.39,1.106-0.585,1.89-0.585
			c0.834,0,1.495,0.206,1.982,0.619c0.488,0.413,0.72,0.929,0.697,1.548l-0.014,0.041h-0.759c0-0.406-0.172-0.759-0.516-1.06
			c-0.344-0.301-0.808-0.451-1.391-0.451c-0.597,0-1.045,0.129-1.343,0.386s-0.448,0.56-0.448,0.906
			c0,0.342,0.129,0.624,0.386,0.848c0.257,0.223,0.771,0.419,1.542,0.588c0.879,0.196,1.538,0.464,1.976,0.803
			c0.438,0.339,0.656,0.801,0.656,1.384c0,0.615-0.25,1.113-0.749,1.494c-0.499,0.38-1.159,0.571-1.979,0.571
			c-0.898,0-1.603-0.214-2.116-0.643c-0.513-0.428-0.755-0.939-0.728-1.531l0.014-0.041h0.752c0.032,0.533,0.25,0.92,0.653,1.162
			c0.403,0.242,0.878,0.362,1.425,0.362c0.592,0,1.06-0.13,1.401-0.39c0.342-0.26,0.513-0.574,0.513-0.943
			C50.149,324.031,50.006,323.727,49.721,323.468z"/>
	</g>
	<g id="T11" opacity="0">
		<polygon id="AREA_11_" points="173.827,291.172 84.188,291.172 84.188,333.172 116.755,333.172 116.755,333.172 128.327,345.348 
			139.9,333.172 139.9,333.172 173.827,333.172 		"/>
		<text transform="matrix(1 0 0 1 92.5667 307.4426)" fill="#FFFFFF" font-family="'PlayfairDisplay-Bold'" font-size="12">ST  Príncipe</text>
		<text transform="matrix(1 0 0 1 91.1449 325.2566)" fill="#FFFFFF" font-family="'Roboto-Light'" font-size="10">$0.02t</text>
		<text transform="matrix(1.047 0 0 1 139.7886 325.2564)" fill="#FFFFFF" font-family="'Roboto-Light'" font-size="10">$0.21</text>
		<path fill="#FFFFFF" d="M124.198,325.272h0.041l0.26-0.868l2.01-5.544h0.848l-2.81,7.396h-0.656l-2.816-7.396h0.848l2.037,5.544
			L124.198,325.272z"/>
		<path fill="#FFFFFF" d="M132.704,323.468c-0.285-0.26-0.799-0.472-1.542-0.636c-0.884-0.191-1.537-0.444-1.958-0.759
			c-0.421-0.314-0.632-0.759-0.632-1.333c0-0.565,0.238-1.042,0.714-1.432c0.476-0.39,1.106-0.585,1.89-0.585
			c0.834,0,1.495,0.206,1.982,0.619c0.488,0.413,0.72,0.929,0.697,1.548l-0.014,0.041h-0.759c0-0.406-0.172-0.759-0.516-1.06
			s-0.808-0.451-1.391-0.451c-0.597,0-1.045,0.129-1.343,0.386s-0.448,0.56-0.448,0.906c0,0.342,0.129,0.624,0.386,0.848
			c0.257,0.223,0.771,0.419,1.542,0.588c0.879,0.196,1.538,0.464,1.976,0.803s0.656,0.801,0.656,1.384
			c0,0.615-0.25,1.113-0.749,1.494c-0.499,0.38-1.159,0.571-1.979,0.571c-0.898,0-1.603-0.214-2.116-0.643
			c-0.513-0.428-0.755-0.939-0.728-1.531l0.014-0.041h0.752c0.032,0.533,0.25,0.92,0.653,1.162c0.403,0.242,0.878,0.362,1.425,0.362
			c0.592,0,1.06-0.13,1.401-0.39c0.342-0.26,0.513-0.574,0.513-0.943C133.133,324.031,132.99,323.727,132.704,323.468z"/>
	</g>
	<g id="T12" opacity="0">
		<polygon id="AREA_12_" points="258.017,291.172 168.377,291.172 168.377,333.172 200.944,333.172 200.944,333.172 
			212.517,345.348 224.09,333.172 224.09,333.172 258.017,333.172 		"/>
		<text transform="matrix(1 0 0 1 176.7562 307.4427)" fill="#FFFFFF" font-family="'PlayfairDisplay-Bold'" font-size="12">South Africa</text>
		<text transform="matrix(1 0 0 1 175.3343 325.2566)" fill="#FFFFFF" font-family="'Roboto-Light'" font-size="10">NA</text>
		<text transform="matrix(1.047 0 0 1 223.9781 325.2565)" fill="#FFFFFF" font-family="'Roboto-Light'" font-size="10">$0.08</text>
		<path fill="#FFFFFF" d="M208.387,325.272h0.041l0.26-0.868l2.01-5.544h0.848l-2.81,7.396h-0.656l-2.816-7.396h0.848l2.037,5.544
			L208.387,325.272z"/>
		<path fill="#FFFFFF" d="M216.894,323.468c-0.285-0.26-0.799-0.472-1.542-0.636c-0.884-0.191-1.537-0.444-1.958-0.759
			c-0.421-0.314-0.632-0.759-0.632-1.333c0-0.565,0.238-1.042,0.714-1.432c0.476-0.39,1.106-0.585,1.89-0.585
			c0.834,0,1.495,0.206,1.982,0.619c0.488,0.413,0.72,0.929,0.697,1.548l-0.014,0.041h-0.759c0-0.406-0.172-0.759-0.516-1.06
			c-0.344-0.301-0.808-0.451-1.391-0.451c-0.597,0-1.045,0.129-1.343,0.386c-0.298,0.257-0.448,0.56-0.448,0.906
			c0,0.342,0.129,0.624,0.386,0.848c0.257,0.223,0.771,0.419,1.542,0.588c0.879,0.196,1.538,0.464,1.976,0.803
			s0.656,0.801,0.656,1.384c0,0.615-0.25,1.113-0.749,1.494c-0.499,0.38-1.159,0.571-1.979,0.571c-0.898,0-1.603-0.214-2.116-0.643
			c-0.513-0.428-0.755-0.939-0.728-1.531l0.014-0.041h0.752c0.032,0.533,0.25,0.92,0.653,1.162c0.403,0.242,0.878,0.362,1.425,0.362
			c0.592,0,1.06-0.13,1.401-0.39c0.342-0.26,0.513-0.574,0.513-0.943C217.322,324.031,217.179,323.727,216.894,323.468z"/>
	</g>
	<g id="T13" opacity="0">
		<polygon id="AREA_13_" points="89.844,369.179 0.204,369.179 0.204,411.179 32.771,411.179 32.771,411.179 44.344,423.355 
			55.917,411.179 55.917,411.179 89.844,411.179 		"/>
		<text transform="matrix(1 0 0 1 8.5837 385.4497)" fill="#FFFFFF" font-family="'PlayfairDisplay-Bold'" font-size="12">Sudan</text>
		<text transform="matrix(1 0 0 1 7.1618 403.2637)" fill="#FFFFFF" font-family="'Roboto-Light'" font-size="10">$0.10</text>
		<text transform="matrix(1.047 0 0 1 55.8056 403.2635)" fill="#FFFFFF" font-family="'Roboto-Light'" font-size="10">$0.10</text>
		<path fill="#FFFFFF" d="M40.862,403.279h0.041l0.26-0.868l2.01-5.544h0.848l-2.81,7.396h-0.656l-2.816-7.396h0.848l2.037,5.544
			L40.862,403.279z"/>
		<path fill="#FFFFFF" d="M49.369,401.475c-0.285-0.26-0.799-0.472-1.542-0.636c-0.884-0.191-1.537-0.444-1.958-0.759
			c-0.421-0.314-0.632-0.759-0.632-1.333c0-0.565,0.238-1.042,0.714-1.432c0.476-0.39,1.106-0.585,1.89-0.585
			c0.834,0,1.495,0.206,1.982,0.619c0.488,0.413,0.72,0.929,0.697,1.548l-0.014,0.041h-0.759c0-0.406-0.172-0.759-0.516-1.06
			c-0.344-0.301-0.808-0.451-1.391-0.451c-0.597,0-1.045,0.129-1.343,0.386c-0.298,0.257-0.448,0.56-0.448,0.906
			c0,0.342,0.129,0.624,0.386,0.848c0.257,0.223,0.771,0.419,1.542,0.588c0.879,0.196,1.538,0.464,1.976,0.803
			c0.438,0.339,0.656,0.801,0.656,1.384c0,0.615-0.25,1.113-0.749,1.494c-0.499,0.38-1.159,0.571-1.979,0.571
			c-0.898,0-1.603-0.214-2.116-0.643c-0.513-0.428-0.755-0.939-0.728-1.531l0.014-0.041h0.752c0.032,0.533,0.25,0.92,0.653,1.162
			s0.878,0.362,1.425,0.362c0.592,0,1.06-0.13,1.401-0.39c0.342-0.26,0.513-0.574,0.513-0.943
			C49.797,402.038,49.654,401.734,49.369,401.475z"/>
	</g>
	<g id="T14" opacity="0">
		<polygon id="AREA_14_" points="173.197,369.179 83.557,369.179 83.557,411.179 116.124,411.179 116.124,411.179 127.697,423.355 
			139.27,411.179 139.27,411.179 173.197,411.179 		"/>
		<text transform="matrix(1 0 0 1 91.9361 385.4497)" fill="#FFFFFF" font-family="'PlayfairDisplay-Bold'" font-size="12">Tanzania</text>
		<text transform="matrix(1 0 0 1 90.5142 403.2637)" fill="#FFFFFF" font-family="'Roboto-Light'" font-size="10">$0.06</text>
		<text transform="matrix(1.047 0 0 1 139.158 403.2635)" fill="#FFFFFF" font-family="'Roboto-Light'" font-size="10">$0.08 </text>
		<path fill="#FFFFFF" d="M124.567,403.279h0.041l0.26-0.868l2.01-5.544h0.848l-2.81,7.396h-0.656l-2.816-7.396h0.848l2.037,5.544
			L124.567,403.279z"/>
		<path fill="#FFFFFF" d="M133.074,401.475c-0.285-0.26-0.799-0.472-1.542-0.636c-0.884-0.191-1.537-0.444-1.958-0.759
			c-0.421-0.314-0.632-0.759-0.632-1.333c0-0.565,0.238-1.042,0.714-1.432c0.476-0.39,1.106-0.585,1.89-0.585
			c0.834,0,1.495,0.206,1.982,0.619c0.488,0.413,0.72,0.929,0.697,1.548l-0.014,0.041h-0.759c0-0.406-0.172-0.759-0.516-1.06
			c-0.344-0.301-0.808-0.451-1.391-0.451c-0.597,0-1.045,0.129-1.343,0.386c-0.298,0.257-0.448,0.56-0.448,0.906
			c0,0.342,0.129,0.624,0.386,0.848c0.257,0.223,0.771,0.419,1.542,0.588c0.879,0.196,1.538,0.464,1.976,0.803
			c0.438,0.339,0.656,0.801,0.656,1.384c0,0.615-0.25,1.113-0.749,1.494c-0.499,0.38-1.159,0.571-1.979,0.571
			c-0.898,0-1.603-0.214-2.116-0.643c-0.513-0.428-0.755-0.939-0.728-1.531l0.014-0.041h0.752c0.032,0.533,0.25,0.92,0.653,1.162
			s0.878,0.362,1.425,0.362c0.592,0,1.06-0.13,1.401-0.39c0.342-0.26,0.513-0.574,0.513-0.943
			C133.502,402.038,133.359,401.734,133.074,401.475z"/>
	</g>
	<g id="T15" opacity="0">
		<polygon id="AREA_15_" points="258.017,369.179 168.377,369.179 168.377,411.179 200.944,411.179 200.944,411.179 
			212.517,423.355 224.09,411.179 224.09,411.179 258.017,411.179 		"/>
		<text transform="matrix(1 0 0 1 176.7562 385.4497)" fill="#FFFFFF" font-family="'PlayfairDisplay-Bold'" font-size="12">Tunisia</text>
		<text transform="matrix(1 0 0 1 175.3343 403.2637)" fill="#FFFFFF" font-family="'Roboto-Light'" font-size="10">FREE</text>
		<text transform="matrix(1.047 0 0 1 223.9781 403.2635)" fill="#FFFFFF" font-family="'Roboto-Light'" font-size="10">$0.18</text>
		<path fill="#FFFFFF" d="M209.387,403.279h0.041l0.26-0.868l2.01-5.544h0.848l-2.81,7.396h-0.656l-2.816-7.396h0.848l2.037,5.544
			L209.387,403.279z"/>
		<path fill="#FFFFFF" d="M217.894,401.475c-0.285-0.26-0.799-0.472-1.542-0.636c-0.884-0.191-1.537-0.444-1.958-0.759
			c-0.421-0.314-0.632-0.759-0.632-1.333c0-0.565,0.238-1.042,0.714-1.432c0.476-0.39,1.106-0.585,1.89-0.585
			c0.834,0,1.495,0.206,1.982,0.619c0.488,0.413,0.72,0.929,0.697,1.548l-0.014,0.041h-0.759c0-0.406-0.172-0.759-0.516-1.06
			c-0.344-0.301-0.808-0.451-1.391-0.451c-0.597,0-1.045,0.129-1.343,0.386c-0.298,0.257-0.448,0.56-0.448,0.906
			c0,0.342,0.129,0.624,0.386,0.848c0.257,0.223,0.771,0.419,1.542,0.588c0.879,0.196,1.538,0.464,1.976,0.803
			c0.438,0.339,0.656,0.801,0.656,1.384c0,0.615-0.25,1.113-0.749,1.494c-0.499,0.38-1.159,0.571-1.979,0.571
			c-0.898,0-1.603-0.214-2.116-0.643c-0.513-0.428-0.755-0.939-0.728-1.531l0.014-0.041h0.752c0.032,0.533,0.25,0.92,0.653,1.162
			s0.878,0.362,1.425,0.362c0.592,0,1.06-0.13,1.401-0.39c0.342-0.26,0.513-0.574,0.513-0.943
			C218.322,402.038,218.179,401.734,217.894,401.475z"/>
	</g>
</g>
</svg>
