<?xml version="1.0" encoding="utf-8"?>
<!DOCTYPE svg PUBLIC "-//W3C//DTD SVG 1.1//EN" "http://www.w3.org/Graphics/SVG/1.1/DTD/svg11.dtd">
<svg version="1.1" id="GRAPHIC" xmlns="http://www.w3.org/2000/svg" xmlns:xlink="http://www.w3.org/1999/xlink" x="0px" y="0px"
	 width="258.014px" height="552.13px" viewBox="0 0 258.014 552.13" enable-background="new 0 0 258.014 552.13"
	 xml:space="preserve">
    <style type="text/css">
       @font-face {
            font-family: 'Roboto-Light';
            font-weight: 100;
            src: url(https://fonts.googleapis.com/css?family=Roboto:300);
        }
        @font-face {
            font-family: 'Roboto-Bold';
            src: url(http://www.nacion.com/static/LNCNacionBeta/fonts/opensans/opensans_semibold.woff);    
            font-weight: 300;
        }
        @font-face {
            font-family: 'Open Sans Bold';
            src: url(http://www.nacion.com/static/LNCNacionBeta/fonts/opensans/opensans_extrabold.woff);    
            font-weight: 800;
        }
    </style>
<g id="TOP">
	<g id="KEY">
		<circle fill="none" stroke="#000000" stroke-miterlimit="10" cx="213.197" cy="44.501" r="10"/>
		<circle fill="none" stroke="#000000" stroke-miterlimit="10" cx="213.197" cy="34.501" r="20"/>
		<text transform="matrix(1 0 0 1 207.0798 11.8123)" font-family="'Roboto-Bold'" font-size="8">20$</text>
		<text transform="matrix(1 0 0 1 206.0798 31.6042)" font-family="'Roboto-Bold'" font-size="8">10$</text>
	</g>
	<circle fill="#790700" cx="23.032" cy="34.501" r="6.076"/>
	<circle fill="#D6D6D6" cx="87.11" cy="34.501" r="6.076"/>
	<text transform="matrix(1 0 0 1 32.9573 38.0077)" font-family="'Arial'" font-size="12">Public</text>
	<text transform="matrix(1 0 0 1 96.9465 38.0077)" font-family="'Arial'" font-size="12">Private</text>
	<g>
		<text transform="matrix(1.0075 0 0 1 190.2781 62.8339)" font-family="'Roboto-Bold'" font-size="8">Less than 5$</text>
	</g>
	<circle fill="none" stroke="#000000" stroke-miterlimit="10" cx="213.197" cy="49.501" r="5"/>
</g>
<g id="INTERACT">
	<g>
		<path fill="#191818" d="M101.578,502.801h-3.197c-0.468,0-0.848-0.38-0.848-0.848c0-0.468,0.38-0.848,0.848-0.848h3.197
			c0.468,0,0.848,0.38,0.848,0.848C102.426,502.421,102.047,502.801,101.578,502.801z"/>
		<path fill="#191818" d="M93.264,497.685c-0.468,0-0.848-0.38-0.848-0.848v-3.198c0-0.469,0.38-0.848,0.848-0.848
			c0.468,0,0.848,0.38,0.848,0.848v3.198C94.112,497.305,93.732,497.685,93.264,497.685z"/>
		<path fill="#191818" d="M88.147,502.801h-3.198c-0.469,0-0.848-0.38-0.848-0.848c0-0.468,0.38-0.848,0.848-0.848h3.198
			c0.469,0,0.848,0.38,0.848,0.848C88.996,502.421,88.616,502.801,88.147,502.801z"/>
		<path fill="#191818" d="M96.882,499.183c-0.217,0-0.434-0.083-0.6-0.249c-0.331-0.331-0.331-0.869,0-1.199l2.138-2.138
			c0.331-0.331,0.868-0.331,1.2,0c0.331,0.331,0.331,0.868,0,1.199l-2.138,2.138C97.316,499.101,97.099,499.183,96.882,499.183z"/>
		<path fill="#191818" d="M89.646,499.183c-0.217,0-0.434-0.083-0.6-0.249l-2.138-2.138c-0.331-0.331-0.331-0.868,0-1.199
			c0.331-0.331,0.868-0.331,1.2,0l2.138,2.138c0.331,0.331,0.331,0.868,0,1.199C90.08,499.101,89.863,499.183,89.646,499.183z"/>
		<path fill="#191818" d="M99.868,516.024h-1.697v-3.838c0-0.59-0.48-1.071-1.071-1.071c-0.59,0-1.07,0.48-1.07,1.071v0.639h-1.697
			v-0.639c0-1.526,1.241-2.767,2.767-2.767c1.526,0,2.767,1.241,2.767,2.767V516.024z"/>
		<path fill="#191818" d="M103.706,516.663h-1.696v-3.838c0-0.59-0.481-1.07-1.071-1.07c-0.59,0-1.07,0.48-1.07,1.07v3.198h-1.697
			v-3.198c0-1.525,1.241-2.767,2.767-2.767c1.526,0,2.767,1.241,2.767,2.767V516.663z"/>
		<path fill="#191818" d="M92.194,520.501h-1.697v-18.548c0-1.525,1.241-2.767,2.767-2.767c1.526,0,2.767,1.241,2.767,2.767v14.071
			h-1.697v-14.071c0-0.59-0.48-1.07-1.071-1.07c-0.59,0-1.07,0.48-1.07,1.07V520.501z"/>
		<path fill="#191818" d="M92.194,530.734h-1.697c0-0.541-0.707-1.495-1.456-2.504c-1.279-1.724-3.031-4.085-3.337-7.11
			c-0.078-0.771-0.106-1.917-0.084-3.406c0.026-1.687,1.18-3.173,2.809-3.615l2.8-0.759l0.444,1.638l-2.8,0.759
			c-0.902,0.244-1.542,1.068-1.556,2.003c-0.022,1.404,0.004,2.514,0.075,3.21c0.259,2.561,1.785,4.618,3.011,6.27
			C91.404,528.567,92.194,529.632,92.194,530.734z"/>
		<path fill="#191818" d="M105.624,530.734h-1.697c0-0.506,0.21-1.214,0.529-2.285c0.809-2.721,2.316-7.787,1.147-13.515
			c-0.247-1.212-0.652-1.244-0.893-1.263c-0.715-0.059-1.282,0.421-1.288,0.426l-1.13-1.265c0.111-0.099,1.125-0.967,2.549-0.853
			c1.275,0.099,2.091,0.979,2.424,2.615c1.253,6.143-0.332,11.473-1.183,14.337C105.858,529.69,105.624,530.474,105.624,530.734z"/>
	</g>
	<g>
		<path fill="#191818" d="M116.287,510.06h-1.609v-9.647h1.609V510.06z"/>
		<path fill="#191818" d="M119.06,502.891l0.094,1.034c0.234-0.367,0.527-0.652,0.885-0.858c0.355-0.205,0.756-0.308,1.201-0.308
			c0.746,0,1.328,0.227,1.746,0.679c0.418,0.453,0.627,1.158,0.627,2.117v4.505h-1.611v-4.492c0-0.538-0.111-0.922-0.334-1.149
			c-0.223-0.228-0.562-0.341-1.018-0.341c-0.312,0-0.594,0.069-0.84,0.209c-0.248,0.139-0.451,0.33-0.611,0.572v5.201h-1.609v-7.169
			H119.06z"/>
		<path fill="#191818" d="M126.611,501.149v1.742h1.285v1.193h-1.285v3.962c0,0.296,0.064,0.507,0.191,0.632
			c0.129,0.126,0.299,0.189,0.51,0.189c0.09,0,0.176-0.008,0.26-0.023c0.084-0.016,0.162-0.036,0.238-0.062l0.172,1.179
			c-0.137,0.075-0.301,0.134-0.49,0.176c-0.189,0.042-0.387,0.062-0.59,0.062c-0.592,0-1.055-0.173-1.391-0.52
			c-0.336-0.347-0.504-0.892-0.504-1.633v-3.962h-1.094v-1.193h1.094v-1.742H126.611z"/>
		<path fill="#191818" d="M131.722,510.199c-1.016,0-1.824-0.332-2.428-0.997c-0.604-0.664-0.904-1.518-0.904-2.56v-0.265
			c0-1.042,0.299-1.907,0.898-2.594c0.598-0.686,1.348-1.028,2.248-1.023c0.969,0,1.709,0.292,2.223,0.878
			c0.516,0.585,0.773,1.37,0.773,2.354v0.948h-4.473l-0.014,0.032c0.027,0.568,0.193,1.032,0.5,1.394
			c0.307,0.361,0.732,0.542,1.275,0.542c0.434,0,0.805-0.054,1.113-0.159c0.309-0.106,0.607-0.259,0.895-0.457l0.518,1.056
			c-0.27,0.239-0.627,0.441-1.074,0.605C132.828,510.117,132.31,510.199,131.722,510.199z M131.537,504.051
			c-0.396,0-0.723,0.157-0.98,0.474c-0.256,0.315-0.414,0.717-0.477,1.202l0.014,0.033h2.842v-0.166
			c0-0.454-0.115-0.825-0.348-1.112C132.355,504.195,132.006,504.051,131.537,504.051z"/>
		<path fill="#191818" d="M138.722,504.342l-0.688-0.026c-0.314,0-0.576,0.066-0.785,0.199c-0.211,0.132-0.373,0.32-0.488,0.562
			v4.982h-1.609v-7.169h1.471l0.105,1.041c0.182-0.367,0.414-0.654,0.699-0.861c0.285-0.208,0.613-0.312,0.984-0.312
			c0.098,0,0.188,0.008,0.271,0.022c0.084,0.016,0.16,0.035,0.232,0.057L138.722,504.342z"/>
		<path fill="#191818" d="M143.484,510.06c-0.057-0.181-0.105-0.357-0.143-0.53c-0.037-0.172-0.062-0.345-0.076-0.517
			c-0.221,0.336-0.51,0.617-0.871,0.845c-0.359,0.228-0.762,0.341-1.209,0.341c-0.746,0-1.318-0.191-1.719-0.576
			c-0.4-0.384-0.6-0.912-0.6-1.583c0-0.693,0.274-1.233,0.822-1.62c0.547-0.387,1.318-0.58,2.31-0.58h1.252v-0.629
			c0-0.375-0.109-0.669-0.33-0.881c-0.221-0.212-0.537-0.318-0.947-0.318c-0.367,0-0.658,0.088-0.875,0.265
			c-0.217,0.177-0.324,0.404-0.324,0.683h-1.551l-0.006-0.04c-0.031-0.564,0.221-1.066,0.758-1.504
			c0.537-0.436,1.236-0.655,2.098-0.655c0.834,0,1.508,0.212,2.02,0.636c0.514,0.424,0.77,1.033,0.77,1.828v3.188
			c0,0.296,0.02,0.579,0.059,0.851c0.041,0.273,0.104,0.538,0.193,0.799H143.484z M141.509,508.908c0.406,0,0.773-0.102,1.098-0.306
			c0.324-0.203,0.539-0.435,0.645-0.695v-1.06h-1.277c-0.469,0-0.836,0.115-1.1,0.348c-0.266,0.231-0.398,0.505-0.398,0.818
			c0,0.273,0.09,0.491,0.27,0.652C140.924,508.827,141.179,508.908,141.509,508.908z"/>
		<path fill="#191818" d="M148.836,508.908c0.393,0,0.725-0.115,0.994-0.347c0.268-0.23,0.402-0.52,0.402-0.866h1.459l0.014,0.04
			c0.021,0.671-0.252,1.25-0.818,1.735c-0.568,0.486-1.252,0.728-2.051,0.728c-1.057,0-1.865-0.34-2.428-1.02
			c-0.564-0.681-0.846-1.542-0.846-2.584v-0.232c0-1.037,0.281-1.898,0.846-2.58c0.563-0.683,1.371-1.023,2.428-1.023
			c0.861,0,1.56,0.25,2.096,0.752c0.537,0.501,0.797,1.139,0.779,1.911l-0.014,0.04h-1.465c0-0.394-0.129-0.727-0.387-1.001
			c-0.258-0.273-0.596-0.41-1.01-0.41c-0.605,0-1.033,0.219-1.285,0.658c-0.252,0.439-0.379,0.989-0.379,1.65v0.232
			c0,0.675,0.127,1.229,0.379,1.664C147.802,508.69,148.23,508.908,148.836,508.908z"/>
		<path fill="#191818" d="M154.318,501.149v1.742h1.285v1.193h-1.285v3.962c0,0.296,0.064,0.507,0.191,0.632
			c0.129,0.126,0.299,0.189,0.51,0.189c0.09,0,0.176-0.008,0.26-0.023c0.084-0.016,0.162-0.036,0.238-0.062l0.172,1.179
			c-0.137,0.075-0.301,0.134-0.49,0.176c-0.189,0.042-0.387,0.062-0.59,0.062c-0.592,0-1.055-0.173-1.391-0.52
			c-0.336-0.347-0.504-0.892-0.504-1.633v-3.962h-1.094v-1.193h1.094v-1.742H154.318z"/>
		<path fill="#191818" d="M158.072,501.136h-1.609v-1.411h1.609V501.136z M158.072,510.06h-1.609v-7.169h1.609V510.06z"/>
		<path fill="#191818" d="M161.685,507.635l0.119,0.583h0.041l0.125-0.583l1.426-4.744h1.662l-2.545,7.169h-1.397l-2.559-7.169
			h1.664L161.685,507.635z"/>
		<path fill="#191818" d="M168.375,510.199c-1.016,0-1.824-0.332-2.428-0.997c-0.604-0.664-0.904-1.518-0.904-2.56v-0.265
			c0-1.042,0.299-1.907,0.899-2.594c0.598-0.686,1.348-1.028,2.248-1.023c0.969,0,1.709,0.292,2.223,0.878
			c0.516,0.585,0.773,1.37,0.773,2.354v0.948h-4.473l-0.014,0.032c0.027,0.568,0.193,1.032,0.5,1.394
			c0.307,0.361,0.732,0.542,1.275,0.542c0.433,0,0.805-0.054,1.113-0.159c0.309-0.106,0.607-0.259,0.895-0.457l0.517,1.056
			c-0.27,0.239-0.627,0.441-1.074,0.605C169.48,510.117,168.963,510.199,168.375,510.199z M168.189,504.051
			c-0.397,0-0.723,0.157-0.981,0.474c-0.256,0.315-0.414,0.717-0.476,1.202l0.014,0.033h2.842v-0.166
			c0-0.454-0.115-0.825-0.348-1.112C169.008,504.195,168.658,504.051,168.189,504.051z"/>
		<path fill="#191818" d="M121.773,524.584c-0.256,0.367-0.678,0.699-1.262,0.998c-0.586,0.298-1.338,0.446-2.256,0.446
			c-1.162,0-2.119-0.367-2.869-1.103c-0.75-0.735-1.127-1.687-1.127-2.852v-2.014c0-1.166,0.355-2.117,1.064-2.852
			c0.709-0.735,1.623-1.103,2.746-1.103c1.135,0,2.018,0.279,2.646,0.838c0.629,0.559,0.951,1.286,0.965,2.183l-0.014,0.04h-1.523
			c-0.037-0.53-0.225-0.957-0.566-1.282c-0.344-0.324-0.84-0.486-1.488-0.486c-0.666,0-1.205,0.249-1.613,0.748
			c-0.408,0.498-0.613,1.132-0.613,1.899v2.025c0,0.776,0.223,1.415,0.666,1.916c0.443,0.501,1.02,0.752,1.727,0.752
			c0.504,0,0.912-0.059,1.225-0.176c0.314-0.116,0.541-0.254,0.684-0.413v-1.956h-1.916v-1.205h3.525V524.584z"/>
		<path fill="#191818" d="M126.435,520.172l-0.689-0.026c-0.314,0-0.576,0.066-0.785,0.199c-0.209,0.132-0.371,0.32-0.486,0.562
			v4.982h-1.611v-7.169h1.471l0.107,1.041c0.18-0.367,0.414-0.654,0.699-0.861c0.285-0.208,0.611-0.312,0.982-0.312
			c0.098,0,0.188,0.008,0.271,0.023c0.084,0.016,0.162,0.035,0.232,0.057L126.435,520.172z"/>
		<path fill="#191818" d="M131.195,525.89c-0.057-0.181-0.105-0.357-0.143-0.53c-0.037-0.172-0.062-0.345-0.076-0.517
			c-0.221,0.336-0.51,0.617-0.871,0.845c-0.359,0.228-0.762,0.341-1.209,0.341c-0.746,0-1.318-0.191-1.719-0.576
			c-0.4-0.384-0.6-0.912-0.6-1.583c0-0.693,0.273-1.233,0.822-1.62c0.547-0.387,1.318-0.58,2.311-0.58h1.252v-0.629
			c0-0.375-0.109-0.669-0.33-0.881s-0.537-0.318-0.947-0.318c-0.367,0-0.658,0.088-0.875,0.265
			c-0.217,0.177-0.324,0.404-0.324,0.683h-1.551l-0.006-0.04c-0.031-0.565,0.221-1.066,0.758-1.504
			c0.537-0.437,1.236-0.655,2.098-0.655c0.834,0,1.508,0.212,2.02,0.636c0.514,0.424,0.77,1.033,0.77,1.828v3.188
			c0,0.296,0.02,0.579,0.059,0.851c0.041,0.272,0.104,0.538,0.193,0.799H131.195z M129.22,524.738c0.406,0,0.773-0.102,1.098-0.306
			c0.324-0.203,0.539-0.435,0.645-0.695v-1.06h-1.277c-0.469,0-0.836,0.115-1.1,0.348c-0.266,0.231-0.399,0.505-0.399,0.818
			c0,0.273,0.09,0.491,0.27,0.652C128.634,524.657,128.89,524.738,129.22,524.738z"/>
		<path fill="#191818" d="M139.865,522.544c0,1.042-0.244,1.884-0.734,2.524c-0.49,0.641-1.174,0.96-2.049,0.96
			c-0.406,0-0.766-0.072-1.078-0.218c-0.314-0.147-0.584-0.36-0.809-0.643v3.478h-1.611v-9.925h1.359l0.158,0.901
			c0.23-0.336,0.508-0.592,0.832-0.768c0.324-0.177,0.701-0.265,1.129-0.265c0.885,0,1.572,0.35,2.065,1.05
			c0.492,0.7,0.738,1.622,0.738,2.766V522.544z M138.261,522.402c0-0.732-0.137-1.331-0.414-1.796
			c-0.275-0.466-0.688-0.698-1.234-0.698c-0.336,0-0.621,0.071-0.855,0.215c-0.234,0.144-0.422,0.343-0.562,0.599v3.235
			c0.141,0.252,0.328,0.444,0.562,0.579c0.234,0.135,0.523,0.202,0.867,0.202c0.549,0,0.959-0.202,1.231-0.605
			c0.271-0.404,0.406-0.935,0.406-1.592V522.402z"/>
		<path fill="#191818" d="M142.181,519.649c0.238-0.335,0.529-0.596,0.871-0.781c0.342-0.185,0.721-0.278,1.137-0.278
			c0.76,0,1.352,0.239,1.779,0.719c0.426,0.479,0.639,1.218,0.639,2.216v4.366h-1.609v-4.379c0-0.565-0.113-0.975-0.338-1.226
			c-0.227-0.252-0.564-0.378-1.014-0.378c-0.314,0-0.596,0.065-0.846,0.195c-0.25,0.13-0.455,0.31-0.619,0.54v5.247h-1.609v-10.335
			h1.609V519.649z"/>
		<path fill="#191818" d="M149.314,516.966h-1.609v-1.411h1.609V516.966z M149.314,525.89h-1.609v-7.169h1.609V525.89z"/>
		<path fill="#191818" d="M153.4,524.738c0.393,0,0.725-0.115,0.994-0.347c0.268-0.231,0.402-0.52,0.402-0.866h1.459l0.014,0.04
			c0.021,0.671-0.252,1.25-0.818,1.735c-0.568,0.486-1.252,0.729-2.051,0.729c-1.057,0-1.865-0.34-2.428-1.02
			c-0.565-0.681-0.846-1.542-0.846-2.584v-0.232c0-1.037,0.281-1.897,0.846-2.58c0.562-0.683,1.371-1.023,2.428-1.023
			c0.861,0,1.561,0.25,2.096,0.752c0.537,0.501,0.797,1.139,0.779,1.911l-0.014,0.04h-1.465c0-0.393-0.129-0.727-0.387-1.001
			c-0.258-0.273-0.596-0.41-1.01-0.41c-0.605,0-1.033,0.219-1.285,0.658c-0.252,0.439-0.379,0.989-0.379,1.65v0.231
			c0,0.675,0.127,1.229,0.379,1.664C152.367,524.52,152.795,524.738,153.4,524.738z"/>
	</g>
</g>
<g id="STUFF" pointer-events="none">
	<text transform="matrix(1 0 0 1 107.6617 231.1725)" font-family="'Arial'" font-size="14">Ghana</text>
	<text transform="matrix(1 0 0 1 192.277 153.1069)" font-family="'Arial'" font-size="14">Congo</text>
	<text transform="matrix(1 0 0 1 18.4125 225.8381)" enable-background="new    "><tspan x="0" y="0" font-family="'Arial'" font-size="10">Democratic</tspan><tspan x="-15.334" y="10" font-family="'Arial'" font-size="10">Republic of Congo</tspan></text>
	<text transform="matrix(1 0 0 1 95.2066 153.107)" fill="#790700" font-family="'Arial'" font-size="14">Cameroon</text>
	<text transform="matrix(1 0 0 1 3.2131 153.107)" fill="#790700" font-family="'Arial'" font-size="14">Burkina Faso</text>
	<text transform="matrix(1 0 0 1 32.3976 309.291)" font-family="'Arial'" font-size="14">Mali</text>
	<text transform="matrix(0.8957 0 0 1 101.1506 309.6174)" font-family="'Arial'" font-size="14">Mauritius</text>
	<text transform="matrix(1 0 0 1 192.7662 231.173)" font-family="'Arial'" font-size="14">Kenya</text>
	<text transform="matrix(1 0 0 1 21.319 385.934)" font-family="'Arial'" font-size="14">Nigeria</text>
	<g>
		<text transform="matrix(1 0 0 1 106.0251 381.9691)"><tspan x="0" y="0" font-family="'Arial'" font-size="10">São Tomé</tspan><tspan x="-5.354" y="10" font-family="'Arial'" font-size="10">and Príncipe</tspan></text>
	</g>
	<text transform="matrix(1 0 0 1 184.3685 307.9552)" font-family="'Arial'" font-size="14">Morocco</text>
	<text transform="matrix(1 0 0 1 191.9659 387.3033)" font-family="'Arial'" font-size="14">Sudan</text>
	<text transform="matrix(1 0 0 1 14.6307 465.3688)" font-family="'Arial'" font-size="14">Tanzania</text>
	<text transform="matrix(1 0 0 1 105.6296 465.3694)" font-family="'Arial'" font-size="14">Tunisia</text>
	<text transform="matrix(1 0 0 1 188.5891 465.3694)" font-family="'Arial'" font-size="14">Uganda</text>
	<path fill="#790700" d="M129.412,111.058c0,2.761-2.239,5-5.001,5c-2.761,0-4.999-2.239-4.999-5c0-2.762,2.238-5,4.999-5
		C127.173,106.058,129.412,108.297,129.412,111.058z"/>
	<path opacity="0.8" fill="#D6D6D6" enable-background="new    " d="M146.163,111.058c0,5.524-4.476,10-10.002,10
		c-5.522,0-9.998-4.476-9.998-10c0-5.524,4.476-10,9.998-10C141.687,101.058,146.163,105.536,146.163,111.058z"/>
	<path fill="#790700" d="M45.907,111.058c0,2.761-2.239,5-5.001,5c-2.761,0-4.999-2.239-4.999-5c0-2.762,2.238-5,4.999-5
		C43.669,106.058,45.907,108.297,45.907,111.058z"/>
	<path opacity="0.8" fill="#D6D6D6" enable-background="new    " d="M51.973,111.058c0,2.762-2.238,5-5.001,5
		c-2.761,0-4.999-2.238-4.999-5c0-2.762,2.238-5,4.999-5C49.735,106.058,51.973,108.297,51.973,111.058z"/>
	<path fill="#790700" d="M45.971,188.883c0,2.761-2.239,5-5.001,5c-2.761,0-4.999-2.239-4.999-5c0-2.762,2.238-5,4.999-5
		C43.732,183.883,45.971,186.122,45.971,188.883z"/>
	<path opacity="0.8" fill="#D6D6D6" enable-background="new    " d="M52.036,188.883c0,2.762-2.238,5-5.001,5
		c-2.761,0-4.999-2.238-4.999-5c0-2.762,2.238-5,4.999-5C49.798,183.883,52.036,186.122,52.036,188.883z"/>
	<path fill="#790700" d="M214.618,110.817c0,2.761-2.239,5-5.001,5c-2.761,0-4.999-2.239-4.999-5c0-2.762,2.238-5,4.999-5
		C212.379,105.817,214.618,108.056,214.618,110.817z"/>
	<path opacity="0.8" fill="#D6D6D6" enable-background="new    " d="M223.684,110.817c0,3.314-2.686,6-6.001,6
		c-3.313,0-5.999-2.686-5.999-6s2.686-6,5.999-6C220.998,104.817,223.684,107.504,223.684,110.817z"/>
	<path fill="#790700" d="M130.098,188.883c0,3.313-2.687,6-6.001,6c-3.313,0-5.999-2.687-5.999-6c0-3.314,2.686-6,5.999-6
		C127.411,182.883,130.098,185.57,130.098,188.883z"/>
	<path opacity="0.8" fill="#D6D6D6" enable-background="new    " d="M139.163,188.883c0,3.314-2.686,6-6.001,6
		c-3.313,0-5.999-2.686-5.999-6c0-3.314,2.686-6,5.999-6C136.477,182.883,139.163,185.57,139.163,188.883z"/>
	<path fill="#790700" d="M130.412,266.948c0,2.761-2.239,5-5.001,5c-2.761,0-4.999-2.239-4.999-5c0-2.762,2.238-5,4.999-5
		C128.173,261.948,130.412,264.187,130.412,266.948z"/>
	<path opacity="0.8" fill="#D6D6D6" enable-background="new    " d="M149.643,266.948c0,6.076-4.924,11-11.002,11
		c-6.074,0-10.998-4.924-10.998-11c0-6.076,4.924-11,10.998-11C144.72,255.948,149.643,260.874,149.643,266.948z"/>
	<path fill="#790700" d="M45.543,267.001c0,2.761-2.239,5-5.001,5c-2.761,0-4.999-2.239-4.999-5c0-2.762,2.238-5,4.999-5
		C43.304,262.001,45.543,264.24,45.543,267.001z"/>
	<path opacity="0.8" fill="#D6D6D6" enable-background="new    " d="M64.71,267.001c0,6.076-4.924,11-11.002,11
		c-6.074,0-10.998-4.924-10.998-11c0-6.076,4.924-11,10.998-11C59.785,256.001,64.71,260.927,64.71,267.001z"/>
	<path fill="#790700" d="M213.123,188.883c0,3.313-2.687,6-6.001,6c-3.313,0-5.999-2.687-5.999-6c0-3.314,2.686-6,5.999-6
		C210.437,182.883,213.123,185.57,213.123,188.883z"/>
	<path opacity="0.8" fill="#D6D6D6" enable-background="new    " d="M220.189,188.883c0,2.762-2.238,5-5.001,5
		c-2.761,0-4.999-2.238-4.999-5c0-2.762,2.238-5,4.999-5C217.951,183.883,220.189,186.122,220.189,188.883z"/>
	<path fill="#790700" d="M132.162,345.014c0,4.97-4.03,9-9.002,9c-4.97,0-8.998-4.03-8.998-9c0-4.972,4.028-9,8.998-9
		C128.132,336.014,132.162,340.044,132.162,345.014z"/>
	<path opacity="0.8" fill="#D6D6D6" enable-background="new    " d="M147.643,345.014c0,5.524-4.476,10-10.002,10
		c-5.522,0-9.998-4.476-9.998-10c0-5.524,4.476-10,9.998-10C143.167,335.014,147.643,339.492,147.643,345.014z"/>
	<path fill="#790700" d="M45.7,344.979c0,2.761-2.239,5-5.001,5c-2.761,0-4.999-2.239-4.999-5c0-2.762,2.238-5,4.999-5
		C43.461,339.979,45.7,342.218,45.7,344.979z"/>
	<path opacity="0.8" fill="#D6D6D6" enable-background="new    " d="M61.031,344.979c0,4.972-4.028,9-9.002,9
		c-4.97,0-8.998-4.028-8.998-9c0-4.972,4.028-9,8.998-9C57.001,335.979,61.031,340.009,61.031,344.979z"/>
	<path fill="#790700" d="M214.725,267.001c0,2.761-2.239,5-5.001,5c-2.761,0-4.999-2.239-4.999-5c0-2.762,2.238-5,4.999-5
		C212.487,262.001,214.725,264.24,214.725,267.001z"/>
	<path opacity="0.8" fill="#D6D6D6" enable-background="new    " d="M246.192,267.001c0,9.943-8.057,18-18.004,18
		c-9.94,0-17.996-8.057-17.996-18c0-9.943,8.057-18,17.996-18C238.135,249.001,246.192,257.061,246.192,267.001z"/>
	<path fill="#790700" d="M45.966,423.079c0,2.761-2.239,5-5.001,5c-2.761,0-4.999-2.239-4.999-5c0-2.762,2.238-5,4.999-5
		C43.727,418.079,45.966,420.318,45.966,423.079z"/>
	<path opacity="0.8" fill="#D6D6D6" enable-background="new    " d="M52.031,423.079c0,2.762-2.238,5-5.001,5
		c-2.761,0-4.999-2.238-4.999-5s2.238-5,4.999-5C49.793,418.079,52.031,420.318,52.031,423.079z"/>
	<path fill="#790700" d="M216.126,345.014c0,4.97-4.03,9-9.002,9c-4.97,0-8.998-4.03-8.998-9c0-4.972,4.028-9,8.998-9
		C212.096,336.014,216.126,340.044,216.126,345.014z"/>
	<path opacity="0.8" fill="#D6D6D6" enable-background="new    " d="M222.914,345.014c0,2.762-2.238,5-5.001,5
		c-2.761,0-4.999-2.238-4.999-5s2.238-5,4.999-5C220.675,340.014,222.914,342.253,222.914,345.014z"/>
	<path fill="#790700" d="M214.126,423.079c0,2.761-2.239,5-5.001,5c-2.761,0-4.999-2.239-4.999-5c0-2.762,2.238-5,4.999-5
		C211.887,418.079,214.126,420.318,214.126,423.079z"/>
	<path opacity="0.8" fill="#D6D6D6" enable-background="new    " d="M220.192,423.079c0,2.762-2.238,5-5.001,5
		c-2.761,0-4.999-2.238-4.999-5s2.238-5,4.999-5C217.953,418.079,220.192,420.318,220.192,423.079z"/>
	<path fill="#790700" d="M129.654,423.079c0,2.761-2.239,5-5.001,5c-2.761,0-4.999-2.239-4.999-5c0-2.762,2.238-5,4.999-5
		C127.416,418.079,129.654,420.318,129.654,423.079z"/>
	<path opacity="0.8" fill="#D6D6D6" enable-background="new    " d="M135.72,423.079c0,2.762-2.238,5-5.001,5
		c-2.761,0-4.999-2.238-4.999-5s2.238-5,4.999-5C133.482,418.079,135.72,420.318,135.72,423.079z"/>
</g>
<g id="AREA">
	<rect id="A15" x="177.996" y="401.406" fill="#FFFFFF" fill-opacity="0" width="69.988" height="48">
        <animate attributeName="opacity" dur="0.2" to="1" begin="A15.mouseover" fill="freeze" xlink:href="#T15"/> 
        <animate attributeName="opacity" dur="0.2" to="0" begin="A15.mouseout" fill="freeze" xlink:href="#T15"/>
    </rect>
	<rect id="A14" x="94.013" y="401.406" fill="#FFFFFF" fill-opacity="0" width="69.989" height="48">
        <animate attributeName="opacity" dur="0.2" to="1" begin="A14.mouseover" fill="freeze" xlink:href="#T14"/> 
        <animate attributeName="opacity" dur="0.2" to="0" begin="A14.mouseout" fill="freeze" xlink:href="#T14"/>
    </rect>
	<rect id="A13" x="10.03" y="401.406" fill="#FFFFFF" fill-opacity="0" width="69.989" height="48">
        <animate attributeName="opacity" dur="0.2" to="1" begin="A13.mouseover" fill="freeze" xlink:href="#T13"/> 
        <animate attributeName="opacity" dur="0.2" to="0" begin="A13.mouseout" fill="freeze" xlink:href="#T13"/>
    </rect>
	<rect id="A12" x="177.996" y="320.492" fill="#FFFFFF" fill-opacity="0" width="69.988" height="48">
        <animate attributeName="opacity" dur="0.2" to="1" begin="A12.mouseover" fill="freeze" xlink:href="#T12"/> 
        <animate attributeName="opacity" dur="0.2" to="0" begin="A12.mouseout" fill="freeze" xlink:href="#T12"/>
    </rect>
	<rect id="A11" x="94.013" y="320.492" fill="#FFFFFF" fill-opacity="0" width="69.989" height="48">
        <animate attributeName="opacity" dur="0.2" to="1" begin="A11.mouseover" fill="freeze" xlink:href="#T11"/> 
        <animate attributeName="opacity" dur="0.2" to="0" begin="A11.mouseout" fill="freeze" xlink:href="#T11"/>
    </rect>
	<rect id="A10" x="10.03" y="320.492" fill="#FFFFFF" fill-opacity="0" width="69.989" height="48">
        <animate attributeName="opacity" dur="0.2" to="1" begin="A10.mouseover" fill="freeze" xlink:href="#T10"/> 
        <animate attributeName="opacity" dur="0.2" to="0" begin="A10.mouseout" fill="freeze" xlink:href="#T10"/>
    </rect>
	<rect id="A09" x="177.996" y="243.172" fill="#FFFFFF" fill-opacity="0" width="69.988" height="48">
        <animate attributeName="opacity" dur="0.2" to="1" begin="A09.mouseover" fill="freeze" xlink:href="#T09"/> 
        <animate attributeName="opacity" dur="0.2" to="0" begin="A09.mouseout" fill="freeze" xlink:href="#T09"/>
    </rect>
	<rect id="A08" x="94.013" y="243.172" fill="#FFFFFF" fill-opacity="0" width="69.989" height="48">
        <animate attributeName="opacity" dur="0.2" to="1" begin="A08.mouseover" fill="freeze" xlink:href="#T08"/> 
        <animate attributeName="opacity" dur="0.2" to="0" begin="A08.mouseout" fill="freeze" xlink:href="#T08"/>
    </rect>
	<rect id="A07" x="10.03" y="243.172" fill="#FFFFFF" fill-opacity="0" width="69.989" height="48">
        <animate attributeName="opacity" dur="0.2" to="1" begin="A07.mouseover" fill="freeze" xlink:href="#T07"/> 
        <animate attributeName="opacity" dur="0.2" to="0" begin="A07.mouseout" fill="freeze" xlink:href="#T07"/>
    </rect>
	<rect id="A06" x="177.996" y="163.744" fill="#FFFFFF" fill-opacity="0" width="69.988" height="48">
        <animate attributeName="opacity" dur="0.2" to="1" begin="A06.mouseover" fill="freeze" xlink:href="#T06"/> 
        <animate attributeName="opacity" dur="0.2" to="0" begin="A06.mouseout" fill="freeze" xlink:href="#T06"/>
    </rect>
	<rect id="A05" x="94.013" y="163.744" fill="#FFFFFF" fill-opacity="0" width="69.989" height="48">
        <animate attributeName="opacity" dur="0.2" to="1" begin="A05.mouseover" fill="freeze" xlink:href="#T05"/> 
        <animate attributeName="opacity" dur="0.2" to="0" begin="A05.mouseout" fill="freeze" xlink:href="#T05"/>
    </rect>
	<rect id="A04" x="10.03" y="163.744" fill="#FFFFFF" fill-opacity="0" width="69.989" height="48">
        <animate attributeName="opacity" dur="0.2" to="1" begin="A04.mouseover" fill="freeze" xlink:href="#T04"/> 
        <animate attributeName="opacity" dur="0.2" to="0" begin="A04.mouseout" fill="freeze" xlink:href="#T04"/>
    </rect>
	<rect id="A03" x="177.996" y="87.122" fill="#FFFFFF" fill-opacity="0" width="69.988" height="48">
        <animate attributeName="opacity" dur="0.2" to="1" begin="A03.mouseover" fill="freeze" xlink:href="#T03"/> 
        <animate attributeName="opacity" dur="0.2" to="0" begin="A03.mouseout" fill="freeze" xlink:href="#T03"/>
    </rect>
	<rect id="A02" x="94.013" y="87.122" fill="#FFFFFF" fill-opacity="0" width="69.989" height="48">
        <animate attributeName="opacity" dur="0.2" to="1" begin="A02.mouseover" fill="freeze" xlink:href="#T02"/> 
        <animate attributeName="opacity" dur="0.2" to="0" begin="A02.mouseout" fill="freeze" xlink:href="#T02"/>
    </rect>
	<rect id="A01" x="10.03" y="87.122" ill="#FFFFFF" fill-opacity="0" width="69.989" height="48">
        <animate attributeName="opacity" dur="0.2" to="1" begin="A01.mouseover" fill="freeze" xlink:href="#T01"/> 
        <animate attributeName="opacity" dur="0.2" to="0" begin="A01.mouseout" fill="freeze" xlink:href="#T01"/>
    </rect>
</g>
<g id="TOOLTIP">
	<g id="T01" opacity="0">
		<polygon id="AREA_1_" points="89.64,55.501 0,55.501 0,97.501 32.567,97.501 32.567,97.501 44.14,109.677 55.713,97.501 
			55.713,97.501 89.64,97.501 		"/>
		<text transform="matrix(1 0 0 1 8.3792 72.7716)" fill="#FFFFFF" font-family="'PlayfairDisplay-Bold'" font-size="12">Burkina Faso</text>
		<text transform="matrix(1.047 0 0 1 6.9573 90.5856)" fill="#FFFFFF" font-family="'Roboto-Light'" font-size="10">$1.28</text>
		<text transform="matrix(1.047 0 0 1 55.6008 90.5856)" fill="#FFFFFF" font-family="'Roboto-Light'" font-size="10">$2.38</text>
		<path fill="#FFFFFF" d="M41.151,89.601h0.041l0.26-0.868l2.01-5.544h0.848l-2.81,7.396h-0.656l-2.816-7.396h0.848l2.037,5.544
			L41.151,89.601z"/>
		<path fill="#FFFFFF" d="M49.658,87.797c-0.285-0.26-0.799-0.472-1.542-0.636c-0.884-0.191-1.537-0.444-1.958-0.759
			c-0.421-0.314-0.632-0.759-0.632-1.333c0-0.565,0.238-1.042,0.714-1.432c0.476-0.39,1.106-0.585,1.89-0.585
			c0.834,0,1.495,0.206,1.982,0.619c0.488,0.413,0.72,0.929,0.697,1.548l-0.014,0.041h-0.759c0-0.406-0.172-0.759-0.516-1.06
			c-0.344-0.301-0.808-0.451-1.391-0.451c-0.597,0-1.045,0.129-1.343,0.386c-0.298,0.257-0.448,0.56-0.448,0.906
			c0,0.342,0.129,0.624,0.386,0.848c0.257,0.223,0.771,0.419,1.542,0.588c0.879,0.196,1.538,0.464,1.976,0.803
			c0.438,0.339,0.656,0.801,0.656,1.384c0,0.615-0.25,1.113-0.749,1.494c-0.499,0.38-1.159,0.571-1.979,0.571
			c-0.898,0-1.603-0.214-2.116-0.643c-0.513-0.428-0.755-0.939-0.728-1.531l0.014-0.041h0.752c0.032,0.533,0.249,0.92,0.653,1.162
			s0.878,0.362,1.425,0.362c0.592,0,1.06-0.13,1.401-0.39c0.342-0.26,0.513-0.574,0.513-0.943
			C50.086,88.36,49.943,88.056,49.658,87.797z"/>
	</g>
	<g id="T02" opacity="0">
		<polygon id="AREA_2_" points="173.582,55.501 83.942,55.501 83.942,97.501 116.508,97.501 116.508,97.501 128.082,109.677 
			139.655,97.501 139.655,97.501 173.582,97.501 		"/>
		<text transform="matrix(1 0 0 1 92.321 72.7716)" fill="#FFFFFF" font-family="'PlayfairDisplay-Bold'" font-size="12">Cameroon</text>
		<text transform="matrix(1.047 0 0 1 90.8991 90.5856)" fill="#FFFFFF" font-family="'Roboto-Light'" font-size="10">$3.28</text>
		<text transform="matrix(1.047 0 0 1 139.5427 90.5856)" fill="#FFFFFF" font-family="'Roboto-Light'" font-size="10">$9.60</text>
		<path fill="#FFFFFF" d="M125.093,89.601h0.041l0.26-0.868l2.01-5.544h0.848l-2.81,7.396h-0.656l-2.816-7.396h0.848l2.037,5.544
			L125.093,89.601z"/>
		<path fill="#FFFFFF" d="M133.6,87.797c-0.285-0.26-0.799-0.472-1.542-0.636c-0.884-0.191-1.537-0.444-1.958-0.759
			c-0.421-0.314-0.632-0.759-0.632-1.333c0-0.565,0.238-1.042,0.714-1.432c0.476-0.39,1.106-0.585,1.89-0.585
			c0.834,0,1.495,0.206,1.982,0.619c0.488,0.413,0.72,0.929,0.697,1.548l-0.014,0.041h-0.759c0-0.406-0.172-0.759-0.516-1.06
			c-0.344-0.301-0.808-0.451-1.391-0.451c-0.597,0-1.045,0.129-1.343,0.386c-0.298,0.257-0.448,0.56-0.448,0.906
			c0,0.342,0.129,0.624,0.386,0.848c0.257,0.223,0.771,0.419,1.542,0.588c0.879,0.196,1.538,0.464,1.976,0.803
			c0.438,0.339,0.656,0.801,0.656,1.384c0,0.615-0.25,1.113-0.749,1.494c-0.499,0.38-1.159,0.571-1.979,0.571
			c-0.898,0-1.603-0.214-2.116-0.643c-0.513-0.428-0.755-0.939-0.728-1.531l0.014-0.041h0.752c0.032,0.533,0.25,0.92,0.653,1.162
			c0.403,0.242,0.878,0.362,1.425,0.362c0.592,0,1.06-0.13,1.401-0.39c0.342-0.26,0.513-0.574,0.513-0.943
			C134.027,88.36,133.885,88.056,133.6,87.797z"/>
	</g>
	<g id="T03" opacity="0">
		<polygon id="AREA_3_" points="259.017,55.501 169.377,55.501 169.377,97.501 201.944,97.501 201.944,97.501 213.517,109.677 
			225.09,97.501 225.09,97.501 259.017,97.501 		"/>
		<text transform="matrix(1 0 0 1 177.756 72.7716)" fill="#FFFFFF" font-family="'PlayfairDisplay-Bold'" font-size="12">Congo</text>
		<text transform="matrix(1.047 0 0 1 176.3342 90.5856)" fill="#FFFFFF" font-family="'Roboto-Light'" font-size="10">$3.04</text>
		<text transform="matrix(1.047 0 0 1 224.9777 90.5856)" fill="#FFFFFF" font-family="'Roboto-Light'" font-size="10">$6.53</text>
		<path fill="#FFFFFF" d="M210.528,89.601h0.041l0.26-0.868l2.01-5.544h0.848l-2.81,7.396h-0.656l-2.816-7.396h0.848l2.037,5.544
			L210.528,89.601z"/>
		<path fill="#FFFFFF" d="M219.035,87.797c-0.285-0.26-0.799-0.472-1.542-0.636c-0.884-0.191-1.537-0.444-1.958-0.759
			c-0.421-0.314-0.632-0.759-0.632-1.333c0-0.565,0.238-1.042,0.714-1.432c0.476-0.39,1.106-0.585,1.89-0.585
			c0.834,0,1.495,0.206,1.982,0.619c0.488,0.413,0.72,0.929,0.697,1.548l-0.014,0.041h-0.759c0-0.406-0.172-0.759-0.516-1.06
			c-0.344-0.301-0.808-0.451-1.391-0.451c-0.597,0-1.045,0.129-1.343,0.386c-0.298,0.257-0.448,0.56-0.448,0.906
			c0,0.342,0.129,0.624,0.386,0.848c0.257,0.223,0.771,0.419,1.542,0.588c0.879,0.196,1.538,0.464,1.976,0.803
			c0.438,0.339,0.656,0.801,0.656,1.384c0,0.615-0.25,1.113-0.749,1.494c-0.499,0.38-1.159,0.571-1.979,0.571
			c-0.898,0-1.603-0.214-2.116-0.643c-0.513-0.428-0.755-0.939-0.728-1.531l0.014-0.041h0.752c0.032,0.533,0.25,0.92,0.653,1.162
			c0.403,0.242,0.878,0.362,1.425,0.362c0.592,0,1.06-0.13,1.401-0.39c0.342-0.26,0.513-0.574,0.513-0.943
			C219.463,88.36,219.32,88.056,219.035,87.797z"/>
	</g>
	<g id="T04" opacity="0">
		<polygon id="AREA_4_" points="89.64,134.706 0,134.706 0,176.706 32.567,176.706 32.567,176.706 44.14,188.883 55.713,176.706 
			55.713,176.706 89.64,176.706 		"/>
		<text transform="matrix(1 0 0 1 8.3792 151.9771)" fill="#FFFFFF" font-family="'PlayfairDisplay-Bold'" font-size="12">R. of Congo</text>
		<text transform="matrix(1.047 0 0 1 6.9573 169.7911)" fill="#FFFFFF" font-family="'Roboto-Light'" font-size="10">$3.03</text>
		<text transform="matrix(1.047 0 0 1 55.6008 169.7911)" fill="#FFFFFF" font-family="'Roboto-Light'" font-size="10">$2.52</text>
		<path fill="#FFFFFF" d="M41.151,168.807h0.041l0.26-0.868l2.01-5.544h0.848l-2.81,7.396h-0.656l-2.816-7.396h0.848l2.037,5.544
			L41.151,168.807z"/>
		<path fill="#FFFFFF" d="M49.658,167.002c-0.285-0.26-0.799-0.472-1.542-0.636c-0.884-0.191-1.537-0.444-1.958-0.759
			c-0.421-0.314-0.632-0.759-0.632-1.333c0-0.565,0.238-1.042,0.714-1.432c0.476-0.39,1.106-0.584,1.89-0.584
			c0.834,0,1.495,0.206,1.982,0.619c0.488,0.413,0.72,0.929,0.697,1.548l-0.014,0.041h-0.759c0-0.406-0.172-0.759-0.516-1.06
			c-0.344-0.301-0.808-0.451-1.391-0.451c-0.597,0-1.045,0.129-1.343,0.386c-0.298,0.257-0.448,0.559-0.448,0.906
			c0,0.342,0.129,0.624,0.386,0.848c0.257,0.223,0.771,0.419,1.542,0.588c0.879,0.196,1.538,0.464,1.976,0.803
			c0.438,0.339,0.656,0.801,0.656,1.384c0,0.615-0.25,1.113-0.749,1.494c-0.499,0.38-1.159,0.571-1.979,0.571
			c-0.898,0-1.603-0.214-2.116-0.643c-0.513-0.428-0.755-0.939-0.728-1.531l0.014-0.041h0.752c0.032,0.533,0.249,0.92,0.653,1.162
			s0.878,0.362,1.425,0.362c0.592,0,1.06-0.13,1.401-0.39c0.342-0.26,0.513-0.574,0.513-0.943
			C50.086,167.565,49.943,167.262,49.658,167.002z"/>
	</g>
	<g id="T05" opacity="0">
		<polygon id="AREA_5_" points="174.232,134.706 84.592,134.706 84.592,176.706 117.159,176.706 117.159,176.706 128.732,188.883 
			140.305,176.706 140.305,176.706 174.232,176.706 		"/>
		<text transform="matrix(1 0 0 1 92.9713 151.9771)" fill="#FFFFFF" font-family="'PlayfairDisplay-Bold'" font-size="12">Ghana</text>
		<text transform="matrix(1.047 0 0 1 91.5495 169.7911)" fill="#FFFFFF" font-family="'Roboto-Light'" font-size="10">$5.63</text>
		<text transform="matrix(1.047 0 0 1 140.193 169.7911)" fill="#FFFFFF" font-family="'Roboto-Light'" font-size="10">$5.60</text>
		<path fill="#FFFFFF" d="M125.743,168.807h0.041l0.26-0.868l2.01-5.544h0.848l-2.81,7.396h-0.656l-2.816-7.396h0.848l2.037,5.544
			L125.743,168.807z"/>
		<path fill="#FFFFFF" d="M134.251,167.002c-0.285-0.26-0.799-0.472-1.542-0.636c-0.884-0.191-1.537-0.444-1.958-0.759
			c-0.421-0.314-0.632-0.759-0.632-1.333c0-0.565,0.238-1.042,0.714-1.432c0.476-0.39,1.106-0.584,1.89-0.584
			c0.834,0,1.495,0.206,1.982,0.619c0.488,0.413,0.72,0.929,0.697,1.548l-0.014,0.041h-0.759c0-0.406-0.172-0.759-0.516-1.06
			c-0.344-0.301-0.808-0.451-1.391-0.451c-0.597,0-1.045,0.129-1.343,0.386c-0.298,0.257-0.448,0.559-0.448,0.906
			c0,0.342,0.129,0.624,0.386,0.848c0.257,0.223,0.771,0.419,1.542,0.588c0.879,0.196,1.538,0.464,1.976,0.803
			c0.438,0.339,0.656,0.801,0.656,1.384c0,0.615-0.25,1.113-0.749,1.494c-0.499,0.38-1.159,0.571-1.979,0.571
			c-0.898,0-1.603-0.214-2.116-0.643c-0.513-0.428-0.755-0.939-0.728-1.531l0.014-0.041h0.752c0.032,0.533,0.249,0.92,0.653,1.162
			c0.403,0.242,0.878,0.362,1.425,0.362c0.592,0,1.06-0.13,1.401-0.39c0.342-0.26,0.513-0.574,0.513-0.943
			C134.678,167.565,134.535,167.262,134.251,167.002z"/>
	</g>
	<g id="T06" opacity="0">
		<polygon id="AREA_6_" points="256.943,134.706 167.303,134.706 167.303,176.706 199.87,176.706 199.87,176.706 211.443,188.883 
			223.016,176.706 223.016,176.706 256.943,176.706 		"/>
		<text transform="matrix(1 0 0 1 175.682 151.9771)" fill="#FFFFFF" font-family="'PlayfairDisplay-Bold'" font-size="12">Kenya</text>
		<text transform="matrix(1.047 0 0 1 174.2601 169.7911)" fill="#FFFFFF" font-family="'Roboto-Light'" font-size="10">$5.73</text>
		<text transform="matrix(1.047 0 0 1 222.9037 169.7911)" fill="#FFFFFF" font-family="'Roboto-Light'" font-size="10">$4.91 </text>
		<path fill="#FFFFFF" d="M208.454,168.807h0.041l0.26-0.868l2.01-5.544h0.848l-2.81,7.396h-0.656l-2.816-7.396h0.848l2.037,5.544
			L208.454,168.807z"/>
		<path fill="#FFFFFF" d="M216.961,167.002c-0.285-0.26-0.799-0.472-1.542-0.636c-0.884-0.191-1.537-0.444-1.958-0.759
			c-0.421-0.314-0.632-0.759-0.632-1.333c0-0.565,0.238-1.042,0.714-1.432c0.476-0.39,1.106-0.584,1.89-0.584
			c0.834,0,1.495,0.206,1.982,0.619c0.488,0.413,0.72,0.929,0.697,1.548l-0.014,0.041h-0.759c0-0.406-0.172-0.759-0.516-1.06
			c-0.344-0.301-0.808-0.451-1.391-0.451c-0.597,0-1.045,0.129-1.343,0.386c-0.298,0.257-0.448,0.559-0.448,0.906
			c0,0.342,0.129,0.624,0.386,0.848c0.257,0.223,0.771,0.419,1.542,0.588c0.879,0.196,1.538,0.464,1.976,0.803
			c0.438,0.339,0.656,0.801,0.656,1.384c0,0.615-0.25,1.113-0.749,1.494c-0.499,0.38-1.159,0.571-1.979,0.571
			c-0.898,0-1.603-0.214-2.116-0.643c-0.513-0.428-0.755-0.939-0.728-1.531l0.014-0.041h0.752c0.032,0.533,0.25,0.92,0.653,1.162
			c0.403,0.242,0.878,0.362,1.425,0.362c0.592,0,1.06-0.13,1.401-0.39c0.342-0.26,0.513-0.574,0.513-0.943
			C217.389,167.565,217.246,167.262,216.961,167.002z"/>
	</g>
	<g id="T07" opacity="0">
		<polygon id="AREA_7_" points="90.14,212.824 0.501,212.824 0.501,254.824 33.067,254.824 33.067,254.824 44.64,267.001 
			56.214,254.824 56.214,254.824 90.14,254.824 		"/>
		<text transform="matrix(1 0 0 1 8.8797 230.0952)" fill="#FFFFFF" font-family="'PlayfairDisplay-Bold'" font-size="12">Mali</text>
		<text transform="matrix(1.047 0 0 1 7.4579 247.9091)" fill="#FFFFFF" font-family="'Roboto-Light'" font-size="10">$3.30</text>
		<text transform="matrix(1.047 0 0 1 56.1014 247.9091)" fill="#FFFFFF" font-family="'Roboto-Light'" font-size="10">$11.89</text>
		<path fill="#FFFFFF" d="M41.652,246.925h0.041l0.26-0.868l2.01-5.544h0.848L42,247.909h-0.656l-2.816-7.396h0.848l2.037,5.544
			L41.652,246.925z"/>
		<path fill="#FFFFFF" d="M50.159,245.12c-0.285-0.26-0.799-0.472-1.542-0.636c-0.884-0.191-1.537-0.444-1.958-0.759
			c-0.421-0.314-0.632-0.759-0.632-1.333c0-0.565,0.238-1.042,0.714-1.432c0.476-0.39,1.106-0.585,1.89-0.585
			c0.834,0,1.495,0.206,1.982,0.619c0.488,0.413,0.72,0.929,0.697,1.548l-0.014,0.041h-0.759c0-0.406-0.172-0.759-0.516-1.06
			c-0.344-0.301-0.808-0.451-1.391-0.451c-0.597,0-1.045,0.129-1.343,0.386c-0.298,0.257-0.448,0.56-0.448,0.906
			c0,0.342,0.129,0.625,0.386,0.848c0.257,0.223,0.771,0.419,1.542,0.588c0.879,0.196,1.538,0.464,1.976,0.803
			c0.438,0.339,0.656,0.801,0.656,1.384c0,0.615-0.25,1.113-0.749,1.494c-0.499,0.38-1.159,0.571-1.979,0.571
			c-0.898,0-1.603-0.214-2.116-0.643c-0.513-0.428-0.755-0.939-0.728-1.531l0.014-0.041h0.752c0.032,0.533,0.249,0.92,0.653,1.162
			s0.878,0.362,1.425,0.362c0.592,0,1.06-0.13,1.401-0.39c0.342-0.26,0.513-0.574,0.513-0.943
			C50.586,245.683,50.444,245.38,50.159,245.12z"/>
	</g>
	<g id="T08" opacity="0">
		<polygon id="AREA_8_" points="175.232,212.824 85.592,212.824 85.592,254.824 118.159,254.824 118.159,254.824 129.732,267.001 
			141.305,254.824 141.305,254.824 175.232,254.824 		"/>
		<text transform="matrix(1 0 0 1 93.9713 230.0952)" fill="#FFFFFF" font-family="'PlayfairDisplay-Bold'" font-size="12">Mauritius</text>
		<text transform="matrix(1.047 0 0 1 92.5495 247.9091)" fill="#FFFFFF" font-family="'Roboto-Light'" font-size="10">FREE</text>
		<text transform="matrix(1.047 0 0 1 141.193 247.9091)" fill="#FFFFFF" font-family="'Roboto-Light'" font-size="10">$11.80</text>
		<path fill="#FFFFFF" d="M126.743,246.925h0.041l0.26-0.868l2.01-5.544h0.848l-2.81,7.396h-0.656l-2.816-7.396h0.848l2.037,5.544
			L126.743,246.925z"/>
		<path fill="#FFFFFF" d="M135.251,245.12c-0.285-0.26-0.799-0.472-1.542-0.636c-0.884-0.191-1.537-0.444-1.958-0.759
			c-0.421-0.314-0.632-0.759-0.632-1.333c0-0.565,0.238-1.042,0.714-1.432c0.476-0.39,1.106-0.585,1.89-0.585
			c0.834,0,1.495,0.206,1.982,0.619c0.488,0.413,0.72,0.929,0.697,1.548l-0.014,0.041h-0.759c0-0.406-0.172-0.759-0.516-1.06
			c-0.344-0.301-0.808-0.451-1.391-0.451c-0.597,0-1.045,0.129-1.343,0.386c-0.298,0.257-0.448,0.56-0.448,0.906
			c0,0.342,0.129,0.625,0.386,0.848c0.257,0.223,0.771,0.419,1.542,0.588c0.879,0.196,1.538,0.464,1.976,0.803
			c0.438,0.339,0.656,0.801,0.656,1.384c0,0.615-0.25,1.113-0.749,1.494c-0.499,0.38-1.159,0.571-1.979,0.571
			c-0.898,0-1.603-0.214-2.116-0.643c-0.513-0.428-0.755-0.939-0.728-1.531l0.014-0.041h0.752c0.032,0.533,0.249,0.92,0.653,1.162
			c0.403,0.242,0.878,0.362,1.425,0.362c0.592,0,1.06-0.13,1.401-0.39c0.342-0.26,0.513-0.574,0.513-0.943
			C135.678,245.683,135.535,245.38,135.251,245.12z"/>
	</g>
	<g id="T09" opacity="0">
		<polygon id="AREA_9_" points="257.943,212.824 168.303,212.824 168.303,254.824 200.87,254.824 200.87,254.824 212.443,267.001 
			224.016,254.824 224.016,254.824 257.943,254.824 		"/>
		<text transform="matrix(1 0 0 1 176.682 230.0952)" fill="#FFFFFF" font-family="'PlayfairDisplay-Bold'" font-size="12">Morocco</text>
		<text transform="matrix(1.047 0 0 1 175.2601 247.9091)" fill="#FFFFFF" font-family="'Roboto-Light'" font-size="10">FREE</text>
		<text transform="matrix(1.047 0 0 1 223.9037 247.9091)" fill="#FFFFFF" font-family="'Roboto-Light'" font-size="10">$18.23</text>
		<path fill="#FFFFFF" d="M209.454,246.925h0.041l0.26-0.868l2.01-5.544h0.848l-2.81,7.396h-0.656l-2.816-7.396h0.848l2.037,5.544
			L209.454,246.925z"/>
		<path fill="#FFFFFF" d="M217.961,245.12c-0.285-0.26-0.799-0.472-1.542-0.636c-0.884-0.191-1.537-0.444-1.958-0.759
			c-0.421-0.314-0.632-0.759-0.632-1.333c0-0.565,0.238-1.042,0.714-1.432c0.476-0.39,1.106-0.585,1.89-0.585
			c0.834,0,1.495,0.206,1.982,0.619c0.488,0.413,0.72,0.929,0.697,1.548l-0.014,0.041h-0.759c0-0.406-0.172-0.759-0.516-1.06
			c-0.344-0.301-0.808-0.451-1.391-0.451c-0.597,0-1.045,0.129-1.343,0.386c-0.298,0.257-0.448,0.56-0.448,0.906
			c0,0.342,0.129,0.625,0.386,0.848c0.257,0.223,0.771,0.419,1.542,0.588c0.879,0.196,1.538,0.464,1.976,0.803
			c0.438,0.339,0.656,0.801,0.656,1.384c0,0.615-0.25,1.113-0.749,1.494c-0.499,0.38-1.159,0.571-1.979,0.571
			c-0.898,0-1.603-0.214-2.116-0.643c-0.513-0.428-0.755-0.939-0.728-1.531l0.014-0.041h0.752c0.032,0.533,0.25,0.92,0.653,1.162
			c0.403,0.242,0.878,0.362,1.425,0.362c0.592,0,1.06-0.13,1.401-0.39c0.342-0.26,0.513-0.574,0.513-0.943
			C218.389,245.683,218.246,245.38,217.961,245.12z"/>
	</g>
	<g id="T10" opacity="0">
		<polygon id="AREA_10_" points="89.14,290.837 -0.499,290.837 -0.499,332.837 32.067,332.837 32.067,332.837 43.64,345.014 
			55.214,332.837 55.214,332.837 89.14,332.837 		"/>
		<text transform="matrix(1 0 0 1 7.8797 308.1081)" fill="#FFFFFF" font-family="'PlayfairDisplay-Bold'" font-size="12">Nigeria</text>
		<text transform="matrix(1.047 0 0 1 6.4579 325.9221)" fill="#FFFFFF" font-family="'Roboto-Light'" font-size="10">$8.95</text>
		<text transform="matrix(1.047 0 0 1 55.1015 325.9221)" fill="#FFFFFF" font-family="'Roboto-Light'" font-size="10">$9.77</text>
		<path fill="#FFFFFF" d="M40.652,324.938h0.041l0.26-0.868l2.01-5.544h0.848L41,325.922h-0.656l-2.816-7.397h0.848l2.037,5.544
			L40.652,324.938z"/>
		<path fill="#FFFFFF" d="M49.159,323.133c-0.285-0.26-0.799-0.472-1.542-0.636c-0.884-0.191-1.537-0.444-1.958-0.759
			c-0.421-0.314-0.632-0.759-0.632-1.333c0-0.565,0.238-1.042,0.714-1.432c0.476-0.39,1.106-0.585,1.89-0.585
			c0.834,0,1.495,0.206,1.982,0.619c0.488,0.413,0.72,0.929,0.697,1.548l-0.014,0.041h-0.759c0-0.406-0.172-0.759-0.516-1.06
			c-0.344-0.301-0.808-0.451-1.391-0.451c-0.597,0-1.045,0.129-1.343,0.386c-0.298,0.257-0.448,0.56-0.448,0.906
			c0,0.342,0.129,0.625,0.386,0.848c0.257,0.223,0.771,0.419,1.542,0.588c0.879,0.196,1.538,0.464,1.976,0.803
			c0.438,0.339,0.656,0.801,0.656,1.384c0,0.615-0.25,1.113-0.749,1.494c-0.499,0.38-1.159,0.571-1.979,0.571
			c-0.898,0-1.603-0.214-2.116-0.643c-0.513-0.428-0.755-0.939-0.728-1.531l0.014-0.041h0.752c0.032,0.533,0.249,0.92,0.653,1.162
			s0.878,0.362,1.425,0.362c0.592,0,1.06-0.13,1.401-0.39c0.342-0.26,0.513-0.574,0.513-0.943
			C49.586,323.696,49.444,323.393,49.159,323.133z"/>
	</g>
	<g id="T11" opacity="0">
		<polygon id="AREA_11_" points="175.738,290.837 86.098,290.837 86.098,332.837 118.665,332.837 118.665,332.837 130.238,345.014 
			141.811,332.837 141.811,332.837 175.738,332.837 		"/>
		<text transform="matrix(1 0 0 1 94.4771 308.1081)" fill="#FFFFFF" font-family="'PlayfairDisplay-Bold'" font-size="12">ST Príncipe</text>
		<text transform="matrix(1.047 0 0 1 93.0552 325.9221)" fill="#FFFFFF" font-family="'Roboto-Light'" font-size="10">$0.63</text>
		<text transform="matrix(1.047 0 0 1 141.6988 325.9221)" fill="#FFFFFF" font-family="'Roboto-Light'" font-size="10">$0.21</text>
		<path fill="#FFFFFF" d="M127.249,324.938h0.041l0.26-0.868l2.01-5.544h0.848l-2.81,7.397h-0.656l-2.816-7.397h0.848l2.037,5.544
			L127.249,324.938z"/>
		<path fill="#FFFFFF" d="M135.756,323.133c-0.285-0.26-0.799-0.472-1.542-0.636c-0.884-0.191-1.537-0.444-1.958-0.759
			c-0.421-0.314-0.632-0.759-0.632-1.333c0-0.565,0.238-1.042,0.714-1.432c0.476-0.39,1.106-0.585,1.89-0.585
			c0.834,0,1.495,0.206,1.982,0.619s0.72,0.929,0.697,1.548l-0.014,0.041h-0.759c0-0.406-0.172-0.759-0.516-1.06
			c-0.344-0.301-0.808-0.451-1.391-0.451c-0.597,0-1.045,0.129-1.343,0.386c-0.298,0.257-0.448,0.56-0.448,0.906
			c0,0.342,0.129,0.625,0.386,0.848c0.257,0.223,0.771,0.419,1.542,0.588c0.879,0.196,1.538,0.464,1.976,0.803
			c0.438,0.339,0.656,0.801,0.656,1.384c0,0.615-0.25,1.113-0.749,1.494c-0.499,0.38-1.159,0.571-1.979,0.571
			c-0.898,0-1.603-0.214-2.116-0.643c-0.513-0.428-0.755-0.939-0.728-1.531l0.014-0.041h0.752c0.032,0.533,0.249,0.92,0.653,1.162
			c0.403,0.242,0.878,0.362,1.425,0.362c0.592,0,1.06-0.13,1.401-0.39c0.342-0.26,0.513-0.574,0.513-0.943
			C136.184,323.696,136.041,323.393,135.756,323.133z"/>
	</g>
	<g id="T12" opacity="0">
		<polygon id="AREA_12_" points="259.448,290.837 169.809,290.837 169.809,332.837 202.375,332.837 202.375,332.837 
			213.948,345.014 225.522,332.837 225.522,332.837 259.448,332.837 		"/>
		<text transform="matrix(1 0 0 1 178.1877 308.1081)" fill="#FFFFFF" font-family="'PlayfairDisplay-Bold'" font-size="12">Sudan</text>
		<text transform="matrix(1.047 0 0 1 176.7659 325.9221)" fill="#FFFFFF" font-family="'Roboto-Light'" font-size="10">$8.54</text>
		<text transform="matrix(1.047 0 0 1 225.4094 325.9221)" fill="#FFFFFF" font-family="'Roboto-Light'" font-size="10">$2.31</text>
		<path fill="#FFFFFF" d="M210.96,324.938h0.041l0.26-0.868l2.01-5.544h0.848l-2.81,7.397h-0.656l-2.816-7.397h0.848l2.037,5.544
			L210.96,324.938z"/>
		<path fill="#FFFFFF" d="M219.467,323.133c-0.285-0.26-0.799-0.472-1.542-0.636c-0.884-0.191-1.537-0.444-1.958-0.759
			c-0.421-0.314-0.632-0.759-0.632-1.333c0-0.565,0.238-1.042,0.714-1.432c0.476-0.39,1.106-0.585,1.89-0.585
			c0.834,0,1.495,0.206,1.982,0.619c0.488,0.413,0.72,0.929,0.697,1.548l-0.014,0.041h-0.759c0-0.406-0.172-0.759-0.516-1.06
			c-0.344-0.301-0.808-0.451-1.391-0.451c-0.597,0-1.045,0.129-1.343,0.386c-0.298,0.257-0.448,0.56-0.448,0.906
			c0,0.342,0.129,0.625,0.386,0.848c0.257,0.223,0.771,0.419,1.542,0.588c0.879,0.196,1.538,0.464,1.976,0.803
			c0.438,0.339,0.656,0.801,0.656,1.384c0,0.615-0.25,1.113-0.749,1.494c-0.499,0.38-1.159,0.571-1.979,0.571
			c-0.898,0-1.603-0.214-2.116-0.643c-0.513-0.428-0.755-0.939-0.728-1.531l0.014-0.041h0.752c0.032,0.533,0.25,0.92,0.653,1.162
			c0.403,0.242,0.878,0.362,1.425,0.362c0.592,0,1.06-0.13,1.401-0.39c0.342-0.26,0.513-0.574,0.513-0.943
			C219.894,323.696,219.752,323.393,219.467,323.133z"/>
	</g>
	<g id="T13" opacity="0">
		<polygon id="AREA_13_" points="89.646,368.903 0.007,368.903 0.007,410.903 32.573,410.903 32.573,410.903 44.146,423.079 
			55.719,410.903 55.719,410.903 89.646,410.903 		"/>
		<text transform="matrix(1 0 0 1 8.3855 386.1736)" fill="#FFFFFF" font-family="'PlayfairDisplay-Bold'" font-size="12">Tanzania</text>
		<text transform="matrix(1.047 0 0 1 6.9636 403.9876)" fill="#FFFFFF" font-family="'Roboto-Light'" font-size="10">$0.36</text>
		<text transform="matrix(1.047 0 0 1 55.6072 403.9876)" fill="#FFFFFF" font-family="'Roboto-Light'" font-size="10">$0.13</text>
		<path fill="#FFFFFF" d="M41.157,403.003h0.041l0.26-0.868l2.01-5.544h0.848l-2.81,7.397H40.85l-2.816-7.397h0.848l2.037,5.544
			L41.157,403.003z"/>
		<path fill="#FFFFFF" d="M49.665,401.199c-0.285-0.26-0.799-0.472-1.542-0.636c-0.884-0.191-1.537-0.444-1.958-0.759
			c-0.421-0.314-0.632-0.759-0.632-1.333c0-0.565,0.238-1.042,0.714-1.432c0.476-0.39,1.106-0.585,1.89-0.585
			c0.834,0,1.495,0.206,1.982,0.619c0.488,0.413,0.72,0.929,0.697,1.548l-0.014,0.041h-0.759c0-0.406-0.172-0.759-0.516-1.06
			c-0.344-0.301-0.808-0.451-1.391-0.451c-0.597,0-1.045,0.129-1.343,0.386c-0.298,0.257-0.448,0.56-0.448,0.906
			c0,0.342,0.129,0.625,0.386,0.848c0.257,0.223,0.771,0.419,1.542,0.588c0.879,0.196,1.538,0.464,1.976,0.803
			c0.438,0.339,0.656,0.801,0.656,1.384c0,0.615-0.25,1.113-0.749,1.494c-0.499,0.38-1.159,0.571-1.979,0.571
			c-0.898,0-1.603-0.214-2.116-0.642c-0.513-0.428-0.755-0.939-0.728-1.531l0.014-0.041H46.1c0.032,0.533,0.249,0.92,0.653,1.162
			s0.878,0.362,1.425,0.362c0.592,0,1.06-0.13,1.401-0.39c0.342-0.26,0.513-0.574,0.513-0.943
			C50.092,401.762,49.949,401.458,49.665,401.199z"/>
	</g>
	<g id="T14" opacity="0">
		<polygon id="AREA_14_" points="173.582,368.903 83.942,368.903 83.942,410.903 116.508,410.903 116.508,410.903 128.082,423.079 
			139.655,410.903 139.655,410.903 173.582,410.903 		"/>
		<text transform="matrix(1 0 0 1 92.321 386.1736)" fill="#FFFFFF" font-family="'PlayfairDisplay-Bold'" font-size="12">Tunisia</text>
		<text transform="matrix(1.047 0 0 1 90.8991 403.9876)" fill="#FFFFFF" font-family="'Roboto-Light'" font-size="10">FREE</text>
		<text transform="matrix(1.047 0 0 1 139.5427 403.9876)" fill="#FFFFFF" font-family="'Roboto-Light'" font-size="10">$2.94</text>
		<path fill="#FFFFFF" d="M125.093,403.003h0.041l0.26-0.868l2.01-5.544h0.848l-2.81,7.397h-0.656l-2.816-7.397h0.848l2.037,5.544
			L125.093,403.003z"/>
		<path fill="#FFFFFF" d="M133.6,401.199c-0.285-0.26-0.799-0.472-1.542-0.636c-0.884-0.191-1.537-0.444-1.958-0.759
			c-0.421-0.314-0.632-0.759-0.632-1.333c0-0.565,0.238-1.042,0.714-1.432c0.476-0.39,1.106-0.585,1.89-0.585
			c0.834,0,1.495,0.206,1.982,0.619c0.488,0.413,0.72,0.929,0.697,1.548l-0.014,0.041h-0.759c0-0.406-0.172-0.759-0.516-1.06
			c-0.344-0.301-0.808-0.451-1.391-0.451c-0.597,0-1.045,0.129-1.343,0.386c-0.298,0.257-0.448,0.56-0.448,0.906
			c0,0.342,0.129,0.625,0.386,0.848c0.257,0.223,0.771,0.419,1.542,0.588c0.879,0.196,1.538,0.464,1.976,0.803
			c0.438,0.339,0.656,0.801,0.656,1.384c0,0.615-0.25,1.113-0.749,1.494c-0.499,0.38-1.159,0.571-1.979,0.571
			c-0.898,0-1.603-0.214-2.116-0.642c-0.513-0.428-0.755-0.939-0.728-1.531l0.014-0.041h0.752c0.032,0.533,0.25,0.92,0.653,1.162
			c0.403,0.242,0.878,0.362,1.425,0.362c0.592,0,1.06-0.13,1.401-0.39c0.342-0.26,0.513-0.574,0.513-0.943
			C134.027,401.762,133.885,401.458,133.6,401.199z"/>
	</g>
	<g id="T15" opacity="0">
		<polygon id="AREA_15_" points="257.734,368.903 168.094,368.903 168.094,410.903 200.661,410.903 200.661,410.903 
			212.234,423.079 223.807,410.903 223.807,410.903 257.734,410.903 		"/>
		<text transform="matrix(1 0 0 1 176.4734 386.1736)" fill="#FFFFFF" font-family="'PlayfairDisplay-Bold'" font-size="12">Uganda</text>
		<text transform="matrix(1.047 0 0 1 175.0515 403.9876)" fill="#FFFFFF" font-family="'Roboto-Light'" font-size="10">FREE</text>
		<text transform="matrix(1.047 0 0 1 223.6951 403.9876)" fill="#FFFFFF" font-family="'Roboto-Light'" font-size="10">$0.98</text>
		<path fill="#FFFFFF" d="M209.245,403.003h0.041l0.26-0.868l2.01-5.544h0.848l-2.81,7.397h-0.656l-2.816-7.397h0.848l2.037,5.544
			L209.245,403.003z"/>
		<path fill="#FFFFFF" d="M217.753,401.199c-0.285-0.26-0.799-0.472-1.542-0.636c-0.884-0.191-1.537-0.444-1.958-0.759
			c-0.421-0.314-0.632-0.759-0.632-1.333c0-0.565,0.238-1.042,0.714-1.432c0.476-0.39,1.106-0.585,1.89-0.585
			c0.834,0,1.495,0.206,1.982,0.619c0.488,0.413,0.72,0.929,0.697,1.548l-0.014,0.041h-0.759c0-0.406-0.172-0.759-0.516-1.06
			c-0.344-0.301-0.808-0.451-1.391-0.451c-0.597,0-1.045,0.129-1.343,0.386c-0.298,0.257-0.448,0.56-0.448,0.906
			c0,0.342,0.129,0.625,0.386,0.848c0.257,0.223,0.771,0.419,1.542,0.588c0.879,0.196,1.538,0.464,1.976,0.803
			c0.438,0.339,0.656,0.801,0.656,1.384c0,0.615-0.25,1.113-0.749,1.494c-0.499,0.38-1.159,0.571-1.979,0.571
			c-0.898,0-1.603-0.214-2.116-0.642c-0.513-0.428-0.755-0.939-0.728-1.531l0.014-0.041h0.752c0.032,0.533,0.25,0.92,0.653,1.162
			c0.403,0.242,0.878,0.362,1.425,0.362c0.592,0,1.06-0.13,1.401-0.39c0.342-0.26,0.513-0.574,0.513-0.943
			C218.18,401.762,218.037,401.458,217.753,401.199z"/>
	</g>
</g>
</svg>
