<?xml version="1.0" encoding="utf-8"?>
<!DOCTYPE svg PUBLIC "-//W3C//DTD SVG 1.1//EN" "http://www.w3.org/Graphics/SVG/1.1/DTD/svg11.dtd">
<svg version="1.1" id="GRAPHIC" xmlns="http://www.w3.org/2000/svg" xmlns:xlink="http://www.w3.org/1999/xlink" x="0px" y="0px"
	 width="258.014px" height="622.375px" viewBox="0 0 258.014 622.375" enable-background="new 0 0 258.014 622.375"
	 xml:space="preserve">
    <style type="text/css">
       @font-face {
            font-family: 'Roboto-Light';
            font-weight: 100;
            src: url(https://fonts.googleapis.com/css?family=Roboto:300);
        }
        @font-face {
            font-family: 'Roboto-Bold';
            src: url(http://www.nacion.com/static/LNCNacionBeta/fonts/opensans/opensans_semibold.woff);    
            font-weight: 300;
        }
        @font-face {
            font-family: 'Open Sans Bold';
            src: url(http://www.nacion.com/static/LNCNacionBeta/fonts/opensans/opensans_extrabold.woff);    
            font-weight: 800;
        }
    </style>
<g id="AREA">
    <rect id="A18" x="177.996" y="478.61" fill="#FFFFFF" fill-opacity="0" width="69.988" height="48">
        <animate attributeName="opacity" dur="0.2" to="1" begin="A18.mouseover" fill="freeze" xlink:href="#T18"/> 
        <animate attributeName="opacity" dur="0.2" to="0" begin="A18.mouseout" fill="freeze" xlink:href="#T18"/>
    </rect>
	<rect id="A17" x="94.013" y="478.61" fill="#FFFFFF" fill-opacity="0" width="69.989" height="48">
        <animate attributeName="opacity" dur="0.2" to="1" begin="A17.mouseover" fill="freeze" xlink:href="#T17"/> 
        <animate attributeName="opacity" dur="0.2" to="0" begin="A17.mouseout" fill="freeze" xlink:href="#T17"/>
    </rect>
	<rect id="A16" x="10.03" y="478.61" fill="#FFFFFF" fill-opacity="0" width="69.989" height="48">
        <animate attributeName="opacity" dur="0.2" to="1" begin="A16.mouseover" fill="freeze" xlink:href="#T16"/> 
        <animate attributeName="opacity" dur="0.2" to="0" begin="A16.mouseout" fill="freeze" xlink:href="#T16"/>
    </rect>
	<rect id="A15" x="177.996" y="401.406" fill="#FFFFFF" fill-opacity="0" width="69.988" height="48">
        <animate attributeName="opacity" dur="0.2" to="1" begin="A15.mouseover" fill="freeze" xlink:href="#T15"/> 
        <animate attributeName="opacity" dur="0.2" to="0" begin="A15.mouseout" fill="freeze" xlink:href="#T15"/>
    </rect>
	<rect id="A14" x="94.013" y="401.406" fill="#FFFFFF" fill-opacity="0" width="69.989" height="48">
        <animate attributeName="opacity" dur="0.2" to="1" begin="A14.mouseover" fill="freeze" xlink:href="#T14"/> 
        <animate attributeName="opacity" dur="0.2" to="0" begin="A14.mouseout" fill="freeze" xlink:href="#T14"/>
    </rect>
	<rect id="A13" x="10.03" y="401.406" fill="#FFFFFF" fill-opacity="0" width="69.989" height="48">
        <animate attributeName="opacity" dur="0.2" to="1" begin="A13.mouseover" fill="freeze" xlink:href="#T13"/> 
        <animate attributeName="opacity" dur="0.2" to="0" begin="A13.mouseout" fill="freeze" xlink:href="#T13"/>
    </rect>
	<rect id="A12" x="177.996" y="320.492" fill="#FFFFFF" fill-opacity="0" width="69.988" height="48">
        <animate attributeName="opacity" dur="0.2" to="1" begin="A12.mouseover" fill="freeze" xlink:href="#T12"/> 
        <animate attributeName="opacity" dur="0.2" to="0" begin="A12.mouseout" fill="freeze" xlink:href="#T12"/>
    </rect>
	<rect id="A11" x="94.013" y="320.492" fill="#FFFFFF" fill-opacity="0" width="69.989" height="48">
        <animate attributeName="opacity" dur="0.2" to="1" begin="A11.mouseover" fill="freeze" xlink:href="#T11"/> 
        <animate attributeName="opacity" dur="0.2" to="0" begin="A11.mouseout" fill="freeze" xlink:href="#T11"/>
    </rect>
	<rect id="A10" x="10.03" y="320.492" fill="#FFFFFF" fill-opacity="0" width="69.989" height="48">
        <animate attributeName="opacity" dur="0.2" to="1" begin="A10.mouseover" fill="freeze" xlink:href="#T10"/> 
        <animate attributeName="opacity" dur="0.2" to="0" begin="A10.mouseout" fill="freeze" xlink:href="#T10"/>
    </rect>
	<rect id="A09" x="177.996" y="243.172" fill="#FFFFFF" fill-opacity="0" width="69.988" height="48">
        <animate attributeName="opacity" dur="0.2" to="1" begin="A09.mouseover" fill="freeze" xlink:href="#T9"/> 
        <animate attributeName="opacity" dur="0.2" to="0" begin="A09.mouseout" fill="freeze" xlink:href="#T9"/>
    </rect>
	<rect id="A08" x="94.013" y="243.172" fill="#FFFFFF" fill-opacity="0" width="69.989" height="48">
        <animate attributeName="opacity" dur="0.2" to="1" begin="A08.mouseover" fill="freeze" xlink:href="#T8"/> 
        <animate attributeName="opacity" dur="0.2" to="0" begin="A08.mouseout" fill="freeze" xlink:href="#T8"/>
    </rect>
	<rect id="A07" x="10.03" y="243.172" fill="#FFFFFF" fill-opacity="0" width="69.989" height="48">
        <animate attributeName="opacity" dur="0.2" to="1" begin="A07.mouseover" fill="freeze" xlink:href="#T7"/> 
        <animate attributeName="opacity" dur="0.2" to="0" begin="A07.mouseout" fill="freeze" xlink:href="#T7"/>
    </rect>
	<rect id="A06" x="177.996" y="163.744" fill="#FFFFFF" fill-opacity="0" width="69.988" height="48">
        <animate attributeName="opacity" dur="0.2" to="1" begin="A06.mouseover" fill="freeze" xlink:href="#T6"/> 
        <animate attributeName="opacity" dur="0.2" to="0" begin="A06.mouseout" fill="freeze" xlink:href="#T6"/>
    </rect>
	<rect id="A05" x="94.013" y="163.744" fill="#FFFFFF" fill-opacity="0" width="69.989" height="48">
        <animate attributeName="opacity" dur="0.2" to="1" begin="A05.mouseover" fill="freeze" xlink:href="#T5"/> 
        <animate attributeName="opacity" dur="0.2" to="0" begin="A05.mouseout" fill="freeze" xlink:href="#T5"/>
    </rect>
	<rect id="A04" x="10.03" y="163.744" fill="#FFFFFF" fill-opacity="0" width="69.989" height="48">
        <animate attributeName="opacity" dur="0.2" to="1" begin="A04.mouseover" fill="freeze" xlink:href="#T4"/> 
        <animate attributeName="opacity" dur="0.2" to="0" begin="A04.mouseout" fill="freeze" xlink:href="#T4"/>
    </rect>
	<rect id="A03" x="177.996" y="87.122" fill="#FFFFFF" fill-opacity="0" width="69.988" height="48">
        <animate attributeName="opacity" dur="0.2" to="1" begin="A03.mouseover" fill="freeze" xlink:href="#T3"/> 
        <animate attributeName="opacity" dur="0.2" to="0" begin="A03.mouseout" fill="freeze" xlink:href="#T3"/>
    </rect>
	<rect id="A02" x="94.013" y="87.122" fill="#FFFFFF" fill-opacity="0" width="69.989" height="48">
        <animate attributeName="opacity" dur="0.2" to="1" begin="A02.mouseover" fill="freeze" xlink:href="#T2"/> 
        <animate attributeName="opacity" dur="0.2" to="0" begin="A02.mouseout" fill="freeze" xlink:href="#T2"/>
    </rect>
	<rect id="A01" x="10.03" y="87.122" fill="#FFFFFF" fill-opacity="0" width="69.989" height="48">
        <animate attributeName="opacity" dur="0.2" to="1" begin="A01.mouseover" fill="freeze" xlink:href="#T1"/> 
        <animate attributeName="opacity" dur="0.2" to="0" begin="A01.mouseout" fill="freeze" xlink:href="#T1"/>
    </rect>
</g>
<g id="TOP">
	<g id="KEY">
		<circle fill="none" stroke="#000000" stroke-miterlimit="10" cx="213.197" cy="44.501" r="10"/>
		<circle fill="none" stroke="#000000" stroke-miterlimit="10" cx="213.197" cy="34.501" r="20"/>
		<text transform="matrix(1 0 0 1 207.0798 11.8123)" font-family="'Roboto-Bold'" font-size="8">20$</text>
		<text transform="matrix(1 0 0 1 206.0798 31.6042)" font-family="'Roboto-Bold'" font-size="8">10$</text>
	</g>
	<circle fill="#790700" cx="23.032" cy="34.501" r="6.076"/>
	<circle fill="#D6D6D6" cx="87.11" cy="34.501" r="6.076"/>
	<text transform="matrix(1 0 0 1 32.9573 38.0077)" font-family="'Arial'" font-size="12">Public</text>
	<text transform="matrix(1 0 0 1 96.9465 38.0077)" font-family="'Arial'" font-size="12">Private</text>
	<g>
		<text transform="matrix(1.0075 0 0 1 190.2781 62.8339)" font-family="'Roboto-Bold'" font-size="8">Less than 5$</text>
	</g>
	<circle fill="none" stroke="#000000" stroke-miterlimit="10" cx="213.197" cy="49.501" r="5"/>
</g>
<g id="INTERACT">
	<g>
		<path fill="#191818" d="M101.363,574.978h-3.197c-0.468,0-0.848-0.38-0.848-0.848s0.38-0.848,0.848-0.848h3.197
			c0.468,0,0.848,0.38,0.848,0.848S101.831,574.978,101.363,574.978z"/>
		<path fill="#191818" d="M93.049,569.861c-0.468,0-0.848-0.38-0.848-0.848v-3.198c0-0.469,0.38-0.848,0.848-0.848
			c0.468,0,0.848,0.38,0.848,0.848v3.198C93.897,569.481,93.517,569.861,93.049,569.861z"/>
		<path fill="#191818" d="M87.932,574.978h-3.198c-0.469,0-0.848-0.38-0.848-0.848s0.38-0.848,0.848-0.848h3.198
			c0.469,0,0.848,0.38,0.848,0.848S88.401,574.978,87.932,574.978z"/>
		<path fill="#191818" d="M96.666,571.36c-0.217,0-0.434-0.083-0.6-0.249c-0.331-0.331-0.331-0.869,0-1.199l2.138-2.138
			c0.331-0.331,0.868-0.331,1.2,0c0.331,0.331,0.331,0.868,0,1.199l-2.138,2.138C97.101,571.277,96.884,571.36,96.666,571.36z"/>
		<path fill="#191818" d="M89.431,571.36c-0.217,0-0.434-0.083-0.6-0.249l-2.138-2.138c-0.331-0.331-0.331-0.868,0-1.199
			c0.331-0.331,0.868-0.331,1.2,0l2.138,2.138c0.331,0.331,0.331,0.868,0,1.199C89.865,571.277,89.648,571.36,89.431,571.36z"/>
		<path fill="#191818" d="M99.653,588.2h-1.697v-3.838c0-0.59-0.48-1.071-1.071-1.071c-0.59,0-1.07,0.48-1.07,1.071v0.639h-1.697
			v-0.639c0-1.526,1.241-2.767,2.767-2.767c1.526,0,2.767,1.241,2.767,2.767V588.2z"/>
		<path fill="#191818" d="M103.491,588.84h-1.696v-3.838c0-0.59-0.481-1.07-1.071-1.07c-0.59,0-1.07,0.48-1.07,1.07v3.198h-1.697
			v-3.198c0-1.525,1.241-2.767,2.767-2.767c1.526,0,2.767,1.241,2.767,2.767V588.84z"/>
		<path fill="#191818" d="M91.978,592.677h-1.697v-18.548c0-1.525,1.241-2.767,2.767-2.767c1.526,0,2.767,1.241,2.767,2.767V588.2
			h-1.697v-14.071c0-0.59-0.48-1.07-1.071-1.07c-0.59,0-1.07,0.48-1.07,1.07V592.677z"/>
		<path fill="#191818" d="M91.978,602.91h-1.697c0-0.541-0.707-1.495-1.456-2.504c-1.279-1.724-3.031-4.085-3.337-7.11
			c-0.078-0.771-0.106-1.917-0.084-3.406c0.026-1.687,1.18-3.173,2.809-3.615l2.8-0.759l0.444,1.638l-2.8,0.759
			c-0.902,0.244-1.542,1.068-1.556,2.003c-0.022,1.404,0.004,2.514,0.075,3.21c0.259,2.561,1.785,4.618,3.011,6.27
			C91.188,600.743,91.978,601.808,91.978,602.91z"/>
		<path fill="#191818" d="M105.409,602.91h-1.697c0-0.506,0.21-1.214,0.529-2.285c0.809-2.721,2.316-7.787,1.147-13.515
			c-0.247-1.212-0.652-1.244-0.893-1.263c-0.715-0.059-1.282,0.421-1.288,0.426l-1.13-1.265c0.111-0.099,1.125-0.967,2.549-0.853
			c1.275,0.099,2.091,0.979,2.424,2.615c1.253,6.143-0.332,11.474-1.183,14.337C105.642,601.867,105.409,602.651,105.409,602.91z"/>
	</g>
	<g>
		<path fill="#191818" d="M116.072,582.236h-1.609v-9.647h1.609V582.236z"/>
		<path fill="#191818" d="M118.845,575.067l0.094,1.034c0.234-0.367,0.527-0.652,0.885-0.858c0.355-0.205,0.756-0.308,1.201-0.308
			c0.746,0,1.328,0.227,1.746,0.679c0.418,0.453,0.627,1.158,0.627,2.117v4.505h-1.611v-4.492c0-0.538-0.111-0.922-0.334-1.149
			c-0.223-0.228-0.562-0.341-1.018-0.341c-0.312,0-0.594,0.069-0.84,0.209c-0.248,0.139-0.451,0.33-0.611,0.572v5.201h-1.609v-7.169
			H118.845z"/>
		<path fill="#191818" d="M126.396,573.325v1.742h1.285v1.193h-1.285v3.962c0,0.296,0.064,0.507,0.191,0.632
			c0.129,0.126,0.299,0.189,0.51,0.189c0.09,0,0.176-0.008,0.26-0.023c0.084-0.016,0.162-0.036,0.238-0.062l0.172,1.179
			c-0.137,0.075-0.301,0.134-0.49,0.176c-0.189,0.042-0.387,0.062-0.59,0.062c-0.592,0-1.055-0.173-1.391-0.52
			c-0.336-0.347-0.504-0.892-0.504-1.633v-3.962h-1.094v-1.193h1.094v-1.742H126.396z"/>
		<path fill="#191818" d="M131.507,582.375c-1.016,0-1.824-0.332-2.428-0.997c-0.604-0.664-0.904-1.518-0.904-2.56v-0.265
			c0-1.042,0.299-1.907,0.898-2.594c0.598-0.686,1.348-1.028,2.248-1.023c0.969,0,1.709,0.292,2.223,0.878
			c0.516,0.585,0.773,1.37,0.773,2.354v0.948h-4.473l-0.014,0.032c0.027,0.568,0.193,1.032,0.5,1.394
			c0.307,0.361,0.732,0.542,1.275,0.542c0.434,0,0.805-0.054,1.113-0.159c0.309-0.107,0.607-0.259,0.895-0.457l0.518,1.056
			c-0.27,0.239-0.627,0.441-1.074,0.606C132.613,582.293,132.095,582.375,131.507,582.375z M131.322,576.227
			c-0.396,0-0.723,0.157-0.98,0.474c-0.256,0.315-0.414,0.717-0.477,1.202l0.014,0.033h2.842v-0.166
			c0-0.454-0.115-0.825-0.348-1.112C132.14,576.371,131.79,576.227,131.322,576.227z"/>
		<path fill="#191818" d="M138.507,576.518l-0.688-0.026c-0.314,0-0.576,0.066-0.785,0.199c-0.211,0.132-0.373,0.32-0.488,0.562
			v4.982h-1.609v-7.169h1.471l0.105,1.041c0.182-0.367,0.414-0.654,0.699-0.861c0.285-0.208,0.613-0.312,0.984-0.312
			c0.098,0,0.188,0.008,0.271,0.023c0.084,0.016,0.16,0.035,0.232,0.057L138.507,576.518z"/>
		<path fill="#191818" d="M143.269,582.236c-0.057-0.181-0.105-0.357-0.143-0.53c-0.037-0.172-0.062-0.345-0.076-0.517
			c-0.221,0.336-0.51,0.617-0.871,0.845c-0.359,0.228-0.762,0.341-1.209,0.341c-0.746,0-1.318-0.191-1.719-0.576
			c-0.4-0.384-0.6-0.912-0.6-1.583c0-0.693,0.274-1.233,0.822-1.62c0.547-0.387,1.318-0.58,2.31-0.58h1.252v-0.629
			c0-0.375-0.109-0.669-0.33-0.881c-0.221-0.212-0.537-0.318-0.947-0.318c-0.367,0-0.658,0.088-0.875,0.265
			c-0.217,0.177-0.324,0.404-0.324,0.683h-1.551l-0.006-0.04c-0.031-0.564,0.221-1.066,0.758-1.504
			c0.537-0.437,1.236-0.655,2.098-0.655c0.834,0,1.508,0.212,2.02,0.636c0.514,0.424,0.77,1.033,0.77,1.828v3.188
			c0,0.296,0.02,0.579,0.059,0.851c0.041,0.273,0.104,0.538,0.193,0.799H143.269z M141.294,581.084c0.406,0,0.773-0.102,1.098-0.306
			c0.324-0.203,0.539-0.435,0.645-0.695v-1.06h-1.277c-0.469,0-0.836,0.115-1.1,0.348c-0.266,0.231-0.398,0.505-0.398,0.818
			c0,0.273,0.09,0.491,0.27,0.652C140.708,581.003,140.964,581.084,141.294,581.084z"/>
		<path fill="#191818" d="M148.62,581.084c0.393,0,0.725-0.115,0.994-0.347c0.268-0.231,0.402-0.52,0.402-0.866h1.459l0.014,0.04
			c0.021,0.671-0.252,1.25-0.818,1.735c-0.568,0.486-1.252,0.729-2.051,0.729c-1.057,0-1.865-0.34-2.428-1.02
			c-0.564-0.681-0.846-1.542-0.846-2.584v-0.232c0-1.037,0.281-1.898,0.846-2.58c0.563-0.683,1.371-1.023,2.428-1.023
			c0.861,0,1.56,0.25,2.096,0.752c0.537,0.501,0.797,1.139,0.779,1.911l-0.014,0.04h-1.465c0-0.394-0.129-0.727-0.387-1.001
			c-0.258-0.273-0.596-0.41-1.01-0.41c-0.605,0-1.033,0.219-1.285,0.658c-0.252,0.439-0.379,0.989-0.379,1.65v0.232
			c0,0.675,0.127,1.229,0.379,1.664C147.587,580.866,148.015,581.084,148.62,581.084z"/>
		<path fill="#191818" d="M154.103,573.325v1.742h1.285v1.193h-1.285v3.962c0,0.296,0.064,0.507,0.191,0.632
			c0.129,0.126,0.299,0.189,0.51,0.189c0.09,0,0.176-0.008,0.26-0.023c0.084-0.016,0.162-0.036,0.238-0.062l0.172,1.179
			c-0.137,0.075-0.301,0.134-0.49,0.176c-0.189,0.042-0.387,0.062-0.59,0.062c-0.592,0-1.055-0.173-1.391-0.52
			c-0.336-0.347-0.504-0.892-0.504-1.633v-3.962h-1.094v-1.193h1.094v-1.742H154.103z"/>
		<path fill="#191818" d="M157.857,573.312h-1.609v-1.411h1.609V573.312z M157.857,582.236h-1.609v-7.169h1.609V582.236z"/>
		<path fill="#191818" d="M161.47,579.812l0.119,0.583h0.041l0.125-0.583l1.426-4.744h1.662l-2.545,7.169h-1.397l-2.559-7.169h1.664
			L161.47,579.812z"/>
		<path fill="#191818" d="M168.159,582.375c-1.016,0-1.824-0.332-2.428-0.997c-0.604-0.664-0.904-1.518-0.904-2.56v-0.265
			c0-1.042,0.299-1.907,0.899-2.594c0.598-0.686,1.348-1.028,2.248-1.023c0.969,0,1.709,0.292,2.223,0.878
			c0.516,0.585,0.773,1.37,0.773,2.354v0.948h-4.473l-0.014,0.032c0.027,0.568,0.193,1.032,0.5,1.394
			c0.307,0.361,0.732,0.542,1.275,0.542c0.433,0,0.805-0.054,1.113-0.159c0.309-0.107,0.607-0.259,0.895-0.457l0.517,1.056
			c-0.27,0.239-0.627,0.441-1.074,0.606C169.265,582.293,168.747,582.375,168.159,582.375z M167.974,576.227
			c-0.397,0-0.723,0.157-0.981,0.474c-0.256,0.315-0.414,0.717-0.476,1.202l0.014,0.033h2.842v-0.166
			c0-0.454-0.115-0.825-0.348-1.112C168.792,576.371,168.443,576.227,167.974,576.227z"/>
		<path fill="#191818" d="M121.558,596.761c-0.256,0.367-0.678,0.699-1.262,0.998c-0.586,0.298-1.338,0.446-2.256,0.446
			c-1.162,0-2.119-0.367-2.869-1.103c-0.75-0.735-1.127-1.686-1.127-2.852v-2.014c0-1.166,0.355-2.117,1.064-2.853
			c0.709-0.735,1.623-1.103,2.746-1.103c1.135,0,2.018,0.279,2.646,0.838c0.629,0.559,0.951,1.286,0.965,2.183l-0.014,0.04h-1.523
			c-0.037-0.53-0.225-0.957-0.566-1.282c-0.344-0.324-0.84-0.486-1.488-0.486c-0.666,0-1.205,0.249-1.613,0.748
			c-0.408,0.498-0.613,1.132-0.613,1.899v2.025c0,0.776,0.223,1.415,0.666,1.916c0.443,0.501,1.02,0.752,1.727,0.752
			c0.504,0,0.912-0.059,1.225-0.176c0.314-0.116,0.541-0.254,0.684-0.413v-1.956h-1.916v-1.205h3.525V596.761z"/>
		<path fill="#191818" d="M126.22,592.349l-0.689-0.026c-0.314,0-0.576,0.066-0.785,0.199c-0.209,0.132-0.371,0.32-0.486,0.562
			v4.982h-1.611v-7.169h1.471l0.107,1.041c0.18-0.367,0.414-0.654,0.699-0.861c0.285-0.208,0.611-0.311,0.982-0.311
			c0.098,0,0.188,0.008,0.271,0.022c0.084,0.016,0.162,0.035,0.232,0.057L126.22,592.349z"/>
		<path fill="#191818" d="M130.98,598.066c-0.057-0.181-0.105-0.357-0.143-0.53c-0.037-0.172-0.062-0.345-0.076-0.517
			c-0.221,0.336-0.51,0.617-0.871,0.845c-0.359,0.228-0.762,0.341-1.209,0.341c-0.746,0-1.318-0.191-1.719-0.576
			c-0.4-0.384-0.6-0.912-0.6-1.583c0-0.693,0.273-1.233,0.822-1.62c0.547-0.387,1.318-0.58,2.311-0.58h1.252v-0.629
			c0-0.375-0.109-0.669-0.33-0.881c-0.221-0.212-0.537-0.318-0.947-0.318c-0.367,0-0.658,0.088-0.875,0.265
			s-0.324,0.404-0.324,0.683h-1.551l-0.006-0.04c-0.031-0.565,0.221-1.066,0.758-1.504c0.537-0.437,1.236-0.655,2.098-0.655
			c0.834,0,1.508,0.212,2.02,0.636c0.514,0.424,0.77,1.033,0.77,1.828v3.188c0,0.296,0.02,0.579,0.059,0.851
			c0.041,0.272,0.104,0.538,0.193,0.799H130.98z M129.005,596.914c0.406,0,0.773-0.102,1.098-0.306
			c0.324-0.203,0.539-0.435,0.645-0.695v-1.06h-1.277c-0.469,0-0.836,0.115-1.1,0.348c-0.266,0.231-0.399,0.505-0.399,0.818
			c0,0.273,0.09,0.491,0.27,0.652C128.419,596.833,128.675,596.914,129.005,596.914z"/>
		<path fill="#191818" d="M139.65,594.721c0,1.042-0.244,1.884-0.734,2.524c-0.49,0.641-1.174,0.96-2.049,0.96
			c-0.406,0-0.766-0.072-1.078-0.218c-0.314-0.146-0.584-0.36-0.809-0.643v3.478h-1.611v-9.925h1.359l0.158,0.901
			c0.23-0.336,0.508-0.592,0.832-0.769c0.324-0.177,0.701-0.265,1.129-0.265c0.885,0,1.572,0.35,2.065,1.05
			c0.492,0.7,0.738,1.622,0.738,2.766V594.721z M138.046,594.578c0-0.732-0.137-1.331-0.414-1.796
			c-0.275-0.466-0.688-0.698-1.234-0.698c-0.336,0-0.621,0.071-0.855,0.215c-0.234,0.144-0.422,0.343-0.562,0.599v3.235
			c0.141,0.252,0.328,0.444,0.562,0.579c0.234,0.135,0.523,0.202,0.867,0.202c0.549,0,0.959-0.202,1.231-0.606
			c0.271-0.404,0.406-0.935,0.406-1.592V594.578z"/>
		<path fill="#191818" d="M141.966,591.825c0.238-0.335,0.529-0.596,0.871-0.781c0.342-0.185,0.721-0.278,1.137-0.278
			c0.76,0,1.352,0.239,1.779,0.719c0.426,0.48,0.639,1.218,0.639,2.216v4.366h-1.609v-4.379c0-0.565-0.113-0.975-0.338-1.226
			c-0.227-0.252-0.564-0.378-1.014-0.378c-0.314,0-0.596,0.065-0.846,0.195s-0.455,0.31-0.619,0.54v5.247h-1.609v-10.335h1.609
			V591.825z"/>
		<path fill="#191818" d="M149.099,589.143h-1.609v-1.411h1.609V589.143z M149.099,598.066h-1.609v-7.169h1.609V598.066z"/>
		<path fill="#191818" d="M153.185,596.914c0.393,0,0.725-0.115,0.994-0.347c0.268-0.23,0.402-0.52,0.402-0.866h1.459l0.014,0.04
			c0.021,0.671-0.252,1.25-0.818,1.735c-0.568,0.486-1.252,0.728-2.051,0.728c-1.057,0-1.865-0.34-2.428-1.02
			c-0.565-0.681-0.846-1.542-0.846-2.584v-0.233c0-1.037,0.281-1.897,0.846-2.58c0.562-0.683,1.371-1.023,2.428-1.023
			c0.861,0,1.561,0.25,2.096,0.752c0.537,0.501,0.797,1.139,0.779,1.911l-0.014,0.04h-1.465c0-0.393-0.129-0.727-0.387-1.001
			c-0.258-0.273-0.596-0.41-1.01-0.41c-0.605,0-1.033,0.219-1.285,0.658c-0.252,0.438-0.379,0.989-0.379,1.65v0.231
			c0,0.675,0.127,1.229,0.379,1.664C152.152,596.696,152.579,596.914,153.185,596.914z"/>
	</g>
</g>
<g id="STUFF" pointer-events="NONE">
	<text transform="matrix(1 0 0 1 186.1367 231.1725)" font-family="'Arial'" font-size="14">Ethiopia</text>
	<text transform="matrix(1 0 0 1 28.4176 309.238)" font-family="'Arial'" font-size="14">Ghana</text>
	<text transform="matrix(1 0 0 1 24.4645 231.1724)" font-family="'Arial'" font-size="14">Congo</text>
	<text transform="matrix(1 0 0 1 102.8212 225.8381)" enable-background="new    "><tspan x="0" y="0" font-family="'Arial'" font-size="10">Democratic</tspan><tspan x="-15.334" y="10" font-family="'Arial'" font-size="10">Republic of Congo</tspan></text>
	<text transform="matrix(1 0 0 1 102.8767 153.107)" fill="#790700" font-family="'Arial'" font-size="14">Burundi</text>
	<text transform="matrix(1 0 0 1 180.3801 153.107)" fill="#790700" font-family="'Arial'" font-size="14">Cameroon</text>
	<text transform="matrix(1 0 0 1 3.2131 153.107)" fill="#790700" font-family="'Arial'" font-size="14">Burkina Faso</text>
	<text transform="matrix(1 0 0 1 198.0128 309.2385)" font-family="'Arial'" font-size="14">Mali</text>
	<text transform="matrix(0.8957 0 0 1 16.505 387.6829)" font-family="'Arial'" font-size="14">Mauritius</text>
	<text transform="matrix(1 0 0 1 108.5982 309.2385)" font-family="'Arial'" font-size="14">Kenya</text>
	<text transform="matrix(1 0 0 1 189.7986 385.9691)" font-family="'Arial'" font-size="14">Nigeria</text>
	<g>
		<text transform="matrix(1 0 0 1 21.1307 460.0347)"><tspan x="0" y="0" font-family="'Arial'" font-size="10">São Tomé</tspan><tspan x="-5.354" y="10" font-family="'Arial'" font-size="10">and Príncipe</tspan></text>
	</g>
	<text transform="matrix(1 0 0 1 100.2435 385.9682)" font-family="'Arial'" font-size="14">Morocco</text>
	<text transform="matrix(1 0 0 1 196.863 465.3688)" font-family="'Arial'" font-size="14">Sudan</text>
	<text transform="matrix(1 0 0 1 21.6716 543.4343)" font-family="'Arial'" font-size="14">Tanzania</text>
	<g>
		<text transform="matrix(1 0 0 1 100.1302 460.0344)"><tspan x="0" y="0" font-family="'Arial'" font-size="10">South Africa</tspan><tspan x="-12.017" y="10" font-family="'Arial'" font-size="10">Gauteng Province</tspan></text>
	</g>
	<text transform="matrix(1 0 0 1 105.3212 543.4349)" font-family="'Arial'" font-size="14">Tunisia</text>
	<text transform="matrix(1 0 0 1 187.1541 543.4349)" font-family="'Arial'" font-size="14">Uganda</text>
	<path fill="#790700" d="M214.586,111.058c0,2.761-2.239,5-5.001,5c-2.761,0-4.999-2.239-4.999-5c0-2.762,2.238-5,4.999-5
		C212.347,106.058,214.586,108.297,214.586,111.058z"/>
	<path opacity="0.8" fill="#D6D6D6" enable-background="new    " d="M220.651,111.058c0,2.762-2.238,5-5.001,5
		c-2.761,0-4.999-2.238-4.999-5c0-2.762,2.238-5,4.999-5C218.413,106.058,220.651,108.297,220.651,111.058z"/>
	<path fill="#790700" d="M130.379,111.058c0,2.761-2.239,5-5.001,5c-2.761,0-4.999-2.239-4.999-5c0-2.762,2.238-5,4.999-5
		C128.14,106.058,130.379,108.297,130.379,111.058z"/>
	<path opacity="0.8" fill="#D6D6D6" enable-background="new    " d="M136.445,111.058c0,2.762-2.238,5-5.001,5
		c-2.761,0-4.999-2.238-4.999-5c0-2.762,2.238-5,4.999-5C134.206,106.058,136.445,108.297,136.445,111.058z"/>
	<path fill="#790700" d="M45.907,111.058c0,2.761-2.239,5-5.001,5c-2.761,0-4.999-2.239-4.999-5c0-2.762,2.238-5,4.999-5
		C43.669,106.058,45.907,108.297,45.907,111.058z"/>
	<path opacity="0.8" fill="#D6D6D6" enable-background="new    " d="M51.973,111.058c0,2.762-2.238,5-5.001,5
		c-2.761,0-4.999-2.238-4.999-5c0-2.762,2.238-5,4.999-5C49.735,106.058,51.973,108.297,51.973,111.058z"/>
	<path fill="#790700" d="M130.379,188.883c0,2.761-2.239,5-5.001,5c-2.761,0-4.999-2.239-4.999-5c0-2.762,2.238-5,4.999-5
		C128.14,183.883,130.379,186.122,130.379,188.883z"/>
	<path opacity="0.8" fill="#D6D6D6" enable-background="new    " d="M136.444,188.883c0,2.762-2.238,5-5.001,5
		c-2.761,0-4.999-2.238-4.999-5c0-2.762,2.238-5,4.999-5C134.206,183.883,136.444,186.122,136.444,188.883z"/>
	<path fill="#790700" d="M45.806,188.883c0,2.761-2.239,5-5.001,5c-2.761,0-4.999-2.239-4.999-5c0-2.762,2.238-5,4.999-5
		C43.567,183.883,45.806,186.122,45.806,188.883z"/>
	<path opacity="0.8" fill="#D6D6D6" enable-background="new    " d="M51.872,188.883c0,2.762-2.238,5-5.001,5
		c-2.761,0-4.999-2.238-4.999-5c0-2.762,2.238-5,4.999-5C49.633,183.883,51.872,186.122,51.872,188.883z"/>
	<path fill="#790700" d="M45.854,266.948c0,2.761-2.239,5-5.001,5c-2.761,0-4.999-2.239-4.999-5c0-2.762,2.238-5,4.999-5
		C43.615,261.948,45.854,264.187,45.854,266.948z"/>
	<path opacity="0.8" fill="#D6D6D6" enable-background="new    " d="M51.919,266.948c0,2.762-2.238,5-5.001,5
		c-2.761,0-4.999-2.238-4.999-5c0-2.762,2.238-5,4.999-5C49.681,261.948,51.919,264.187,51.919,266.948z"/>
	<path fill="#790700" d="M214.552,188.883c0,2.761-2.239,5-5.001,5c-2.761,0-4.999-2.239-4.999-5c0-2.762,2.238-5,4.999-5
		C212.313,183.883,214.552,186.122,214.552,188.883z"/>
	<path opacity="0.8" fill="#D6D6D6" enable-background="new    " d="M220.618,188.883c0,2.762-2.238,5-5.001,5
		c-2.761,0-4.999-2.238-4.999-5c0-2.762,2.238-5,4.999-5C218.379,183.883,220.618,186.122,220.618,188.883z"/>
	<path fill="#790700" d="M45.766,345.014c0,2.761-2.239,5-5.001,5c-2.761,0-4.999-2.239-4.999-5c0-2.762,2.238-5,4.999-5
		C43.527,340.014,45.766,342.253,45.766,345.014z"/>
	<path opacity="0.8" fill="#D6D6D6" enable-background="new    " d="M51.831,345.014c0,2.762-2.238,5-5.001,5
		c-2.761,0-4.999-2.238-4.999-5s2.238-5,4.999-5C49.593,340.014,51.831,342.253,51.831,345.014z"/>
	<path fill="#790700" d="M215.158,266.948c0,2.761-2.239,5-5.001,5c-2.761,0-4.999-2.239-4.999-5c0-2.762,2.238-5,4.999-5
		C212.919,261.948,215.158,264.187,215.158,266.948z"/>
	<path opacity="0.8" fill="#D6D6D6" enable-background="new    " d="M221.224,266.948c0,2.762-2.238,5-5.001,5
		c-2.761,0-4.999-2.238-4.999-5c0-2.762,2.238-5,4.999-5C218.985,261.948,221.224,264.187,221.224,266.948z"/>
	<path fill="#790700" d="M131.955,266.948c0,2.761-2.239,5-5.001,5c-2.761,0-4.999-2.239-4.999-5c0-2.762,2.238-5,4.999-5
		C129.717,261.948,131.955,264.187,131.955,266.948z"/>
	<path opacity="0.8" fill="#D6D6D6" enable-background="new    " d="M138.021,266.948c0,2.762-2.238,5-5.001,5
		c-2.761,0-4.999-2.238-4.999-5c0-2.762,2.238-5,4.999-5C135.783,261.948,138.021,264.187,138.021,266.948z"/>
	<path fill="#790700" d="M45.518,423.079c0,2.761-2.239,5-5.001,5c-2.761,0-4.999-2.239-4.999-5c0-2.762,2.238-5,4.999-5
		C43.279,418.079,45.518,420.318,45.518,423.079z"/>
	<path opacity="0.8" fill="#D6D6D6" enable-background="new    " d="M51.583,423.079c0,2.762-2.238,5-5.001,5
		c-2.761,0-4.999-2.238-4.999-5s2.238-5,4.999-5C49.345,418.079,51.583,420.318,51.583,423.079z"/>
	<path fill="#790700" d="M215.18,345.014c0,2.761-2.239,5-5.001,5c-2.761,0-4.999-2.239-4.999-5c0-2.762,2.238-5,4.999-5
		C212.941,340.014,215.18,342.253,215.18,345.014z"/>
	<path opacity="0.8" fill="#D6D6D6" enable-background="new    " d="M221.246,345.014c0,2.762-2.238,5-5.001,5
		c-2.761,0-4.999-2.238-4.999-5s2.238-5,4.999-5C219.007,340.014,221.246,342.253,221.246,345.014z"/>
	<path fill="#790700" d="M130.6,345.014c0,2.761-2.239,5-5.001,5c-2.761,0-4.999-2.239-4.999-5c0-2.762,2.238-5,4.999-5
		C128.362,340.014,130.6,342.253,130.6,345.014z"/>
	<path opacity="0.8" fill="#D6D6D6" enable-background="new    " d="M136.666,345.014c0,2.762-2.238,5-5.001,5
		c-2.761,0-4.999-2.238-4.999-5s2.238-5,4.999-5C134.428,340.014,136.666,342.253,136.666,345.014z"/>
	<path fill="#790700" d="M46.007,501.145c0,2.761-2.239,5-5.001,5c-2.761,0-4.999-2.239-4.999-5c0-2.762,2.238-5,4.999-5
		C43.768,496.145,46.007,498.384,46.007,501.145z"/>
	<path opacity="0.8" fill="#D6D6D6" enable-background="new    " d="M52.072,501.145c0,2.762-2.238,5-5.001,5
		c-2.761,0-4.999-2.238-4.999-5s2.238-5,4.999-5C49.834,496.145,52.072,498.384,52.072,501.145z"/>
	<path fill="#790700" d="M214.745,423.079c0,2.761-2.239,5-5.001,5c-2.761,0-4.999-2.239-4.999-5c0-2.762,2.238-5,4.999-5
		C212.506,418.079,214.745,420.318,214.745,423.079z"/>
	<path opacity="0.8" fill="#D6D6D6" enable-background="new    " d="M220.811,423.079c0,2.762-2.238,5-5.001,5
		c-2.761,0-4.999-2.238-4.999-5s2.238-5,4.999-5C218.572,418.079,220.811,420.318,220.811,423.079z"/>
	<path fill="#790700" d="M129.988,423.079c0,2.761-2.239,5-5.001,5c-2.761,0-4.999-2.239-4.999-5c0-2.762,2.238-5,4.999-5
		C127.75,418.079,129.988,420.318,129.988,423.079z"/>
	<path opacity="0.8" fill="#D6D6D6" enable-background="new    " d="M136.054,423.079c0,2.762-2.238,5-5.001,5
		c-2.761,0-4.999-2.238-4.999-5s2.238-5,4.999-5C133.816,418.079,136.054,420.318,136.054,423.079z"/>
	<path fill="#790700" d="M214.691,501.145c0,2.761-2.239,5-5.001,5c-2.761,0-4.999-2.239-4.999-5c0-2.762,2.238-5,4.999-5
		C212.452,496.145,214.691,498.384,214.691,501.145z"/>
	<path opacity="0.8" fill="#D6D6D6" enable-background="new    " d="M220.757,501.145c0,2.762-2.238,5-5.001,5
		c-2.761,0-4.999-2.238-4.999-5s2.238-5,4.999-5C218.518,496.145,220.757,498.384,220.757,501.145z"/>
	<path fill="#790700" d="M130.346,501.145c0,2.761-2.239,5-5.001,5c-2.761,0-4.999-2.239-4.999-5c0-2.762,2.238-5,4.999-5
		C128.108,496.145,130.346,498.384,130.346,501.145z"/>
	<path opacity="0.8" fill="#D6D6D6" enable-background="new    " d="M136.412,501.145c0,2.762-2.238,5-5.001,5
		c-2.761,0-4.999-2.238-4.999-5s2.238-5,4.999-5C134.174,496.145,136.412,498.384,136.412,501.145z"/>
</g>
<g id="TOOLTIP">
	<g id="T1" opacity="0">
		<polygon id="AREA_1_" points="89.64,56.501 0,56.501 0,98.501 32.567,98.501 32.567,98.501 44.14,110.677 55.713,98.501 
			55.713,98.501 89.64,98.501 		"/>
		<text transform="matrix(1 0 0 1 8.3792 73.7716)" fill="#FFFFFF" font-family="'PlayfairDisplay-Bold'" font-size="12">Burkina Faso</text>
		<text transform="matrix(1 0 0 1 3.9573 91.5856)" fill="#FFFFFF" font-family="'Roboto-Light'" font-size="10">$0.06</text>
		<text transform="matrix(1.047 0 0 1 55.6008 91.5856)" fill="#FFFFFF" font-family="'Roboto-Light'" font-size="10">$0.11</text>
		<path fill="#FFFFFF" d="M41.01,90.601h0.041l0.26-0.868l2.01-5.544h0.848l-2.81,7.396h-0.656l-2.816-7.396h0.848l2.037,5.544
			L41.01,90.601z"/>
		<path fill="#FFFFFF" d="M49.517,88.797c-0.285-0.26-0.799-0.472-1.542-0.636c-0.884-0.191-1.537-0.444-1.958-0.759
			c-0.421-0.314-0.632-0.759-0.632-1.333c0-0.565,0.238-1.042,0.714-1.432c0.476-0.39,1.106-0.585,1.89-0.585
			c0.834,0,1.495,0.206,1.982,0.619c0.488,0.413,0.72,0.929,0.697,1.548l-0.014,0.041h-0.759c0-0.406-0.172-0.759-0.516-1.06
			c-0.344-0.301-0.808-0.451-1.391-0.451c-0.597,0-1.045,0.129-1.343,0.386c-0.298,0.257-0.448,0.56-0.448,0.906
			c0,0.342,0.129,0.624,0.386,0.848c0.257,0.223,0.771,0.419,1.542,0.588c0.879,0.196,1.538,0.464,1.976,0.803
			c0.438,0.339,0.656,0.801,0.656,1.384c0,0.615-0.25,1.113-0.749,1.494c-0.499,0.38-1.159,0.571-1.979,0.571
			c-0.898,0-1.603-0.214-2.116-0.643c-0.513-0.428-0.755-0.939-0.728-1.531l0.014-0.041h0.752c0.032,0.533,0.25,0.92,0.653,1.162
			c0.403,0.242,0.878,0.362,1.425,0.362c0.592,0,1.06-0.13,1.401-0.39c0.342-0.26,0.513-0.574,0.513-0.943
			C49.945,89.36,49.802,89.056,49.517,88.797z"/>
	</g>
	<g id="T2" opacity="0">
		<polygon id="AREA_2_" points="173.827,56.501 84.187,56.501 84.187,98.501 116.754,98.501 116.754,98.501 128.327,110.677 
			139.9,98.501 139.9,98.501 173.827,98.501 		"/>
		<text transform="matrix(1 0 0 1 92.5661 73.7716)" fill="#FFFFFF" font-family="'PlayfairDisplay-Bold'" font-size="12">Burundi</text>
		<text transform="matrix(1 0 0 1 88.1443 91.5856)" fill="#FFFFFF" font-family="'Roboto-Light'" font-size="10">$0.03</text>
		<text transform="matrix(1.047 0 0 1 139.7878 91.5856)" fill="#FFFFFF" font-family="'Roboto-Light'" font-size="10">$0.07</text>
		<path fill="#FFFFFF" d="M125.197,90.601h0.041l0.26-0.868l2.01-5.544h0.848l-2.81,7.396h-0.656l-2.816-7.396h0.848l2.037,5.544
			L125.197,90.601z"/>
		<path fill="#FFFFFF" d="M133.704,88.797c-0.285-0.26-0.799-0.472-1.542-0.636c-0.884-0.191-1.537-0.444-1.958-0.759
			c-0.421-0.314-0.632-0.759-0.632-1.333c0-0.565,0.238-1.042,0.714-1.432c0.476-0.39,1.106-0.585,1.89-0.585
			c0.834,0,1.495,0.206,1.982,0.619c0.488,0.413,0.72,0.929,0.697,1.548l-0.014,0.041h-0.759c0-0.406-0.172-0.759-0.516-1.06
			c-0.344-0.301-0.808-0.451-1.391-0.451c-0.597,0-1.045,0.129-1.343,0.386c-0.298,0.257-0.448,0.56-0.448,0.906
			c0,0.342,0.129,0.624,0.386,0.848c0.257,0.223,0.771,0.419,1.541,0.588c0.879,0.196,1.538,0.464,1.976,0.803
			c0.438,0.339,0.656,0.801,0.656,1.384c0,0.615-0.25,1.113-0.749,1.494c-0.499,0.38-1.159,0.571-1.979,0.571
			c-0.898,0-1.603-0.214-2.116-0.643c-0.513-0.428-0.755-0.939-0.728-1.531l0.014-0.041h0.752c0.032,0.533,0.249,0.92,0.653,1.162
			s0.878,0.362,1.425,0.362c0.592,0,1.06-0.13,1.401-0.39c0.342-0.26,0.513-0.574,0.513-0.943
			C134.132,89.36,133.989,89.056,133.704,88.797z"/>
	</g>
	<g id="T3" opacity="0">
		<polygon id="AREA_3_" points="257.636,56.501 167.997,56.501 167.997,98.501 200.563,98.501 200.563,98.501 212.136,110.677 
			223.71,98.501 223.71,98.501 257.636,98.501 		"/>
		<text transform="matrix(1 0 0 1 176.3757 73.7716)" fill="#FFFFFF" font-family="'PlayfairDisplay-Bold'" font-size="12">Cameroon</text>
		<text transform="matrix(1 0 0 1 171.9539 91.5856)" fill="#FFFFFF" font-family="'Roboto-Light'" font-size="10">$0.15</text>
		<text transform="matrix(1.047 0 0 1 223.5974 91.5856)" fill="#FFFFFF" font-family="'Roboto-Light'" font-size="10">$0.61</text>
		<path fill="#FFFFFF" d="M209.007,90.601h0.041l0.26-0.868l2.01-5.544h0.848l-2.81,7.396h-0.656l-2.816-7.396h0.848l2.037,5.544
			L209.007,90.601z"/>
		<path fill="#FFFFFF" d="M217.514,88.797c-0.285-0.26-0.799-0.472-1.542-0.636c-0.884-0.191-1.537-0.444-1.958-0.759
			c-0.421-0.314-0.632-0.759-0.632-1.333c0-0.565,0.238-1.042,0.714-1.432c0.476-0.39,1.106-0.585,1.89-0.585
			c0.834,0,1.495,0.206,1.982,0.619c0.488,0.413,0.72,0.929,0.697,1.548l-0.014,0.041h-0.759c0-0.406-0.172-0.759-0.516-1.06
			c-0.344-0.301-0.808-0.451-1.391-0.451c-0.597,0-1.045,0.129-1.343,0.386c-0.298,0.257-0.448,0.56-0.448,0.906
			c0,0.342,0.129,0.624,0.386,0.848c0.257,0.223,0.771,0.419,1.541,0.588c0.879,0.196,1.538,0.464,1.976,0.803
			c0.438,0.339,0.656,0.801,0.656,1.384c0,0.615-0.25,1.113-0.749,1.494c-0.499,0.38-1.159,0.571-1.979,0.571
			c-0.898,0-1.603-0.214-2.116-0.643c-0.513-0.428-0.755-0.939-0.728-1.531l0.014-0.041h0.752c0.032,0.533,0.249,0.92,0.653,1.162
			s0.878,0.362,1.425,0.362c0.592,0,1.06-0.13,1.401-0.39c0.342-0.26,0.513-0.574,0.513-0.943
			C217.941,89.36,217.799,89.056,217.514,88.797z"/>
	</g>
	<g id="T4" opacity="0">
		<polygon id="AREA_4_" points="88.988,134.706 -0.652,134.706 -0.652,176.706 31.915,176.706 31.915,176.706 43.488,188.883 
			55.061,176.706 55.061,176.706 88.988,176.706 		"/>
		<text transform="matrix(1 0 0 1 7.7272 151.9771)" fill="#FFFFFF" font-family="'PlayfairDisplay-Bold'" font-size="12">Congo</text>
		<text transform="matrix(1 0 0 1 3.3054 169.7911)" fill="#FFFFFF" font-family="'Roboto-Light'" font-size="10">$0.20</text>
		<text transform="matrix(1.047 0 0 1 54.9489 169.7911)" fill="#FFFFFF" font-family="'Roboto-Light'" font-size="10">$0.47</text>
		<path fill="#FFFFFF" d="M40.358,168.807h0.041l0.26-0.868l2.01-5.544h0.848l-2.81,7.396H40.05l-2.816-7.396h0.848l2.037,5.544
			L40.358,168.807z"/>
		<path fill="#FFFFFF" d="M48.865,167.002c-0.285-0.26-0.799-0.472-1.542-0.636c-0.884-0.191-1.537-0.444-1.958-0.759
			c-0.421-0.314-0.632-0.759-0.632-1.333c0-0.565,0.238-1.042,0.714-1.432c0.476-0.39,1.106-0.584,1.89-0.584
			c0.834,0,1.495,0.206,1.982,0.619c0.488,0.413,0.72,0.929,0.697,1.548l-0.014,0.041h-0.759c0-0.406-0.172-0.759-0.516-1.06
			c-0.344-0.301-0.808-0.451-1.391-0.451c-0.597,0-1.045,0.129-1.343,0.386c-0.298,0.257-0.448,0.559-0.448,0.906
			c0,0.342,0.129,0.624,0.386,0.848c0.257,0.223,0.771,0.419,1.542,0.588c0.879,0.196,1.538,0.464,1.976,0.803
			c0.438,0.339,0.656,0.801,0.656,1.384c0,0.615-0.25,1.113-0.749,1.494c-0.499,0.38-1.159,0.571-1.979,0.571
			c-0.898,0-1.603-0.214-2.116-0.643c-0.513-0.428-0.755-0.939-0.728-1.531l0.014-0.041H45.3c0.032,0.533,0.25,0.92,0.653,1.162
			c0.403,0.242,0.878,0.362,1.425,0.362c0.592,0,1.06-0.13,1.401-0.39c0.342-0.26,0.513-0.574,0.513-0.943
			C49.293,167.565,49.15,167.262,48.865,167.002z"/>
	</g>
	<g id="T5" opacity="0">
		<polygon id="AREA_5_" points="173.549,134.706 83.91,134.706 83.91,176.706 116.476,176.706 116.476,176.706 128.049,188.883 
			139.622,176.706 139.622,176.706 173.549,176.706 		"/>
		<text transform="matrix(1 0 0 1 92.2885 151.9771)" fill="#FFFFFF" font-family="'PlayfairDisplay-Bold'" font-size="12">R. Congo</text>
		<text transform="matrix(1 0 0 1 87.8666 169.7911)" fill="#FFFFFF" font-family="'Roboto-Light'" font-size="10">$0.06</text>
		<text transform="matrix(1.047 0 0 1 139.5101 169.7911)" fill="#FFFFFF" font-family="'Roboto-Light'" font-size="10">$0.06</text>
		<path fill="#FFFFFF" d="M124.919,168.807h0.041l0.26-0.868l2.01-5.544h0.848l-2.81,7.396h-0.656l-2.816-7.396h0.848l2.037,5.544
			L124.919,168.807z"/>
		<path fill="#FFFFFF" d="M133.427,167.002c-0.285-0.26-0.799-0.472-1.542-0.636c-0.884-0.191-1.537-0.444-1.958-0.759
			c-0.421-0.314-0.632-0.759-0.632-1.333c0-0.565,0.238-1.042,0.714-1.432c0.476-0.39,1.106-0.584,1.89-0.584
			c0.834,0,1.495,0.206,1.982,0.619c0.488,0.413,0.72,0.929,0.697,1.548l-0.014,0.041h-0.759c0-0.406-0.172-0.759-0.516-1.06
			c-0.344-0.301-0.808-0.451-1.391-0.451c-0.597,0-1.045,0.129-1.343,0.386c-0.298,0.257-0.448,0.559-0.448,0.906
			c0,0.342,0.129,0.624,0.386,0.848c0.257,0.223,0.771,0.419,1.541,0.588c0.879,0.196,1.538,0.464,1.976,0.803
			c0.438,0.339,0.656,0.801,0.656,1.384c0,0.615-0.25,1.113-0.749,1.494c-0.499,0.38-1.159,0.571-1.979,0.571
			c-0.898,0-1.603-0.214-2.116-0.643c-0.513-0.428-0.755-0.939-0.728-1.531l0.014-0.041h0.752c0.032,0.533,0.249,0.92,0.653,1.162
			s0.878,0.362,1.425,0.362c0.592,0,1.06-0.13,1.401-0.39c0.342-0.26,0.513-0.574,0.513-0.943
			C133.854,167.565,133.711,167.262,133.427,167.002z"/>
	</g>
	<g id="T6" opacity="0">
		<polygon id="AREA_6_" points="258.001,134.706 168.361,134.706 168.361,176.706 200.928,176.706 200.928,176.706 212.501,188.883 
			224.074,176.706 224.074,176.706 258.001,176.706 		"/>
		<text transform="matrix(1 0 0 1 176.7404 151.9771)" fill="#FFFFFF" font-family="'PlayfairDisplay-Bold'" font-size="12">Ethiopia</text>
		<text transform="matrix(1 0 0 1 172.3185 169.7911)" fill="#FFFFFF" font-family="'Roboto-Light'" font-size="10">$0.05</text>
		<text transform="matrix(1.047 0 0 1 223.962 169.7911)" fill="#FFFFFF" font-family="'Roboto-Light'" font-size="10">$0.05 </text>
		<path fill="#FFFFFF" d="M209.371,168.807h0.041l0.26-0.868l2.01-5.544h0.848l-2.81,7.396h-0.656l-2.816-7.396h0.848l2.037,5.544
			L209.371,168.807z"/>
		<path fill="#FFFFFF" d="M217.878,167.002c-0.285-0.26-0.799-0.472-1.542-0.636c-0.884-0.191-1.537-0.444-1.958-0.759
			c-0.421-0.314-0.632-0.759-0.632-1.333c0-0.565,0.238-1.042,0.714-1.432c0.476-0.39,1.106-0.584,1.89-0.584
			c0.834,0,1.495,0.206,1.982,0.619c0.488,0.413,0.72,0.929,0.697,1.548l-0.014,0.041h-0.759c0-0.406-0.172-0.759-0.516-1.06
			c-0.344-0.301-0.808-0.451-1.391-0.451c-0.597,0-1.045,0.129-1.343,0.386c-0.298,0.257-0.448,0.559-0.448,0.906
			c0,0.342,0.129,0.624,0.386,0.848c0.257,0.223,0.771,0.419,1.542,0.588c0.879,0.196,1.538,0.464,1.976,0.803
			c0.438,0.339,0.656,0.801,0.656,1.384c0,0.615-0.25,1.113-0.749,1.494c-0.499,0.38-1.159,0.571-1.979,0.571
			c-0.898,0-1.603-0.214-2.116-0.643c-0.513-0.428-0.755-0.939-0.728-1.531l0.014-0.041h0.752c0.032,0.533,0.249,0.92,0.653,1.162
			c0.403,0.242,0.878,0.362,1.425,0.362c0.592,0,1.06-0.13,1.401-0.39c0.342-0.26,0.513-0.574,0.513-0.943
			C218.306,167.565,218.163,167.262,217.878,167.002z"/>
	</g>
	<g id="T7" opacity="0">
		<polygon id="AREA_7_" points="89.37,212.772 -0.27,212.772 -0.27,254.772 32.297,254.772 32.297,254.772 43.87,266.948 
			55.443,254.772 55.443,254.772 89.37,254.772 		"/>
		<text transform="matrix(1 0 0 1 8.1091 230.0426)" fill="#FFFFFF" font-family="'PlayfairDisplay-Bold'" font-size="12">Ghana</text>
		<text transform="matrix(1 0 0 1 3.6873 247.8566)" fill="#FFFFFF" font-family="'Roboto-Light'" font-size="10">$0.22</text>
		<text transform="matrix(1.047 0 0 1 55.3308 247.8566)" fill="#FFFFFF" font-family="'Roboto-Light'" font-size="10">$0.22</text>
		<path fill="#FFFFFF" d="M40.74,246.872h0.041l0.26-0.868l2.01-5.544h0.848l-2.81,7.396h-0.656l-2.816-7.396h0.848l2.037,5.544
			L40.74,246.872z"/>
		<path fill="#FFFFFF" d="M49.247,245.068c-0.285-0.26-0.799-0.472-1.542-0.636c-0.884-0.191-1.537-0.444-1.958-0.759
			c-0.421-0.314-0.632-0.759-0.632-1.333c0-0.565,0.238-1.042,0.714-1.432c0.476-0.39,1.106-0.585,1.89-0.585
			c0.834,0,1.495,0.206,1.982,0.619c0.488,0.413,0.72,0.929,0.697,1.548l-0.014,0.041h-0.759c0-0.406-0.172-0.759-0.516-1.06
			c-0.344-0.301-0.808-0.451-1.391-0.451c-0.597,0-1.045,0.129-1.343,0.386c-0.298,0.257-0.448,0.56-0.448,0.906
			c0,0.342,0.129,0.625,0.386,0.848c0.257,0.223,0.771,0.419,1.542,0.588c0.879,0.196,1.538,0.464,1.976,0.803
			c0.438,0.339,0.656,0.801,0.656,1.384c0,0.615-0.25,1.113-0.749,1.494C49.24,247.81,48.581,248,47.76,248
			c-0.898,0-1.603-0.214-2.116-0.643c-0.513-0.428-0.755-0.939-0.728-1.531l0.014-0.041h0.752c0.032,0.533,0.25,0.92,0.653,1.162
			c0.403,0.242,0.878,0.362,1.425,0.362c0.592,0,1.06-0.13,1.401-0.39c0.342-0.26,0.513-0.574,0.513-0.943
			C49.675,245.631,49.532,245.327,49.247,245.068z"/>
	</g>
	<g id="T8" opacity="0">
		<polygon id="AREA_8_" points="174.808,212.772 85.168,212.772 85.168,254.772 117.734,254.772 117.734,254.772 129.308,266.948 
			140.881,254.772 140.881,254.772 174.808,254.772 		"/>
		<text transform="matrix(1 0 0 1 93.547 230.0426)" fill="#FFFFFF" font-family="'PlayfairDisplay-Bold'" font-size="12">Kenya</text>
		<text transform="matrix(1 0 0 1 89.1251 247.8566)" fill="#FFFFFF" font-family="'Roboto-Light'" font-size="10">$0.09</text>
		<text transform="matrix(1.047 0 0 1 140.7687 247.8566)" fill="#FFFFFF" font-family="'Roboto-Light'" font-size="10">$0.12</text>
		<path fill="#FFFFFF" d="M126.178,246.872h0.041l0.26-0.868l2.01-5.544h0.848l-2.81,7.396h-0.656l-2.816-7.396h0.848l2.037,5.544
			L126.178,246.872z"/>
		<path fill="#FFFFFF" d="M134.685,245.068c-0.285-0.26-0.799-0.472-1.542-0.636c-0.884-0.191-1.537-0.444-1.958-0.759
			c-0.421-0.314-0.632-0.759-0.632-1.333c0-0.565,0.238-1.042,0.714-1.432c0.476-0.39,1.106-0.585,1.89-0.585
			c0.834,0,1.495,0.206,1.982,0.619c0.488,0.413,0.72,0.929,0.697,1.548l-0.014,0.041h-0.759c0-0.406-0.172-0.759-0.516-1.06
			c-0.344-0.301-0.808-0.451-1.391-0.451c-0.597,0-1.045,0.129-1.343,0.386c-0.298,0.257-0.448,0.56-0.448,0.906
			c0,0.342,0.129,0.625,0.386,0.848c0.257,0.223,0.771,0.419,1.541,0.588c0.879,0.196,1.538,0.464,1.976,0.803
			c0.438,0.339,0.656,0.801,0.656,1.384c0,0.615-0.25,1.113-0.749,1.494c-0.499,0.38-1.159,0.571-1.979,0.571
			c-0.898,0-1.603-0.214-2.116-0.643c-0.513-0.428-0.755-0.939-0.728-1.531l0.014-0.041h0.752c0.032,0.533,0.249,0.92,0.653,1.162
			s0.878,0.362,1.425,0.362c0.592,0,1.06-0.13,1.401-0.39c0.342-0.26,0.513-0.574,0.513-0.943
			C135.112,245.631,134.97,245.327,134.685,245.068z"/>
	</g>
	<g id="T9" opacity="0">
		<polygon id="AREA_9_" points="258.366,212.772 168.726,212.772 168.726,254.772 201.292,254.772 201.292,254.772 212.866,266.948 
			224.439,254.772 224.439,254.772 258.366,254.772 		"/>
		<text transform="matrix(1 0 0 1 177.105 230.0426)" fill="#FFFFFF" font-family="'PlayfairDisplay-Bold'" font-size="12">Mali</text>
		<text transform="matrix(1 0 0 1 172.6831 247.8566)" fill="#FFFFFF" font-family="'Roboto-Light'" font-size="10">$0.42</text>
		<text transform="matrix(1.047 0 0 1 224.3267 247.8566)" fill="#FFFFFF" font-family="'Roboto-Light'" font-size="10">$0.49</text>
		<path fill="#FFFFFF" d="M209.736,246.872h0.041l0.26-0.868l2.01-5.544h0.848l-2.81,7.396h-0.656l-2.816-7.396h0.848l2.037,5.544
			L209.736,246.872z"/>
		<path fill="#FFFFFF" d="M218.243,245.068c-0.285-0.26-0.799-0.472-1.542-0.636c-0.884-0.191-1.537-0.444-1.958-0.759
			c-0.421-0.314-0.632-0.759-0.632-1.333c0-0.565,0.238-1.042,0.714-1.432c0.476-0.39,1.106-0.585,1.89-0.585
			c0.834,0,1.495,0.206,1.982,0.619c0.488,0.413,0.72,0.929,0.697,1.548l-0.014,0.041h-0.759c0-0.406-0.172-0.759-0.516-1.06
			c-0.344-0.301-0.808-0.451-1.391-0.451c-0.597,0-1.045,0.129-1.343,0.386c-0.298,0.257-0.448,0.56-0.448,0.906
			c0,0.342,0.129,0.625,0.386,0.848c0.257,0.223,0.771,0.419,1.542,0.588c0.879,0.196,1.538,0.464,1.976,0.803
			c0.438,0.339,0.656,0.801,0.656,1.384c0,0.615-0.25,1.113-0.749,1.494c-0.499,0.38-1.159,0.571-1.979,0.571
			c-0.898,0-1.603-0.214-2.116-0.643c-0.513-0.428-0.755-0.939-0.728-1.531l0.014-0.041h0.752c0.032,0.533,0.249,0.92,0.653,1.162
			c0.403,0.242,0.878,0.362,1.425,0.362c0.592,0,1.06-0.13,1.401-0.39c0.342-0.26,0.513-0.574,0.513-0.943
			C218.67,245.631,218.528,245.327,218.243,245.068z"/>
	</g>
	<g id="T10" opacity="0">
		<polygon id="AREA_10_" points="89.734,290.837 0.095,290.837 0.095,332.837 32.661,332.837 32.661,332.837 44.234,345.014 
			55.808,332.837 55.808,332.837 89.734,332.837 		"/>
		<text transform="matrix(1 0 0 1 8.4738 308.1081)" fill="#FFFFFF" font-family="'PlayfairDisplay-Bold'" font-size="12">Mauritius</text>
		<text transform="matrix(1 0 0 1 4.0519 325.9221)" fill="#FFFFFF" font-family="'Roboto-Light'" font-size="10">FREE</text>
		<text transform="matrix(1.047 0 0 1 55.6954 325.9221)" fill="#FFFFFF" font-family="'Roboto-Light'" font-size="10">$0.34</text>
		<path fill="#FFFFFF" d="M41.105,324.938h0.041l0.26-0.868l2.01-5.544h0.848l-2.81,7.397h-0.656l-2.816-7.397h0.848l2.037,5.544
			L41.105,324.938z"/>
		<path fill="#FFFFFF" d="M49.612,323.133c-0.285-0.26-0.799-0.472-1.542-0.636c-0.884-0.191-1.537-0.444-1.958-0.759
			c-0.421-0.314-0.632-0.759-0.632-1.333c0-0.565,0.238-1.042,0.714-1.432c0.476-0.39,1.106-0.585,1.89-0.585
			c0.834,0,1.495,0.206,1.982,0.619c0.488,0.413,0.72,0.929,0.697,1.548l-0.014,0.041h-0.759c0-0.406-0.172-0.759-0.516-1.06
			c-0.344-0.301-0.808-0.451-1.391-0.451c-0.597,0-1.045,0.129-1.343,0.386c-0.298,0.257-0.448,0.56-0.448,0.906
			c0,0.342,0.129,0.625,0.386,0.848c0.257,0.223,0.771,0.419,1.542,0.588c0.879,0.196,1.538,0.464,1.976,0.803
			c0.438,0.339,0.656,0.801,0.656,1.384c0,0.615-0.25,1.113-0.749,1.494c-0.499,0.38-1.159,0.571-1.979,0.571
			c-0.898,0-1.603-0.214-2.116-0.643c-0.513-0.428-0.755-0.939-0.728-1.531l0.014-0.041h0.752c0.032,0.533,0.25,0.92,0.653,1.162
			c0.403,0.242,0.878,0.362,1.425,0.362c0.592,0,1.06-0.13,1.401-0.39c0.342-0.26,0.513-0.574,0.513-0.943
			C50.039,323.696,49.897,323.393,49.612,323.133z"/>
	</g>
	<g id="T11" opacity="0">
		<polygon id="AREA_11_" points="174.156,290.837 84.516,290.837 84.516,332.837 117.083,332.837 117.083,332.837 128.656,345.014 
			140.229,332.837 140.229,332.837 174.156,332.837 		"/>
		<text transform="matrix(1 0 0 1 92.8951 308.1081)" fill="#FFFFFF" font-family="'PlayfairDisplay-Bold'" font-size="12">Morocco</text>
		<text transform="matrix(1 0 0 1 88.4732 325.9221)" fill="#FFFFFF" font-family="'Roboto-Light'" font-size="10">FREE</text>
		<text transform="matrix(1.047 0 0 1 140.1168 325.9221)" fill="#FFFFFF" font-family="'Roboto-Light'" font-size="10">$2.63</text>
		<path fill="#FFFFFF" d="M125.526,324.938h0.041l0.26-0.868l2.01-5.544h0.848l-2.81,7.397h-0.656l-2.816-7.397h0.848l2.037,5.544
			L125.526,324.938z"/>
		<path fill="#FFFFFF" d="M134.033,323.133c-0.285-0.26-0.799-0.472-1.542-0.636c-0.884-0.191-1.537-0.444-1.958-0.759
			c-0.421-0.314-0.632-0.759-0.632-1.333c0-0.565,0.238-1.042,0.714-1.432c0.476-0.39,1.106-0.585,1.89-0.585
			c0.834,0,1.495,0.206,1.982,0.619s0.72,0.929,0.697,1.548l-0.014,0.041h-0.759c0-0.406-0.172-0.759-0.516-1.06
			c-0.344-0.301-0.808-0.451-1.391-0.451c-0.597,0-1.045,0.129-1.343,0.386c-0.298,0.257-0.448,0.56-0.448,0.906
			c0,0.342,0.129,0.625,0.386,0.848c0.257,0.223,0.771,0.419,1.542,0.588c0.879,0.196,1.538,0.464,1.976,0.803
			c0.438,0.339,0.656,0.801,0.656,1.384c0,0.615-0.25,1.113-0.749,1.494c-0.499,0.38-1.159,0.571-1.979,0.571
			c-0.898,0-1.603-0.214-2.116-0.643c-0.513-0.428-0.755-0.939-0.728-1.531l0.014-0.041h0.752c0.032,0.533,0.249,0.92,0.653,1.162
			c0.403,0.242,0.878,0.362,1.425,0.362c0.592,0,1.06-0.13,1.401-0.39c0.342-0.26,0.513-0.574,0.513-0.943
			C134.461,323.696,134.318,323.393,134.033,323.133z"/>
	</g>
	<g id="T12" opacity="0">
		<polygon id="AREA_12_" points="258.73,290.837 169.091,290.837 169.091,332.837 201.657,332.837 201.657,332.837 213.23,345.014 
			224.804,332.837 224.804,332.837 258.73,332.837 		"/>
		<text transform="matrix(1 0 0 1 177.4696 308.1081)" fill="#FFFFFF" font-family="'PlayfairDisplay-Bold'" font-size="12">Nigeria</text>
		<text transform="matrix(1 0 0 1 173.0477 325.9221)" fill="#FFFFFF" font-family="'Roboto-Light'" font-size="10">$0.36</text>
		<text transform="matrix(1.047 0 0 1 224.6913 325.9221)" fill="#FFFFFF" font-family="'Roboto-Light'" font-size="10">$0.30</text>
		<path fill="#FFFFFF" d="M210.1,324.938h0.041l0.26-0.868l2.01-5.544h0.848l-2.81,7.397h-0.656l-2.816-7.397h0.848l2.037,5.544
			L210.1,324.938z"/>
		<path fill="#FFFFFF" d="M218.608,323.133c-0.285-0.26-0.799-0.472-1.542-0.636c-0.884-0.191-1.537-0.444-1.958-0.759
			c-0.421-0.314-0.632-0.759-0.632-1.333c0-0.565,0.238-1.042,0.714-1.432c0.476-0.39,1.106-0.585,1.89-0.585
			c0.834,0,1.495,0.206,1.982,0.619s0.72,0.929,0.697,1.548l-0.014,0.041h-0.759c0-0.406-0.172-0.759-0.516-1.06
			c-0.344-0.301-0.808-0.451-1.391-0.451c-0.597,0-1.045,0.129-1.343,0.386c-0.298,0.257-0.448,0.56-0.448,0.906
			c0,0.342,0.129,0.625,0.386,0.848c0.257,0.223,0.771,0.419,1.542,0.588c0.879,0.196,1.538,0.464,1.976,0.803
			c0.438,0.339,0.656,0.801,0.656,1.384c0,0.615-0.25,1.113-0.749,1.494c-0.499,0.38-1.159,0.571-1.979,0.571
			c-0.898,0-1.603-0.214-2.116-0.643c-0.513-0.428-0.755-0.939-0.728-1.531l0.014-0.041h0.752c0.032,0.533,0.249,0.92,0.653,1.162
			c0.403,0.242,0.878,0.362,1.425,0.362c0.592,0,1.06-0.13,1.401-0.39c0.342-0.26,0.513-0.574,0.513-0.943
			C219.035,323.696,218.892,323.393,218.608,323.133z"/>
	</g>
	<g id="T13" opacity="0">
		<polygon id="AREA_13_" points="88.687,368.903 -0.952,368.903 -0.952,410.903 31.614,410.903 31.614,410.903 43.187,423.079 
			54.761,410.903 54.761,410.903 88.687,410.903 		"/>
		<text transform="matrix(1 0 0 1 7.4267 386.1736)" fill="#FFFFFF" font-family="'PlayfairDisplay-Bold'" font-size="12">ST Príncipe</text>
		<text transform="matrix(1 0 0 1 3.0048 403.9876)" fill="#FFFFFF" font-family="'Roboto-Light'" font-size="10">$0.09</text>
		<text transform="matrix(1.047 0 0 1 54.6483 403.9876)" fill="#FFFFFF" font-family="'Roboto-Light'" font-size="10">$3.44</text>
		<path fill="#FFFFFF" d="M40.057,403.003h0.041l0.26-0.868l2.01-5.544h0.848l-2.81,7.397H39.75l-2.816-7.397h0.848l2.037,5.544
			L40.057,403.003z"/>
		<path fill="#FFFFFF" d="M48.565,401.199c-0.285-0.26-0.799-0.472-1.542-0.636c-0.884-0.191-1.537-0.444-1.958-0.759
			c-0.421-0.314-0.632-0.759-0.632-1.333c0-0.565,0.238-1.042,0.714-1.432c0.476-0.39,1.106-0.585,1.89-0.585
			c0.834,0,1.495,0.206,1.982,0.619c0.488,0.413,0.72,0.929,0.697,1.548l-0.014,0.041h-0.759c0-0.406-0.172-0.759-0.516-1.06
			c-0.344-0.301-0.808-0.451-1.391-0.451c-0.597,0-1.045,0.129-1.343,0.386c-0.298,0.257-0.448,0.56-0.448,0.906
			c0,0.342,0.129,0.625,0.386,0.848c0.257,0.223,0.771,0.419,1.542,0.588c0.879,0.196,1.538,0.464,1.976,0.803
			c0.438,0.339,0.656,0.801,0.656,1.384c0,0.615-0.25,1.113-0.749,1.494c-0.499,0.38-1.159,0.571-1.979,0.571
			c-0.898,0-1.603-0.214-2.116-0.642c-0.513-0.428-0.755-0.939-0.728-1.531l0.014-0.041H45c0.032,0.533,0.25,0.92,0.653,1.162
			c0.403,0.242,0.878,0.362,1.425,0.362c0.592,0,1.06-0.13,1.401-0.39c0.342-0.26,0.513-0.574,0.513-0.943
			C48.992,401.762,48.849,401.458,48.565,401.199z"/>
	</g>
	<g id="T14" opacity="0">
		<polygon id="AREA_14_" points="174.156,368.903 84.516,368.903 84.516,410.903 117.083,410.903 117.083,410.903 128.656,423.079 
			140.229,410.903 140.229,410.903 174.156,410.903 		"/>
		<text transform="matrix(1 0 0 1 92.8951 386.1736)" fill="#FFFFFF" font-family="'PlayfairDisplay-Bold'" font-size="12">South Africa</text>
		<text transform="matrix(1 0 0 1 94.4732 403.9876)" fill="#FFFFFF" font-family="'Roboto-Light'" font-size="10">NA</text>
		<text transform="matrix(1.047 0 0 1 140.1168 403.9876)" fill="#FFFFFF" font-family="'Roboto-Light'" font-size="10">$0.52</text>
		<path fill="#FFFFFF" d="M125.526,403.003h0.041l0.26-0.868l2.01-5.544h0.848l-2.81,7.397h-0.656l-2.816-7.397h0.848l2.037,5.544
			L125.526,403.003z"/>
		<path fill="#FFFFFF" d="M134.033,401.199c-0.285-0.26-0.799-0.472-1.542-0.636c-0.884-0.191-1.537-0.444-1.958-0.759
			c-0.421-0.314-0.632-0.759-0.632-1.333c0-0.565,0.238-1.042,0.714-1.432c0.476-0.39,1.106-0.585,1.89-0.585
			c0.834,0,1.495,0.206,1.982,0.619s0.72,0.929,0.697,1.548l-0.014,0.041h-0.759c0-0.406-0.172-0.759-0.516-1.06
			c-0.344-0.301-0.808-0.451-1.391-0.451c-0.597,0-1.045,0.129-1.343,0.386c-0.298,0.257-0.448,0.56-0.448,0.906
			c0,0.342,0.129,0.625,0.386,0.848c0.257,0.223,0.771,0.419,1.542,0.588c0.879,0.196,1.538,0.464,1.976,0.803
			c0.438,0.339,0.656,0.801,0.656,1.384c0,0.615-0.25,1.113-0.749,1.494c-0.499,0.38-1.159,0.571-1.979,0.571
			c-0.898,0-1.603-0.214-2.116-0.642c-0.513-0.428-0.755-0.939-0.728-1.531l0.014-0.041h0.752c0.032,0.533,0.249,0.92,0.653,1.162
			c0.403,0.242,0.878,0.362,1.425,0.362c0.592,0,1.06-0.13,1.401-0.39c0.342-0.26,0.513-0.574,0.513-0.943
			C134.461,401.762,134.318,401.458,134.033,401.199z"/>
	</g>
	<g id="T15" opacity="0">
		<polygon id="AREA_15_" points="258.73,368.903 169.091,368.903 169.091,410.903 201.657,410.903 201.657,410.903 213.23,423.079 
			224.804,410.903 224.804,410.903 258.73,410.903 		"/>
		<text transform="matrix(1 0 0 1 177.4696 386.1736)" fill="#FFFFFF" font-family="'PlayfairDisplay-Bold'" font-size="12">Sudan</text>
		<text transform="matrix(1 0 0 1 173.0477 403.9876)" fill="#FFFFFF" font-family="'Roboto-Light'" font-size="10">$0.15</text>
		<text transform="matrix(1.047 0 0 1 224.6913 403.9876)" fill="#FFFFFF" font-family="'Roboto-Light'" font-size="10">$0.15</text>
		<path fill="#FFFFFF" d="M210.1,403.003h0.041l0.26-0.868l2.01-5.544h0.848l-2.81,7.397h-0.656l-2.816-7.397h0.848l2.037,5.544
			L210.1,403.003z"/>
		<path fill="#FFFFFF" d="M218.608,401.199c-0.285-0.26-0.799-0.472-1.542-0.636c-0.884-0.191-1.537-0.444-1.958-0.759
			c-0.421-0.314-0.632-0.759-0.632-1.333c0-0.565,0.238-1.042,0.714-1.432c0.476-0.39,1.106-0.585,1.89-0.585
			c0.834,0,1.495,0.206,1.982,0.619s0.72,0.929,0.697,1.548l-0.014,0.041h-0.759c0-0.406-0.172-0.759-0.516-1.06
			c-0.344-0.301-0.808-0.451-1.391-0.451c-0.597,0-1.045,0.129-1.343,0.386c-0.298,0.257-0.448,0.56-0.448,0.906
			c0,0.342,0.129,0.625,0.386,0.848c0.257,0.223,0.771,0.419,1.542,0.588c0.879,0.196,1.538,0.464,1.976,0.803
			c0.438,0.339,0.656,0.801,0.656,1.384c0,0.615-0.25,1.113-0.749,1.494c-0.499,0.38-1.159,0.571-1.979,0.571
			c-0.898,0-1.603-0.214-2.116-0.642c-0.513-0.428-0.755-0.939-0.728-1.531l0.014-0.041h0.752c0.032,0.533,0.249,0.92,0.653,1.162
			c0.403,0.242,0.878,0.362,1.425,0.362c0.592,0,1.06-0.13,1.401-0.39c0.342-0.26,0.513-0.574,0.513-0.943
			C219.035,401.762,218.892,401.458,218.608,401.199z"/>
	</g>
	<g id="T16" opacity="0">
		<polygon id="AREA_16_" points="89.734,446.968 0.095,446.968 0.095,488.968 32.661,488.968 32.661,488.968 44.234,501.145 
			55.808,488.968 55.808,488.968 89.734,488.968 		"/>
		<text transform="matrix(1 0 0 1 8.4738 464.2391)" fill="#FFFFFF" font-family="'PlayfairDisplay-Bold'" font-size="12">Tanzania</text>
		<text transform="matrix(1 0 0 1 4.0519 482.0531)" fill="#FFFFFF" font-family="'Roboto-Light'" font-size="10">$0.13</text>
		<text transform="matrix(1.047 0 0 1 55.6954 482.0531)" fill="#FFFFFF" font-family="'Roboto-Light'" font-size="10">$0.13</text>
		<path fill="#FFFFFF" d="M41.105,481.069h0.041l0.26-0.868l2.01-5.544h0.848l-2.81,7.396h-0.656l-2.816-7.396h0.848l2.037,5.544
			L41.105,481.069z"/>
		<path fill="#FFFFFF" d="M49.612,479.264c-0.285-0.26-0.799-0.472-1.542-0.636c-0.884-0.191-1.537-0.444-1.958-0.759
			c-0.421-0.314-0.632-0.759-0.632-1.333c0-0.565,0.238-1.042,0.714-1.432c0.476-0.39,1.106-0.585,1.89-0.585
			c0.834,0,1.495,0.206,1.982,0.619c0.488,0.413,0.72,0.929,0.697,1.548l-0.014,0.041h-0.759c0-0.406-0.172-0.759-0.516-1.06
			s-0.808-0.451-1.391-0.451c-0.597,0-1.045,0.129-1.343,0.386c-0.298,0.257-0.448,0.56-0.448,0.906
			c0,0.342,0.129,0.625,0.386,0.848c0.257,0.223,0.771,0.419,1.542,0.588c0.879,0.196,1.538,0.464,1.976,0.803
			c0.438,0.339,0.656,0.801,0.656,1.384c0,0.615-0.25,1.113-0.749,1.494c-0.499,0.38-1.159,0.571-1.979,0.571
			c-0.898,0-1.603-0.214-2.116-0.642c-0.513-0.428-0.755-0.939-0.728-1.531l0.014-0.041h0.752c0.032,0.533,0.25,0.92,0.653,1.162
			c0.403,0.242,0.878,0.362,1.425,0.362c0.592,0,1.06-0.13,1.401-0.39c0.342-0.26,0.513-0.574,0.513-0.943
			C50.039,479.827,49.897,479.524,49.612,479.264z"/>
	</g>
	<g id="T17" opacity="0">
		<polygon id="AREA_17_" points="173.827,446.968 84.187,446.968 84.187,488.968 116.754,488.968 116.754,488.968 128.327,501.145 
			139.9,488.968 139.9,488.968 173.827,488.968 		"/>
		<text transform="matrix(1 0 0 1 92.5662 464.2391)" fill="#FFFFFF" font-family="'PlayfairDisplay-Bold'" font-size="12">Tunisia</text>
		<text transform="matrix(1 0 0 1 88.1443 482.0531)" fill="#FFFFFF" font-family="'Roboto-Light'" font-size="10">FREE</text>
		<text transform="matrix(1.047 0 0 1 139.7878 482.0531)" fill="#FFFFFF" font-family="'Roboto-Light'" font-size="10">$0.70</text>
		<path fill="#FFFFFF" d="M125.197,481.069h0.041l0.26-0.868l2.01-5.544h0.848l-2.81,7.396h-0.656l-2.816-7.396h0.848l2.037,5.544
			L125.197,481.069z"/>
		<path fill="#FFFFFF" d="M133.704,479.264c-0.285-0.26-0.799-0.472-1.542-0.636c-0.884-0.191-1.537-0.444-1.958-0.759
			c-0.421-0.314-0.632-0.759-0.632-1.333c0-0.565,0.238-1.042,0.714-1.432c0.476-0.39,1.106-0.585,1.89-0.585
			c0.834,0,1.495,0.206,1.982,0.619c0.488,0.413,0.72,0.929,0.697,1.548l-0.014,0.041h-0.759c0-0.406-0.172-0.759-0.516-1.06
			c-0.344-0.301-0.808-0.451-1.391-0.451c-0.597,0-1.045,0.129-1.343,0.386c-0.298,0.257-0.448,0.56-0.448,0.906
			c0,0.342,0.129,0.625,0.386,0.848c0.257,0.223,0.771,0.419,1.541,0.588c0.879,0.196,1.538,0.464,1.976,0.803
			c0.438,0.339,0.656,0.801,0.656,1.384c0,0.615-0.25,1.113-0.749,1.494c-0.499,0.38-1.159,0.571-1.979,0.571
			c-0.898,0-1.603-0.214-2.116-0.642c-0.513-0.428-0.755-0.939-0.728-1.531l0.014-0.041h0.752c0.032,0.533,0.249,0.92,0.653,1.162
			s0.878,0.362,1.425,0.362c0.592,0,1.06-0.13,1.401-0.39c0.342-0.26,0.513-0.574,0.513-0.943
			C134.132,479.827,133.989,479.524,133.704,479.264z"/>
	</g>
	<g id="T18" opacity="0">
		<polygon id="AREA_18_" points="258.73,446.968 169.091,446.968 169.091,488.968 201.657,488.968 201.657,488.968 213.23,501.145 
			224.804,488.968 224.804,488.968 258.73,488.968 		"/>
		<text transform="matrix(1 0 0 1 177.4696 464.2391)" fill="#FFFFFF" font-family="'PlayfairDisplay-Bold'" font-size="12">Uganda</text>
		<text transform="matrix(1 0 0 1 173.0477 482.0531)" fill="#FFFFFF" font-family="'Roboto-Light'" font-size="10">FREE</text>
		<text transform="matrix(1.047 0 0 1 224.6913 482.0531)" fill="#FFFFFF" font-family="'Roboto-Light'" font-size="10">$0.08</text>
		<path fill="#FFFFFF" d="M210.1,481.069h0.041l0.26-0.868l2.01-5.544h0.848l-2.81,7.396h-0.656l-2.816-7.396h0.848l2.037,5.544
			L210.1,481.069z"/>
		<path fill="#FFFFFF" d="M218.608,479.264c-0.285-0.26-0.799-0.472-1.542-0.636c-0.884-0.191-1.537-0.444-1.958-0.759
			c-0.421-0.314-0.632-0.759-0.632-1.333c0-0.565,0.238-1.042,0.714-1.432c0.476-0.39,1.106-0.585,1.89-0.585
			c0.834,0,1.495,0.206,1.982,0.619c0.488,0.413,0.72,0.929,0.697,1.548l-0.014,0.041h-0.759c0-0.406-0.172-0.759-0.516-1.06
			c-0.344-0.301-0.808-0.451-1.391-0.451c-0.597,0-1.045,0.129-1.343,0.386c-0.298,0.257-0.448,0.56-0.448,0.906
			c0,0.342,0.129,0.625,0.386,0.848c0.257,0.223,0.771,0.419,1.542,0.588c0.879,0.196,1.538,0.464,1.976,0.803
			c0.438,0.339,0.656,0.801,0.656,1.384c0,0.615-0.25,1.113-0.749,1.494c-0.499,0.38-1.159,0.571-1.979,0.571
			c-0.898,0-1.603-0.214-2.116-0.642c-0.513-0.428-0.755-0.939-0.728-1.531l0.014-0.041h0.752c0.032,0.533,0.249,0.92,0.653,1.162
			c0.403,0.242,0.878,0.362,1.425,0.362c0.592,0,1.06-0.13,1.401-0.39c0.342-0.26,0.513-0.574,0.513-0.943
			C219.035,479.827,218.892,479.524,218.608,479.264z"/>
	</g>
</g>
</svg>
