<?xml version="1.0" encoding="utf-8"?>
<!DOCTYPE svg PUBLIC "-//W3C//DTD SVG 1.1//EN" "http://www.w3.org/Graphics/SVG/1.1/DTD/svg11.dtd">
<svg version="1.1" id="GRAPHIC" xmlns="http://www.w3.org/2000/svg" xmlns:xlink="http://www.w3.org/1999/xlink" x="0px" y="0px"
	 width="258.014px" height="608.375px" viewBox="0 0 258.014 608.375" enable-background="new 0 0 258.014 608.375"
	 xml:space="preserve">
    <style type="text/css">
       @font-face {
            font-family: 'Roboto-Light';
            font-weight: 100;
            src: url(https://fonts.googleapis.com/css?family=Roboto:300);
        }
        @font-face {
            font-family: 'Roboto-Bold';
            src: url(http://www.nacion.com/static/LNCNacionBeta/fonts/opensans/opensans_semibold.woff);    
            font-weight: 300;
        }
        @font-face {
            font-family: 'Open Sans Bold';
            src: url(http://www.nacion.com/static/LNCNacionBeta/fonts/opensans/opensans_extrabold.woff);    
            font-weight: 800;
        }
    </style>
<g id="TOP">
	<g id="KEY">
		<circle fill="none" stroke="#000000" stroke-miterlimit="10" cx="213.197" cy="44.501" r="10"/>
		<circle fill="none" stroke="#000000" stroke-miterlimit="10" cx="213.197" cy="34.501" r="20"/>
		<text transform="matrix(1 0 0 1 207.0798 11.8123)" font-family="'Roboto-Bold'" font-size="8">20$</text>
		<text transform="matrix(1 0 0 1 206.0798 31.6042)" font-family="'Roboto-Bold'" font-size="8">10$</text>
	</g>
	<circle fill="#790700" cx="23.032" cy="34.501" r="6.076"/>
	<circle fill="#D6D6D6" cx="87.11" cy="34.501" r="6.076"/>
	<text transform="matrix(1 0 0 1 32.9573 38.0077)" font-family="'Arial'" font-size="12">Public</text>
	<text transform="matrix(1 0 0 1 96.9465 38.0077)" font-family="'Arial'" font-size="12">Private</text>
	<g>
		<text transform="matrix(1.0075 0 0 1 190.2781 62.8339)" font-family="'Roboto-Bold'" font-size="8">Less than 5$</text>
	</g>
	<circle fill="none" stroke="#000000" stroke-miterlimit="10" cx="213.197" cy="49.501" r="5"/>
</g>
<g id="INTERACT">
	<g>
		<path fill="#191818" d="M171.031,570.25h-3.197c-0.468,0-0.848-0.38-0.848-0.848c0-0.469,0.38-0.848,0.848-0.848h3.197
			c0.469,0,0.848,0.38,0.848,0.848C171.879,569.87,171.499,570.25,171.031,570.25z"/>
		<path fill="#191818" d="M162.716,565.133c-0.468,0-0.848-0.38-0.848-0.848v-3.198c0-0.469,0.38-0.848,0.848-0.848
			c0.468,0,0.848,0.38,0.848,0.848v3.198C163.564,564.753,163.185,565.133,162.716,565.133z"/>
		<path fill="#191818" d="M157.6,570.25h-3.198c-0.469,0-0.848-0.38-0.848-0.848c0-0.469,0.38-0.848,0.848-0.848h3.198
			c0.468,0,0.848,0.38,0.848,0.848C158.448,569.87,158.068,570.25,157.6,570.25z"/>
		<path fill="#191818" d="M166.334,566.632c-0.217,0-0.434-0.083-0.6-0.248c-0.331-0.331-0.331-0.869,0-1.2l2.139-2.138
			c0.331-0.331,0.868-0.331,1.199,0c0.331,0.331,0.331,0.869,0,1.2l-2.138,2.138C166.768,566.549,166.551,566.632,166.334,566.632z"
			/>
		<path fill="#191818" d="M159.098,566.632c-0.217,0-0.434-0.083-0.6-0.248l-2.138-2.138c-0.331-0.331-0.331-0.868,0-1.2
			c0.331-0.331,0.868-0.331,1.2,0l2.138,2.138c0.331,0.331,0.331,0.868,0,1.2C159.532,566.549,159.315,566.632,159.098,566.632z"/>
		<path fill="#191818" d="M169.321,583.472h-1.697v-3.838c0-0.59-0.48-1.071-1.071-1.071c-0.59,0-1.07,0.48-1.07,1.071v0.64h-1.697
			v-0.64c0-1.526,1.241-2.767,2.767-2.767c1.526,0,2.767,1.241,2.767,2.767V583.472z"/>
		<path fill="#191818" d="M173.158,584.112h-1.696v-3.838c0-0.59-0.481-1.07-1.071-1.07c-0.59,0-1.07,0.48-1.07,1.07v3.198h-1.697
			v-3.198c0-1.525,1.241-2.767,2.767-2.767c1.526,0,2.767,1.241,2.767,2.767V584.112z"/>
		<path fill="#191818" d="M161.646,587.949h-1.697v-18.548c0-1.526,1.241-2.767,2.767-2.767c1.526,0,2.767,1.241,2.767,2.767v14.071
			h-1.697v-14.071c0-0.59-0.48-1.07-1.071-1.07c-0.59,0-1.07,0.48-1.07,1.07V587.949z"/>
		<path fill="#191818" d="M161.646,598.182h-1.697c0-0.541-0.708-1.495-1.456-2.504c-1.279-1.724-3.031-4.085-3.337-7.11
			c-0.078-0.771-0.106-1.917-0.084-3.406c0.026-1.687,1.18-3.173,2.809-3.615l2.8-0.759l0.444,1.638l-2.8,0.759
			c-0.902,0.244-1.542,1.068-1.556,2.003c-0.022,1.404,0.005,2.514,0.075,3.21c0.259,2.561,1.785,4.618,3.011,6.27
			C160.856,596.015,161.646,597.08,161.646,598.182z"/>
		<path fill="#191818" d="M175.077,598.182h-1.697c0-0.506,0.21-1.214,0.529-2.285c0.809-2.721,2.316-7.787,1.147-13.515
			c-0.247-1.212-0.652-1.244-0.893-1.263c-0.715-0.059-1.282,0.421-1.288,0.426l-1.13-1.265c0.111-0.099,1.125-0.967,2.549-0.853
			c1.275,0.099,2.091,0.979,2.424,2.615c1.253,6.143-0.332,11.474-1.183,14.337C175.31,597.139,175.077,597.923,175.077,598.182z"/>
	</g>
	<g>
		<path fill="#191818" d="M185.739,577.508h-1.609v-9.646h1.609V577.508z"/>
		<path fill="#191818" d="M188.513,570.339l0.094,1.034c0.234-0.367,0.527-0.652,0.885-0.858c0.355-0.205,0.756-0.308,1.201-0.308
			c0.746,0,1.328,0.227,1.746,0.679c0.418,0.453,0.627,1.158,0.627,2.117v4.505h-1.611v-4.492c0-0.538-0.111-0.922-0.334-1.149
			c-0.223-0.227-0.562-0.341-1.018-0.341c-0.312,0-0.594,0.069-0.84,0.209c-0.248,0.139-0.451,0.33-0.611,0.572v5.201h-1.609v-7.169
			H188.513z"/>
		<path fill="#191818" d="M196.063,568.597v1.742h1.285v1.193h-1.285v3.962c0,0.296,0.064,0.507,0.191,0.632
			c0.129,0.126,0.299,0.189,0.51,0.189c0.09,0,0.176-0.008,0.26-0.023c0.084-0.016,0.162-0.036,0.238-0.062l0.172,1.179
			c-0.137,0.075-0.301,0.134-0.49,0.176c-0.189,0.042-0.387,0.062-0.59,0.062c-0.592,0-1.055-0.173-1.391-0.519
			c-0.336-0.347-0.504-0.892-0.504-1.633v-3.962h-1.094v-1.193h1.094v-1.742H196.063z"/>
		<path fill="#191818" d="M201.175,577.647c-1.016,0-1.824-0.332-2.428-0.997c-0.604-0.664-0.904-1.518-0.904-2.56v-0.265
			c0-1.042,0.299-1.907,0.898-2.594c0.598-0.687,1.348-1.028,2.248-1.023c0.969,0,1.709,0.292,2.223,0.878
			c0.516,0.585,0.773,1.37,0.773,2.354v0.948h-4.473l-0.014,0.032c0.027,0.568,0.193,1.032,0.5,1.394
			c0.307,0.361,0.732,0.542,1.275,0.542c0.434,0,0.805-0.054,1.113-0.159c0.309-0.107,0.607-0.259,0.895-0.457l0.518,1.056
			c-0.27,0.239-0.627,0.441-1.074,0.605C202.28,577.565,201.763,577.647,201.175,577.647z M200.989,571.5
			c-0.396,0-0.723,0.157-0.98,0.474c-0.256,0.315-0.414,0.717-0.477,1.202l0.014,0.033h2.842v-0.166
			c0-0.454-0.115-0.825-0.348-1.112C201.808,571.643,201.458,571.5,200.989,571.5z"/>
		<path fill="#191818" d="M208.175,571.791l-0.688-0.026c-0.314,0-0.576,0.066-0.785,0.199c-0.211,0.132-0.373,0.32-0.488,0.562
			v4.982h-1.609v-7.169h1.471l0.105,1.041c0.182-0.367,0.414-0.654,0.699-0.861c0.285-0.208,0.613-0.312,0.984-0.312
			c0.098,0,0.188,0.008,0.271,0.022c0.084,0.016,0.16,0.035,0.232,0.057L208.175,571.791z"/>
		<path fill="#191818" d="M212.936,577.508c-0.057-0.181-0.105-0.357-0.143-0.53c-0.037-0.172-0.062-0.345-0.076-0.517
			c-0.221,0.336-0.51,0.617-0.871,0.845c-0.359,0.227-0.762,0.341-1.209,0.341c-0.746,0-1.318-0.191-1.719-0.576
			c-0.4-0.384-0.6-0.912-0.6-1.583c0-0.693,0.274-1.233,0.822-1.62c0.547-0.387,1.318-0.58,2.311-0.58h1.252v-0.629
			c0-0.375-0.109-0.669-0.33-0.881c-0.221-0.212-0.537-0.318-0.947-0.318c-0.367,0-0.658,0.088-0.875,0.265
			c-0.217,0.177-0.324,0.404-0.324,0.683h-1.551l-0.006-0.04c-0.031-0.564,0.221-1.066,0.758-1.504
			c0.537-0.437,1.236-0.655,2.098-0.655c0.834,0,1.508,0.212,2.02,0.636c0.514,0.424,0.77,1.033,0.77,1.828v3.188
			c0,0.296,0.02,0.579,0.059,0.851c0.041,0.273,0.104,0.538,0.193,0.799H212.936z M210.962,576.356c0.406,0,0.773-0.102,1.098-0.306
			c0.324-0.203,0.539-0.435,0.645-0.695v-1.06h-1.277c-0.469,0-0.836,0.115-1.1,0.348c-0.266,0.231-0.398,0.505-0.398,0.818
			c0,0.273,0.09,0.491,0.27,0.652C210.376,576.275,210.632,576.356,210.962,576.356z"/>
		<path fill="#191818" d="M218.288,576.356c0.393,0,0.725-0.115,0.994-0.347c0.268-0.23,0.402-0.519,0.402-0.866h1.459l0.014,0.04
			c0.021,0.671-0.252,1.25-0.818,1.735c-0.568,0.486-1.252,0.728-2.051,0.728c-1.057,0-1.865-0.34-2.428-1.019
			c-0.564-0.681-0.846-1.542-0.846-2.584v-0.232c0-1.037,0.281-1.898,0.846-2.58c0.563-0.683,1.371-1.023,2.428-1.023
			c0.861,0,1.561,0.25,2.096,0.752c0.537,0.501,0.797,1.139,0.779,1.911l-0.014,0.04h-1.465c0-0.394-0.129-0.727-0.387-1.001
			c-0.258-0.273-0.596-0.41-1.01-0.41c-0.605,0-1.033,0.219-1.285,0.658c-0.252,0.438-0.379,0.989-0.379,1.65v0.232
			c0,0.675,0.127,1.229,0.379,1.664C217.255,576.138,217.683,576.356,218.288,576.356z"/>
		<path fill="#191818" d="M223.77,568.597v1.742h1.285v1.193h-1.285v3.962c0,0.296,0.064,0.507,0.191,0.632
			c0.129,0.126,0.299,0.189,0.51,0.189c0.09,0,0.176-0.008,0.26-0.023c0.084-0.016,0.162-0.036,0.238-0.062l0.172,1.179
			c-0.137,0.075-0.301,0.134-0.49,0.176c-0.189,0.042-0.387,0.062-0.59,0.062c-0.592,0-1.055-0.173-1.391-0.519
			c-0.336-0.347-0.504-0.892-0.504-1.633v-3.962h-1.094v-1.193h1.094v-1.742H223.77z"/>
		<path fill="#191818" d="M227.524,568.585h-1.609v-1.411h1.609V568.585z M227.524,577.508h-1.609v-7.169h1.609V577.508z"/>
		<path fill="#191818" d="M231.138,575.084l0.119,0.583h0.041l0.125-0.583l1.426-4.744h1.662l-2.545,7.169h-1.397l-2.559-7.169
			h1.664L231.138,575.084z"/>
		<path fill="#191818" d="M237.827,577.647c-1.016,0-1.824-0.332-2.428-0.997c-0.604-0.664-0.904-1.518-0.904-2.56v-0.265
			c0-1.042,0.299-1.907,0.898-2.594c0.598-0.687,1.348-1.028,2.248-1.023c0.969,0,1.709,0.292,2.223,0.878
			c0.516,0.585,0.773,1.37,0.773,2.354v0.948h-4.473l-0.014,0.032c0.027,0.568,0.193,1.032,0.5,1.394
			c0.307,0.361,0.732,0.542,1.275,0.542c0.433,0,0.805-0.054,1.113-0.159c0.309-0.107,0.607-0.259,0.895-0.457l0.518,1.056
			c-0.27,0.239-0.627,0.441-1.074,0.605C238.933,577.565,238.415,577.647,237.827,577.647z M237.642,571.5
			c-0.396,0-0.723,0.157-0.98,0.474c-0.256,0.315-0.414,0.717-0.477,1.202l0.014,0.033h2.842v-0.166
			c0-0.454-0.115-0.825-0.348-1.112S238.11,571.5,237.642,571.5z"/>
		<path fill="#191818" d="M191.226,592.033c-0.256,0.367-0.678,0.699-1.262,0.998c-0.586,0.298-1.338,0.446-2.256,0.446
			c-1.162,0-2.119-0.367-2.869-1.103c-0.75-0.735-1.127-1.687-1.127-2.853v-2.014c0-1.166,0.355-2.117,1.064-2.852
			c0.709-0.735,1.623-1.103,2.746-1.103c1.135,0,2.018,0.279,2.646,0.838s0.951,1.286,0.965,2.183l-0.014,0.04h-1.523
			c-0.037-0.53-0.225-0.957-0.566-1.282c-0.344-0.324-0.84-0.486-1.488-0.486c-0.666,0-1.205,0.249-1.613,0.748
			c-0.408,0.498-0.613,1.132-0.613,1.899v2.025c0,0.776,0.223,1.415,0.666,1.916c0.443,0.501,1.02,0.752,1.727,0.752
			c0.504,0,0.912-0.059,1.225-0.176c0.314-0.116,0.541-0.254,0.684-0.413v-1.956H187.7v-1.205h3.525V592.033z"/>
		<path fill="#191818" d="M195.888,587.621l-0.689-0.026c-0.314,0-0.576,0.066-0.785,0.199c-0.209,0.132-0.371,0.32-0.486,0.562
			v4.982h-1.611v-7.169h1.471l0.107,1.041c0.18-0.367,0.414-0.654,0.699-0.861c0.285-0.208,0.611-0.312,0.982-0.312
			c0.098,0,0.188,0.008,0.271,0.023c0.084,0.016,0.162,0.035,0.232,0.057L195.888,587.621z"/>
		<path fill="#191818" d="M200.647,593.338c-0.057-0.181-0.105-0.357-0.143-0.53c-0.037-0.172-0.062-0.345-0.076-0.517
			c-0.221,0.336-0.51,0.617-0.871,0.845c-0.359,0.228-0.762,0.341-1.209,0.341c-0.746,0-1.318-0.191-1.719-0.576
			c-0.4-0.384-0.6-0.912-0.6-1.583c0-0.693,0.273-1.233,0.822-1.62c0.547-0.387,1.318-0.58,2.311-0.58h1.252v-0.629
			c0-0.375-0.109-0.669-0.33-0.881s-0.537-0.318-0.947-0.318c-0.367,0-0.658,0.088-0.875,0.265
			c-0.217,0.177-0.324,0.404-0.324,0.683h-1.551l-0.006-0.04c-0.031-0.564,0.221-1.066,0.758-1.504
			c0.537-0.436,1.236-0.655,2.098-0.655c0.834,0,1.508,0.212,2.02,0.636c0.514,0.424,0.77,1.033,0.77,1.828v3.188
			c0,0.296,0.02,0.579,0.059,0.851c0.041,0.272,0.104,0.538,0.193,0.799H200.647z M198.673,592.186c0.406,0,0.773-0.102,1.098-0.306
			c0.324-0.203,0.539-0.435,0.645-0.695v-1.06h-1.277c-0.469,0-0.836,0.115-1.1,0.348c-0.266,0.231-0.398,0.505-0.398,0.818
			c0,0.273,0.09,0.491,0.27,0.652C198.087,592.105,198.343,592.186,198.673,592.186z"/>
		<path fill="#191818" d="M209.317,589.993c0,1.042-0.244,1.884-0.734,2.524c-0.49,0.641-1.174,0.96-2.049,0.96
			c-0.406,0-0.766-0.072-1.078-0.218c-0.314-0.146-0.584-0.36-0.809-0.643v3.478h-1.611v-9.925h1.359l0.158,0.901
			c0.23-0.336,0.508-0.592,0.832-0.768c0.324-0.177,0.701-0.265,1.129-0.265c0.885,0,1.572,0.35,2.064,1.05
			c0.492,0.7,0.738,1.622,0.738,2.766V589.993z M207.714,589.85c0-0.732-0.137-1.331-0.414-1.796
			c-0.275-0.466-0.688-0.698-1.234-0.698c-0.336,0-0.621,0.071-0.855,0.215c-0.234,0.144-0.422,0.343-0.562,0.599v3.235
			c0.141,0.252,0.328,0.444,0.562,0.579c0.234,0.135,0.523,0.202,0.867,0.202c0.549,0,0.959-0.202,1.23-0.606
			c0.271-0.404,0.406-0.935,0.406-1.592V589.85z"/>
		<path fill="#191818" d="M211.634,587.097c0.238-0.335,0.529-0.596,0.871-0.781c0.342-0.186,0.721-0.278,1.137-0.278
			c0.76,0,1.352,0.239,1.779,0.719c0.426,0.479,0.639,1.218,0.639,2.216v4.366h-1.609v-4.379c0-0.565-0.113-0.975-0.338-1.226
			c-0.227-0.252-0.564-0.378-1.014-0.378c-0.314,0-0.596,0.065-0.846,0.195c-0.25,0.13-0.455,0.311-0.619,0.54v5.247h-1.609v-10.335
			h1.609V587.097z"/>
		<path fill="#191818" d="M218.767,584.415h-1.609v-1.411h1.609V584.415z M218.767,593.338h-1.609v-7.169h1.609V593.338z"/>
		<path fill="#191818" d="M222.852,592.186c0.393,0,0.725-0.115,0.994-0.347c0.268-0.231,0.402-0.52,0.402-0.866h1.459l0.014,0.04
			c0.021,0.671-0.252,1.25-0.818,1.735c-0.568,0.486-1.252,0.729-2.051,0.729c-1.057,0-1.865-0.34-2.428-1.02
			c-0.565-0.681-0.846-1.542-0.846-2.584v-0.232c0-1.037,0.281-1.897,0.846-2.58c0.562-0.683,1.371-1.023,2.428-1.023
			c0.861,0,1.561,0.25,2.096,0.752c0.537,0.501,0.797,1.139,0.779,1.911l-0.014,0.04h-1.465c0-0.394-0.129-0.727-0.387-1.001
			c-0.258-0.273-0.596-0.41-1.01-0.41c-0.605,0-1.033,0.219-1.285,0.658c-0.252,0.438-0.379,0.989-0.379,1.65v0.231
			c0,0.675,0.127,1.23,0.379,1.664C221.819,591.968,222.247,592.186,222.852,592.186z"/>
	</g>
</g>
<g>
	<text transform="matrix(1 0 0 1 192.1497 231.1725)" font-family="'Arial'" font-size="14">Ghana</text>
	<text transform="matrix(1 0 0 1 23.8463 231.1724)" font-family="'Arial'" font-size="14">Congo</text>
	<text transform="matrix(1 0 0 1 197.4104 153.347)" font-family="'Arial'" font-size="14">Chad</text>
	<text transform="matrix(1 0 0 1 102.8212 225.8381)" enable-background="new    "><tspan x="0" y="0" font-family="'Arial'" font-size="10">Democratic</tspan><tspan x="-15.334" y="10" font-family="'Arial'" font-size="10">Republic of Congo</tspan></text>
	<text transform="matrix(1 0 0 1 96.7689 153.107)" fill="#790700" font-family="'Arial'" font-size="14">Cameroon</text>
	<text transform="matrix(1 0 0 1 3.2131 153.107)" fill="#790700" font-family="'Arial'" font-size="14">Burkina Faso</text>
	<text transform="matrix(1 0 0 1 117.2336 309.2385)" font-family="'Arial'" font-size="14">Mali</text>
	<text transform="matrix(0.8957 0 0 1 189.3245 309.6174)" font-family="'Arial'" font-size="14">Mauritius</text>
	<text transform="matrix(1 0 0 1 28.55 309.2385)" font-family="'Arial'" font-size="14">Kenya</text>
	<text transform="matrix(1 0 0 1 109.9973 385.9691)" font-family="'Arial'" font-size="14">Nigeria</text>
	<g>
		<text transform="matrix(1 0 0 1 190.199 381.9691)"><tspan x="0" y="0" font-family="'Arial'" font-size="10">São Tomé</tspan><tspan x="-5.354" y="10" font-family="'Arial'" font-size="10">and Príncipe</tspan></text>
	</g>
	<text transform="matrix(1 0 0 1 22.55 385.9682)" font-family="'Arial'" font-size="14">Morocco</text>
	<text transform="matrix(1 0 0 1 112.4963 465.3688)" font-family="'Arial'" font-size="14">Sudan</text>
	<text transform="matrix(1 0 0 1 190.2502 465.3688)" font-family="'Arial'" font-size="14">Tanzania</text>
	<g>
		<text transform="matrix(1 0 0 1 16.0491 460.0344)"><tspan x="0" y="0" font-family="'Arial'" font-size="10">South Africa</tspan><tspan x="-12.017" y="10" font-family="'Arial'" font-size="10">Gauteng Province</tspan></text>
	</g>
	<text transform="matrix(1 0 0 1 25.8821 543.4349)" font-family="'Arial'" font-size="14">Tunisia</text>
	<text transform="matrix(1 0 0 1 108.8416 543.4349)" font-family="'Arial'" font-size="14">Uganda</text>
	<path fill="#790700" d="M130.975,111.058c0,2.761-2.239,5-5.001,5c-2.761,0-4.999-2.239-4.999-5c0-2.762,2.238-5,4.999-5
		C128.736,106.058,130.975,108.297,130.975,111.058z"/>
	<path opacity="0.8" fill="#D6D6D6" enable-background="new    " d="M137.04,111.058c0,2.762-2.238,5-5.001,5
		c-2.761,0-4.999-2.238-4.999-5c0-2.762,2.238-5,4.999-5C134.802,106.058,137.04,108.297,137.04,111.058z"/>
	<path fill="#790700" d="M45.907,111.058c0,2.761-2.239,5-5.001,5c-2.761,0-4.999-2.239-4.999-5c0-2.762,2.238-5,4.999-5
		C43.669,106.058,45.907,108.297,45.907,111.058z"/>
	<path opacity="0.8" fill="#D6D6D6" enable-background="new    " d="M51.973,111.058c0,2.762-2.238,5-5.001,5
		c-2.761,0-4.999-2.238-4.999-5c0-2.762,2.238-5,4.999-5C49.735,106.058,51.973,108.297,51.973,111.058z"/>
	<path fill="#790700" d="M130.379,188.883c0,2.761-2.239,5-5.001,5c-2.761,0-4.999-2.239-4.999-5c0-2.762,2.238-5,4.999-5
		C128.14,183.883,130.379,186.122,130.379,188.883z"/>
	<path opacity="0.8" fill="#D6D6D6" enable-background="new    " d="M136.444,188.883c0,2.762-2.238,5-5.001,5
		c-2.761,0-4.999-2.238-4.999-5c0-2.762,2.238-5,4.999-5C134.206,183.883,136.444,186.122,136.444,188.883z"/>
	<path fill="#790700" d="M45.188,188.883c0,2.761-2.239,5-5.001,5c-2.761,0-4.999-2.239-4.999-5c0-2.762,2.238-5,4.999-5
		C42.949,183.883,45.188,186.122,45.188,188.883z"/>
	<path opacity="0.8" fill="#D6D6D6" enable-background="new    " d="M51.254,188.883c0,2.762-2.238,5-5.001,5
		c-2.761,0-4.999-2.238-4.999-5c0-2.762,2.238-5,4.999-5C49.015,183.883,51.254,186.122,51.254,188.883z"/>
	<path fill="#790700" d="M215.553,111.058c0,2.761-2.239,5-5.001,5c-2.761,0-4.999-2.239-4.999-5c0-2.762,2.238-5,4.999-5
		C213.315,106.058,215.553,108.297,215.553,111.058z"/>
	<path opacity="0.8" fill="#D6D6D6" enable-background="new    " d="M221.619,111.058c0,2.762-2.238,5-5.001,5
		c-2.761,0-4.999-2.238-4.999-5s2.238-5,4.999-5C219.381,106.058,221.619,108.297,221.619,111.058z"/>
	<path fill="#790700" d="M214.586,188.883c0,2.761-2.239,5-5.001,5c-2.761,0-4.999-2.239-4.999-5c0-2.762,2.238-5,4.999-5
		C212.347,183.883,214.586,186.122,214.586,188.883z"/>
	<path opacity="0.8" fill="#D6D6D6" enable-background="new    " d="M220.651,188.883c0,2.762-2.238,5-5.001,5
		c-2.761,0-4.999-2.238-4.999-5c0-2.762,2.238-5,4.999-5C218.413,183.883,220.651,186.122,220.651,188.883z"/>
	<path fill="#790700" d="M214.586,266.948c0,2.761-2.239,5-5.001,5c-2.761,0-4.999-2.239-4.999-5c0-2.762,2.238-5,4.999-5
		C212.347,261.948,214.586,264.187,214.586,266.948z"/>
	<path opacity="0.8" fill="#D6D6D6" enable-background="new    " d="M220.651,266.948c0,2.762-2.238,5-5.001,5
		c-2.761,0-4.999-2.238-4.999-5c0-2.762,2.238-5,4.999-5C218.413,261.948,220.651,264.187,220.651,266.948z"/>
	<path fill="#790700" d="M130.379,266.948c0,2.761-2.239,5-5.001,5c-2.761,0-4.999-2.239-4.999-5c0-2.762,2.238-5,4.999-5
		C128.14,261.948,130.379,264.187,130.379,266.948z"/>
	<path opacity="0.8" fill="#D6D6D6" enable-background="new    " d="M136.445,266.948c0,2.762-2.238,5-5.001,5
		c-2.761,0-4.999-2.238-4.999-5c0-2.762,2.238-5,4.999-5C134.206,261.948,136.445,264.187,136.445,266.948z"/>
	<path fill="#790700" d="M45.907,266.948c0,2.761-2.239,5-5.001,5c-2.761,0-4.999-2.239-4.999-5c0-2.762,2.238-5,4.999-5
		C43.669,261.948,45.907,264.187,45.907,266.948z"/>
	<path opacity="0.8" fill="#D6D6D6" enable-background="new    " d="M51.973,266.948c0,2.762-2.238,5-5.001,5
		c-2.761,0-4.999-2.238-4.999-5c0-2.762,2.238-5,4.999-5C49.735,261.948,51.973,264.187,51.973,266.948z"/>
	<path fill="#790700" d="M214.586,345.014c0,2.761-2.239,5-5.001,5c-2.761,0-4.999-2.239-4.999-5c0-2.762,2.238-5,4.999-5
		C212.347,340.014,214.586,342.253,214.586,345.014z"/>
	<path opacity="0.8" fill="#D6D6D6" enable-background="new    " d="M220.651,345.014c0,2.762-2.238,5-5.001,5
		c-2.761,0-4.999-2.238-4.999-5s2.238-5,4.999-5C218.413,340.014,220.651,342.253,220.651,345.014z"/>
	<path fill="#790700" d="M130.379,345.014c0,2.761-2.239,5-5.001,5c-2.761,0-4.999-2.239-4.999-5c0-2.762,2.238-5,4.999-5
		C128.14,340.014,130.379,342.253,130.379,345.014z"/>
	<path opacity="0.8" fill="#D6D6D6" enable-background="new    " d="M136.445,345.014c0,2.762-2.238,5-5.001,5
		c-2.761,0-4.999-2.238-4.999-5s2.238-5,4.999-5C134.206,340.014,136.445,342.253,136.445,345.014z"/>
	<path fill="#790700" d="M45.907,345.014c0,2.761-2.239,5-5.001,5c-2.761,0-4.999-2.239-4.999-5c0-2.762,2.238-5,4.999-5
		C43.669,340.014,45.907,342.253,45.907,345.014z"/>
	<path opacity="0.8" fill="#D6D6D6" enable-background="new    " d="M51.973,345.014c0,2.762-2.238,5-5.001,5
		c-2.761,0-4.999-2.238-4.999-5s2.238-5,4.999-5C49.735,340.014,51.973,342.253,51.973,345.014z"/>
	<path fill="#790700" d="M214.586,423.079c0,2.761-2.239,5-5.001,5c-2.761,0-4.999-2.239-4.999-5c0-2.762,2.238-5,4.999-5
		C212.347,418.079,214.586,420.318,214.586,423.079z"/>
	<path opacity="0.8" fill="#D6D6D6" enable-background="new    " d="M220.651,423.079c0,2.762-2.238,5-5.001,5
		c-2.761,0-4.999-2.238-4.999-5s2.238-5,4.999-5C218.413,418.079,220.651,420.318,220.651,423.079z"/>
	<path fill="#790700" d="M130.379,423.079c0,2.761-2.239,5-5.001,5c-2.761,0-4.999-2.239-4.999-5c0-2.762,2.238-5,4.999-5
		C128.14,418.079,130.379,420.318,130.379,423.079z"/>
	<path opacity="0.8" fill="#D6D6D6" enable-background="new    " d="M136.445,423.079c0,2.762-2.238,5-5.001,5
		c-2.761,0-4.999-2.238-4.999-5s2.238-5,4.999-5C134.206,418.079,136.445,420.318,136.445,423.079z"/>
	<path fill="#790700" d="M45.907,423.079c0,2.761-2.239,5-5.001,5c-2.761,0-4.999-2.239-4.999-5c0-2.762,2.238-5,4.999-5
		C43.669,418.079,45.907,420.318,45.907,423.079z"/>
	<path opacity="0.8" fill="#D6D6D6" enable-background="new    " d="M51.973,423.079c0,2.762-2.238,5-5.001,5
		c-2.761,0-4.999-2.238-4.999-5s2.238-5,4.999-5C49.735,418.079,51.973,420.318,51.973,423.079z"/>
	<path fill="#790700" d="M130.379,501.145c0,2.761-2.239,5-5.001,5c-2.761,0-4.999-2.239-4.999-5c0-2.762,2.238-5,4.999-5
		C128.14,496.145,130.379,498.384,130.379,501.145z"/>
	<path opacity="0.8" fill="#D6D6D6" enable-background="new    " d="M136.445,501.145c0,2.762-2.238,5-5.001,5
		c-2.761,0-4.999-2.238-4.999-5s2.238-5,4.999-5C134.206,496.145,136.445,498.384,136.445,501.145z"/>
	<path fill="#790700" d="M45.907,501.145c0,2.761-2.239,5-5.001,5c-2.761,0-4.999-2.239-4.999-5c0-2.762,2.238-5,4.999-5
		C43.669,496.145,45.907,498.384,45.907,501.145z"/>
	<path opacity="0.8" fill="#D6D6D6" enable-background="new    " d="M51.973,501.145c0,2.762-2.238,5-5.001,5
		c-2.761,0-4.999-2.238-4.999-5s2.238-5,4.999-5C49.735,496.145,51.973,498.384,51.973,501.145z"/>
</g>
<g id="AREA">
	<rect id="A17" x="94.013" y="478.61" fill="#FFFFFF" fill-opacity="0" width="69.989" height="48">
        <animate attributeName="opacity" dur="0.2" to="1" begin="A17.mouseover" fill="freeze" xlink:href="#T17"/> 
        <animate attributeName="opacity" dur="0.2" to="0" begin="A17.mouseout" fill="freeze" xlink:href="#T17"/>
    </rect>
	<rect id="A16" x="10.03" y="478.61" fill="#FFFFFF" fill-opacity="0" width="69.989" height="48">
        <animate attributeName="opacity" dur="0.2" to="1" begin="A16.mouseover" fill="freeze" xlink:href="#T16"/> 
        <animate attributeName="opacity" dur="0.2" to="0" begin="A16.mouseout" fill="freeze" xlink:href="#T16"/>
    </rect>
	<rect id="A15" x="177.996" y="401.406" fill="#FFFFFF" fill-opacity="0" width="69.988" height="48">
        <animate attributeName="opacity" dur="0.2" to="1" begin="A15.mouseover" fill="freeze" xlink:href="#T15"/> 
        <animate attributeName="opacity" dur="0.2" to="0" begin="A15.mouseout" fill="freeze" xlink:href="#T15"/>
    </rect>
	<rect id="A14" x="94.013" y="401.406" fill="#FFFFFF" fill-opacity="0" width="69.989" height="48">
        <animate attributeName="opacity" dur="0.2" to="1" begin="A14.mouseover" fill="freeze" xlink:href="#T14"/> 
        <animate attributeName="opacity" dur="0.2" to="0" begin="A14.mouseout" fill="freeze" xlink:href="#T14"/>
    </rect>
	<rect id="A13" x="10.03" y="401.406" fill="#FFFFFF" fill-opacity="0" width="69.989" height="48">
        <animate attributeName="opacity" dur="0.2" to="1" begin="A13.mouseover" fill="freeze" xlink:href="#T13"/> 
        <animate attributeName="opacity" dur="0.2" to="0" begin="A13.mouseout" fill="freeze" xlink:href="#T13"/>
    </rect>
	<rect id="A12" x="177.996" y="320.492" fill="#FFFFFF" fill-opacity="0" width="69.988" height="48">
        <animate attributeName="opacity" dur="0.2" to="1" begin="A12.mouseover" fill="freeze" xlink:href="#T12"/> 
        <animate attributeName="opacity" dur="0.2" to="0" begin="A12.mouseout" fill="freeze" xlink:href="#T12"/>
    </rect>
	<rect id="A11" x="94.013" y="320.492" fill="#FFFFFF" fill-opacity="0" width="69.989" height="48">
        <animate attributeName="opacity" dur="0.2" to="1" begin="A11.mouseover" fill="freeze" xlink:href="#T11"/> 
        <animate attributeName="opacity" dur="0.2" to="0" begin="A11.mouseout" fill="freeze" xlink:href="#T11"/>
    </rect>
	<rect id="A10" x="10.03" y="320.492" fill="#FFFFFF" fill-opacity="0" width="69.989" height="48">
        <animate attributeName="opacity" dur="0.2" to="1" begin="A10.mouseover" fill="freeze" xlink:href="#T10"/> 
        <animate attributeName="opacity" dur="0.2" to="0" begin="A10.mouseout" fill="freeze" xlink:href="#T10"/>
    </rect>
	<rect id="A09" x="177.996" y="243.172" fill="#FFFFFF" fill-opacity="0" width="69.988" height="48">
        <animate attributeName="opacity" dur="0.2" to="1" begin="A09.mouseover" fill="freeze" xlink:href="#T09"/> 
        <animate attributeName="opacity" dur="0.2" to="0" begin="A09.mouseout" fill="freeze" xlink:href="#T09"/>
    </rect>
	<rect id="A08" x="94.013" y="243.172" fill="#FFFFFF" fill-opacity="0" width="69.989" height="48">
        <animate attributeName="opacity" dur="0.2" to="1" begin="A08.mouseover" fill="freeze" xlink:href="#T08"/> 
        <animate attributeName="opacity" dur="0.2" to="0" begin="A08.mouseout" fill="freeze" xlink:href="#T08"/>
    </rect>
	<rect id="A07" x="10.03" y="243.172" fill="#FFFFFF" fill-opacity="0" width="69.989" height="48">
        <animate attributeName="opacity" dur="0.2" to="1" begin="A07.mouseover" fill="freeze" xlink:href="#T07"/> 
        <animate attributeName="opacity" dur="0.2" to="0" begin="A07.mouseout" fill="freeze" xlink:href="#T07"/>
    </rect>
	<rect id="A06" x="177.996" y="163.744" fill="#FFFFFF" fill-opacity="0" width="69.988" height="48">
        <animate attributeName="opacity" dur="0.2" to="1" begin="A06.mouseover" fill="freeze" xlink:href="#T06"/> 
        <animate attributeName="opacity" dur="0.2" to="0" begin="A06.mouseout" fill="freeze" xlink:href="#T06"/>
    </rect>
	<rect id="A05" x="94.013" y="163.744" fill="#FFFFFF" fill-opacity="0" width="69.989" height="48">
        <animate attributeName="opacity" dur="0.2" to="1" begin="A05.mouseover" fill="freeze" xlink:href="#T05"/> 
        <animate attributeName="opacity" dur="0.2" to="0" begin="A05.mouseout" fill="freeze" xlink:href="#T05"/>
    </rect>
	<rect id="A04" x="10.03" y="163.744" fill="#FFFFFF" fill-opacity="0" width="69.989" height="48">
        <animate attributeName="opacity" dur="0.2" to="1" begin="A04.mouseover" fill="freeze" xlink:href="#T04"/> 
        <animate attributeName="opacity" dur="0.2" to="0" begin="A04.mouseout" fill="freeze" xlink:href="#T04"/>
    </rect>
	<rect id="A03" x="177.996" y="87.122" fill="#FFFFFF" fill-opacity="0" width="69.988" height="48">
        <animate attributeName="opacity" dur="0.2" to="1" begin="A03.mouseover" fill="freeze" xlink:href="#T03"/> 
        <animate attributeName="opacity" dur="0.2" to="0" begin="A03.mouseout" fill="freeze" xlink:href="#T03"/>
    </rect>
	<rect id="A02" x="94.013" y="87.122" fill="#FFFFFF" fill-opacity="0" width="69.989" height="48">
        <animate attributeName="opacity" dur="0.2" to="1" begin="A02.mouseover" fill="freeze" xlink:href="#T02"/> 
        <animate attributeName="opacity" dur="0.2" to="0" begin="A02.mouseout" fill="freeze" xlink:href="#T02"/>
    </rect>
	<rect id="A01" x="10.03" y="87.122" fill="#FFFFFF" fill-opacity="0" width="69.989" height="48">
        <animate attributeName="opacity" dur="0.2" to="1" begin="A01.mouseover" fill="freeze" xlink:href="#T01"/> 
        <animate attributeName="opacity" dur="0.2" to="0" begin="A01.mouseout" fill="freeze" xlink:href="#T01"/>
    </rect>
</g>
<g id="TOOLTIP">
	<g id="T01" opacity="0">
		<polygon id="AREA_1_" points="89.64,55.501 0,55.501 0,97.501 32.567,97.501 32.567,97.501 44.14,109.677 55.713,97.501 
			55.713,97.501 89.64,97.501 		"/>
		<text transform="matrix(1 0 0 1 8.3792 72.7716)" fill="#FFFFFF" font-family="'PlayfairDisplay-Bold'" font-size="12">Burkina Faso</text>
		<text transform="matrix(1 0 0 1 5.9573 90.5856)" fill="#FFFFFF" font-family="'Roboto-Light'" font-size="10">$0.01</text>
		<text transform="matrix(1.047 0 0 1 55.6008 90.5856)" fill="#FFFFFF" font-family="'Roboto-Light'" font-size="10">$0.02</text>
		<path fill="#FFFFFF" d="M40.737,89.601h0.041l0.26-0.868l2.01-5.544h0.848l-2.81,7.396h-0.656l-2.816-7.396h0.848l2.037,5.544
			L40.737,89.601z"/>
		<path fill="#FFFFFF" d="M49.244,87.797c-0.285-0.26-0.799-0.472-1.542-0.636c-0.884-0.191-1.537-0.444-1.958-0.759
			c-0.421-0.314-0.632-0.759-0.632-1.333c0-0.565,0.238-1.042,0.714-1.432c0.476-0.39,1.106-0.585,1.89-0.585
			c0.834,0,1.495,0.206,1.982,0.619c0.488,0.413,0.72,0.929,0.697,1.548l-0.014,0.041h-0.759c0-0.406-0.172-0.759-0.516-1.06
			C48.763,83.9,48.3,83.75,47.716,83.75c-0.597,0-1.045,0.129-1.343,0.386c-0.298,0.257-0.448,0.56-0.448,0.906
			c0,0.342,0.129,0.624,0.386,0.848c0.257,0.223,0.771,0.419,1.542,0.588c0.879,0.196,1.538,0.464,1.976,0.803
			c0.438,0.339,0.656,0.801,0.656,1.384c0,0.615-0.25,1.113-0.749,1.494c-0.499,0.38-1.159,0.571-1.979,0.571
			c-0.898,0-1.603-0.214-2.116-0.643c-0.513-0.428-0.755-0.939-0.728-1.531l0.014-0.041h0.752c0.032,0.533,0.25,0.92,0.653,1.162
			c0.403,0.242,0.878,0.362,1.425,0.362c0.592,0,1.06-0.13,1.401-0.39c0.342-0.26,0.513-0.574,0.513-0.943
			C49.671,88.36,49.529,88.056,49.244,87.797z"/>
	</g>
	<g id="T02" opacity="0">
		<polygon id="AREA_2_" points="174.025,55.501 84.386,55.501 84.386,97.501 116.952,97.501 116.952,97.501 128.525,109.677 
			140.099,97.501 140.099,97.501 174.025,97.501 		"/>
		<text transform="matrix(1 0 0 1 92.7645 72.7716)" fill="#FFFFFF" font-family="'PlayfairDisplay-Bold'" font-size="12">Cameroon</text>
		<text transform="matrix(1 0 0 1 90.3426 90.5856)" fill="#FFFFFF" font-family="'Roboto-Light'" font-size="10">$0.01</text>
		<text transform="matrix(1.047 0 0 1 139.9862 90.5856)" fill="#FFFFFF" font-family="'Roboto-Light'" font-size="10">$0.03</text>
		<path fill="#FFFFFF" d="M125.122,89.601h0.041l0.26-0.868l2.01-5.544h0.848l-2.81,7.396h-0.656l-2.816-7.396h0.848l2.037,5.544
			L125.122,89.601z"/>
		<path fill="#FFFFFF" d="M133.629,87.797c-0.285-0.26-0.799-0.472-1.542-0.636c-0.884-0.191-1.537-0.444-1.958-0.759
			c-0.421-0.314-0.632-0.759-0.632-1.333c0-0.565,0.238-1.042,0.714-1.432c0.476-0.39,1.106-0.585,1.89-0.585
			c0.834,0,1.495,0.206,1.982,0.619c0.488,0.413,0.72,0.929,0.697,1.548l-0.014,0.041h-0.759c0-0.406-0.172-0.759-0.516-1.06
			c-0.344-0.301-0.808-0.451-1.391-0.451c-0.597,0-1.045,0.129-1.343,0.386c-0.298,0.257-0.448,0.56-0.448,0.906
			c0,0.342,0.129,0.624,0.386,0.848c0.257,0.223,0.771,0.419,1.542,0.588c0.879,0.196,1.538,0.464,1.976,0.803
			c0.438,0.339,0.656,0.801,0.656,1.384c0,0.615-0.25,1.113-0.749,1.494c-0.499,0.38-1.159,0.571-1.979,0.571
			c-0.898,0-1.603-0.214-2.116-0.643c-0.513-0.428-0.755-0.939-0.728-1.531l0.014-0.041h0.752c0.032,0.533,0.249,0.92,0.653,1.162
			c0.403,0.242,0.878,0.362,1.425,0.362c0.592,0,1.06-0.13,1.401-0.39c0.342-0.26,0.513-0.574,0.513-0.943
			C134.057,88.36,133.914,88.056,133.629,87.797z"/>
	</g>
	<g id="T03" opacity="0">
		<polygon id="AREA_3_" points="258.469,55.501 168.829,55.501 168.829,97.501 201.396,97.501 201.396,97.501 212.969,109.677 
			224.542,97.501 224.542,97.501 258.469,97.501 		"/>
		<text transform="matrix(1 0 0 1 177.2083 72.7716)" fill="#FFFFFF" font-family="'PlayfairDisplay-Bold'" font-size="12">Chad</text>
		<text transform="matrix(1 0 0 1 174.7864 90.5856)" fill="#FFFFFF" font-family="'Roboto-Light'" font-size="10">$0.01</text>
		<text transform="matrix(1.047 0 0 1 224.4299 90.5856)" fill="#FFFFFF" font-family="'Roboto-Light'" font-size="10"> NA</text>
		<path fill="#FFFFFF" d="M209.566,89.601h0.041l0.26-0.868l2.01-5.544h0.848l-2.81,7.396h-0.656l-2.816-7.396h0.848l2.037,5.544
			L209.566,89.601z"/>
		<path fill="#FFFFFF" d="M218.073,87.797c-0.285-0.26-0.799-0.472-1.542-0.636c-0.884-0.191-1.537-0.444-1.958-0.759
			c-0.421-0.314-0.632-0.759-0.632-1.333c0-0.565,0.238-1.042,0.714-1.432c0.476-0.39,1.106-0.585,1.89-0.585
			c0.834,0,1.495,0.206,1.982,0.619c0.488,0.413,0.72,0.929,0.697,1.548l-0.014,0.041h-0.759c0-0.406-0.172-0.759-0.516-1.06
			c-0.344-0.301-0.808-0.451-1.391-0.451c-0.597,0-1.045,0.129-1.343,0.386c-0.298,0.257-0.448,0.56-0.448,0.906
			c0,0.342,0.129,0.624,0.386,0.848c0.257,0.223,0.771,0.419,1.542,0.588c0.879,0.196,1.538,0.464,1.976,0.803
			c0.438,0.339,0.656,0.801,0.656,1.384c0,0.615-0.25,1.113-0.749,1.494c-0.499,0.38-1.159,0.571-1.979,0.571
			c-0.898,0-1.603-0.214-2.116-0.643c-0.513-0.428-0.755-0.939-0.728-1.531l0.014-0.041h0.752c0.032,0.533,0.249,0.92,0.653,1.162
			c0.403,0.242,0.878,0.362,1.425,0.362c0.592,0,1.06-0.13,1.401-0.39c0.342-0.26,0.513-0.574,0.513-0.943
			C218.5,88.36,218.358,88.056,218.073,87.797z"/>
	</g>
	<g id="T04" opacity="0">
		<polygon id="AREA_4_" points="89.37,135.122 -0.27,135.122 -0.27,177.122 32.297,177.122 32.297,177.122 43.87,189.299 
			55.443,177.122 55.443,177.122 89.37,177.122 		"/>
		<text transform="matrix(1 0 0 1 8.1091 152.3931)" fill="#FFFFFF" font-family="'PlayfairDisplay-Bold'" font-size="12">Congo</text>
		<text transform="matrix(1 0 0 1 5.6873 170.2071)" fill="#FFFFFF" font-family="'Roboto-Light'" font-size="10">$0.02</text>
		<text transform="matrix(1.047 0 0 1 55.3308 170.2071)" fill="#FFFFFF" font-family="'Roboto-Light'" font-size="10">$0.03</text>
		<path fill="#FFFFFF" d="M40.467,169.223h0.041l0.26-0.868l2.01-5.544h0.848l-2.81,7.396h-0.656l-2.816-7.396h0.848l2.037,5.544
			L40.467,169.223z"/>
		<path fill="#FFFFFF" d="M48.974,167.418c-0.285-0.26-0.799-0.472-1.542-0.636c-0.884-0.191-1.537-0.444-1.958-0.759
			c-0.421-0.314-0.632-0.759-0.632-1.333c0-0.565,0.238-1.042,0.714-1.432c0.476-0.39,1.106-0.584,1.89-0.584
			c0.834,0,1.495,0.206,1.982,0.619c0.488,0.413,0.72,0.929,0.697,1.548l-0.014,0.041h-0.759c0-0.406-0.172-0.759-0.516-1.06
			c-0.344-0.301-0.808-0.451-1.391-0.451c-0.597,0-1.045,0.129-1.343,0.386c-0.298,0.257-0.448,0.559-0.448,0.906
			c0,0.342,0.129,0.624,0.386,0.848c0.257,0.223,0.771,0.419,1.542,0.588c0.879,0.196,1.538,0.464,1.976,0.803
			c0.438,0.339,0.656,0.801,0.656,1.384c0,0.615-0.25,1.113-0.749,1.494c-0.499,0.38-1.159,0.571-1.979,0.571
			c-0.898,0-1.603-0.214-2.116-0.643c-0.513-0.428-0.755-0.939-0.728-1.531l0.014-0.041h0.752c0.032,0.533,0.25,0.92,0.653,1.162
			c0.403,0.242,0.878,0.362,1.425,0.362c0.592,0,1.06-0.13,1.401-0.39c0.342-0.26,0.513-0.574,0.513-0.943
			C49.401,167.981,49.259,167.678,48.974,167.418z"/>
	</g>
	<g id="T05" opacity="0">
		<polygon id="AREA_5_" points="173.827,135.122 84.188,135.122 84.188,177.122 116.754,177.122 116.754,177.122 128.327,189.299 
			139.901,177.122 139.901,177.122 173.827,177.122 		"/>
		<text transform="matrix(1 0 0 1 92.5667 152.3931)" fill="#FFFFFF" font-family="'PlayfairDisplay-Bold'" font-size="12">R. Congo</text>
		<text transform="matrix(1 0 0 1 90.1448 170.2071)" fill="#FFFFFF" font-family="'Roboto-Light'" font-size="10">$0.01</text>
		<text transform="matrix(1.047 0 0 1 139.7883 170.2071)" fill="#FFFFFF" font-family="'Roboto-Light'" font-size="10">$0.01</text>
		<path fill="#FFFFFF" d="M124.924,169.223h0.041l0.26-0.868l2.01-5.544h0.848l-2.81,7.396h-0.656l-2.816-7.396h0.848l2.037,5.544
			L124.924,169.223z"/>
		<path fill="#FFFFFF" d="M133.431,167.418c-0.285-0.26-0.799-0.472-1.542-0.636c-0.884-0.191-1.537-0.444-1.958-0.759
			c-0.421-0.314-0.632-0.759-0.632-1.333c0-0.565,0.238-1.042,0.714-1.432c0.476-0.39,1.106-0.584,1.89-0.584
			c0.834,0,1.495,0.206,1.982,0.619c0.488,0.413,0.72,0.929,0.697,1.548l-0.014,0.041h-0.759c0-0.406-0.172-0.759-0.516-1.06
			c-0.344-0.301-0.808-0.451-1.391-0.451c-0.597,0-1.045,0.129-1.343,0.386c-0.298,0.257-0.448,0.559-0.448,0.906
			c0,0.342,0.129,0.624,0.386,0.848c0.257,0.223,0.771,0.419,1.542,0.588c0.879,0.196,1.538,0.464,1.976,0.803
			c0.438,0.339,0.656,0.801,0.656,1.384c0,0.615-0.25,1.113-0.749,1.494c-0.499,0.38-1.159,0.571-1.979,0.571
			c-0.898,0-1.603-0.214-2.116-0.643c-0.513-0.428-0.755-0.939-0.728-1.531l0.014-0.041h0.752c0.032,0.533,0.249,0.92,0.653,1.162
			c0.403,0.242,0.878,0.362,1.425,0.362c0.592,0,1.06-0.13,1.401-0.39c0.342-0.26,0.513-0.574,0.513-0.943
			C133.859,167.981,133.716,167.678,133.431,167.418z"/>
	</g>
	<g id="T06" opacity="0">
		<polygon id="AREA_6_" points="257.81,135.122 168.171,135.122 168.171,177.122 200.737,177.122 200.737,177.122 212.31,189.299 
			223.884,177.122 223.884,177.122 257.81,177.122 		"/>
		<text transform="matrix(1 0 0 1 176.5496 152.3931)" fill="#FFFFFF" font-family="'PlayfairDisplay-Bold'" font-size="12">Ghana</text>
		<text transform="matrix(1 0 0 1 174.1277 170.2071)" fill="#FFFFFF" font-family="'Roboto-Light'" font-size="10">$0.01</text>
		<text transform="matrix(1.047 0 0 1 223.7712 170.2071)" fill="#FFFFFF" font-family="'Roboto-Light'" font-size="10">$0.01</text>
		<path fill="#FFFFFF" d="M208.907,169.223h0.041l0.26-0.868l2.01-5.544h0.848l-2.81,7.396h-0.656l-2.816-7.396h0.848l2.037,5.544
			L208.907,169.223z"/>
		<path fill="#FFFFFF" d="M217.414,167.418c-0.285-0.26-0.799-0.472-1.542-0.636c-0.884-0.191-1.537-0.444-1.958-0.759
			c-0.421-0.314-0.632-0.759-0.632-1.333c0-0.565,0.238-1.042,0.714-1.432c0.476-0.39,1.106-0.584,1.89-0.584
			c0.834,0,1.495,0.206,1.982,0.619c0.488,0.413,0.72,0.929,0.697,1.548l-0.014,0.041h-0.759c0-0.406-0.172-0.759-0.516-1.06
			c-0.344-0.301-0.808-0.451-1.391-0.451c-0.597,0-1.045,0.129-1.343,0.386c-0.298,0.257-0.448,0.559-0.448,0.906
			c0,0.342,0.129,0.624,0.386,0.848c0.257,0.223,0.771,0.419,1.542,0.588c0.879,0.196,1.538,0.464,1.976,0.803
			c0.438,0.339,0.656,0.801,0.656,1.384c0,0.615-0.25,1.113-0.749,1.494c-0.499,0.38-1.159,0.571-1.979,0.571
			c-0.898,0-1.603-0.214-2.116-0.643c-0.513-0.428-0.755-0.939-0.728-1.531l0.014-0.041h0.752c0.032,0.533,0.249,0.92,0.653,1.162
			c0.403,0.242,0.878,0.362,1.425,0.362c0.592,0,1.06-0.13,1.401-0.39c0.342-0.26,0.513-0.574,0.513-0.943
			C217.842,167.981,217.699,167.678,217.414,167.418z"/>
	</g>
	<g id="T07" opacity="0">
		<polygon id="AREA_7_" points="89.37,211.744 -0.27,211.744 -0.27,253.744 32.297,253.744 32.297,253.744 43.87,265.921 
			55.443,253.744 55.443,253.744 89.37,253.744 		"/>
		<text transform="matrix(1 0 0 1 8.1091 229.0151)" fill="#FFFFFF" font-family="'PlayfairDisplay-Bold'" font-size="12">Kenya</text>
		<text transform="matrix(1 0 0 1 5.6873 246.8291)" fill="#FFFFFF" font-family="'Roboto-Light'" font-size="10">$0.01</text>
		<text transform="matrix(1.047 0 0 1 55.3308 246.8291)" fill="#FFFFFF" font-family="'Roboto-Light'" font-size="10">$0.01</text>
		<path fill="#FFFFFF" d="M40.467,245.845h0.041l0.26-0.868l2.01-5.544h0.848l-2.81,7.396h-0.656l-2.816-7.396h0.848l2.037,5.544
			L40.467,245.845z"/>
		<path fill="#FFFFFF" d="M48.974,244.04c-0.285-0.26-0.799-0.472-1.542-0.636c-0.884-0.191-1.537-0.444-1.958-0.759
			c-0.421-0.314-0.632-0.759-0.632-1.333c0-0.565,0.238-1.042,0.714-1.432c0.476-0.39,1.106-0.585,1.89-0.585
			c0.834,0,1.495,0.206,1.982,0.619c0.488,0.413,0.72,0.929,0.697,1.548l-0.014,0.041h-0.759c0-0.406-0.172-0.759-0.516-1.06
			c-0.344-0.301-0.808-0.451-1.391-0.451c-0.597,0-1.045,0.129-1.343,0.386c-0.298,0.257-0.448,0.56-0.448,0.906
			c0,0.342,0.129,0.625,0.386,0.848c0.257,0.223,0.771,0.419,1.542,0.588c0.879,0.196,1.538,0.464,1.976,0.803
			c0.438,0.339,0.656,0.801,0.656,1.384c0,0.615-0.25,1.113-0.749,1.494c-0.499,0.38-1.159,0.571-1.979,0.571
			c-0.898,0-1.603-0.214-2.116-0.643c-0.513-0.428-0.755-0.939-0.728-1.531l0.014-0.041h0.752c0.032,0.533,0.25,0.92,0.653,1.162
			c0.403,0.242,0.878,0.362,1.425,0.362c0.592,0,1.06-0.13,1.401-0.39c0.342-0.26,0.513-0.574,0.513-0.943
			C49.401,244.603,49.259,244.3,48.974,244.04z"/>
	</g>
	<g id="T08" opacity="0">
		<polygon id="AREA_8_" points="173.827,211.744 84.188,211.744 84.188,253.744 116.754,253.744 116.754,253.744 128.327,265.921 
			139.901,253.744 139.901,253.744 173.827,253.744 		"/>
		<text transform="matrix(1 0 0 1 92.5667 229.0151)" fill="#FFFFFF" font-family="'PlayfairDisplay-Bold'" font-size="12">Mali</text>
		<text transform="matrix(1 0 0 1 90.1448 246.8291)" fill="#FFFFFF" font-family="'Roboto-Light'" font-size="10">$0.01</text>
		<text transform="matrix(1.047 0 0 1 139.7883 246.8291)" fill="#FFFFFF" font-family="'Roboto-Light'" font-size="10">$0.01</text>
		<path fill="#FFFFFF" d="M124.924,245.845h0.041l0.26-0.868l2.01-5.544h0.848l-2.81,7.396h-0.656l-2.816-7.396h0.848l2.037,5.544
			L124.924,245.845z"/>
		<path fill="#FFFFFF" d="M133.431,244.04c-0.285-0.26-0.799-0.472-1.542-0.636c-0.884-0.191-1.537-0.444-1.958-0.759
			c-0.421-0.314-0.632-0.759-0.632-1.333c0-0.565,0.238-1.042,0.714-1.432c0.476-0.39,1.106-0.585,1.89-0.585
			c0.834,0,1.495,0.206,1.982,0.619c0.488,0.413,0.72,0.929,0.697,1.548l-0.014,0.041h-0.759c0-0.406-0.172-0.759-0.516-1.06
			c-0.344-0.301-0.808-0.451-1.391-0.451c-0.597,0-1.045,0.129-1.343,0.386c-0.298,0.257-0.448,0.56-0.448,0.906
			c0,0.342,0.129,0.625,0.386,0.848c0.257,0.223,0.771,0.419,1.541,0.588c0.879,0.196,1.538,0.464,1.976,0.803
			c0.438,0.339,0.656,0.801,0.656,1.384c0,0.615-0.25,1.113-0.749,1.494c-0.499,0.38-1.159,0.571-1.979,0.571
			c-0.898,0-1.603-0.214-2.116-0.643c-0.513-0.428-0.755-0.939-0.728-1.531l0.014-0.041h0.752c0.032,0.533,0.249,0.92,0.653,1.162
			s0.878,0.362,1.425,0.362c0.592,0,1.06-0.13,1.401-0.39c0.342-0.26,0.513-0.574,0.513-0.943
			C133.859,244.603,133.716,244.3,133.431,244.04z"/>
	</g>
	<g id="T09" opacity="0">
		<polygon id="AREA_9_" points="258.469,211.744 168.829,211.744 168.829,253.744 201.396,253.744 201.396,253.744 212.969,265.921 
			224.542,253.744 224.542,253.744 258.469,253.744 		"/>
		<text transform="matrix(1 0 0 1 177.2083 229.0151)" fill="#FFFFFF" font-family="'PlayfairDisplay-Bold'" font-size="12">Mauritius</text>
		<text transform="matrix(1 0 0 1 174.7864 246.8291)" fill="#FFFFFF" font-family="'Roboto-Light'" font-size="10">FREE</text>
		<text transform="matrix(1.047 0 0 1 224.4299 246.8291)" fill="#FFFFFF" font-family="'Roboto-Light'" font-size="10">$0.04</text>
		<path fill="#FFFFFF" d="M209.566,245.845h0.041l0.26-0.868l2.01-5.544h0.848l-2.81,7.396h-0.656l-2.816-7.396h0.848l2.037,5.544
			L209.566,245.845z"/>
		<path fill="#FFFFFF" d="M218.073,244.04c-0.285-0.26-0.799-0.472-1.542-0.636c-0.884-0.191-1.537-0.444-1.958-0.759
			c-0.421-0.314-0.632-0.759-0.632-1.333c0-0.565,0.238-1.042,0.714-1.432c0.476-0.39,1.106-0.585,1.89-0.585
			c0.834,0,1.495,0.206,1.982,0.619c0.488,0.413,0.72,0.929,0.697,1.548l-0.014,0.041h-0.759c0-0.406-0.172-0.759-0.516-1.06
			c-0.344-0.301-0.808-0.451-1.391-0.451c-0.597,0-1.045,0.129-1.343,0.386c-0.298,0.257-0.448,0.56-0.448,0.906
			c0,0.342,0.129,0.625,0.386,0.848c0.257,0.223,0.771,0.419,1.542,0.588c0.879,0.196,1.538,0.464,1.976,0.803
			c0.438,0.339,0.656,0.801,0.656,1.384c0,0.615-0.25,1.113-0.749,1.494c-0.499,0.38-1.159,0.571-1.979,0.571
			c-0.898,0-1.603-0.214-2.116-0.643c-0.513-0.428-0.755-0.939-0.728-1.531l0.014-0.041h0.752c0.032,0.533,0.249,0.92,0.653,1.162
			c0.403,0.242,0.878,0.362,1.425,0.362c0.592,0,1.06-0.13,1.401-0.39c0.342-0.26,0.513-0.574,0.513-0.943
			C218.5,244.603,218.358,244.3,218.073,244.04z"/>
	</g>
	<g id="T10" opacity="0">
		<polygon id="AREA_10_" points="89.461,291.172 -0.178,291.172 -0.178,333.172 32.388,333.172 32.388,333.172 43.961,345.349 
			55.534,333.172 55.534,333.172 89.461,333.172 		"/>
		<text transform="matrix(1 0 0 1 8.2004 308.4429)" fill="#FFFFFF" font-family="'PlayfairDisplay-Bold'" font-size="12">Morocco</text>
		<text transform="matrix(1 0 0 1 5.7786 326.2569)" fill="#FFFFFF" font-family="'Roboto-Light'" font-size="10">FREE</text>
		<text transform="matrix(1.047 0 0 1 55.4221 326.2569)" fill="#FFFFFF" font-family="'Roboto-Light'" font-size="10">$0.02</text>
		<path fill="#FFFFFF" d="M40.558,325.273h0.041l0.26-0.868l2.01-5.544h0.848l-2.81,7.396H40.25l-2.816-7.396h0.848l2.037,5.544
			L40.558,325.273z"/>
		<path fill="#FFFFFF" d="M49.065,323.468c-0.285-0.26-0.799-0.472-1.542-0.636c-0.884-0.191-1.537-0.444-1.958-0.759
			c-0.421-0.314-0.632-0.759-0.632-1.333c0-0.565,0.238-1.042,0.714-1.432c0.476-0.39,1.106-0.584,1.89-0.584
			c0.834,0,1.495,0.206,1.982,0.619c0.488,0.413,0.72,0.929,0.697,1.548l-0.014,0.041h-0.759c0-0.406-0.172-0.759-0.516-1.06
			s-0.808-0.451-1.391-0.451c-0.597,0-1.045,0.129-1.343,0.386c-0.298,0.257-0.448,0.559-0.448,0.906
			c0,0.342,0.129,0.624,0.386,0.848c0.257,0.223,0.771,0.419,1.542,0.588c0.879,0.196,1.538,0.464,1.976,0.803
			c0.438,0.339,0.656,0.801,0.656,1.384c0,0.615-0.25,1.113-0.749,1.494c-0.499,0.38-1.159,0.571-1.979,0.571
			c-0.898,0-1.603-0.214-2.116-0.643c-0.513-0.428-0.755-0.939-0.728-1.531l0.014-0.041H45.5c0.032,0.533,0.25,0.92,0.653,1.162
			c0.403,0.242,0.878,0.362,1.425,0.362c0.592,0,1.06-0.13,1.401-0.39c0.342-0.26,0.513-0.574,0.513-0.943
			C49.493,324.031,49.35,323.728,49.065,323.468z"/>
	</g>
	<g id="T11" opacity="0">
		<polygon id="AREA_11_" points="172.902,291.172 83.263,291.172 83.263,333.172 115.829,333.172 115.829,333.172 127.402,345.349 
			138.975,333.172 138.975,333.172 172.902,333.172 		"/>
		<text transform="matrix(1 0 0 1 91.6414 308.4429)" fill="#FFFFFF" font-family="'PlayfairDisplay-Bold'" font-size="12">Nigeria</text>
		<text transform="matrix(1 0 0 1 89.2196 326.2569)" fill="#FFFFFF" font-family="'Roboto-Light'" font-size="10">$0.01</text>
		<text transform="matrix(1.047 0 0 1 138.8631 326.2569)" fill="#FFFFFF" font-family="'Roboto-Light'" font-size="10">$0.01</text>
		<path fill="#FFFFFF" d="M123.999,325.273h0.041l0.26-0.868l2.01-5.544h0.848l-2.81,7.396h-0.656l-2.816-7.396h0.848l2.037,5.544
			L123.999,325.273z"/>
		<path fill="#FFFFFF" d="M132.506,323.468c-0.285-0.26-0.799-0.472-1.542-0.636c-0.884-0.191-1.537-0.444-1.958-0.759
			c-0.421-0.314-0.632-0.759-0.632-1.333c0-0.565,0.238-1.042,0.714-1.432c0.476-0.39,1.106-0.584,1.89-0.584
			c0.834,0,1.495,0.206,1.982,0.619c0.488,0.413,0.72,0.929,0.697,1.548l-0.014,0.041h-0.759c0-0.406-0.172-0.759-0.516-1.06
			c-0.344-0.301-0.808-0.451-1.391-0.451c-0.597,0-1.045,0.129-1.343,0.386c-0.298,0.257-0.448,0.559-0.448,0.906
			c0,0.342,0.129,0.624,0.386,0.848c0.257,0.223,0.771,0.419,1.541,0.588c0.879,0.196,1.538,0.464,1.976,0.803
			c0.438,0.339,0.656,0.801,0.656,1.384c0,0.615-0.25,1.113-0.749,1.494c-0.499,0.38-1.159,0.571-1.979,0.571
			c-0.898,0-1.603-0.214-2.116-0.643c-0.513-0.428-0.755-0.939-0.728-1.531l0.014-0.041h0.752c0.032,0.533,0.249,0.92,0.653,1.162
			s0.878,0.362,1.425,0.362c0.592,0,1.06-0.13,1.401-0.39c0.342-0.26,0.513-0.574,0.513-0.943
			C132.934,324.031,132.791,323.728,132.506,323.468z"/>
	</g>
	<g id="T12" opacity="0">
		<polygon id="AREA_12_" points="258.469,291.172 168.829,291.172 168.829,333.172 201.396,333.172 201.396,333.172 
			212.969,345.349 224.542,333.172 224.542,333.172 258.469,333.172 		"/>
		<text transform="matrix(1 0 0 1 177.2083 308.4429)" fill="#FFFFFF" font-family="'PlayfairDisplay-Bold'" font-size="12">ST Príncipe</text>
		<text transform="matrix(1 0 0 1 174.7864 326.2569)" fill="#FFFFFF" font-family="'Roboto-Light'" font-size="10">$0.01</text>
		<text transform="matrix(1.047 0 0 1 224.4299 326.2569)" fill="#FFFFFF" font-family="'Roboto-Light'" font-size="10">$0.03</text>
		<path fill="#FFFFFF" d="M209.566,325.273h0.041l0.26-0.868l2.01-5.544h0.848l-2.81,7.396h-0.656l-2.816-7.396h0.848l2.037,5.544
			L209.566,325.273z"/>
		<path fill="#FFFFFF" d="M218.073,323.468c-0.285-0.26-0.799-0.472-1.542-0.636c-0.884-0.191-1.537-0.444-1.958-0.759
			c-0.421-0.314-0.632-0.759-0.632-1.333c0-0.565,0.238-1.042,0.714-1.432c0.476-0.39,1.106-0.584,1.89-0.584
			c0.834,0,1.495,0.206,1.982,0.619c0.488,0.413,0.72,0.929,0.697,1.548l-0.014,0.041h-0.759c0-0.406-0.172-0.759-0.516-1.06
			c-0.344-0.301-0.808-0.451-1.391-0.451c-0.597,0-1.045,0.129-1.343,0.386c-0.298,0.257-0.448,0.559-0.448,0.906
			c0,0.342,0.129,0.624,0.386,0.848c0.257,0.223,0.771,0.419,1.542,0.588c0.879,0.196,1.538,0.464,1.976,0.803
			c0.438,0.339,0.656,0.801,0.656,1.384c0,0.615-0.25,1.113-0.749,1.494c-0.499,0.38-1.159,0.571-1.979,0.571
			c-0.898,0-1.603-0.214-2.116-0.643c-0.513-0.428-0.755-0.939-0.728-1.531l0.014-0.041h0.752c0.032,0.533,0.249,0.92,0.653,1.162
			c0.403,0.242,0.878,0.362,1.425,0.362c0.592,0,1.06-0.13,1.401-0.39c0.342-0.26,0.513-0.574,0.513-0.943
			C218.5,324.031,218.358,323.728,218.073,323.468z"/>
	</g>
	<g id="T13" opacity="0">
		<polygon id="AREA_13_" points="89.461,368.492 -0.178,368.492 -0.178,410.492 32.388,410.492 32.388,410.492 43.961,422.669 
			55.534,410.492 55.534,410.492 89.461,410.492 		"/>
		<text transform="matrix(1 0 0 1 8.2005 385.7632)" fill="#FFFFFF" font-family="'PlayfairDisplay-Bold'" font-size="12">South Africa</text>
		<text transform="matrix(1 0 0 1 5.7786 403.5772)" fill="#FFFFFF" font-family="'Roboto-Light'" font-size="10">  NA</text>
		<text transform="matrix(1.047 0 0 1 55.4221 403.5772)" fill="#FFFFFF" font-family="'Roboto-Light'" font-size="10">$0.01</text>
		<path fill="#FFFFFF" d="M40.558,402.593h0.041l0.26-0.868l2.01-5.544h0.848l-2.81,7.397H40.25l-2.816-7.397h0.848l2.037,5.544
			L40.558,402.593z"/>
		<path fill="#FFFFFF" d="M49.065,400.788c-0.285-0.26-0.799-0.472-1.542-0.636c-0.884-0.191-1.537-0.444-1.958-0.759
			c-0.421-0.314-0.632-0.759-0.632-1.333c0-0.565,0.238-1.042,0.714-1.432c0.476-0.39,1.106-0.585,1.89-0.585
			c0.834,0,1.495,0.206,1.982,0.619c0.488,0.413,0.72,0.929,0.697,1.548l-0.014,0.041h-0.759c0-0.406-0.172-0.759-0.516-1.06
			c-0.344-0.301-0.808-0.451-1.391-0.451c-0.597,0-1.045,0.129-1.343,0.386c-0.298,0.257-0.448,0.56-0.448,0.906
			c0,0.342,0.129,0.625,0.386,0.848c0.257,0.223,0.771,0.419,1.542,0.588c0.879,0.196,1.538,0.464,1.976,0.803
			c0.438,0.339,0.656,0.801,0.656,1.384c0,0.615-0.25,1.113-0.749,1.494c-0.499,0.38-1.159,0.571-1.979,0.571
			c-0.898,0-1.603-0.214-2.116-0.642c-0.513-0.428-0.755-0.939-0.728-1.531l0.014-0.041H45.5c0.032,0.533,0.25,0.92,0.653,1.162
			c0.403,0.242,0.878,0.362,1.425,0.362c0.592,0,1.06-0.13,1.401-0.39c0.342-0.26,0.513-0.574,0.513-0.943
			C49.493,401.351,49.35,401.048,49.065,400.788z"/>
	</g>
	<g id="T14" opacity="0">
		<polygon id="AREA_14_" points="174.025,368.492 84.386,368.492 84.386,410.492 116.952,410.492 116.952,410.492 128.525,422.669 
			140.099,410.492 140.099,410.492 174.025,410.492 		"/>
		<text transform="matrix(1 0 0 1 92.7645 385.7632)" fill="#FFFFFF" font-family="'PlayfairDisplay-Bold'" font-size="12">Sudan</text>
		<text transform="matrix(1 0 0 1 90.3427 403.5772)" fill="#FFFFFF" font-family="'Roboto-Light'" font-size="10">$0.01</text>
		<text transform="matrix(1.047 0 0 1 139.9862 403.5772)" fill="#FFFFFF" font-family="'Roboto-Light'" font-size="10">$0.01</text>
		<path fill="#FFFFFF" d="M125.122,402.593h0.041l0.26-0.868l2.01-5.544h0.848l-2.81,7.397h-0.656l-2.816-7.397h0.848l2.037,5.544
			L125.122,402.593z"/>
		<path fill="#FFFFFF" d="M133.629,400.788c-0.285-0.26-0.799-0.472-1.542-0.636c-0.884-0.191-1.537-0.444-1.958-0.759
			c-0.421-0.314-0.632-0.759-0.632-1.333c0-0.565,0.238-1.042,0.714-1.432c0.476-0.39,1.106-0.585,1.89-0.585
			c0.834,0,1.495,0.206,1.982,0.619s0.72,0.929,0.697,1.548l-0.014,0.041h-0.759c0-0.406-0.172-0.759-0.516-1.06
			c-0.344-0.301-0.808-0.451-1.391-0.451c-0.597,0-1.045,0.129-1.343,0.386c-0.298,0.257-0.448,0.56-0.448,0.906
			c0,0.342,0.129,0.625,0.386,0.848c0.257,0.223,0.771,0.419,1.542,0.588c0.879,0.196,1.538,0.464,1.976,0.803
			c0.438,0.339,0.656,0.801,0.656,1.384c0,0.615-0.25,1.113-0.749,1.494c-0.499,0.38-1.159,0.571-1.979,0.571
			c-0.898,0-1.603-0.214-2.116-0.642c-0.513-0.428-0.755-0.939-0.728-1.531l0.014-0.041h0.752c0.032,0.533,0.249,0.92,0.653,1.162
			c0.403,0.242,0.878,0.362,1.425,0.362c0.592,0,1.06-0.13,1.401-0.39c0.342-0.26,0.513-0.574,0.513-0.943
			C134.057,401.351,133.914,401.048,133.629,400.788z"/>
	</g>
	<g id="T15" opacity="0">
		<polygon id="AREA_15_" points="258.56,368.492 168.921,368.492 168.921,410.492 201.487,410.492 201.487,410.492 213.06,422.669 
			224.634,410.492 224.634,410.492 258.56,410.492 		"/>
		<text transform="matrix(1 0 0 1 177.2996 385.7632)" fill="#FFFFFF" font-family="'PlayfairDisplay-Bold'" font-size="12">Tanzania</text>
		<text transform="matrix(1 0 0 1 174.8777 403.5772)" fill="#FFFFFF" font-family="'Roboto-Light'" font-size="10">$0.01</text>
		<text transform="matrix(1.047 0 0 1 224.5213 403.5772)" fill="#FFFFFF" font-family="'Roboto-Light'" font-size="10">$0.01</text>
		<path fill="#FFFFFF" d="M209.657,402.593h0.041l0.26-0.868l2.01-5.544h0.848l-2.81,7.397h-0.656l-2.816-7.397h0.848l2.037,5.544
			L209.657,402.593z"/>
		<path fill="#FFFFFF" d="M218.164,400.788c-0.285-0.26-0.799-0.472-1.542-0.636c-0.884-0.191-1.537-0.444-1.958-0.759
			c-0.421-0.314-0.632-0.759-0.632-1.333c0-0.565,0.238-1.042,0.714-1.432c0.476-0.39,1.106-0.585,1.89-0.585
			c0.834,0,1.495,0.206,1.982,0.619c0.488,0.413,0.72,0.929,0.697,1.548l-0.014,0.041h-0.759c0-0.406-0.172-0.759-0.516-1.06
			c-0.344-0.301-0.808-0.451-1.391-0.451c-0.597,0-1.045,0.129-1.343,0.386c-0.298,0.257-0.448,0.56-0.448,0.906
			c0,0.342,0.129,0.625,0.386,0.848c0.257,0.223,0.771,0.419,1.541,0.588c0.879,0.196,1.538,0.464,1.976,0.803
			c0.438,0.339,0.656,0.801,0.656,1.384c0,0.615-0.25,1.113-0.749,1.494c-0.499,0.38-1.159,0.571-1.979,0.571
			c-0.898,0-1.603-0.214-2.116-0.642c-0.513-0.428-0.755-0.939-0.728-1.531l0.014-0.041h0.752c0.032,0.533,0.249,0.92,0.653,1.162
			s0.878,0.362,1.425,0.362c0.592,0,1.06-0.13,1.401-0.39c0.342-0.26,0.513-0.574,0.513-0.943
			C218.592,401.351,218.449,401.048,218.164,400.788z"/>
	</g>
	<g id="T16" opacity="0">
		<polygon id="AREA_16_" points="88.827,446.968 -0.813,446.968 -0.813,488.968 31.754,488.968 31.754,488.968 43.327,501.145 
			54.9,488.968 54.9,488.968 88.827,488.968 		"/>
		<text transform="matrix(1 0 0 1 7.5662 464.2391)" fill="#FFFFFF" font-family="'PlayfairDisplay-Bold'" font-size="12">Tunisia</text>
		<text transform="matrix(1 0 0 1 5.1443 482.0531)" fill="#FFFFFF" font-family="'Roboto-Light'" font-size="10">FREE</text>
		<text transform="matrix(1.047 0 0 1 54.7879 482.0531)" fill="#FFFFFF" font-family="'Roboto-Light'" font-size="10">$0.02</text>
		<path fill="#FFFFFF" d="M39.924,481.069h0.041l0.26-0.868l2.01-5.544h0.848l-2.81,7.396h-0.656l-2.816-7.396h0.848l2.037,5.544
			L39.924,481.069z"/>
		<path fill="#FFFFFF" d="M48.431,479.264c-0.285-0.26-0.799-0.472-1.542-0.636c-0.884-0.191-1.537-0.444-1.958-0.759
			c-0.421-0.314-0.632-0.759-0.632-1.333c0-0.565,0.238-1.042,0.714-1.432c0.476-0.39,1.106-0.585,1.89-0.585
			c0.834,0,1.495,0.206,1.982,0.619c0.488,0.413,0.72,0.929,0.697,1.548l-0.014,0.041H48.81c0-0.406-0.172-0.759-0.516-1.06
			s-0.808-0.451-1.391-0.451c-0.597,0-1.045,0.129-1.343,0.386c-0.298,0.257-0.448,0.56-0.448,0.906
			c0,0.342,0.129,0.625,0.386,0.848c0.257,0.223,0.771,0.419,1.542,0.588c0.879,0.196,1.538,0.464,1.976,0.803
			c0.438,0.339,0.656,0.801,0.656,1.384c0,0.615-0.25,1.113-0.749,1.494c-0.499,0.38-1.159,0.571-1.979,0.571
			c-0.898,0-1.603-0.214-2.116-0.642c-0.513-0.428-0.755-0.939-0.728-1.531l0.014-0.041h0.752c0.032,0.533,0.25,0.92,0.653,1.162
			c0.403,0.242,0.878,0.362,1.425,0.362c0.592,0,1.06-0.13,1.401-0.39c0.342-0.26,0.513-0.574,0.513-0.943
			C48.858,479.827,48.716,479.524,48.431,479.264z"/>
	</g>
	<g id="T17" opacity="0">
		<polygon id="AREA_17_" points="172.902,446.968 83.263,446.968 83.263,488.968 115.829,488.968 115.829,488.968 127.402,501.145 
			138.975,488.968 138.975,488.968 172.902,488.968 		"/>
		<text transform="matrix(1 0 0 1 91.6415 464.2391)" fill="#FFFFFF" font-family="'PlayfairDisplay-Bold'" font-size="12">Uganda</text>
		<text transform="matrix(1 0 0 1 89.2196 482.0531)" fill="#FFFFFF" font-family="'Roboto-Light'" font-size="10">FREE</text>
		<text transform="matrix(1.047 0 0 1 138.8632 482.0531)" fill="#FFFFFF" font-family="'Roboto-Light'" font-size="10">$0.01</text>
		<path fill="#FFFFFF" d="M123.999,481.069h0.041l0.26-0.868l2.01-5.544h0.848l-2.81,7.396h-0.656l-2.816-7.396h0.848l2.037,5.544
			L123.999,481.069z"/>
		<path fill="#FFFFFF" d="M132.506,479.264c-0.285-0.26-0.799-0.472-1.542-0.636c-0.884-0.191-1.537-0.444-1.958-0.759
			c-0.421-0.314-0.632-0.759-0.632-1.333c0-0.565,0.238-1.042,0.714-1.432c0.476-0.39,1.106-0.585,1.89-0.585
			c0.834,0,1.495,0.206,1.982,0.619c0.488,0.413,0.72,0.929,0.697,1.548l-0.014,0.041h-0.759c0-0.406-0.172-0.759-0.516-1.06
			c-0.344-0.301-0.808-0.451-1.391-0.451c-0.597,0-1.045,0.129-1.343,0.386c-0.298,0.257-0.448,0.56-0.448,0.906
			c0,0.342,0.129,0.625,0.386,0.848c0.257,0.223,0.771,0.419,1.541,0.588c0.879,0.196,1.538,0.464,1.976,0.803
			c0.438,0.339,0.656,0.801,0.656,1.384c0,0.615-0.25,1.113-0.749,1.494c-0.499,0.38-1.159,0.571-1.979,0.571
			c-0.898,0-1.603-0.214-2.116-0.642c-0.513-0.428-0.755-0.939-0.728-1.531l0.014-0.041h0.752c0.032,0.533,0.249,0.92,0.653,1.162
			s0.878,0.362,1.425,0.362c0.592,0,1.06-0.13,1.401-0.39c0.342-0.26,0.513-0.574,0.513-0.943
			C132.934,479.827,132.791,479.524,132.506,479.264z"/>
	</g>
</g>
</svg>
