<?xml version="1.0" encoding="utf-8"?>
<!DOCTYPE svg PUBLIC "-//W3C//DTD SVG 1.1//EN" "http://www.w3.org/Graphics/SVG/1.1/DTD/svg11.dtd">
<svg version="1.1" id="GRAPHIC" xmlns="http://www.w3.org/2000/svg" xmlns:xlink="http://www.w3.org/1999/xlink" x="0px" y="0px"
	 width="258.014px" height="551.375px" viewBox="0 0 258.014 551.375" enable-background="new 0 0 258.014 551.375"
	 xml:space="preserve">
    <style type="text/css">
       @font-face {
            font-family: 'Roboto-Light';
            font-weight: 100;
            src: url(https://fonts.googleapis.com/css?family=Roboto:300);
        }
        @font-face {
            font-family: 'Roboto-Bold';
            src: url(http://www.nacion.com/static/LNCNacionBeta/fonts/opensans/opensans_semibold.woff);    
            font-weight: 300;
        }
        @font-face {
            font-family: 'Open Sans Bold';
            src: url(http://www.nacion.com/static/LNCNacionBeta/fonts/opensans/opensans_extrabold.woff);    
            font-weight: 800;
        }
    </style>
<g id="STUCK">
	<g id="STUFF">
		<g>
			<text transform="matrix(1 0 0 1 190.9854 231.1725)" font-family="'Arial'" font-size="14">Ghana</text>
			<text transform="matrix(1 0 0 1 111.1167 231.1725)" font-family="'Arial'" font-size="14">Egypt</text>
		</g>
		<g>
			<text transform="matrix(1 0 0 1 27.9244 231.1724)" font-family="'Arial'" font-size="14">Chad</text>
		</g>
		<g>
			<text transform="matrix(1 0 0 1 103.3054 153.107)" fill="#790700" font-family="'Arial'" font-size="14">Burundi</text>
			<text transform="matrix(1 0 0 1 179.1324 153.107)" fill="#790700" font-family="'Arial'" font-size="14">Cameroon</text>
			<text transform="matrix(1 0 0 1 2.8263 153.107)" fill="#790700" font-family="'Arial'" font-size="14">Burkina Faso</text>
		</g>
		<g>
			<text transform="matrix(0.8957 0 0 1 99.9701 309.6829)" font-family="'Arial'" font-size="14">Mauritius</text>
			<text transform="matrix(1 0 0 1 24.6124 309.304)" font-family="'Arial'" font-size="14">Kenya</text>
		</g>
		<g>
			<text transform="matrix(1 0 0 1 189.6473 307.9037)" font-family="'Arial'" font-size="14">Nigeria</text>
			<g>
				<text transform="matrix(1 0 0 1 20.2209 382.0347)"><tspan x="0" y="0" font-family="'Arial'" font-size="10">São Tomé</tspan><tspan x="-5.354" y="10" font-family="'Arial'" font-size="10">and Príncipe</tspan></text>
			</g>
		</g>
		<g>
			<text transform="matrix(1 0 0 1 191.8813 387.3033)" font-family="'Arial'" font-size="14">Sudan</text>
			<text transform="matrix(1 0 0 1 14.0691 465.4343)" font-family="'Arial'" font-size="14">Tanzania</text>
			<g>
				<text transform="matrix(1 0 0 1 100.6482 381.9689)"><tspan x="0" y="0" font-family="'Arial'" font-size="10">South Africa</tspan><tspan x="-12.017" y="10" font-family="'Arial'" font-size="10">Gauteng Province</tspan></text>
			</g>
		</g>
		<g>
			<text transform="matrix(1 0 0 1 105.54 465.4349)" font-family="'Arial'" font-size="14">Tunisia</text>
			<text transform="matrix(1 0 0 1 187.9585 465.4349)" font-family="'Arial'" font-size="14">Uganda</text>
		</g>
	</g>
	<g>
		<path fill="#790700" d="M214.586,111.058c0,2.761-2.239,5-5.001,5c-2.761,0-4.999-2.239-4.999-5c0-2.762,2.238-5,4.999-5
			C212.347,106.058,214.586,108.297,214.586,111.058z"/>
		<path opacity="0.8" fill="#D6D6D6" enable-background="new    " d="M220.651,111.058c0,2.762-2.238,5-5.001,5
			c-2.761,0-4.999-2.238-4.999-5c0-2.762,2.238-5,4.999-5C218.413,106.058,220.651,108.297,220.651,111.058z"/>
		<path fill="#790700" d="M130.379,111.058c0,2.761-2.239,5-5.001,5c-2.761,0-4.999-2.239-4.999-5c0-2.762,2.238-5,4.999-5
			C128.14,106.058,130.379,108.297,130.379,111.058z"/>
		<path opacity="0.8" fill="#D6D6D6" enable-background="new    " d="M136.445,111.058c0,2.762-2.238,5-5.001,5
			c-2.761,0-4.999-2.238-4.999-5c0-2.762,2.238-5,4.999-5C134.206,106.058,136.445,108.297,136.445,111.058z"/>
		<path fill="#790700" d="M45.907,111.058c0,2.761-2.239,5-5.001,5c-2.761,0-4.999-2.239-4.999-5c0-2.762,2.238-5,4.999-5
			C43.669,106.058,45.907,108.297,45.907,111.058z"/>
		<path opacity="0.8" fill="#D6D6D6" enable-background="new    " d="M51.973,111.058c0,2.762-2.238,5-5.001,5
			c-2.761,0-4.999-2.238-4.999-5c0-2.762,2.238-5,4.999-5C49.735,106.058,51.973,108.297,51.973,111.058z"/>
	</g>
	<g>
		<path fill="#790700" d="M45.907,188.883c0,2.761-2.239,5-5.001,5c-2.761,0-4.999-2.239-4.999-5c0-2.762,2.238-5,4.999-5
			C43.669,183.883,45.907,186.122,45.907,188.883z"/>
		<path opacity="0.8" fill="#D6D6D6" enable-background="new    " d="M51.973,188.883c0,2.762-2.238,5-5.001,5
			c-2.761,0-4.999-2.238-4.999-5c0-2.762,2.238-5,4.999-5C49.735,183.883,51.973,186.122,51.973,188.883z"/>
	</g>
	<g>
		<path fill="#790700" d="M214.428,188.883c0,2.761-2.239,5-5.001,5c-2.761,0-4.999-2.239-4.999-5c0-2.762,2.238-5,4.999-5
			C212.189,183.883,214.428,186.122,214.428,188.883z"/>
		<path opacity="0.8" fill="#D6D6D6" enable-background="new    " d="M220.493,188.883c0,2.762-2.238,5-5.001,5
			c-2.761,0-4.999-2.238-4.999-5c0-2.762,2.238-5,4.999-5C218.255,183.883,220.493,186.122,220.493,188.883z"/>
		<path fill="#790700" d="M130.849,188.883c0,2.761-2.239,5-5.001,5c-2.761,0-4.999-2.239-4.999-5c0-2.762,2.238-5,4.999-5
			C128.611,183.883,130.849,186.122,130.849,188.883z"/>
		<path opacity="0.8" fill="#D6D6D6" enable-background="new    " d="M136.915,188.883c0,2.762-2.238,5-5.001,5
			c-2.761,0-4.999-2.238-4.999-5c0-2.762,2.238-5,4.999-5C134.677,183.883,136.915,186.122,136.915,188.883z"/>
	</g>
	<g>
		<path fill="#790700" d="M129.824,267.014c0,2.761-2.239,5-5.001,5c-2.761,0-4.999-2.239-4.999-5c0-2.762,2.238-5,4.999-5
			C127.585,262.014,129.824,264.253,129.824,267.014z"/>
		<path opacity="0.8" fill="#D6D6D6" enable-background="new    " d="M135.889,267.014c0,2.762-2.238,5-5.001,5
			c-2.761,0-4.999-2.238-4.999-5s2.238-5,4.999-5C133.651,262.014,135.889,264.253,135.889,267.014z"/>
		<path fill="#790700" d="M45.907,267.014c0,2.761-2.239,5-5.001,5c-2.761,0-4.999-2.239-4.999-5c0-2.762,2.238-5,4.999-5
			C43.669,262.014,45.907,264.253,45.907,267.014z"/>
		<path opacity="0.8" fill="#D6D6D6" enable-background="new    " d="M51.973,267.014c0,2.762-2.238,5-5.001,5
			c-2.761,0-4.999-2.238-4.999-5s2.238-5,4.999-5C49.735,262.014,51.973,264.253,51.973,267.014z"/>
	</g>
	<g>
		<path fill="#790700" d="M45.975,345.079c0,2.761-2.239,5-5.001,5c-2.761,0-4.999-2.239-4.999-5c0-2.762,2.238-5,4.999-5
			C43.736,340.079,45.975,342.318,45.975,345.079z"/>
		<path opacity="0.8" fill="#D6D6D6" enable-background="new    " d="M52.04,345.079c0,2.762-2.238,5-5.001,5
			c-2.761,0-4.999-2.238-4.999-5s2.238-5,4.999-5C49.802,340.079,52.04,342.318,52.04,345.079z"/>
		<path fill="#790700" d="M214.618,266.948c0,2.761-2.239,5-5.001,5c-2.761,0-4.999-2.239-4.999-5c0-2.762,2.238-5,4.999-5
			C212.379,261.948,214.618,264.187,214.618,266.948z"/>
		<path opacity="0.8" fill="#D6D6D6" enable-background="new    " d="M220.684,266.948c0,2.762-2.238,5-5.001,5
			c-2.761,0-4.999-2.238-4.999-5c0-2.762,2.238-5,4.999-5C218.445,261.948,220.684,264.187,220.684,266.948z"/>
	</g>
	<g>
		<path fill="#790700" d="M45.975,423.145c0,2.761-2.239,5-5.001,5c-2.761,0-4.999-2.239-4.999-5c0-2.762,2.238-5,4.999-5
			C43.736,418.145,45.975,420.384,45.975,423.145z"/>
		<path opacity="0.8" fill="#D6D6D6" enable-background="new    " d="M52.04,423.145c0,2.762-2.238,5-5.001,5
			c-2.761,0-4.999-2.238-4.999-5s2.238-5,4.999-5C49.802,418.145,52.04,420.384,52.04,423.145z"/>
		<path fill="#790700" d="M214.552,345.014c0,2.761-2.239,5-5.001,5c-2.761,0-4.999-2.239-4.999-5c0-2.762,2.238-5,4.999-5
			C212.313,340.014,214.552,342.253,214.552,345.014z"/>
		<path opacity="0.8" fill="#D6D6D6" enable-background="new" d="M220.618,345.014c0,2.762-2.238,5-5.001,5
			c-2.761,0-4.999-2.238-4.999-5s2.238-5,4.999-5C218.379,340.014,220.618,342.253,220.618,345.014z"/>
		<path fill="#790700" d="M130.346,345.014c0,2.761-2.239,5-5.001,5c-2.761,0-4.999-2.239-4.999-5c0-2.762,2.238-5,4.999-5
                                C128.108,340.014,130.346,342.253,130.346,345.014z"></path>
		<path opacity="0.8" fill="#D6D6D6" enable-background="new    " d="M136.412,345.014c0,2.762-2.238,5-5.001,5
			c-2.761,0-4.999-2.238-4.999-5s2.238-5,4.999-5C134.174,340.014,136.412,342.253,136.412,345.014z"/>
	</g>
	<g>
		<path fill="#790700" d="M214.851,423.145c0,2.761-2.239,5-5.001,5c-2.761,0-4.999-2.239-4.999-5c0-2.762,2.238-5,4.999-5
			C212.612,418.145,214.851,420.384,214.851,423.145z"/>
		<path opacity="0.8" fill="#D6D6D6" enable-background="new    " d="M220.917,423.145c0,2.762-2.238,5-5.001,5
			c-2.761,0-4.999-2.238-4.999-5s2.238-5,4.999-5C218.678,418.145,220.917,420.384,220.917,423.145z"/>
		<path fill="#790700" d="M130.379,423.145c0,2.761-2.239,5-5.001,5c-2.761,0-4.999-2.239-4.999-5c0-2.762,2.238-5,4.999-5
			C128.141,418.145,130.379,420.384,130.379,423.145z"/>
		<path opacity="0.8" fill="#D6D6D6" enable-background="new    " d="M136.445,423.145c0,2.762-2.238,5-5.001,5
			c-2.761,0-4.999-2.238-4.999-5s2.238-5,4.999-5C134.207,418.145,136.445,420.384,136.445,423.145z"/>
	</g>
</g>
<g id="AREA">
	<rect id="A15" x="177.996" y="401.406" fill="#FFFFFF" fill-opacity="0" width="69.988" height="48">
        <animate attributeName="opacity" dur="0.2" to="1" begin="A15.mouseover" fill="freeze" xlink:href="#T15"/> 
        <animate attributeName="opacity" dur="0.2" to="0" begin="A15.mouseout" fill="freeze" xlink:href="#T15"/>
    </rect>
	<rect id="A14" x="94.013" y="401.406" fill="#FFFFFF" fill-opacity="0" width="69.989" height="48">
        <animate attributeName="opacity" dur="0.2" to="1" begin="A14.mouseover" fill="freeze" xlink:href="#T14"/> 
        <animate attributeName="opacity" dur="0.2" to="0" begin="A14.mouseout" fill="freeze" xlink:href="#T14"/>
    </rect>
	<rect id="A13" x="10.03" y="401.406" fill="#FFFFFF" fill-opacity="0" width="69.989" height="48">
        <animate attributeName="opacity" dur="0.2" to="1" begin="A13.mouseover" fill="freeze" xlink:href="#T13"/> 
        <animate attributeName="opacity" dur="0.2" to="0" begin="A13.mouseout" fill="freeze" xlink:href="#T13"/>
    </rect>
	<rect id="A12" x="177.996" y="320.492" fill="#FFFFFF" fill-opacity="0" width="69.988" height="48">
        <animate attributeName="opacity" dur="0.2" to="1" begin="A12.mouseover" fill="freeze" xlink:href="#T12"/> 
        <animate attributeName="opacity" dur="0.2" to="0" begin="A12.mouseout" fill="freeze" xlink:href="#T12"/>
    </rect>
	<rect id="A11" x="94.013" y="320.492" fill="#FFFFFF" fill-opacity="0" width="69.989" height="48">
        <animate attributeName="opacity" dur="0.2" to="1" begin="A11.mouseover" fill="freeze" xlink:href="#T11"/> 
        <animate attributeName="opacity" dur="0.2" to="0" begin="A11.mouseout" fill="freeze" xlink:href="#T11"/>
    </rect>
	<rect id="A10" x="10.03" y="320.492" fill="#FFFFFF" fill-opacity="0" width="69.989" height="48">
        <animate attributeName="opacity" dur="0.2" to="1" begin="A10.mouseover" fill="freeze" xlink:href="#T10"/> 
        <animate attributeName="opacity" dur="0.2" to="0" begin="A10.mouseout" fill="freeze" xlink:href="#T10"/>
    </rect>
	<rect id="A09" x="177.996" y="243.172" fill="#FFFFFF" fill-opacity="0" width="69.988" height="48">
        <animate attributeName="opacity" dur="0.2" to="1" begin="A09.mouseover" fill="freeze" xlink:href="#T09"/> 
        <animate attributeName="opacity" dur="0.2" to="0" begin="A09.mouseout" fill="freeze" xlink:href="#T09"/>
    </rect>
	<rect id="A08" x="94.013" y="243.172" fill="#FFFFFF" fill-opacity="0" width="69.989" height="48">
        <animate attributeName="opacity" dur="0.2" to="1" begin="A08.mouseover" fill="freeze" xlink:href="#T08"/> 
        <animate attributeName="opacity" dur="0.2" to="0" begin="A08.mouseout" fill="freeze" xlink:href="#T08"/>
    </rect>
	<rect id="A07" x="10.03" y="243.172" fill="#FFFFFF" fill-opacity="0" width="69.989" height="48">
        <animate attributeName="opacity" dur="0.2" to="1" begin="A07.mouseover" fill="freeze" xlink:href="#T07"/> 
        <animate attributeName="opacity" dur="0.2" to="0" begin="A07.mouseout" fill="freeze" xlink:href="#T07"/>
    </rect>
	<rect id="A06" x="177.996" y="163.744" fill="#FFFFFF" fill-opacity="0" width="69.988" height="48">
        <animate attributeName="opacity" dur="0.2" to="1" begin="A06.mouseover" fill="freeze" xlink:href="#T06"/> 
        <animate attributeName="opacity" dur="0.2" to="0" begin="A06.mouseout" fill="freeze" xlink:href="#T06"/>
    </rect>
	<rect id="A05" x="94.013" y="163.744" fill="#FFFFFF" fill-opacity="0" width="69.989" height="48">
        <animate attributeName="opacity" dur="0.2" to="1" begin="A05.mouseover" fill="freeze" xlink:href="#T05"/> 
        <animate attributeName="opacity" dur="0.2" to="0" begin="A05.mouseout" fill="freeze" xlink:href="#T05"/>
    </rect>
	<rect id="A04" x="10.03" y="163.744" fill="#FFFFFF" fill-opacity="0" width="69.989" height="48">
        <animate attributeName="opacity" dur="0.2" to="1" begin="A04.mouseover" fill="freeze" xlink:href="#T04"/> 
        <animate attributeName="opacity" dur="0.2" to="0" begin="A04.mouseout" fill="freeze" xlink:href="#T04"/>
    </rect>
	<rect id="A03" x="177.996" y="87.122" fill="#FFFFFF" fill-opacity="0" width="69.988" height="48">
        <animate attributeName="opacity" dur="0.2" to="1" begin="A03.mouseover" fill="freeze" xlink:href="#T03"/> 
        <animate attributeName="opacity" dur="0.2" to="0" begin="A03.mouseout" fill="freeze" xlink:href="#T03"/>
    </rect>
	<rect id="A02" x="94.013" y="87.122" fill="#FFFFFF" fill-opacity="0" width="69.989" height="48">
        <animate attributeName="opacity" dur="0.2" to="1" begin="A02.mouseover" fill="freeze" xlink:href="#T02"/> 
        <animate attributeName="opacity" dur="0.2" to="0" begin="A02.mouseout" fill="freeze" xlink:href="#T02"/>
    </rect>
	<rect id="A01" x="10.03" y="87.122" fill="#FFFFFF" fill-opacity="0" width="69.989" height="48">
        <animate attributeName="opacity" dur="0.2" to="1" begin="A01.mouseover" fill="freeze" xlink:href="#T01"/> 
        <animate attributeName="opacity" dur="0.2" to="0" begin="A01.mouseout" fill="freeze" xlink:href="#T01"/>
    </rect>
</g>
<g id="TOOLTIP">
	<g id="T01" opacity="0">
		<polygon id="AREA_1_" points="89.64,55.501 0,55.501 0,97.501 32.567,97.501 32.567,97.501 44.14,109.677 55.713,97.501 
			55.713,97.501 89.64,97.501 		"/>
		<text transform="matrix(1 0 0 1 8.3792 72.7716)" fill="#FFFFFF" font-family="'PlayfairDisplay-Bold'" font-size="12">Burkina Faso</text>
		<text transform="matrix(1.047 0 0 1 5.9573 90.5856)" fill="#FFFFFF" font-family="'Roboto-Light'" font-size="10">$0.01</text>
		<text transform="matrix(1.047 0 0 1 55.6008 90.5856)" fill="#FFFFFF" font-family="'Roboto-Light'" font-size="10">$0.01</text>
		<path fill="#FFFFFF" d="M40.737,89.601h0.041l0.26-0.868l2.01-5.544h0.848l-2.81,7.396h-0.656l-2.816-7.396h0.848l2.037,5.544
			L40.737,89.601z"/>
		<path fill="#FFFFFF" d="M49.244,87.797c-0.285-0.26-0.799-0.472-1.542-0.636c-0.884-0.191-1.537-0.444-1.958-0.759
			c-0.421-0.314-0.632-0.759-0.632-1.333c0-0.565,0.238-1.042,0.714-1.432c0.476-0.39,1.106-0.585,1.89-0.585
			c0.834,0,1.495,0.206,1.982,0.619c0.488,0.413,0.72,0.929,0.697,1.548l-0.014,0.041h-0.759c0-0.406-0.172-0.759-0.516-1.06
			C48.763,83.9,48.3,83.75,47.716,83.75c-0.597,0-1.045,0.129-1.343,0.386c-0.298,0.257-0.448,0.56-0.448,0.906
			c0,0.342,0.129,0.624,0.386,0.848c0.257,0.223,0.771,0.419,1.542,0.588c0.879,0.196,1.538,0.464,1.976,0.803
			c0.438,0.339,0.656,0.801,0.656,1.384c0,0.615-0.25,1.113-0.749,1.494c-0.499,0.38-1.159,0.571-1.979,0.571
			c-0.898,0-1.603-0.214-2.116-0.643c-0.513-0.428-0.755-0.939-0.728-1.531l0.014-0.041h0.752c0.032,0.533,0.249,0.92,0.653,1.162
			c0.403,0.242,0.878,0.362,1.425,0.362c0.592,0,1.06-0.13,1.401-0.39c0.342-0.26,0.513-0.574,0.513-0.943
			C49.671,88.36,49.529,88.056,49.244,87.797z"/>
	</g>
	<g id="T02" opacity="0">
		<polygon id="AREA_2_" points="173.827,55.501 84.187,55.501 84.187,97.501 116.754,97.501 116.754,97.501 128.327,109.677 
			139.9,97.501 139.9,97.501 173.827,97.501 		"/>
		<text transform="matrix(1 0 0 1 92.5661 72.7716)" fill="#FFFFFF" font-family="'PlayfairDisplay-Bold'" font-size="12">Burundi</text>
		<text transform="matrix(1.047 0 0 1 90.1443 90.5856)" fill="#FFFFFF" font-family="'Roboto-Light'" font-size="10">  NA</text>
		<text transform="matrix(1.047 0 0 1 139.7878 90.5856)" fill="#FFFFFF" font-family="'Roboto-Light'" font-size="10">$0.03</text>
		<path fill="#FFFFFF" d="M124.924,89.601h0.041l0.26-0.868l2.01-5.544h0.848l-2.81,7.396h-0.656l-2.816-7.396h0.848l2.037,5.544
			L124.924,89.601z"/>
		<path fill="#FFFFFF" d="M133.431,87.797c-0.285-0.26-0.799-0.472-1.542-0.636c-0.884-0.191-1.537-0.444-1.958-0.759
			c-0.421-0.314-0.632-0.759-0.632-1.333c0-0.565,0.238-1.042,0.714-1.432c0.476-0.39,1.106-0.585,1.89-0.585
			c0.834,0,1.495,0.206,1.982,0.619c0.488,0.413,0.72,0.929,0.697,1.548l-0.014,0.041h-0.759c0-0.406-0.172-0.759-0.516-1.06
			c-0.344-0.301-0.808-0.451-1.391-0.451c-0.597,0-1.045,0.129-1.343,0.386c-0.298,0.257-0.448,0.56-0.448,0.906
			c0,0.342,0.129,0.624,0.386,0.848c0.257,0.223,0.771,0.419,1.541,0.588c0.879,0.196,1.538,0.464,1.976,0.803
			c0.438,0.339,0.656,0.801,0.656,1.384c0,0.615-0.25,1.113-0.749,1.494c-0.499,0.38-1.159,0.571-1.979,0.571
			c-0.898,0-1.603-0.214-2.116-0.643c-0.513-0.428-0.755-0.939-0.728-1.531l0.014-0.041h0.752c0.032,0.533,0.249,0.92,0.653,1.162
			c0.403,0.242,0.878,0.362,1.425,0.362c0.592,0,1.06-0.13,1.401-0.39c0.342-0.26,0.513-0.574,0.513-0.943
			C133.858,88.36,133.716,88.056,133.431,87.797z"/>
	</g>
	<g id="T03" opacity="0">
		<polygon id="AREA_3_" points="258.017,55.501 168.377,55.501 168.377,97.501 200.944,97.501 200.944,97.501 212.517,109.677 
			224.09,97.501 224.09,97.501 258.017,97.501 		"/>
		<text transform="matrix(1 0 0 1 176.756 72.7716)" fill="#FFFFFF" font-family="'PlayfairDisplay-Bold'" font-size="12">Cameroon</text>
		<text transform="matrix(1.047 0 0 1 174.3342 90.5856)" fill="#FFFFFF" font-family="'Roboto-Light'" font-size="10">$0.01</text>
		<text transform="matrix(1.047 0 0 1 223.9777 90.5856)" fill="#FFFFFF" font-family="'Roboto-Light'" font-size="10">  NA</text>
		<path fill="#FFFFFF" d="M209.114,89.601h0.041l0.26-0.868l2.01-5.544h0.848l-2.81,7.396h-0.656l-2.816-7.396h0.848l2.037,5.544
			L209.114,89.601z"/>
		<path fill="#FFFFFF" d="M217.621,87.797c-0.285-0.26-0.799-0.472-1.542-0.636c-0.884-0.191-1.537-0.444-1.958-0.759
			c-0.421-0.314-0.632-0.759-0.632-1.333c0-0.565,0.238-1.042,0.714-1.432c0.476-0.39,1.106-0.585,1.89-0.585
			c0.834,0,1.495,0.206,1.982,0.619c0.488,0.413,0.72,0.929,0.697,1.548l-0.014,0.041H218c0-0.406-0.172-0.759-0.516-1.06
			c-0.344-0.301-0.808-0.451-1.391-0.451c-0.597,0-1.045,0.129-1.343,0.386c-0.298,0.257-0.448,0.56-0.448,0.906
			c0,0.342,0.129,0.624,0.386,0.848c0.257,0.223,0.771,0.419,1.541,0.588c0.879,0.196,1.538,0.464,1.976,0.803
			c0.438,0.339,0.656,0.801,0.656,1.384c0,0.615-0.25,1.113-0.749,1.494c-0.499,0.38-1.159,0.571-1.979,0.571
			c-0.898,0-1.603-0.214-2.116-0.643c-0.513-0.428-0.755-0.939-0.728-1.531l0.014-0.041h0.752c0.032,0.533,0.249,0.92,0.653,1.162
			c0.403,0.242,0.878,0.362,1.425,0.362c0.592,0,1.06-0.13,1.401-0.39c0.342-0.26,0.513-0.574,0.513-0.943
			C218.048,88.36,217.906,88.056,217.621,87.797z"/>
	</g>
	<g id="T04" opacity="0">
		<polygon id="AREA_4_" points="89.983,135.122 0.343,135.122 0.343,177.122 32.91,177.122 32.91,177.122 44.483,189.299 
			56.056,177.122 56.056,177.122 89.983,177.122 		"/>
		<text transform="matrix(1 0 0 1 8.7223 152.3931)" fill="#FFFFFF" font-family="'PlayfairDisplay-Bold'" font-size="12">Chad</text>
		<text transform="matrix(1.047 0 0 1 6.3004 170.2071)" fill="#FFFFFF" font-family="'Roboto-Light'" font-size="10">$0.02</text>
		<text transform="matrix(1.047 0 0 1 55.944 170.2071)" fill="#FFFFFF" font-family="'Roboto-Light'" font-size="10">  NA</text>
		<path fill="#FFFFFF" d="M41.08,169.223h0.041l0.26-0.868l2.01-5.544h0.848l-2.81,7.396h-0.656l-2.816-7.396h0.848l2.037,5.544
			L41.08,169.223z"/>
		<path fill="#FFFFFF" d="M49.587,167.418c-0.285-0.26-0.799-0.472-1.542-0.636c-0.884-0.191-1.537-0.444-1.958-0.759
			c-0.421-0.314-0.632-0.759-0.632-1.333c0-0.565,0.238-1.042,0.714-1.432c0.476-0.39,1.106-0.584,1.89-0.584
			c0.834,0,1.495,0.206,1.982,0.619c0.488,0.413,0.72,0.929,0.697,1.548l-0.014,0.041h-0.759c0-0.406-0.172-0.759-0.516-1.06
			c-0.344-0.301-0.808-0.451-1.391-0.451c-0.597,0-1.045,0.129-1.343,0.386c-0.298,0.257-0.448,0.559-0.448,0.906
			c0,0.342,0.129,0.624,0.386,0.848c0.257,0.223,0.771,0.419,1.542,0.588c0.879,0.196,1.538,0.464,1.976,0.803
			c0.438,0.339,0.656,0.801,0.656,1.384c0,0.615-0.25,1.113-0.749,1.494c-0.499,0.38-1.159,0.571-1.979,0.571
			c-0.898,0-1.603-0.214-2.116-0.643c-0.513-0.428-0.755-0.939-0.728-1.531l0.014-0.041h0.752c0.032,0.533,0.249,0.92,0.653,1.162
			c0.403,0.242,0.878,0.362,1.425,0.362c0.592,0,1.06-0.13,1.401-0.39c0.342-0.26,0.513-0.574,0.513-0.943
			C50.014,167.981,49.872,167.678,49.587,167.418z"/>
	</g>
	<g id="T05" opacity="0">
		<polygon id="AREA_5_" points="173.925,135.122 84.286,135.122 84.286,177.122 116.852,177.122 116.852,177.122 128.425,189.299 
			139.999,177.122 139.999,177.122 173.925,177.122 		"/>
		<text transform="matrix(1 0 0 1 92.6646 152.3931)" fill="#FFFFFF" font-family="'PlayfairDisplay-Bold'" font-size="12">Egypt</text>
		<text transform="matrix(1.047 0 0 1 90.2427 170.2071)" fill="#FFFFFF" font-family="'Roboto-Light'" font-size="10">  NA</text>
		<text transform="matrix(1.047 0 0 1 139.8862 170.2071)" fill="#FFFFFF" font-family="'Roboto-Light'" font-size="10">$0.04</text>
		<path fill="#FFFFFF" d="M125.022,169.223h0.041l0.26-0.868l2.01-5.544h0.848l-2.81,7.396h-0.656l-2.816-7.396h0.848l2.037,5.544
			L125.022,169.223z"/>
		<path fill="#FFFFFF" d="M133.529,167.418c-0.285-0.26-0.799-0.472-1.542-0.636c-0.884-0.191-1.537-0.444-1.958-0.759
			c-0.421-0.314-0.632-0.759-0.632-1.333c0-0.565,0.238-1.042,0.714-1.432c0.476-0.39,1.106-0.584,1.89-0.584
			c0.834,0,1.495,0.206,1.982,0.619c0.488,0.413,0.72,0.929,0.697,1.548l-0.014,0.041h-0.759c0-0.406-0.172-0.759-0.516-1.06
			c-0.344-0.301-0.808-0.451-1.391-0.451c-0.597,0-1.045,0.129-1.343,0.386c-0.298,0.257-0.448,0.559-0.448,0.906
			c0,0.342,0.129,0.624,0.386,0.848c0.257,0.223,0.771,0.419,1.541,0.588c0.879,0.196,1.538,0.464,1.976,0.803
			c0.438,0.339,0.656,0.801,0.656,1.384c0,0.615-0.25,1.113-0.749,1.494c-0.499,0.38-1.159,0.571-1.979,0.571
			c-0.898,0-1.603-0.214-2.116-0.643c-0.513-0.428-0.755-0.939-0.728-1.531l0.014-0.041h0.752c0.032,0.533,0.249,0.92,0.653,1.162
			c0.403,0.242,0.878,0.362,1.425,0.362c0.592,0,1.06-0.13,1.401-0.39c0.342-0.26,0.513-0.574,0.513-0.943
			C133.957,167.981,133.814,167.678,133.529,167.418z"/>
	</g>
	<g id="T06" opacity="0">
		<polygon id="AREA_6_" points="258.017,135.122 168.377,135.122 168.377,177.122 200.944,177.122 200.944,177.122 212.517,189.299 
			224.09,177.122 224.09,177.122 258.017,177.122 		"/>
		<text transform="matrix(1 0 0 1 176.756 152.3931)" fill="#FFFFFF" font-family="'PlayfairDisplay-Bold'" font-size="12">Ghana</text>
		<text transform="matrix(1.047 0 0 1 174.3342 170.2071)" fill="#FFFFFF" font-family="'Roboto-Light'" font-size="10">$0.00</text>
		<text transform="matrix(1.047 0 0 1 223.9777 170.2071)" fill="#FFFFFF" font-family="'Roboto-Light'" font-size="10">$0.01</text>
		<path fill="#FFFFFF" d="M209.114,169.223h0.041l0.26-0.868l2.01-5.544h0.848l-2.81,7.396h-0.656l-2.816-7.396h0.848l2.037,5.544
			L209.114,169.223z"/>
		<path fill="#FFFFFF" d="M217.621,167.418c-0.285-0.26-0.799-0.472-1.542-0.636c-0.884-0.191-1.537-0.444-1.958-0.759
			c-0.421-0.314-0.632-0.759-0.632-1.333c0-0.565,0.238-1.042,0.714-1.432c0.476-0.39,1.106-0.584,1.89-0.584
			c0.834,0,1.495,0.206,1.982,0.619c0.488,0.413,0.72,0.929,0.697,1.548l-0.014,0.041H218c0-0.406-0.172-0.759-0.516-1.06
			c-0.344-0.301-0.808-0.451-1.391-0.451c-0.597,0-1.045,0.129-1.343,0.386c-0.298,0.257-0.448,0.559-0.448,0.906
			c0,0.342,0.129,0.624,0.386,0.848c0.257,0.223,0.771,0.419,1.542,0.588c0.879,0.196,1.538,0.464,1.976,0.803
			c0.438,0.339,0.656,0.801,0.656,1.384c0,0.615-0.25,1.113-0.749,1.494c-0.499,0.38-1.159,0.571-1.979,0.571
			c-0.898,0-1.603-0.214-2.116-0.643c-0.513-0.428-0.755-0.939-0.728-1.531l0.014-0.041h0.752c0.032,0.533,0.249,0.92,0.653,1.162
			c0.403,0.242,0.878,0.362,1.425,0.362c0.592,0,1.06-0.13,1.401-0.39c0.342-0.26,0.513-0.574,0.513-0.943
			C218.048,167.981,217.906,167.678,217.621,167.418z"/>
	</g>
	<g id="T07" opacity="0">
		<polygon id="AREA_7_" points="89.64,212.995 0,212.995 0,254.995 32.567,254.995 32.567,254.995 44.14,267.172 55.713,254.995 
			55.713,254.995 89.64,254.995 		"/>
		<text transform="matrix(1 0 0 1 8.3792 230.2661)" fill="#FFFFFF" font-family="'PlayfairDisplay-Bold'" font-size="12">Kenya</text>
		<text transform="matrix(1.047 0 0 1 5.9573 248.0801)" fill="#FFFFFF" font-family="'Roboto-Light'" font-size="10">$0.02</text>
		<text transform="matrix(1.047 0 0 1 55.6008 248.0801)" fill="#FFFFFF" font-family="'Roboto-Light'" font-size="10">$0.01</text>
		<path fill="#FFFFFF" d="M40.737,247.096h0.041l0.26-0.868l2.01-5.544h0.848l-2.81,7.396h-0.656l-2.816-7.396h0.848l2.037,5.544
			L40.737,247.096z"/>
		<path fill="#FFFFFF" d="M49.244,245.291c-0.285-0.26-0.799-0.472-1.542-0.636c-0.884-0.191-1.537-0.444-1.958-0.759
			c-0.421-0.314-0.632-0.759-0.632-1.333c0-0.565,0.238-1.042,0.714-1.432c0.476-0.39,1.106-0.584,1.89-0.584
			c0.834,0,1.495,0.206,1.982,0.619c0.488,0.413,0.72,0.929,0.697,1.548l-0.014,0.041h-0.759c0-0.406-0.172-0.759-0.516-1.06
			c-0.344-0.301-0.808-0.451-1.391-0.451c-0.597,0-1.045,0.129-1.343,0.386c-0.298,0.257-0.448,0.559-0.448,0.906
			c0,0.342,0.129,0.624,0.386,0.848c0.257,0.223,0.771,0.419,1.542,0.588c0.879,0.196,1.538,0.464,1.976,0.803
			c0.438,0.339,0.656,0.801,0.656,1.384c0,0.615-0.25,1.113-0.749,1.494c-0.499,0.38-1.159,0.571-1.979,0.571
			c-0.898,0-1.603-0.214-2.116-0.643c-0.513-0.428-0.755-0.939-0.728-1.531l0.014-0.041h0.752c0.032,0.533,0.249,0.92,0.653,1.162
			c0.403,0.242,0.878,0.362,1.425,0.362c0.592,0,1.06-0.13,1.401-0.39c0.342-0.26,0.513-0.574,0.513-0.943
			C49.671,245.854,49.529,245.551,49.244,245.291z"/>
	</g>
	<g id="T08" opacity="0">
		<polygon id="AREA_8_" points="173.827,212.995 84.187,212.995 84.187,254.995 116.754,254.995 116.754,254.995 128.327,267.172 
			139.9,254.995 139.9,254.995 173.827,254.995 		"/>
		<text transform="matrix(1 0 0 1 92.5661 230.2661)" fill="#FFFFFF" font-family="'PlayfairDisplay-Bold'" font-size="12">Mauritius</text>
		<text transform="matrix(1.047 0 0 1 90.1443 248.0801)" fill="#FFFFFF" font-family="'Roboto-Light'" font-size="10">FREE</text>
		<text transform="matrix(1.047 0 0 1 139.7878 248.0801)" fill="#FFFFFF" font-family="'Roboto-Light'" font-size="10">  NA</text>
		<path fill="#FFFFFF" d="M124.924,247.096h0.041l0.26-0.868l2.01-5.544h0.848l-2.81,7.396h-0.656l-2.816-7.396h0.848l2.037,5.544
			L124.924,247.096z"/>
		<path fill="#FFFFFF" d="M133.431,245.291c-0.285-0.26-0.799-0.472-1.542-0.636c-0.884-0.191-1.537-0.444-1.958-0.759
			c-0.421-0.314-0.632-0.759-0.632-1.333c0-0.565,0.238-1.042,0.714-1.432c0.476-0.39,1.106-0.584,1.89-0.584
			c0.834,0,1.495,0.206,1.982,0.619c0.488,0.413,0.72,0.929,0.697,1.548l-0.014,0.041h-0.759c0-0.406-0.172-0.759-0.516-1.06
			c-0.344-0.301-0.808-0.451-1.391-0.451c-0.597,0-1.045,0.129-1.343,0.386c-0.298,0.257-0.448,0.559-0.448,0.906
			c0,0.342,0.129,0.624,0.386,0.848c0.257,0.223,0.771,0.419,1.541,0.588c0.879,0.196,1.538,0.464,1.976,0.803
			c0.438,0.339,0.656,0.801,0.656,1.384c0,0.615-0.25,1.113-0.749,1.494c-0.499,0.38-1.159,0.571-1.979,0.571
			c-0.898,0-1.603-0.214-2.116-0.643c-0.513-0.428-0.755-0.939-0.728-1.531l0.014-0.041h0.752c0.032,0.533,0.249,0.92,0.653,1.162
			c0.403,0.242,0.878,0.362,1.425,0.362c0.592,0,1.06-0.13,1.401-0.39c0.342-0.26,0.513-0.574,0.513-0.943
			C133.858,245.854,133.716,245.551,133.431,245.291z"/>
	</g>
	<g id="T09" opacity="0">
		<polygon id="AREA_9_" points="257.81,212.995 168.171,212.995 168.171,254.995 200.737,254.995 200.737,254.995 212.31,267.172 
			223.884,254.995 223.884,254.995 257.81,254.995 		"/>
		<text transform="matrix(1 0 0 1 176.5496 230.2661)" fill="#FFFFFF" font-family="'PlayfairDisplay-Bold'" font-size="12">Nigeria</text>
		<text transform="matrix(1.047 0 0 1 174.1277 248.0801)" fill="#FFFFFF" font-family="'Roboto-Light'" font-size="10">$0.01</text>
		<text transform="matrix(1.047 0 0 1 223.7712 248.0801)" fill="#FFFFFF" font-family="'Roboto-Light'" font-size="10">$0.02 </text>
		<path fill="#FFFFFF" d="M208.907,247.096h0.041l0.26-0.868l2.01-5.544h0.848l-2.81,7.396h-0.656l-2.816-7.396h0.848l2.037,5.544
			L208.907,247.096z"/>
		<path fill="#FFFFFF" d="M217.414,245.291c-0.285-0.26-0.799-0.472-1.542-0.636c-0.884-0.191-1.537-0.444-1.958-0.759
			c-0.421-0.314-0.632-0.759-0.632-1.333c0-0.565,0.238-1.042,0.714-1.432c0.476-0.39,1.106-0.584,1.89-0.584
			c0.834,0,1.495,0.206,1.982,0.619c0.488,0.413,0.72,0.929,0.697,1.548l-0.014,0.041h-0.759c0-0.406-0.172-0.759-0.516-1.06
			c-0.344-0.301-0.808-0.451-1.391-0.451c-0.597,0-1.045,0.129-1.343,0.386c-0.298,0.257-0.448,0.559-0.448,0.906
			c0,0.342,0.129,0.624,0.386,0.848c0.257,0.223,0.771,0.419,1.541,0.588c0.879,0.196,1.538,0.464,1.976,0.803
			c0.438,0.339,0.656,0.801,0.656,1.384c0,0.615-0.25,1.113-0.749,1.494c-0.499,0.38-1.159,0.571-1.979,0.571
			c-0.898,0-1.603-0.214-2.116-0.643c-0.513-0.428-0.755-0.939-0.728-1.531l0.014-0.041h0.752c0.032,0.533,0.249,0.92,0.653,1.162
			c0.403,0.242,0.878,0.362,1.425,0.362c0.592,0,1.06-0.13,1.401-0.39c0.342-0.26,0.513-0.574,0.513-0.943
			C217.842,245.854,217.699,245.551,217.414,245.291z"/>
	</g>
	<g id="T10" opacity="0">
		<polygon id="AREA_10_" points="89.844,291.172 0.204,291.172 0.204,333.172 32.771,333.172 32.771,333.172 44.344,345.349 
			55.917,333.172 55.917,333.172 89.844,333.172 		"/>
		<text transform="matrix(1 0 0 1 8.5833 308.4429)" fill="#FFFFFF" font-family="'PlayfairDisplay-Bold'" font-size="12">ST Príncipe</text>
		<text transform="matrix(1.047 0 0 1 6.1614 326.2569)" fill="#FFFFFF" font-family="'Roboto-Light'" font-size="10">$0.03</text>
		<text transform="matrix(1.047 0 0 1 55.8049 326.2569)" fill="#FFFFFF" font-family="'Roboto-Light'" font-size="10">$0.14</text>
		<path fill="#FFFFFF" d="M40.941,325.273h0.041l0.26-0.868l2.01-5.544h0.848l-2.81,7.396h-0.656l-2.816-7.396h0.848l2.037,5.544
			L40.941,325.273z"/>
		<path fill="#FFFFFF" d="M49.448,323.468c-0.285-0.26-0.799-0.472-1.542-0.636c-0.884-0.191-1.537-0.444-1.958-0.759
			c-0.421-0.314-0.632-0.759-0.632-1.333c0-0.565,0.238-1.042,0.714-1.432c0.476-0.39,1.106-0.584,1.89-0.584
			c0.834,0,1.495,0.206,1.982,0.619c0.488,0.413,0.72,0.929,0.697,1.548l-0.014,0.041h-0.759c0-0.406-0.172-0.759-0.516-1.06
			c-0.344-0.301-0.808-0.451-1.391-0.451c-0.597,0-1.045,0.129-1.343,0.386c-0.298,0.257-0.448,0.559-0.448,0.906
			c0,0.342,0.129,0.624,0.386,0.848c0.257,0.223,0.771,0.419,1.542,0.588c0.879,0.196,1.538,0.464,1.976,0.803
			c0.438,0.339,0.656,0.801,0.656,1.384c0,0.615-0.25,1.113-0.749,1.494c-0.499,0.38-1.159,0.571-1.979,0.571
			c-0.898,0-1.603-0.214-2.116-0.643c-0.513-0.428-0.755-0.939-0.728-1.531l0.014-0.041h0.752c0.032,0.533,0.249,0.92,0.653,1.162
			c0.403,0.242,0.878,0.362,1.425,0.362c0.592,0,1.06-0.13,1.401-0.39c0.342-0.26,0.513-0.574,0.513-0.943
			C49.875,324.031,49.733,323.728,49.448,323.468z"/>
	</g>
	<g id="T11" opacity="0">
		<polygon id="AREA_11_" points="173.827,291.172 84.187,291.172 84.187,333.172 116.754,333.172 116.754,333.172 128.327,345.349 
			139.9,333.172 139.9,333.172 173.827,333.172 		"/>
		<text transform="matrix(1 0 0 1 92.5662 308.4429)" fill="#FFFFFF" font-family="'PlayfairDisplay-Bold'" font-size="12">South Africa</text>
		<text transform="matrix(1.047 0 0 1 90.1443 326.2569)" fill="#FFFFFF" font-family="'Roboto-Light'" font-size="10"> NA</text>
		<text transform="matrix(1.047 0 0 1 139.7878 326.2569)" fill="#FFFFFF" font-family="'Roboto-Light'" font-size="10">$0.02</text>
		<path fill="#FFFFFF" d="M124.924,325.273h0.041l0.26-0.868l2.01-5.544h0.848l-2.81,7.396h-0.656l-2.816-7.396h0.848l2.037,5.544
			L124.924,325.273z"/>
		<path fill="#FFFFFF" d="M133.431,323.468c-0.285-0.26-0.799-0.472-1.542-0.636c-0.884-0.191-1.537-0.444-1.958-0.759
			c-0.421-0.314-0.632-0.759-0.632-1.333c0-0.565,0.238-1.042,0.714-1.432c0.476-0.39,1.106-0.584,1.89-0.584
			c0.834,0,1.495,0.206,1.982,0.619c0.488,0.413,0.72,0.929,0.697,1.548l-0.014,0.041h-0.759c0-0.406-0.172-0.759-0.516-1.06
			s-0.808-0.451-1.391-0.451c-0.597,0-1.045,0.129-1.343,0.386c-0.298,0.257-0.448,0.559-0.448,0.906
			c0,0.342,0.129,0.624,0.386,0.848c0.257,0.223,0.771,0.419,1.541,0.588c0.879,0.196,1.538,0.464,1.976,0.803
			c0.438,0.339,0.656,0.801,0.656,1.384c0,0.615-0.25,1.113-0.749,1.494c-0.499,0.38-1.159,0.571-1.979,0.571
			c-0.898,0-1.603-0.214-2.116-0.643c-0.513-0.428-0.755-0.939-0.728-1.531l0.014-0.041h0.752c0.032,0.533,0.249,0.92,0.653,1.162
			c0.403,0.242,0.878,0.362,1.425,0.362c0.592,0,1.06-0.13,1.401-0.39c0.342-0.26,0.513-0.574,0.513-0.943
			C133.858,324.031,133.716,323.728,133.431,323.468z"/>
	</g>
	<g id="T12" opacity="0">
		<polygon id="AREA_12_" points="257.902,291.172 168.262,291.172 168.262,333.172 200.828,333.172 200.828,333.172 
			212.402,345.349 223.975,333.172 223.975,333.172 257.902,333.172 		"/>
		<text transform="matrix(1 0 0 1 176.6409 308.4429)" fill="#FFFFFF" font-family="'PlayfairDisplay-Bold'" font-size="12">Sudan</text>
		<text transform="matrix(1.047 0 0 1 174.219 326.2569)" fill="#FFFFFF" font-family="'Roboto-Light'" font-size="10">$0.03</text>
		<text transform="matrix(1.047 0 0 1 223.8626 326.2569)" fill="#FFFFFF" font-family="'Roboto-Light'" font-size="10">$0.03</text>
		<path fill="#FFFFFF" d="M208.998,325.273h0.041l0.26-0.868l2.01-5.544h0.848l-2.81,7.396h-0.656l-2.816-7.396h0.848l2.037,5.544
			L208.998,325.273z"/>
		<path fill="#FFFFFF" d="M217.506,323.468c-0.285-0.26-0.799-0.472-1.542-0.636c-0.884-0.191-1.537-0.444-1.958-0.759
			c-0.421-0.314-0.632-0.759-0.632-1.333c0-0.565,0.238-1.042,0.714-1.432c0.476-0.39,1.106-0.584,1.89-0.584
			c0.834,0,1.495,0.206,1.982,0.619c0.488,0.413,0.72,0.929,0.697,1.548l-0.014,0.041h-0.759c0-0.406-0.172-0.759-0.516-1.06
			c-0.344-0.301-0.808-0.451-1.391-0.451c-0.597,0-1.045,0.129-1.343,0.386c-0.298,0.257-0.448,0.559-0.448,0.906
			c0,0.342,0.129,0.624,0.386,0.848c0.257,0.223,0.771,0.419,1.542,0.588c0.879,0.196,1.538,0.464,1.976,0.803
			c0.438,0.339,0.656,0.801,0.656,1.384c0,0.615-0.25,1.113-0.749,1.494c-0.499,0.38-1.159,0.571-1.979,0.571
			c-0.898,0-1.603-0.214-2.116-0.643c-0.513-0.428-0.755-0.939-0.728-1.531l0.014-0.041h0.752c0.032,0.533,0.249,0.92,0.653,1.162
			c0.403,0.242,0.878,0.362,1.425,0.362c0.592,0,1.06-0.13,1.401-0.39c0.342-0.26,0.513-0.574,0.513-0.943
			C217.933,324.031,217.79,323.728,217.506,323.468z"/>
	</g>
	<g id="T13" opacity="0">
		<polygon id="AREA_13_" points="89.844,368.968 0.204,368.968 0.204,410.968 32.771,410.968 32.771,410.968 44.344,423.145 
			55.917,410.968 55.917,410.968 89.844,410.968 		"/>
		<text transform="matrix(1 0 0 1 8.5833 386.2391)" fill="#FFFFFF" font-family="'PlayfairDisplay-Bold'" font-size="12">Tanzania</text>
		<text transform="matrix(1.047 0 0 1 6.1614 404.0531)" fill="#FFFFFF" font-family="'Roboto-Light'" font-size="10">$0.01</text>
		<text transform="matrix(1.047 0 0 1 55.8049 404.0531)" fill="#FFFFFF" font-family="'Roboto-Light'" font-size="10">$0.03</text>
		<path fill="#FFFFFF" d="M40.941,403.069h0.041l0.26-0.868l2.01-5.544h0.848l-2.81,7.396h-0.656l-2.816-7.396h0.848l2.037,5.544
			L40.941,403.069z"/>
		<path fill="#FFFFFF" d="M49.448,401.264c-0.285-0.26-0.799-0.472-1.542-0.636c-0.884-0.191-1.537-0.444-1.958-0.759
			c-0.421-0.314-0.632-0.759-0.632-1.333c0-0.565,0.238-1.042,0.714-1.432c0.476-0.39,1.106-0.585,1.89-0.585
			c0.834,0,1.495,0.206,1.982,0.619c0.488,0.413,0.72,0.929,0.697,1.548l-0.014,0.041h-0.759c0-0.406-0.172-0.759-0.516-1.06
			c-0.344-0.301-0.808-0.451-1.391-0.451c-0.597,0-1.045,0.129-1.343,0.386c-0.298,0.257-0.448,0.56-0.448,0.906
			c0,0.342,0.129,0.625,0.386,0.848c0.257,0.223,0.771,0.419,1.542,0.588c0.879,0.196,1.538,0.464,1.976,0.803
			c0.438,0.339,0.656,0.801,0.656,1.384c0,0.615-0.25,1.113-0.749,1.494c-0.499,0.38-1.159,0.571-1.979,0.571
			c-0.898,0-1.603-0.214-2.116-0.642c-0.513-0.428-0.755-0.939-0.728-1.531l0.014-0.041h0.752c0.032,0.533,0.249,0.92,0.653,1.162
			c0.403,0.242,0.878,0.362,1.425,0.362c0.592,0,1.06-0.13,1.401-0.39c0.342-0.26,0.513-0.574,0.513-0.943
			C49.875,401.827,49.733,401.524,49.448,401.264z"/>
	</g>
	<g id="T14" opacity="0">
		<polygon id="AREA_14_" points="173.925,368.968 84.286,368.968 84.286,410.968 116.852,410.968 116.852,410.968 128.425,423.145 
			139.999,410.968 139.999,410.968 173.925,410.968 		"/>
		<text transform="matrix(1 0 0 1 92.6646 386.2391)" fill="#FFFFFF" font-family="'PlayfairDisplay-Bold'" font-size="12">Tunisia</text>
		<text transform="matrix(1.047 0 0 1 90.2427 404.0531)" fill="#FFFFFF" font-family="'Roboto-Light'" font-size="10">FREE</text>
		<text transform="matrix(1.047 0 0 1 139.8862 404.0531)" fill="#FFFFFF" font-family="'Roboto-Light'" font-size="10">$0.03</text>
		<path fill="#FFFFFF" d="M125.022,403.069h0.041l0.26-0.868l2.01-5.544h0.848l-2.81,7.396h-0.656l-2.816-7.396h0.848l2.037,5.544
			L125.022,403.069z"/>
		<path fill="#FFFFFF" d="M133.529,401.264c-0.285-0.26-0.799-0.472-1.542-0.636c-0.884-0.191-1.537-0.444-1.958-0.759
			c-0.421-0.314-0.632-0.759-0.632-1.333c0-0.565,0.238-1.042,0.714-1.432c0.476-0.39,1.106-0.585,1.89-0.585
			c0.834,0,1.495,0.206,1.982,0.619c0.488,0.413,0.72,0.929,0.697,1.548l-0.014,0.041h-0.759c0-0.406-0.172-0.759-0.516-1.06
			s-0.808-0.451-1.391-0.451c-0.597,0-1.045,0.129-1.343,0.386c-0.298,0.257-0.448,0.56-0.448,0.906
			c0,0.342,0.129,0.625,0.386,0.848c0.257,0.223,0.771,0.419,1.541,0.588c0.879,0.196,1.538,0.464,1.976,0.803
			c0.438,0.339,0.656,0.801,0.656,1.384c0,0.615-0.25,1.113-0.749,1.494c-0.499,0.38-1.159,0.571-1.979,0.571
			c-0.898,0-1.603-0.214-2.116-0.642c-0.513-0.428-0.755-0.939-0.728-1.531l0.014-0.041h0.752c0.032,0.533,0.249,0.92,0.653,1.162
			c0.403,0.242,0.878,0.362,1.425,0.362c0.592,0,1.06-0.13,1.401-0.39c0.342-0.26,0.513-0.574,0.513-0.943
			C133.957,401.827,133.814,401.524,133.529,401.264z"/>
	</g>
	<g id="T15" opacity="0">
		<polygon id="AREA_15_" points="257.81,368.968 168.171,368.968 168.171,410.968 200.737,410.968 200.737,410.968 212.31,423.145 
			223.884,410.968 223.884,410.968 257.81,410.968 		"/>
		<text transform="matrix(1 0 0 1 176.5496 386.2391)" fill="#FFFFFF" font-family="'PlayfairDisplay-Bold'" font-size="12">Uganda</text>
		<text transform="matrix(1.047 0 0 1 174.1277 404.0531)" fill="#FFFFFF" font-family="'Roboto-Light'" font-size="10">FREE</text>
		<text transform="matrix(1.047 0 0 1 223.7712 404.0531)" fill="#FFFFFF" font-family="'Roboto-Light'" font-size="10">$0.04</text>
		<path fill="#FFFFFF" d="M208.907,403.069h0.041l0.26-0.868l2.01-5.544h0.848l-2.81,7.396h-0.656l-2.816-7.396h0.848l2.037,5.544
			L208.907,403.069z"/>
		<path fill="#FFFFFF" d="M217.414,401.264c-0.285-0.26-0.799-0.472-1.542-0.636c-0.884-0.191-1.537-0.444-1.958-0.759
			c-0.421-0.314-0.632-0.759-0.632-1.333c0-0.565,0.238-1.042,0.714-1.432c0.476-0.39,1.106-0.585,1.89-0.585
			c0.834,0,1.495,0.206,1.982,0.619c0.488,0.413,0.72,0.929,0.697,1.548l-0.014,0.041h-0.759c0-0.406-0.172-0.759-0.516-1.06
			s-0.808-0.451-1.391-0.451c-0.597,0-1.045,0.129-1.343,0.386c-0.298,0.257-0.448,0.56-0.448,0.906
			c0,0.342,0.129,0.625,0.386,0.848c0.257,0.223,0.771,0.419,1.541,0.588c0.879,0.196,1.538,0.464,1.976,0.803
			c0.438,0.339,0.656,0.801,0.656,1.384c0,0.615-0.25,1.113-0.749,1.494c-0.499,0.38-1.159,0.571-1.979,0.571
			c-0.898,0-1.603-0.214-2.116-0.642c-0.513-0.428-0.755-0.939-0.728-1.531l0.014-0.041h0.752c0.032,0.533,0.249,0.92,0.653,1.162
			c0.403,0.242,0.878,0.362,1.425,0.362c0.592,0,1.06-0.13,1.401-0.39c0.342-0.26,0.513-0.574,0.513-0.943
			C217.842,401.827,217.699,401.524,217.414,401.264z"/>
	</g>
</g>
<g id="GUIDE">
	<g id="KEY">
		<circle fill="none" stroke="#000000" stroke-miterlimit="10" cx="213.197" cy="44.501" r="10"/>
		<circle fill="none" stroke="#000000" stroke-miterlimit="10" cx="213.197" cy="34.501" r="20"/>
		<text transform="matrix(1 0 0 1 207.0798 11.8123)" font-family="'Roboto-Bold'" font-size="8">20$</text>
		<text transform="matrix(1 0 0 1 206.0798 31.6042)" font-family="'Roboto-Bold'" font-size="8">10$</text>
	</g>
	<circle fill="#790700" cx="23.032" cy="34.501" r="6.076"/>
	<circle fill="#D6D6D6" cx="87.11" cy="34.501" r="6.076"/>
	<text transform="matrix(1 0 0 1 32.9573 38.0077)" font-family="'Arial'" font-size="12">Public</text>
	<text transform="matrix(1 0 0 1 96.9465 38.0077)" font-family="'Arial'" font-size="12">Private</text>
	<g>
		<text transform="matrix(1.0075 0 0 1 190.2781 62.8339)" font-family="'Roboto-Bold'" font-size="8">Less than 5$</text>
	</g>
	<circle fill="none" stroke="#000000" stroke-miterlimit="10" cx="213.197" cy="49.501" r="5"/>
</g>
<g id="INTERACT">
	<g>
		<path fill="#191818" d="M98.759,502.04h-3.197c-0.468,0-0.848-0.38-0.848-0.848c0-0.469,0.38-0.848,0.848-0.848h3.197
			c0.468,0,0.848,0.38,0.848,0.848C99.608,501.66,99.228,502.04,98.759,502.04z"/>
		<path fill="#191818" d="M90.445,496.924c-0.468,0-0.848-0.38-0.848-0.848v-3.198c0-0.469,0.38-0.848,0.848-0.848
			c0.468,0,0.848,0.38,0.848,0.848v3.198C91.293,496.544,90.913,496.924,90.445,496.924z"/>
		<path fill="#191818" d="M85.328,502.04h-3.198c-0.469,0-0.848-0.38-0.848-0.848c0-0.469,0.38-0.848,0.848-0.848h3.198
			c0.469,0,0.848,0.38,0.848,0.848C86.177,501.66,85.797,502.04,85.328,502.04z"/>
		<path fill="#191818" d="M94.063,498.422c-0.217,0-0.434-0.083-0.6-0.249c-0.331-0.331-0.331-0.869,0-1.199l2.138-2.138
			c0.331-0.331,0.868-0.331,1.2,0c0.331,0.331,0.331,0.868,0,1.199l-2.138,2.138C94.497,498.339,94.28,498.422,94.063,498.422z"/>
		<path fill="#191818" d="M86.827,498.422c-0.217,0-0.434-0.083-0.6-0.249l-2.138-2.138c-0.331-0.331-0.331-0.868,0-1.199
			c0.331-0.331,0.868-0.331,1.2,0l2.138,2.138c0.331,0.331,0.331,0.868,0,1.199C87.261,498.339,87.044,498.422,86.827,498.422z"/>
		<path fill="#191818" d="M97.05,515.263h-1.697v-3.838c0-0.59-0.48-1.071-1.071-1.071c-0.59,0-1.07,0.48-1.07,1.071v0.639h-1.697
			v-0.639c0-1.526,1.241-2.767,2.767-2.767c1.526,0,2.767,1.241,2.767,2.767V515.263z"/>
		<path fill="#191818" d="M100.887,515.902h-1.696v-3.838c0-0.59-0.481-1.07-1.071-1.07c-0.59,0-1.07,0.48-1.07,1.07v3.198h-1.697
			v-3.198c0-1.525,1.241-2.767,2.767-2.767c1.526,0,2.767,1.241,2.767,2.767V515.902z"/>
		<path fill="#191818" d="M89.375,519.74h-1.697v-18.548c0-1.526,1.241-2.767,2.767-2.767c1.526,0,2.767,1.241,2.767,2.767v14.071
			h-1.697v-14.071c0-0.59-0.48-1.07-1.071-1.07c-0.59,0-1.07,0.48-1.07,1.07V519.74z"/>
		<path fill="#191818" d="M89.375,529.973h-1.697c0-0.541-0.707-1.495-1.456-2.504c-1.279-1.724-3.031-4.085-3.337-7.11
			c-0.078-0.771-0.106-1.917-0.084-3.406c0.026-1.687,1.18-3.173,2.809-3.615l2.8-0.759l0.444,1.638l-2.8,0.759
			c-0.902,0.244-1.542,1.068-1.556,2.003c-0.022,1.404,0.004,2.514,0.075,3.21c0.259,2.561,1.785,4.618,3.011,6.27
			C88.585,527.805,89.375,528.87,89.375,529.973z"/>
		<path fill="#191818" d="M102.806,529.973h-1.697c0-0.506,0.21-1.214,0.529-2.285c0.809-2.721,2.316-7.787,1.147-13.515
			c-0.247-1.212-0.652-1.244-0.893-1.263c-0.715-0.059-1.282,0.421-1.288,0.426l-1.13-1.265c0.111-0.099,1.125-0.967,2.549-0.853
			c1.275,0.099,2.091,0.979,2.424,2.615c1.253,6.143-0.332,11.474-1.183,14.337C103.039,528.929,102.806,529.713,102.806,529.973z"
			/>
	</g>
	<g>
		<path fill="#191818" d="M113.468,509.299h-1.609v-9.646h1.609V509.299z"/>
		<path fill="#191818" d="M116.241,502.13l0.094,1.034c0.234-0.367,0.527-0.652,0.885-0.858c0.355-0.205,0.756-0.308,1.201-0.308
			c0.746,0,1.328,0.227,1.746,0.679c0.418,0.453,0.627,1.158,0.627,2.117v4.505h-1.611v-4.492c0-0.538-0.111-0.922-0.334-1.149
			c-0.223-0.228-0.562-0.341-1.018-0.341c-0.312,0-0.594,0.069-0.84,0.209c-0.248,0.139-0.451,0.33-0.611,0.572v5.201h-1.609v-7.169
			H116.241z"/>
		<path fill="#191818" d="M123.792,500.388v1.742h1.285v1.193h-1.285v3.962c0,0.296,0.064,0.507,0.191,0.632
			c0.129,0.126,0.299,0.189,0.51,0.189c0.09,0,0.176-0.008,0.26-0.023c0.084-0.016,0.162-0.036,0.238-0.062l0.172,1.179
			c-0.137,0.075-0.301,0.134-0.49,0.176c-0.189,0.042-0.387,0.062-0.59,0.062c-0.592,0-1.055-0.173-1.391-0.52
			c-0.336-0.347-0.504-0.892-0.504-1.633v-3.962h-1.094v-1.193h1.094v-1.742H123.792z"/>
		<path fill="#191818" d="M128.904,509.438c-1.016,0-1.824-0.332-2.428-0.997c-0.604-0.664-0.904-1.518-0.904-2.56v-0.265
			c0-1.042,0.299-1.907,0.898-2.594c0.598-0.686,1.348-1.028,2.248-1.023c0.969,0,1.709,0.292,2.223,0.878
			c0.516,0.585,0.773,1.37,0.773,2.354v0.948h-4.473l-0.014,0.032c0.027,0.568,0.193,1.032,0.5,1.394
			c0.307,0.361,0.732,0.542,1.275,0.542c0.434,0,0.805-0.054,1.113-0.159c0.309-0.107,0.607-0.259,0.895-0.457l0.518,1.056
			c-0.27,0.239-0.627,0.441-1.074,0.605C130.009,509.355,129.491,509.438,128.904,509.438z M128.718,503.29
			c-0.396,0-0.723,0.157-0.98,0.474c-0.256,0.315-0.414,0.717-0.477,1.202l0.014,0.033h2.842v-0.166
			c0-0.454-0.115-0.825-0.348-1.112C129.536,503.434,129.187,503.29,128.718,503.29z"/>
		<path fill="#191818" d="M135.904,503.581l-0.688-0.026c-0.314,0-0.576,0.066-0.785,0.199c-0.211,0.132-0.373,0.32-0.488,0.562
			v4.982h-1.609v-7.169h1.471l0.105,1.041c0.182-0.367,0.414-0.654,0.699-0.861c0.285-0.208,0.613-0.312,0.984-0.312
			c0.098,0,0.188,0.008,0.271,0.023c0.084,0.016,0.16,0.035,0.232,0.057L135.904,503.581z"/>
		<path fill="#191818" d="M140.665,509.299c-0.057-0.181-0.105-0.357-0.143-0.53c-0.037-0.172-0.062-0.345-0.076-0.517
			c-0.221,0.336-0.51,0.617-0.871,0.845c-0.359,0.227-0.762,0.341-1.209,0.341c-0.746,0-1.318-0.191-1.719-0.576
			c-0.4-0.384-0.6-0.912-0.6-1.583c0-0.693,0.274-1.233,0.822-1.62c0.547-0.387,1.318-0.58,2.31-0.58h1.252v-0.629
			c0-0.375-0.109-0.669-0.33-0.881c-0.221-0.212-0.537-0.318-0.947-0.318c-0.367,0-0.658,0.088-0.875,0.265
			c-0.217,0.177-0.324,0.404-0.324,0.683h-1.551l-0.006-0.04c-0.031-0.564,0.221-1.066,0.758-1.504
			c0.537-0.436,1.236-0.655,2.098-0.655c0.834,0,1.508,0.212,2.02,0.636c0.514,0.424,0.77,1.033,0.77,1.828v3.188
			c0,0.296,0.02,0.579,0.059,0.851c0.041,0.272,0.104,0.538,0.193,0.799H140.665z M138.691,508.146c0.406,0,0.773-0.102,1.098-0.306
			c0.324-0.203,0.539-0.435,0.645-0.695v-1.06h-1.277c-0.469,0-0.836,0.115-1.1,0.348c-0.266,0.231-0.398,0.505-0.398,0.818
			c0,0.273,0.09,0.491,0.27,0.652C138.105,508.065,138.361,508.146,138.691,508.146z"/>
		<path fill="#191818" d="M146.017,508.146c0.393,0,0.725-0.115,0.994-0.347c0.268-0.23,0.402-0.52,0.402-0.866h1.459l0.014,0.04
			c0.021,0.671-0.252,1.25-0.818,1.735c-0.568,0.486-1.252,0.729-2.051,0.729c-1.057,0-1.865-0.34-2.428-1.02
			c-0.564-0.681-0.846-1.542-0.846-2.584v-0.232c0-1.037,0.281-1.897,0.846-2.58c0.563-0.683,1.371-1.023,2.428-1.023
			c0.861,0,1.56,0.25,2.096,0.752c0.537,0.501,0.797,1.139,0.779,1.911l-0.014,0.04h-1.465c0-0.394-0.129-0.727-0.387-1.001
			c-0.258-0.273-0.596-0.41-1.01-0.41c-0.605,0-1.033,0.219-1.285,0.658c-0.252,0.438-0.379,0.989-0.379,1.65v0.232
			c0,0.675,0.127,1.229,0.379,1.664C144.984,507.929,145.411,508.146,146.017,508.146z"/>
		<path fill="#191818" d="M151.499,500.388v1.742h1.285v1.193h-1.285v3.962c0,0.296,0.064,0.507,0.191,0.632
			c0.129,0.126,0.299,0.189,0.51,0.189c0.09,0,0.176-0.008,0.26-0.023c0.084-0.016,0.162-0.036,0.238-0.062l0.172,1.179
			c-0.137,0.075-0.301,0.134-0.49,0.176c-0.189,0.042-0.387,0.062-0.59,0.062c-0.592,0-1.055-0.173-1.391-0.52
			c-0.336-0.347-0.504-0.892-0.504-1.633v-3.962h-1.094v-1.193h1.094v-1.742H151.499z"/>
		<path fill="#191818" d="M155.253,500.375h-1.609v-1.411h1.609V500.375z M155.253,509.299h-1.609v-7.169h1.609V509.299z"/>
		<path fill="#191818" d="M158.866,506.874l0.119,0.583h0.041l0.125-0.583l1.426-4.744h1.662l-2.545,7.169h-1.397l-2.559-7.169
			h1.664L158.866,506.874z"/>
		<path fill="#191818" d="M165.556,509.438c-1.016,0-1.824-0.332-2.428-0.997c-0.604-0.664-0.904-1.518-0.904-2.56v-0.265
			c0-1.042,0.299-1.907,0.899-2.594c0.598-0.686,1.348-1.028,2.248-1.023c0.969,0,1.709,0.292,2.223,0.878
			c0.516,0.585,0.773,1.37,0.773,2.354v0.948h-4.473l-0.014,0.032c0.027,0.568,0.193,1.032,0.5,1.394
			c0.307,0.361,0.732,0.542,1.275,0.542c0.433,0,0.805-0.054,1.113-0.159c0.309-0.107,0.607-0.259,0.895-0.457l0.517,1.056
			c-0.27,0.239-0.627,0.441-1.074,0.605C166.661,509.355,166.144,509.438,165.556,509.438z M165.37,503.29
			c-0.397,0-0.723,0.157-0.981,0.474c-0.256,0.315-0.414,0.717-0.476,1.202l0.014,0.033h2.842v-0.166
			c0-0.454-0.115-0.825-0.348-1.112C166.189,503.434,165.839,503.29,165.37,503.29z"/>
		<path fill="#191818" d="M118.954,523.823c-0.256,0.367-0.678,0.699-1.262,0.998c-0.586,0.298-1.338,0.446-2.256,0.446
			c-1.162,0-2.119-0.367-2.869-1.103c-0.75-0.735-1.127-1.686-1.127-2.852v-2.014c0-1.166,0.355-2.117,1.064-2.853
			c0.709-0.735,1.623-1.103,2.746-1.103c1.135,0,2.018,0.279,2.646,0.838c0.629,0.559,0.951,1.286,0.965,2.183l-0.014,0.04h-1.523
			c-0.037-0.53-0.225-0.957-0.566-1.282c-0.344-0.324-0.84-0.486-1.488-0.486c-0.666,0-1.205,0.249-1.613,0.748
			c-0.408,0.498-0.613,1.132-0.613,1.899v2.025c0,0.776,0.223,1.415,0.666,1.916c0.443,0.501,1.02,0.752,1.727,0.752
			c0.504,0,0.912-0.059,1.225-0.176c0.314-0.116,0.541-0.254,0.684-0.413v-1.956h-1.916v-1.205h3.525V523.823z"/>
		<path fill="#191818" d="M123.616,519.411l-0.689-0.026c-0.314,0-0.576,0.066-0.785,0.199c-0.209,0.132-0.371,0.32-0.486,0.562
			v4.982h-1.611v-7.169h1.471l0.107,1.041c0.18-0.367,0.414-0.654,0.699-0.861c0.285-0.208,0.611-0.311,0.982-0.311
			c0.098,0,0.188,0.008,0.271,0.022c0.084,0.016,0.162,0.035,0.232,0.057L123.616,519.411z"/>
		<path fill="#191818" d="M128.376,525.129c-0.057-0.181-0.105-0.357-0.143-0.53c-0.037-0.172-0.062-0.345-0.076-0.517
			c-0.221,0.336-0.51,0.617-0.871,0.845c-0.359,0.228-0.762,0.341-1.209,0.341c-0.746,0-1.318-0.191-1.719-0.576
			c-0.4-0.384-0.6-0.912-0.6-1.583c0-0.693,0.273-1.233,0.822-1.62c0.547-0.387,1.318-0.58,2.311-0.58h1.252v-0.629
			c0-0.375-0.109-0.669-0.33-0.881c-0.221-0.212-0.537-0.318-0.947-0.318c-0.367,0-0.658,0.088-0.875,0.265
			s-0.324,0.404-0.324,0.683h-1.551l-0.006-0.04c-0.031-0.565,0.221-1.066,0.758-1.504c0.537-0.437,1.236-0.655,2.098-0.655
			c0.834,0,1.508,0.212,2.02,0.636c0.514,0.424,0.77,1.033,0.77,1.828v3.188c0,0.296,0.02,0.579,0.059,0.851
			c0.041,0.272,0.104,0.538,0.193,0.799H128.376z M126.402,523.977c0.406,0,0.773-0.102,1.098-0.306
			c0.324-0.203,0.539-0.435,0.645-0.695v-1.06h-1.277c-0.469,0-0.836,0.115-1.1,0.348c-0.266,0.231-0.398,0.505-0.398,0.818
			c0,0.273,0.09,0.491,0.27,0.652C125.816,523.896,126.072,523.977,126.402,523.977z"/>
		<path fill="#191818" d="M137.046,521.783c0,1.042-0.244,1.884-0.734,2.524c-0.49,0.641-1.174,0.96-2.049,0.96
			c-0.406,0-0.766-0.072-1.078-0.218c-0.314-0.146-0.584-0.36-0.809-0.643v3.478h-1.611v-9.925h1.359l0.158,0.901
			c0.23-0.336,0.508-0.592,0.832-0.769c0.324-0.177,0.701-0.265,1.129-0.265c0.885,0,1.572,0.35,2.065,1.05
			c0.492,0.7,0.738,1.622,0.738,2.766V521.783z M135.443,521.641c0-0.732-0.137-1.331-0.414-1.796
			c-0.275-0.466-0.688-0.698-1.234-0.698c-0.336,0-0.621,0.071-0.855,0.215c-0.234,0.144-0.422,0.343-0.562,0.599v3.235
			c0.141,0.252,0.328,0.444,0.562,0.579c0.234,0.135,0.523,0.202,0.867,0.202c0.549,0,0.959-0.202,1.231-0.606
			c0.271-0.404,0.406-0.935,0.406-1.592V521.641z"/>
		<path fill="#191818" d="M139.363,518.888c0.238-0.335,0.529-0.596,0.871-0.781c0.342-0.185,0.721-0.278,1.137-0.278
			c0.76,0,1.352,0.239,1.779,0.719c0.426,0.48,0.639,1.218,0.639,2.216v4.366h-1.609v-4.379c0-0.565-0.113-0.975-0.338-1.226
			c-0.227-0.252-0.564-0.378-1.014-0.378c-0.314,0-0.596,0.065-0.846,0.195s-0.455,0.31-0.619,0.54v5.247h-1.609v-10.335h1.609
			V518.888z"/>
		<path fill="#191818" d="M146.495,516.205h-1.609v-1.411h1.609V516.205z M146.495,525.129h-1.609v-7.169h1.609V525.129z"/>
		<path fill="#191818" d="M150.581,523.977c0.393,0,0.725-0.115,0.994-0.347c0.268-0.23,0.402-0.52,0.402-0.866h1.459l0.014,0.04
			c0.021,0.671-0.252,1.25-0.818,1.735c-0.568,0.486-1.252,0.728-2.051,0.728c-1.057,0-1.865-0.34-2.428-1.02
			c-0.565-0.681-0.846-1.542-0.846-2.584v-0.233c0-1.037,0.281-1.897,0.846-2.58c0.562-0.683,1.371-1.023,2.428-1.023
			c0.861,0,1.561,0.25,2.096,0.752c0.537,0.501,0.797,1.139,0.779,1.911l-0.014,0.04h-1.465c0-0.393-0.129-0.727-0.387-1.001
			c-0.258-0.273-0.596-0.41-1.01-0.41c-0.605,0-1.033,0.219-1.285,0.658c-0.252,0.438-0.379,0.989-0.379,1.65v0.231
			c0,0.675,0.127,1.229,0.379,1.664C149.548,523.759,149.976,523.977,150.581,523.977z"/>
	</g>
</g>
</svg>
