<?xml version="1.0" encoding="utf-8"?>
<!-- Generator: Adobe Illustrator 17.0.0, SVG Export Plug-In . SVG Version: 6.00 Build 0)  -->
<!DOCTYPE svg PUBLIC "-//W3C//DTD SVG 1.1//EN" "http://www.w3.org/Graphics/SVG/1.1/DTD/svg11.dtd">
<svg version="1.1" id="GRAPHIC" xmlns="http://www.w3.org/2000/svg" xmlns:xlink="http://www.w3.org/1999/xlink" x="0px" y="0px"
	 width="258.014px" height="477.375px" viewBox="0 0 258.014 477.375" enable-background="new 0 0 258.014 477.375"
	 xml:space="preserve">
    <style type="text/css">
       @font-face {
            font-family: 'Roboto-Light';
            font-weight: 100;
            src: url(https://fonts.googleapis.com/css?family=Roboto:300);
        }
        @font-face {
            font-family: 'Roboto-Bold';
            src: url(http://www.nacion.com/static/LNCNacionBeta/fonts/opensans/opensans_semibold.woff);    
            font-weight: 300;
        }
        @font-face {
            font-family: 'Open Sans Bold';
            src: url(http://www.nacion.com/static/LNCNacionBeta/fonts/opensans/opensans_extrabold.woff);    
            font-weight: 800;
        }
    </style>
<g id="INTERACT">
	<g>
		<path fill="#191818" d="M103.538,427.373h-3.198c-0.468,0-0.848-0.38-0.848-0.848c0-0.468,0.38-0.848,0.848-0.848h3.198
			c0.468,0,0.848,0.38,0.848,0.848C104.386,426.993,104.006,427.373,103.538,427.373z"/>
		<path fill="#191818" d="M95.223,422.257c-0.468,0-0.848-0.38-0.848-0.848v-3.198c0-0.469,0.38-0.848,0.848-0.848
			c0.468,0,0.848,0.38,0.848,0.848v3.198C96.072,421.877,95.692,422.257,95.223,422.257z"/>
		<path fill="#191818" d="M90.107,427.373h-3.198c-0.469,0-0.848-0.38-0.848-0.848c0-0.468,0.38-0.848,0.848-0.848h3.198
			c0.468,0,0.848,0.38,0.848,0.848C90.955,426.993,90.575,427.373,90.107,427.373z"/>
		<path fill="#191818" d="M98.841,423.755c-0.217,0-0.434-0.083-0.6-0.249c-0.331-0.331-0.331-0.869,0-1.199l2.138-2.138
			c0.331-0.331,0.868-0.331,1.2,0c0.331,0.331,0.331,0.868,0,1.199l-2.139,2.138C99.275,423.672,99.058,423.755,98.841,423.755z"/>
		<path fill="#191818" d="M91.605,423.755c-0.217,0-0.434-0.083-0.6-0.249l-2.138-2.138c-0.331-0.331-0.331-0.868,0-1.199
			c0.331-0.331,0.868-0.331,1.2,0l2.138,2.138c0.331,0.331,0.331,0.868,0,1.199C92.04,423.672,91.822,423.755,91.605,423.755z"/>
		<path fill="#191818" d="M101.828,440.596h-1.697v-3.838c0-0.59-0.48-1.071-1.071-1.071c-0.59,0-1.07,0.48-1.07,1.071v0.639h-1.696
			v-0.639c0-1.526,1.241-2.767,2.767-2.767c1.526,0,2.767,1.241,2.767,2.767V440.596z"/>
		<path fill="#191818" d="M105.665,441.235h-1.696v-3.838c0-0.59-0.481-1.07-1.071-1.07c-0.59,0-1.07,0.48-1.07,1.07v3.198h-1.697
			v-3.198c0-1.525,1.241-2.767,2.767-2.767c1.526,0,2.767,1.241,2.767,2.767V441.235z"/>
		<path fill="#191818" d="M94.153,445.073h-1.697v-18.548c0-1.525,1.241-2.767,2.767-2.767c1.526,0,2.767,1.241,2.767,2.767v14.071
			h-1.696v-14.071c0-0.59-0.48-1.07-1.071-1.07s-1.07,0.48-1.07,1.07V445.073z"/>
		<path fill="#191818" d="M94.153,455.306h-1.697c0-0.541-0.707-1.495-1.456-2.504c-1.279-1.724-3.031-4.085-3.337-7.11
			c-0.078-0.771-0.106-1.917-0.084-3.406c0.026-1.687,1.18-3.173,2.809-3.615l2.8-0.759l0.444,1.638l-2.8,0.759
			c-0.902,0.244-1.542,1.068-1.556,2.003c-0.022,1.404,0.005,2.514,0.075,3.21c0.259,2.561,1.785,4.618,3.011,6.27
			C93.363,453.138,94.153,454.203,94.153,455.306z"/>
		<path fill="#191818" d="M107.584,455.306h-1.697c0-0.506,0.21-1.214,0.529-2.285c0.809-2.721,2.316-7.787,1.147-13.515
			c-0.247-1.212-0.651-1.244-0.893-1.263c-0.715-0.059-1.282,0.421-1.288,0.426l-1.13-1.265c0.111-0.099,1.125-0.967,2.549-0.853
			c1.275,0.099,2.091,0.979,2.424,2.615c1.253,6.143-0.332,11.474-1.183,14.337C107.817,454.262,107.584,455.046,107.584,455.306z"
			/>
	</g>
	<g>
		<path fill="#191818" d="M118.246,434.632h-1.609v-9.647h1.609V434.632z"/>
		<path fill="#191818" d="M121.02,427.463l0.094,1.034c0.234-0.367,0.527-0.652,0.885-0.858c0.355-0.205,0.756-0.308,1.201-0.308
			c0.746,0,1.328,0.227,1.746,0.679c0.418,0.453,0.627,1.158,0.627,2.117v4.505h-1.611v-4.492c0-0.538-0.111-0.922-0.334-1.149
			c-0.223-0.228-0.562-0.341-1.018-0.341c-0.312,0-0.594,0.069-0.84,0.209c-0.248,0.139-0.451,0.33-0.611,0.572v5.201h-1.609v-7.169
			H121.02z"/>
		<path fill="#191818" d="M128.571,425.721v1.742h1.285v1.193h-1.285v3.962c0,0.296,0.064,0.507,0.191,0.632
			c0.129,0.126,0.299,0.189,0.51,0.189c0.09,0,0.176-0.008,0.26-0.023s0.162-0.036,0.238-0.062l0.172,1.179
			c-0.137,0.075-0.301,0.134-0.49,0.176c-0.189,0.042-0.387,0.062-0.59,0.062c-0.592,0-1.055-0.173-1.391-0.52
			c-0.336-0.347-0.504-0.892-0.504-1.633v-3.962h-1.094v-1.193h1.094v-1.742H128.571z"/>
		<path fill="#191818" d="M133.682,434.77c-1.016,0-1.824-0.332-2.428-0.997c-0.604-0.664-0.904-1.518-0.904-2.56v-0.265
			c0-1.042,0.299-1.907,0.898-2.594c0.598-0.686,1.348-1.028,2.248-1.023c0.969,0,1.709,0.292,2.223,0.878
			c0.516,0.585,0.773,1.37,0.773,2.354v0.948h-4.473l-0.014,0.032c0.027,0.568,0.193,1.032,0.5,1.394
			c0.307,0.361,0.732,0.542,1.275,0.542c0.434,0,0.805-0.054,1.113-0.159c0.309-0.107,0.607-0.259,0.895-0.457l0.518,1.056
			c-0.27,0.239-0.627,0.441-1.074,0.605C134.787,434.688,134.27,434.77,133.682,434.77z M133.496,428.623
			c-0.396,0-0.723,0.157-0.98,0.474c-0.256,0.315-0.414,0.717-0.477,1.202l0.014,0.033h2.842v-0.166
			c0-0.454-0.115-0.825-0.348-1.112C134.315,428.767,133.965,428.623,133.496,428.623z"/>
		<path fill="#191818" d="M140.682,428.914l-0.688-0.026c-0.314,0-0.576,0.066-0.785,0.199c-0.211,0.132-0.373,0.32-0.488,0.562
			v4.982h-1.609v-7.169h1.471l0.105,1.041c0.182-0.367,0.414-0.654,0.699-0.861c0.285-0.208,0.613-0.312,0.984-0.312
			c0.098,0,0.188,0.008,0.271,0.022c0.084,0.016,0.16,0.035,0.232,0.057L140.682,428.914z"/>
		<path fill="#191818" d="M145.444,434.632c-0.057-0.181-0.105-0.357-0.143-0.53c-0.037-0.172-0.062-0.345-0.076-0.517
			c-0.221,0.336-0.51,0.617-0.871,0.845c-0.359,0.228-0.762,0.341-1.209,0.341c-0.746,0-1.318-0.191-1.719-0.576
			c-0.4-0.384-0.6-0.912-0.6-1.583c0-0.693,0.274-1.233,0.822-1.62c0.547-0.387,1.318-0.58,2.311-0.58h1.252v-0.629
			c0-0.375-0.109-0.669-0.33-0.881c-0.221-0.212-0.537-0.318-0.947-0.318c-0.367,0-0.658,0.088-0.875,0.265
			c-0.217,0.177-0.324,0.404-0.324,0.683h-1.551l-0.006-0.04c-0.031-0.564,0.221-1.066,0.758-1.504
			c0.537-0.436,1.236-0.655,2.098-0.655c0.834,0,1.508,0.212,2.02,0.636c0.514,0.424,0.77,1.033,0.77,1.828v3.188
			c0,0.296,0.02,0.579,0.059,0.851c0.041,0.273,0.104,0.538,0.193,0.799H145.444z M143.469,433.479c0.406,0,0.773-0.102,1.098-0.306
			c0.324-0.203,0.539-0.435,0.644-0.695v-1.06h-1.277c-0.469,0-0.836,0.115-1.1,0.348c-0.266,0.231-0.398,0.505-0.398,0.818
			c0,0.273,0.09,0.491,0.27,0.652C142.883,433.398,143.139,433.479,143.469,433.479z"/>
		<path fill="#191818" d="M150.795,433.479c0.393,0,0.725-0.115,0.994-0.347c0.268-0.23,0.402-0.52,0.402-0.866h1.459l0.014,0.04
			c0.021,0.671-0.252,1.25-0.818,1.735c-0.568,0.486-1.252,0.728-2.051,0.728c-1.057,0-1.865-0.34-2.428-1.02
			c-0.564-0.681-0.846-1.542-0.846-2.584v-0.232c0-1.037,0.281-1.898,0.846-2.58c0.563-0.683,1.371-1.023,2.428-1.023
			c0.861,0,1.561,0.25,2.096,0.752c0.537,0.501,0.797,1.139,0.779,1.911l-0.014,0.04h-1.465c0-0.394-0.129-0.727-0.387-1.001
			c-0.258-0.273-0.596-0.41-1.01-0.41c-0.605,0-1.033,0.219-1.285,0.658c-0.252,0.439-0.379,0.989-0.379,1.65v0.232
			c0,0.675,0.127,1.229,0.379,1.664C149.762,433.262,150.19,433.479,150.795,433.479z"/>
		<path fill="#191818" d="M156.278,425.721v1.742h1.285v1.193h-1.285v3.962c0,0.296,0.064,0.507,0.191,0.632
			c0.129,0.126,0.299,0.189,0.51,0.189c0.09,0,0.176-0.008,0.26-0.023c0.084-0.016,0.162-0.036,0.238-0.062l0.172,1.179
			c-0.137,0.075-0.301,0.134-0.49,0.176c-0.189,0.042-0.387,0.062-0.59,0.062c-0.592,0-1.055-0.173-1.391-0.52
			c-0.336-0.347-0.504-0.892-0.504-1.633v-3.962h-1.094v-1.193h1.094v-1.742H156.278z"/>
		<path fill="#191818" d="M160.032,425.708h-1.609v-1.411h1.609V425.708z M160.032,434.632h-1.609v-7.169h1.609V434.632z"/>
		<path fill="#191818" d="M163.645,432.207l0.119,0.583h0.041l0.125-0.583l1.426-4.744h1.662l-2.545,7.169h-1.397l-2.559-7.169
			h1.664L163.645,432.207z"/>
		<path fill="#191818" d="M170.334,434.77c-1.016,0-1.824-0.332-2.428-0.997c-0.604-0.664-0.904-1.518-0.904-2.56v-0.265
			c0-1.042,0.299-1.907,0.898-2.594c0.598-0.686,1.348-1.028,2.248-1.023c0.969,0,1.709,0.292,2.223,0.878
			c0.516,0.585,0.773,1.37,0.773,2.354v0.948h-4.473l-0.014,0.032c0.027,0.568,0.193,1.032,0.5,1.394
			c0.307,0.361,0.732,0.542,1.275,0.542c0.433,0,0.805-0.054,1.113-0.159c0.309-0.107,0.607-0.259,0.895-0.457l0.518,1.056
			c-0.27,0.239-0.627,0.441-1.074,0.605C171.44,434.688,170.922,434.77,170.334,434.77z M170.149,428.623
			c-0.396,0-0.723,0.157-0.98,0.474c-0.256,0.315-0.414,0.717-0.477,1.202l0.014,0.033h2.842v-0.166
			c0-0.454-0.115-0.825-0.348-1.112C170.967,428.767,170.617,428.623,170.149,428.623z"/>
		<path fill="#191818" d="M123.733,449.156c-0.256,0.367-0.678,0.699-1.262,0.998c-0.586,0.298-1.338,0.446-2.256,0.446
			c-1.162,0-2.119-0.367-2.869-1.103c-0.75-0.735-1.127-1.686-1.127-2.853v-2.014c0-1.166,0.355-2.117,1.065-2.853
			c0.709-0.735,1.623-1.103,2.746-1.103c1.135,0,2.018,0.279,2.646,0.838c0.629,0.559,0.951,1.286,0.965,2.183l-0.014,0.04h-1.523
			c-0.037-0.53-0.225-0.957-0.566-1.282c-0.344-0.324-0.84-0.486-1.488-0.486c-0.666,0-1.205,0.249-1.613,0.748
			c-0.408,0.498-0.613,1.132-0.613,1.899v2.025c0,0.776,0.223,1.415,0.666,1.916c0.443,0.501,1.02,0.752,1.727,0.752
			c0.504,0,0.912-0.059,1.225-0.176c0.314-0.116,0.541-0.254,0.684-0.413v-1.956h-1.916v-1.205h3.525V449.156z"/>
		<path fill="#191818" d="M128.395,444.744l-0.689-0.026c-0.314,0-0.576,0.066-0.785,0.199c-0.209,0.132-0.371,0.32-0.486,0.562
			v4.982h-1.611v-7.169h1.471l0.107,1.041c0.18-0.367,0.414-0.654,0.699-0.861c0.285-0.208,0.611-0.311,0.982-0.311
			c0.098,0,0.188,0.008,0.271,0.022c0.084,0.016,0.162,0.035,0.232,0.057L128.395,444.744z"/>
		<path fill="#191818" d="M133.155,450.462c-0.057-0.181-0.105-0.357-0.143-0.53c-0.037-0.172-0.062-0.345-0.076-0.517
			c-0.221,0.336-0.51,0.617-0.871,0.845c-0.359,0.228-0.762,0.341-1.209,0.341c-0.746,0-1.318-0.191-1.719-0.576
			c-0.4-0.384-0.6-0.912-0.6-1.583c0-0.693,0.273-1.233,0.822-1.62c0.547-0.387,1.318-0.58,2.311-0.58h1.252v-0.629
			c0-0.375-0.109-0.669-0.33-0.881c-0.221-0.212-0.537-0.318-0.947-0.318c-0.367,0-0.658,0.088-0.875,0.265
			c-0.217,0.177-0.324,0.404-0.324,0.683h-1.551l-0.006-0.04c-0.031-0.564,0.221-1.066,0.758-1.504
			c0.537-0.436,1.236-0.655,2.098-0.655c0.834,0,1.508,0.212,2.02,0.636c0.514,0.424,0.77,1.033,0.77,1.828v3.188
			c0,0.296,0.02,0.579,0.059,0.851c0.041,0.272,0.104,0.538,0.193,0.799H133.155z M131.18,449.31c0.406,0,0.773-0.102,1.098-0.306
			c0.324-0.203,0.539-0.435,0.645-0.695v-1.06h-1.277c-0.469,0-0.836,0.115-1.1,0.348c-0.266,0.231-0.399,0.505-0.399,0.818
			c0,0.273,0.09,0.491,0.27,0.652C130.594,449.228,130.85,449.31,131.18,449.31z"/>
		<path fill="#191818" d="M141.825,447.116c0,1.042-0.244,1.884-0.734,2.524c-0.49,0.641-1.174,0.96-2.049,0.96
			c-0.406,0-0.766-0.072-1.078-0.218c-0.315-0.146-0.584-0.36-0.809-0.643v3.478h-1.611v-9.925h1.359l0.158,0.901
			c0.23-0.336,0.508-0.592,0.832-0.769c0.324-0.177,0.701-0.265,1.129-0.265c0.885,0,1.572,0.35,2.064,1.05
			c0.492,0.7,0.738,1.622,0.738,2.766V447.116z M140.221,446.974c0-0.732-0.137-1.331-0.414-1.796
			c-0.275-0.466-0.688-0.698-1.234-0.698c-0.336,0-0.621,0.071-0.855,0.215c-0.234,0.144-0.422,0.343-0.562,0.599v3.235
			c0.141,0.252,0.328,0.444,0.562,0.579c0.234,0.135,0.523,0.202,0.867,0.202c0.549,0,0.959-0.202,1.23-0.605
			c0.271-0.404,0.406-0.935,0.406-1.592V446.974z"/>
		<path fill="#191818" d="M144.141,444.221c0.238-0.335,0.529-0.596,0.871-0.781c0.342-0.186,0.721-0.278,1.137-0.278
			c0.76,0,1.352,0.239,1.779,0.719c0.426,0.48,0.639,1.218,0.639,2.216v4.366h-1.609v-4.379c0-0.565-0.113-0.975-0.338-1.226
			c-0.227-0.252-0.564-0.378-1.014-0.378c-0.314,0-0.596,0.065-0.846,0.195c-0.25,0.13-0.455,0.31-0.619,0.54v5.247h-1.609v-10.335
			h1.609V444.221z"/>
		<path fill="#191818" d="M151.274,441.538h-1.609v-1.411h1.609V441.538z M151.274,450.462h-1.609v-7.169h1.609V450.462z"/>
		<path fill="#191818" d="M155.36,449.31c0.393,0,0.725-0.115,0.994-0.347c0.268-0.23,0.402-0.52,0.402-0.866h1.459l0.014,0.04
			c0.021,0.671-0.252,1.25-0.818,1.735c-0.568,0.486-1.252,0.728-2.051,0.728c-1.057,0-1.865-0.34-2.428-1.02
			c-0.565-0.681-0.846-1.542-0.846-2.584v-0.233c0-1.037,0.281-1.897,0.846-2.58c0.562-0.683,1.371-1.023,2.428-1.023
			c0.861,0,1.561,0.25,2.096,0.752c0.537,0.501,0.797,1.139,0.779,1.911l-0.014,0.04h-1.465c0-0.393-0.129-0.727-0.387-1.001
			c-0.258-0.273-0.596-0.41-1.01-0.41c-0.605,0-1.033,0.219-1.285,0.658c-0.252,0.439-0.379,0.989-0.379,1.65v0.231
			c0,0.675,0.127,1.229,0.379,1.664C154.326,449.092,154.754,449.31,155.36,449.31z"/>
	</g>
</g>
<g id="TOP">
	<g id="KEY">
		<circle fill="none" stroke="#000000" stroke-miterlimit="10" cx="213.197" cy="44.501" r="10"/>
		<circle fill="none" stroke="#000000" stroke-miterlimit="10" cx="213.197" cy="34.501" r="20"/>
		<text transform="matrix(1 0 0 1 207.0798 11.8123)" font-family="'Roboto-Bold'" font-size="8">20$</text>
		<text transform="matrix(1 0 0 1 206.0798 31.6042)" font-family="'Roboto-Bold'" font-size="8">10$</text>
	</g>
	<circle fill="#790700" cx="23.032" cy="34.501" r="6.076"/>
	<circle fill="#D6D6D6" cx="87.11" cy="34.501" r="6.076"/>
	<text transform="matrix(1 0 0 1 32.9573 38.0077)" font-family="'Arial'" font-size="12">Public</text>
	<text transform="matrix(1 0 0 1 96.9465 38.0077)" font-family="'Arial'" font-size="12">Private</text>
	<g>
		<text transform="matrix(1.0075 0 0 1 190.2781 62.8339)" font-family="'Roboto-Bold'" font-size="8">Less than 5$</text>
	</g>
	<circle fill="none" stroke="#000000" stroke-miterlimit="10" cx="213.197" cy="49.501" r="5"/>
</g>
<g id="STUFF" pointer-events="none">
	<text transform="matrix(1 0 0 1 102.0339 231.1725)" font-family="'Arial'" font-size="14">Ethiopia</text>
	<text transform="matrix(1 0 0 1 191.1432 231.1725)" font-family="'Arial'" font-size="14">Ghana</text>
	<text transform="matrix(1 0 0 1 192.1707 153.1069)" font-family="'Arial'" font-size="14">Congo</text>
	<text transform="matrix(1 0 0 1 17.2052 225.8381)" enable-background="new    "><tspan x="0" y="0" font-family="'Arial'" font-size="10">Democratic</tspan><tspan x="-15.334" y="10" font-family="'Arial'" font-size="10">Republic of Congo</tspan></text>
	<text transform="matrix(1 0 0 1 94.926 153.107)" fill="#790700" font-family="'Arial'" font-size="14">Cameroon</text>
	<text transform="matrix(1 0 0 1 2.8263 153.107)" fill="#790700" font-family="'Arial'" font-size="14">Burkina Faso</text>
	<text transform="matrix(1 0 0 1 30.2531 309.4964)" font-family="'Arial'" font-size="14">Mali</text>
	<text transform="matrix(0.8957 0 0 1 100.6528 309.8753)" font-family="'Arial'" font-size="14">Mauritius</text>
	<g>
		<text transform="matrix(1 0 0 1 188.8322 303.9037)"><tspan x="0" y="0" font-family="'Arial'" font-size="10">São Tomé</tspan><tspan x="-5.354" y="10" font-family="'Arial'" font-size="10">and Príncipe</tspan></text>
	</g>
	<text transform="matrix(1 0 0 1 23.2888 387.3124)" font-family="'Arial'" font-size="14">Sudan</text>
	<text transform="matrix(1 0 0 1 98.2614 387.3124)" font-family="'Arial'" font-size="14">Tanzania</text>
	<text transform="matrix(1 0 0 1 187.6932 387.3039)" font-family="'Arial'" font-size="14">Uganda</text>
	<path fill="#790700" d="M130.379,111.058c0,2.761-2.239,5-5.001,5c-2.761,0-4.999-2.239-4.999-5c0-2.762,2.238-5,4.999-5
		C128.14,106.058,130.379,108.297,130.379,111.058z"/>
	<path opacity="0.8" fill="#D6D6D6" enable-background="new    " d="M136.444,111.058c0,2.762-2.238,5-5.001,5
		c-2.761,0-4.999-2.238-4.999-5c0-2.762,2.238-5,4.999-5C134.206,106.058,136.444,108.297,136.444,111.058z"/>
	<path fill="#790700" d="M45.907,111.058c0,2.761-2.239,5-5.001,5c-2.761,0-4.999-2.239-4.999-5c0-2.762,2.238-5,4.999-5
		C43.669,106.058,45.907,108.297,45.907,111.058z"/>
	<path opacity="0.8" fill="#D6D6D6" enable-background="new    " d="M51.973,111.058c0,2.762-2.238,5-5.001,5
		c-2.761,0-4.999-2.238-4.999-5c0-2.762,2.238-5,4.999-5C49.735,106.058,51.973,108.297,51.973,111.058z"/>
	<path fill="#790700" d="M46.131,188.883c0,2.761-2.239,5-5.001,5c-2.761,0-4.999-2.239-4.999-5c0-2.762,2.238-5,4.999-5
		C43.892,183.883,46.131,186.122,46.131,188.883z"/>
	<path opacity="0.8" fill="#D6D6D6" enable-background="new    " d="M52.196,188.883c0,2.762-2.238,5-5.001,5
		c-2.761,0-4.999-2.238-4.999-5c0-2.762,2.238-5,4.999-5C49.958,183.883,52.196,186.122,52.196,188.883z"/>
	<path fill="#790700" d="M215.039,110.817c0,2.761-2.239,5-5.001,5c-2.761,0-4.999-2.239-4.999-5c0-2.762,2.238-5,4.999-5
		C212.8,105.817,215.039,108.056,215.039,110.817z"/>
	<path opacity="0.8" fill="#D6D6D6" enable-background="new    " d="M221.105,110.817c0,2.762-2.238,5-5.001,5
		c-2.761,0-4.999-2.238-4.999-5s2.238-5,4.999-5C218.866,105.817,221.105,108.056,221.105,110.817z"/>
	<path fill="#790700" d="M214.586,188.883c0,2.761-2.239,5-5.001,5c-2.761,0-4.999-2.239-4.999-5c0-2.762,2.238-5,4.999-5
		C212.347,183.883,214.586,186.122,214.586,188.883z"/>
	<path opacity="0.8" fill="#D6D6D6" enable-background="new    " d="M220.651,188.883c0,2.762-2.238,5-5.001,5
		c-2.761,0-4.999-2.238-4.999-5c0-2.762,2.238-5,4.999-5C218.413,183.883,220.651,186.122,220.651,188.883z"/>
	<path fill="#790700" d="M130.379,188.883c0,2.761-2.239,5-5.001,5c-2.761,0-4.999-2.239-4.999-5c0-2.762,2.238-5,4.999-5
		C128.14,183.883,130.379,186.122,130.379,188.883z"/>
	<path opacity="0.8" fill="#D6D6D6" enable-background="new    " d="M136.445,188.883c0,2.762-2.238,5-5.001,5
		c-2.761,0-4.999-2.238-4.999-5c0-2.762,2.238-5,4.999-5C134.206,183.883,136.445,186.122,136.445,188.883z"/>
	<path fill="#790700" d="M130.507,267.206c0,2.761-2.239,5-5.001,5c-2.761,0-4.999-2.239-4.999-5c0-2.762,2.238-5,4.999-5
		C128.268,262.206,130.507,264.445,130.507,267.206z"/>
	<path opacity="0.8" fill="#D6D6D6" enable-background="new    " d="M136.572,267.206c0,2.762-2.238,5-5.001,5
		c-2.761,0-4.999-2.238-4.999-5s2.238-5,4.999-5C134.334,262.206,136.572,264.445,136.572,267.206z"/>
	<path fill="#790700" d="M46.3,267.206c0,2.761-2.239,5-5.001,5c-2.761,0-4.999-2.239-4.999-5c0-2.762,2.238-5,4.999-5
		C44.061,262.206,46.3,264.445,46.3,267.206z"/>
	<path opacity="0.8" fill="#D6D6D6" enable-background="new    " d="M52.366,267.206c0,2.762-2.238,5-5.001,5
		c-2.761,0-4.999-2.238-4.999-5s2.238-5,4.999-5C50.127,262.206,52.366,264.445,52.366,267.206z"/>
	<path fill="#790700" d="M214.586,266.948c0,2.761-2.239,5-5.001,5c-2.761,0-4.999-2.239-4.999-5c0-2.762,2.238-5,4.999-5
		C212.347,261.948,214.586,264.187,214.586,266.948z"/>
	<path opacity="0.8" fill="#D6D6D6" enable-background="new    " d="M220.651,266.948c0,2.762-2.238,5-5.001,5
		c-2.761,0-4.999-2.238-4.999-5c0-2.762,2.238-5,4.999-5C218.413,261.948,220.651,264.187,220.651,266.948z"/>
	<path fill="#790700" d="M130.167,345.023c0,2.761-2.239,5-5.001,5c-2.761,0-4.999-2.239-4.999-5c0-2.762,2.238-5,4.999-5
		C127.928,340.023,130.167,342.262,130.167,345.023z"/>
	<path opacity="0.8" fill="#D6D6D6" enable-background="new    " d="M136.232,345.023c0,2.762-2.238,5-5.001,5
		c-2.761,0-4.999-2.238-4.999-5s2.238-5,4.999-5C133.994,340.023,136.232,342.262,136.232,345.023z"/>
	<path fill="#790700" d="M45.96,345.023c0,2.761-2.239,5-5.001,5c-2.761,0-4.999-2.239-4.999-5c0-2.762,2.238-5,4.999-5
		C43.721,340.023,45.96,342.262,45.96,345.023z"/>
	<path opacity="0.8" fill="#D6D6D6" enable-background="new    " d="M52.026,345.023c0,2.762-2.238,5-5.001,5
		c-2.761,0-4.999-2.238-4.999-5s2.238-5,4.999-5C49.787,340.023,52.026,342.262,52.026,345.023z"/>
	<path fill="#790700" d="M214.585,345.014c0,2.761-2.239,5-5.001,5c-2.761,0-4.999-2.239-4.999-5c0-2.762,2.238-5,4.999-5
		C212.346,340.014,214.585,342.253,214.585,345.014z"/>
	<path opacity="0.8" fill="#D6D6D6" enable-background="new    " d="M220.651,345.014c0,2.762-2.238,5-5.001,5
		c-2.761,0-4.999-2.238-4.999-5s2.238-5,4.999-5C218.412,340.014,220.651,342.253,220.651,345.014z"/>
</g>
<g id="AREA">
    <rect id="A12" x="177.996" y="320.492" fill="#FFFFFF" fill-opacity="0" width="69.988" height="48">
        <animate attributeName="opacity" dur="0.2" to="1" begin="A12.mouseover" fill="freeze" xlink:href="#T12"/> 
        <animate attributeName="opacity" dur="0.2" to="0" begin="A12.mouseout" fill="freeze" xlink:href="#T12"/>
    </rect>
    <rect id="A11" x="94.013" y="320.492" fill="#FFFFFF" fill-opacity="0" width="69.989" height="48">
        <animate attributeName="opacity" dur="0.2" to="1" begin="A11.mouseover" fill="freeze" xlink:href="#T11"/> 
        <animate attributeName="opacity" dur="0.2" to="0" begin="A11.mouseout" fill="freeze" xlink:href="#T11"/>
    </rect>
    <rect id="A10" x="10.03" y="320.492" fill="#FFFFFF" fill-opacity="0" width="69.989" height="48">
        <animate attributeName="opacity" dur="0.2" to="1" begin="A10.mouseover" fill="freeze" xlink:href="#T10"/> 
        <animate attributeName="opacity" dur="0.2" to="0" begin="A10.mouseout" fill="freeze" xlink:href="#T10"/>
    </rect>
    <rect id="A09" x="177.996" y="243.172" fill="#FFFFFF" fill-opacity="0" width="69.988" height="48">
        <animate attributeName="opacity" dur="0.2" to="1" begin="A09.mouseover" fill="freeze" xlink:href="#T09"/> 
        <animate attributeName="opacity" dur="0.2" to="0" begin="A09.mouseout" fill="freeze" xlink:href="#T09"/>
    </rect>
    <rect id="A08" x="94.013" y="243.172" fill="#FFFFFF" fill-opacity="0" width="69.989" height="48">
        <animate attributeName="opacity" dur="0.2" to="1" begin="A08.mouseover" fill="freeze" xlink:href="#T08"/> 
        <animate attributeName="opacity" dur="0.2" to="0" begin="A08.mouseout" fill="freeze" xlink:href="#T08"/>
    </rect>
    <rect id="A07" x="10.03" y="243.172" fill="#FFFFFF" fill-opacity="0" width="69.989" height="48">
        <animate attributeName="opacity" dur="0.2" to="1" begin="A07.mouseover" fill="freeze" xlink:href="#T07"/> 
        <animate attributeName="opacity" dur="0.2" to="0" begin="A07.mouseout" fill="freeze" xlink:href="#T07"/>
    </rect>
    <rect id="A06" x="177.996" y="163.744" fill="#FFFFFF" fill-opacity="0" width="69.988" height="48">
        <animate attributeName="opacity" dur="0.2" to="1" begin="A06.mouseover" fill="freeze" xlink:href="#T06"/> 
        <animate attributeName="opacity" dur="0.2" to="0" begin="A06.mouseout" fill="freeze" xlink:href="#T06"/>
    </rect>
    <rect id="A05" x="94.013" y="163.744" fill="#FFFFFF" fill-opacity="0" width="69.989" height="48">
        <animate attributeName="opacity" dur="0.2" to="1" begin="A05.mouseover" fill="freeze" xlink:href="#T05"/> 
        <animate attributeName="opacity" dur="0.2" to="0" begin="A05.mouseout" fill="freeze" xlink:href="#T05"/>
    </rect>
    <rect id="A04" x="10.03" y="163.744" fill="#FFFFFF" fill-opacity="0" width="69.989" height="48">
        <animate attributeName="opacity" dur="0.2" to="1" begin="A04.mouseover" fill="freeze" xlink:href="#T04"/> 
        <animate attributeName="opacity" dur="0.2" to="0" begin="A04.mouseout" fill="freeze" xlink:href="#T04"/>
    </rect>
    <rect id="A03" x="177.996" y="87.122" fill="#FFFFFF" fill-opacity="0" width="69.988" height="48">
        <animate attributeName="opacity" dur="0.2" to="1" begin="A03.mouseover" fill="freeze" xlink:href="#T03"/> 
        <animate attributeName="opacity" dur="0.2" to="0" begin="A03.mouseout" fill="freeze" xlink:href="#T03"/>
    </rect>
    <rect id="A02" x="94.013" y="87.122" fill="#FFFFFF" fill-opacity="0" width="69.989" height="48">
        <animate attributeName="opacity" dur="0.2" to="1" begin="A02.mouseover" fill="freeze" xlink:href="#T02"/> 
        <animate attributeName="opacity" dur="0.2" to="0" begin="A02.mouseout" fill="freeze" xlink:href="#T02"/>
    </rect>
    <rect id="A01" x="10.03" y="87.122" fill="#FFFFFF" fill-opacity="0" width="69.989" height="48">
        <animate attributeName="opacity" dur="0.2" to="1" begin="A01.mouseover" fill="freeze" xlink:href="#T01"/> 
        <animate attributeName="opacity" dur="0.2" to="0" begin="A01.mouseout" fill="freeze" xlink:href="#T01"/>
    </rect>
</g>
<g id="TOOLTIP">
	<g id="T01" opacity="0">
		<polygon id="AREA_1_" points="89.64,55.501 0,55.501 0,97.501 32.567,97.501 32.567,97.501 44.14,109.677 55.713,97.501 
			55.713,97.501 89.64,97.501 		"/>
		<text transform="matrix(1 0 0 1 8.3792 72.7716)" fill="#FFFFFF" font-family="'PlayfairDisplay-Bold'" font-size="12">Burkina Faso</text>
		<text transform="matrix(1 0 0 1 6.9573 90.5856)" fill="#FFFFFF" font-family="'Roboto-Light'" font-size="10">$0.01</text>
		<text transform="matrix(1.047 0 0 1 55.6008 90.5856)" fill="#FFFFFF" font-family="'Roboto-Light'" font-size="10">$0.03</text>
		<path fill="#FFFFFF" d="M40.737,89.601h0.041l0.26-0.868l2.01-5.544h0.848l-2.81,7.396h-0.656l-2.816-7.396h0.848l2.037,5.544
			L40.737,89.601z"/>
		<path fill="#FFFFFF" d="M49.244,87.797c-0.285-0.26-0.799-0.472-1.542-0.636c-0.884-0.191-1.537-0.444-1.958-0.759
			c-0.421-0.314-0.632-0.759-0.632-1.333c0-0.565,0.238-1.042,0.714-1.432c0.476-0.39,1.106-0.585,1.89-0.585
			c0.834,0,1.495,0.206,1.982,0.619c0.488,0.413,0.72,0.929,0.697,1.548l-0.014,0.041h-0.759c0-0.406-0.172-0.759-0.516-1.06
			C48.763,83.9,48.3,83.75,47.716,83.75c-0.597,0-1.045,0.129-1.343,0.386c-0.298,0.257-0.448,0.56-0.448,0.906
			c0,0.342,0.129,0.624,0.386,0.848c0.257,0.223,0.771,0.419,1.542,0.588c0.879,0.196,1.538,0.464,1.976,0.803
			c0.438,0.339,0.656,0.801,0.656,1.384c0,0.615-0.25,1.113-0.749,1.494c-0.499,0.38-1.159,0.571-1.979,0.571
			c-0.898,0-1.603-0.214-2.116-0.643c-0.513-0.428-0.755-0.939-0.728-1.531l0.014-0.041h0.752c0.032,0.533,0.249,0.92,0.653,1.162
			c0.403,0.242,0.878,0.362,1.425,0.362c0.592,0,1.06-0.13,1.401-0.39c0.342-0.26,0.513-0.574,0.513-0.943
			C49.671,88.36,49.529,88.056,49.244,87.797z"/>
	</g>
	<g id="T02" opacity="0">
		<polygon id="AREA_2_" points="173.827,55.501 84.187,55.501 84.187,97.501 116.754,97.501 116.754,97.501 128.327,109.677 
			139.9,97.501 139.9,97.501 173.827,97.501 		"/>
		<text transform="matrix(1 0 0 1 92.5661 72.7716)" fill="#FFFFFF" font-family="'PlayfairDisplay-Bold'" font-size="12">Cameroon</text>
		<text transform="matrix(1 0 0 1 91.1443 90.5856)" fill="#FFFFFF" font-family="'Roboto-Light'" font-size="10">NA</text>
		<text transform="matrix(1.047 0 0 1 139.7878 90.5856)" fill="#FFFFFF" font-family="'Roboto-Light'" font-size="10">$0.09</text>
		<path fill="#FFFFFF" d="M124.924,89.601h0.041l0.26-0.868l2.01-5.544h0.848l-2.81,7.396h-0.656l-2.816-7.396h0.848l2.037,5.544
			L124.924,89.601z"/>
		<path fill="#FFFFFF" d="M133.431,87.797c-0.285-0.26-0.799-0.472-1.542-0.636c-0.884-0.191-1.537-0.444-1.958-0.759
			c-0.421-0.314-0.632-0.759-0.632-1.333c0-0.565,0.238-1.042,0.714-1.432c0.476-0.39,1.106-0.585,1.89-0.585
			c0.834,0,1.495,0.206,1.982,0.619c0.488,0.413,0.72,0.929,0.697,1.548l-0.014,0.041h-0.759c0-0.406-0.172-0.759-0.516-1.06
			c-0.344-0.301-0.808-0.451-1.391-0.451c-0.597,0-1.045,0.129-1.343,0.386c-0.298,0.257-0.448,0.56-0.448,0.906
			c0,0.342,0.129,0.624,0.386,0.848c0.257,0.223,0.771,0.419,1.541,0.588c0.879,0.196,1.538,0.464,1.976,0.803
			c0.438,0.339,0.656,0.801,0.656,1.384c0,0.615-0.25,1.113-0.749,1.494c-0.499,0.38-1.159,0.571-1.979,0.571
			c-0.898,0-1.603-0.214-2.116-0.643c-0.513-0.428-0.755-0.939-0.728-1.531l0.014-0.041h0.752c0.032,0.533,0.249,0.92,0.653,1.162
			c0.403,0.242,0.878,0.362,1.425,0.362c0.592,0,1.06-0.13,1.401-0.39c0.342-0.26,0.513-0.574,0.513-0.943
			C133.858,88.36,133.716,88.056,133.431,87.797z"/>
	</g>
	<g id="T03" opacity="0">
		<polygon id="AREA_3_" points="259.405,55.501 169.766,55.501 169.766,97.501 202.332,97.501 202.332,97.501 213.905,109.677 
			225.478,97.501 225.478,97.501 259.405,97.501 		"/>
		<text transform="matrix(1 0 0 1 178.1444 72.7716)" fill="#FFFFFF" font-family="'PlayfairDisplay-Bold'" font-size="12">Congo</text>
		<text transform="matrix(1 0 0 1 176.7226 90.5856)" fill="#FFFFFF" font-family="'Roboto-Light'" font-size="10">$0.05</text>
		<text transform="matrix(1.047 0 0 1 225.3661 90.5856)" fill="#FFFFFF" font-family="'Roboto-Light'" font-size="10">$0.11</text>
		<path fill="#FFFFFF" d="M210.502,89.601h0.041l0.26-0.868l2.01-5.544h0.848l-2.81,7.396h-0.656l-2.816-7.396h0.848l2.037,5.544
			L210.502,89.601z"/>
		<path fill="#FFFFFF" d="M219.009,87.797c-0.285-0.26-0.799-0.472-1.542-0.636c-0.884-0.191-1.537-0.444-1.958-0.759
			c-0.421-0.314-0.632-0.759-0.632-1.333c0-0.565,0.238-1.042,0.714-1.432c0.476-0.39,1.106-0.585,1.89-0.585
			c0.834,0,1.495,0.206,1.982,0.619c0.488,0.413,0.72,0.929,0.697,1.548l-0.014,0.041h-0.759c0-0.406-0.172-0.759-0.516-1.06
			c-0.344-0.301-0.808-0.451-1.391-0.451c-0.597,0-1.045,0.129-1.343,0.386c-0.298,0.257-0.448,0.56-0.448,0.906
			c0,0.342,0.129,0.624,0.386,0.848c0.257,0.223,0.771,0.419,1.542,0.588c0.879,0.196,1.538,0.464,1.976,0.803
			c0.438,0.339,0.656,0.801,0.656,1.384c0,0.615-0.25,1.113-0.749,1.494c-0.499,0.38-1.159,0.571-1.979,0.571
			c-0.898,0-1.603-0.214-2.116-0.643c-0.513-0.428-0.755-0.939-0.728-1.531l0.014-0.041h0.752c0.032,0.533,0.249,0.92,0.653,1.162
			c0.403,0.242,0.878,0.362,1.425,0.362c0.592,0,1.06-0.13,1.401-0.39c0.342-0.26,0.513-0.574,0.513-0.943
			C219.437,88.36,219.294,88.056,219.009,87.797z"/>
	</g>
	<g id="T04" opacity="0">
		<polygon id="AREA_4_" points="89.64,135.122 0,135.122 0,177.122 32.567,177.122 32.567,177.122 44.14,189.299 55.713,177.122 
			55.713,177.122 89.64,177.122 		"/>
		<text transform="matrix(1 0 0 1 8.3792 152.3931)" fill="#FFFFFF" font-family="'PlayfairDisplay-Bold'" font-size="12">R. Congo</text>
		<text transform="matrix(1 0 0 1 6.9573 170.2071)" fill="#FFFFFF" font-family="'Roboto-Light'" font-size="10">$0.01</text>
		<text transform="matrix(1.047 0 0 1 55.6008 170.2071)" fill="#FFFFFF" font-family="'Roboto-Light'" font-size="10">$0.01</text>
		<path fill="#FFFFFF" d="M40.737,169.223h0.041l0.26-0.868l2.01-5.544h0.848l-2.81,7.396h-0.656l-2.816-7.396h0.848l2.037,5.544
			L40.737,169.223z"/>
		<path fill="#FFFFFF" d="M49.244,167.418c-0.285-0.26-0.799-0.472-1.542-0.636c-0.884-0.191-1.537-0.444-1.958-0.759
			c-0.421-0.314-0.632-0.759-0.632-1.333c0-0.565,0.238-1.042,0.714-1.432c0.476-0.39,1.106-0.584,1.89-0.584
			c0.834,0,1.495,0.206,1.982,0.619c0.488,0.413,0.72,0.929,0.697,1.548l-0.014,0.041h-0.759c0-0.406-0.172-0.759-0.516-1.06
			c-0.344-0.301-0.808-0.451-1.391-0.451c-0.597,0-1.045,0.129-1.343,0.386c-0.298,0.257-0.448,0.559-0.448,0.906
			c0,0.342,0.129,0.624,0.386,0.848c0.257,0.223,0.771,0.419,1.542,0.588c0.879,0.196,1.538,0.464,1.976,0.803
			c0.438,0.339,0.656,0.801,0.656,1.384c0,0.615-0.25,1.113-0.749,1.494c-0.499,0.38-1.159,0.571-1.979,0.571
			c-0.898,0-1.603-0.214-2.116-0.643c-0.513-0.428-0.755-0.939-0.728-1.531l0.014-0.041h0.752c0.032,0.533,0.249,0.92,0.653,1.162
			c0.403,0.242,0.878,0.362,1.425,0.362c0.592,0,1.06-0.13,1.401-0.39c0.342-0.26,0.513-0.574,0.513-0.943
			C49.671,167.981,49.529,167.678,49.244,167.418z"/>
	</g>
	<g id="T05" opacity="0">
		<polygon id="AREA_5_" points="175.199,135.122 85.559,135.122 85.559,177.122 118.125,177.122 118.125,177.122 129.699,189.299 
			141.272,177.122 141.272,177.122 175.199,177.122 		"/>
		<text transform="matrix(1 0 0 1 93.9378 152.3931)" fill="#FFFFFF" font-family="'PlayfairDisplay-Bold'" font-size="12">Ethiopia</text>
		<text transform="matrix(1 0 0 1 92.516 170.2071)" fill="#FFFFFF" font-family="'Roboto-Light'" font-size="10">$0.01</text>
		<text transform="matrix(1.047 0 0 1 141.1595 170.2071)" fill="#FFFFFF" font-family="'Roboto-Light'" font-size="10">$0.01</text>
		<path fill="#FFFFFF" d="M126.295,169.223h0.041l0.26-0.868l2.01-5.544h0.848l-2.81,7.396h-0.656l-2.816-7.396h0.848l2.037,5.544
			L126.295,169.223z"/>
		<path fill="#FFFFFF" d="M134.803,167.418c-0.285-0.26-0.799-0.472-1.542-0.636c-0.884-0.191-1.537-0.444-1.958-0.759
			c-0.421-0.314-0.632-0.759-0.632-1.333c0-0.565,0.238-1.042,0.714-1.432c0.476-0.39,1.106-0.584,1.89-0.584
			c0.834,0,1.495,0.206,1.982,0.619c0.488,0.413,0.72,0.929,0.697,1.548l-0.014,0.041h-0.759c0-0.406-0.172-0.759-0.516-1.06
			c-0.344-0.301-0.808-0.451-1.391-0.451c-0.597,0-1.045,0.129-1.343,0.386c-0.298,0.257-0.448,0.559-0.448,0.906
			c0,0.342,0.129,0.624,0.386,0.848c0.257,0.223,0.771,0.419,1.541,0.588c0.879,0.196,1.538,0.464,1.976,0.803
			c0.438,0.339,0.656,0.801,0.656,1.384c0,0.615-0.25,1.113-0.749,1.494c-0.499,0.38-1.159,0.571-1.979,0.571
			c-0.898,0-1.603-0.214-2.116-0.643c-0.513-0.428-0.755-0.939-0.728-1.531l0.014-0.041h0.752c0.032,0.533,0.249,0.92,0.653,1.162
			c0.403,0.242,0.878,0.362,1.425,0.362c0.592,0,1.06-0.13,1.401-0.39c0.342-0.26,0.513-0.574,0.513-0.943
			C135.23,167.981,135.087,167.678,134.803,167.418z"/>
	</g>
	<g id="T06" opacity="0">
		<polygon id="AREA_6_" points="257.338,135.122 167.698,135.122 167.698,177.122 200.264,177.122 200.264,177.122 211.838,189.299 
			223.411,177.122 223.411,177.122 257.338,177.122 		"/>
		<text transform="matrix(1 0 0 1 176.0769 152.3931)" fill="#FFFFFF" font-family="'PlayfairDisplay-Bold'" font-size="12">Ghana</text>
		<text transform="matrix(1 0 0 1 174.655 170.2071)" fill="#FFFFFF" font-family="'Roboto-Light'" font-size="10">$0.04</text>
		<text transform="matrix(1.047 0 0 1 223.2986 170.2071)" fill="#FFFFFF" font-family="'Roboto-Light'" font-size="10">$0.05</text>
		<path fill="#FFFFFF" d="M208.434,169.223h0.041l0.26-0.868l2.01-5.544h0.848l-2.81,7.396h-0.656l-2.816-7.396h0.848l2.037,5.544
			L208.434,169.223z"/>
		<path fill="#FFFFFF" d="M216.942,167.418c-0.285-0.26-0.799-0.472-1.542-0.636c-0.884-0.191-1.537-0.444-1.958-0.759
			c-0.421-0.314-0.632-0.759-0.632-1.333c0-0.565,0.238-1.042,0.714-1.432c0.476-0.39,1.106-0.584,1.89-0.584
			c0.834,0,1.495,0.206,1.982,0.619c0.488,0.413,0.72,0.929,0.697,1.548l-0.014,0.041h-0.759c0-0.406-0.172-0.759-0.516-1.06
			c-0.344-0.301-0.808-0.451-1.391-0.451c-0.597,0-1.045,0.129-1.343,0.386c-0.298,0.257-0.448,0.559-0.448,0.906
			c0,0.342,0.129,0.624,0.386,0.848c0.257,0.223,0.771,0.419,1.541,0.588c0.879,0.196,1.538,0.464,1.976,0.803
			c0.438,0.339,0.656,0.801,0.656,1.384c0,0.615-0.25,1.113-0.749,1.494c-0.499,0.38-1.159,0.571-1.979,0.571
			c-0.898,0-1.603-0.214-2.116-0.643c-0.513-0.428-0.755-0.939-0.728-1.531l0.014-0.041h0.752c0.032,0.533,0.249,0.92,0.653,1.162
			c0.403,0.242,0.878,0.362,1.425,0.362c0.592,0,1.06-0.13,1.401-0.39c0.342-0.26,0.513-0.574,0.513-0.943
			C217.369,167.981,217.226,167.678,216.942,167.418z"/>
	</g>
	<g id="T07" opacity="0">
		<polygon id="AREA_7_" points="89.64,211.599 0,211.599 0,253.599 32.567,253.599 32.567,253.599 44.14,265.776 55.713,253.599 
			55.713,253.599 89.64,253.599 		"/>
		<text transform="matrix(1 0 0 1 8.3792 228.8701)" fill="#FFFFFF" font-family="'PlayfairDisplay-Bold'" font-size="12">Mali</text>
		<text transform="matrix(1 0 0 1 6.9573 246.6841)" fill="#FFFFFF" font-family="'Roboto-Light'" font-size="10">$0.01</text>
		<text transform="matrix(1.047 0 0 1 55.6008 246.6841)" fill="#FFFFFF" font-family="'Roboto-Light'" font-size="10">$0.06</text>
		<path fill="#FFFFFF" d="M40.737,245.7h0.041l0.26-0.868l2.01-5.544h0.848l-2.81,7.396h-0.656l-2.816-7.396h0.848l2.037,5.544
			L40.737,245.7z"/>
		<path fill="#FFFFFF" d="M49.244,243.895c-0.285-0.26-0.799-0.472-1.542-0.636c-0.884-0.191-1.537-0.444-1.958-0.759
			c-0.421-0.314-0.632-0.759-0.632-1.333c0-0.565,0.238-1.042,0.714-1.432c0.476-0.39,1.106-0.584,1.89-0.584
			c0.834,0,1.495,0.206,1.982,0.619c0.488,0.413,0.72,0.929,0.697,1.548l-0.014,0.041h-0.759c0-0.406-0.172-0.759-0.516-1.06
			c-0.344-0.301-0.808-0.451-1.391-0.451c-0.597,0-1.045,0.129-1.343,0.386c-0.298,0.257-0.448,0.559-0.448,0.906
			c0,0.342,0.129,0.624,0.386,0.848c0.257,0.223,0.771,0.419,1.542,0.588c0.879,0.196,1.538,0.464,1.976,0.803
			c0.438,0.339,0.656,0.801,0.656,1.384c0,0.615-0.25,1.113-0.749,1.494c-0.499,0.38-1.159,0.571-1.979,0.571
			c-0.898,0-1.603-0.214-2.116-0.643c-0.513-0.428-0.755-0.939-0.728-1.531l0.014-0.041h0.752c0.032,0.533,0.249,0.92,0.653,1.162
			c0.403,0.242,0.878,0.362,1.425,0.362c0.592,0,1.06-0.13,1.401-0.39c0.342-0.26,0.513-0.574,0.513-0.943
			C49.671,244.458,49.529,244.155,49.244,243.895z"/>
	</g>
	<g id="T08" opacity="0">
		<polygon id="AREA_8_" points="173.827,211.599 84.187,211.599 84.187,253.599 116.754,253.599 116.754,253.599 128.327,265.776 
			139.9,253.599 139.9,253.599 173.827,253.599 		"/>
		<text transform="matrix(1 0 0 1 92.5661 228.8701)" fill="#FFFFFF" font-family="'PlayfairDisplay-Bold'" font-size="12">Mauritius</text>
		<text transform="matrix(1 0 0 1 91.1443 246.6841)" fill="#FFFFFF" font-family="'Roboto-Light'" font-size="10">FREE</text>
		<text transform="matrix(1.047 0 0 1 139.7878 246.6841)" fill="#FFFFFF" font-family="'Roboto-Light'" font-size="10">$0.04</text>
		<path fill="#FFFFFF" d="M124.924,245.7h0.041l0.26-0.868l2.01-5.544h0.848l-2.81,7.396h-0.656l-2.816-7.396h0.848l2.037,5.544
			L124.924,245.7z"/>
		<path fill="#FFFFFF" d="M133.431,243.895c-0.285-0.26-0.799-0.472-1.542-0.636c-0.884-0.191-1.537-0.444-1.958-0.759
			c-0.421-0.314-0.632-0.759-0.632-1.333c0-0.565,0.238-1.042,0.714-1.432c0.476-0.39,1.106-0.584,1.89-0.584
			c0.834,0,1.495,0.206,1.982,0.619c0.488,0.413,0.72,0.929,0.697,1.548l-0.014,0.041h-0.759c0-0.406-0.172-0.759-0.516-1.06
			c-0.344-0.301-0.808-0.451-1.391-0.451c-0.597,0-1.045,0.129-1.343,0.386c-0.298,0.257-0.448,0.559-0.448,0.906
			c0,0.342,0.129,0.624,0.386,0.848c0.257,0.223,0.771,0.419,1.541,0.588c0.879,0.196,1.538,0.464,1.976,0.803
			c0.438,0.339,0.656,0.801,0.656,1.384c0,0.615-0.25,1.113-0.749,1.494c-0.499,0.38-1.159,0.571-1.979,0.571
			c-0.898,0-1.603-0.214-2.116-0.643c-0.513-0.428-0.755-0.939-0.728-1.531l0.014-0.041h0.752c0.032,0.533,0.249,0.92,0.653,1.162
			c0.403,0.242,0.878,0.362,1.425,0.362c0.592,0,1.06-0.13,1.401-0.39c0.342-0.26,0.513-0.574,0.513-0.943
			C133.858,244.458,133.716,244.155,133.431,243.895z"/>
	</g>
	<g id="T09" opacity="0">
		<polygon id="AREA_9_" points="257.81,211.599 168.171,211.599 168.171,253.599 200.737,253.599 200.737,253.599 212.31,265.776 
			223.884,253.599 223.884,253.599 257.81,253.599 		"/>
		<text transform="matrix(1 0 0 1 176.5496 228.8701)" fill="#FFFFFF" font-family="'PlayfairDisplay-Bold'" font-size="12">ST Príncipe</text>
		<text transform="matrix(1 0 0 1 175.1277 246.6841)" fill="#FFFFFF" font-family="'Roboto-Light'" font-size="10">NA</text>
		<text transform="matrix(1.047 0 0 1 223.7712 246.6841)" fill="#FFFFFF" font-family="'Roboto-Light'" font-size="10">$0.41</text>
		<path fill="#FFFFFF" d="M208.907,245.7h0.041l0.26-0.868l2.01-5.544h0.848l-2.81,7.396h-0.656l-2.816-7.396h0.848l2.037,5.544
			L208.907,245.7z"/>
		<path fill="#FFFFFF" d="M217.414,243.895c-0.285-0.26-0.799-0.472-1.542-0.636c-0.884-0.191-1.537-0.444-1.958-0.759
			c-0.421-0.314-0.632-0.759-0.632-1.333c0-0.565,0.238-1.042,0.714-1.432c0.476-0.39,1.106-0.584,1.89-0.584
			c0.834,0,1.495,0.206,1.982,0.619c0.488,0.413,0.72,0.929,0.697,1.548l-0.014,0.041h-0.759c0-0.406-0.172-0.759-0.516-1.06
			c-0.344-0.301-0.808-0.451-1.391-0.451c-0.597,0-1.045,0.129-1.343,0.386c-0.298,0.257-0.448,0.559-0.448,0.906
			c0,0.342,0.129,0.624,0.386,0.848c0.257,0.223,0.771,0.419,1.541,0.588c0.879,0.196,1.538,0.464,1.976,0.803
			c0.438,0.339,0.656,0.801,0.656,1.384c0,0.615-0.25,1.113-0.749,1.494c-0.499,0.38-1.159,0.571-1.979,0.571
			c-0.898,0-1.603-0.214-2.116-0.643c-0.513-0.428-0.755-0.939-0.728-1.531l0.014-0.041h0.752c0.032,0.533,0.249,0.92,0.653,1.162
			c0.403,0.242,0.878,0.362,1.425,0.362c0.592,0,1.06-0.13,1.401-0.39c0.342-0.26,0.513-0.574,0.513-0.943
			C217.842,244.458,217.699,244.155,217.414,243.895z"/>
	</g>
	<g id="T10" opacity="0">
		<polygon id="AREA_10_" points="89.844,291.172 0.204,291.172 0.204,333.172 32.771,333.172 32.771,333.172 44.344,345.349 
			55.917,333.172 55.917,333.172 89.844,333.172 		"/>
		<text transform="matrix(1 0 0 1 8.5833 308.4429)" fill="#FFFFFF" font-family="'PlayfairDisplay-Bold'" font-size="12">Sudan</text>
		<text transform="matrix(1 0 0 1 7.1614 326.2569)" fill="#FFFFFF" font-family="'Roboto-Light'" font-size="10">$0.16</text>
		<text transform="matrix(1.047 0 0 1 55.8049 326.2569)" fill="#FFFFFF" font-family="'Roboto-Light'" font-size="10">$0.15</text>
		<path fill="#FFFFFF" d="M40.941,325.273h0.041l0.26-0.868l2.01-5.544h0.848l-2.81,7.396h-0.656l-2.816-7.396h0.848l2.037,5.544
			L40.941,325.273z"/>
		<path fill="#FFFFFF" d="M49.448,323.468c-0.285-0.26-0.799-0.472-1.542-0.636c-0.884-0.191-1.537-0.444-1.958-0.759
			c-0.421-0.314-0.632-0.759-0.632-1.333c0-0.565,0.238-1.042,0.714-1.432c0.476-0.39,1.106-0.584,1.89-0.584
			c0.834,0,1.495,0.206,1.982,0.619c0.488,0.413,0.72,0.929,0.697,1.548l-0.014,0.041h-0.759c0-0.406-0.172-0.759-0.516-1.06
			c-0.344-0.301-0.808-0.451-1.391-0.451c-0.597,0-1.045,0.129-1.343,0.386c-0.298,0.257-0.448,0.559-0.448,0.906
			c0,0.342,0.129,0.624,0.386,0.848c0.257,0.223,0.771,0.419,1.542,0.588c0.879,0.196,1.538,0.464,1.976,0.803
			c0.438,0.339,0.656,0.801,0.656,1.384c0,0.615-0.25,1.113-0.749,1.494c-0.499,0.38-1.159,0.571-1.979,0.571
			c-0.898,0-1.603-0.214-2.116-0.643c-0.513-0.428-0.755-0.939-0.728-1.531l0.014-0.041h0.752c0.032,0.533,0.249,0.92,0.653,1.162
			c0.403,0.242,0.878,0.362,1.425,0.362c0.592,0,1.06-0.13,1.401-0.39c0.342-0.26,0.513-0.574,0.513-0.943
			C49.875,324.031,49.733,323.728,49.448,323.468z"/>
	</g>
	<g id="T11" opacity="0">
		<polygon id="AREA_11_" points="174.273,291.172 84.634,291.172 84.634,333.172 117.2,333.172 117.2,333.172 128.773,345.349 
			140.347,333.172 140.347,333.172 174.273,333.172 		"/>
		<text transform="matrix(1 0 0 1 93.0127 308.4429)" fill="#FFFFFF" font-family="'PlayfairDisplay-Bold'" font-size="12">Tanzania</text>
		<text transform="matrix(1 0 0 1 91.5908 326.2569)" fill="#FFFFFF" font-family="'Roboto-Light'" font-size="10">$0.03</text>
		<text transform="matrix(1.047 0 0 1 140.2343 326.2569)" fill="#FFFFFF" font-family="'Roboto-Light'" font-size="10">$0.03</text>
		<path fill="#FFFFFF" d="M125.37,325.273h0.041l0.26-0.868l2.01-5.544h0.848l-2.81,7.396h-0.656l-2.816-7.396h0.848l2.037,5.544
			L125.37,325.273z"/>
		<path fill="#FFFFFF" d="M133.877,323.468c-0.285-0.26-0.799-0.472-1.542-0.636c-0.884-0.191-1.537-0.444-1.958-0.759
			c-0.421-0.314-0.632-0.759-0.632-1.333c0-0.565,0.238-1.042,0.714-1.432c0.476-0.39,1.106-0.584,1.89-0.584
			c0.834,0,1.495,0.206,1.982,0.619c0.488,0.413,0.72,0.929,0.697,1.548l-0.014,0.041h-0.759c0-0.406-0.172-0.759-0.516-1.06
			c-0.344-0.301-0.808-0.451-1.391-0.451c-0.597,0-1.045,0.129-1.343,0.386c-0.298,0.257-0.448,0.559-0.448,0.906
			c0,0.342,0.129,0.624,0.386,0.848c0.257,0.223,0.771,0.419,1.542,0.588c0.879,0.196,1.538,0.464,1.976,0.803
			c0.438,0.339,0.656,0.801,0.656,1.384c0,0.615-0.25,1.113-0.749,1.494c-0.499,0.38-1.159,0.571-1.979,0.571
			c-0.898,0-1.603-0.214-2.116-0.643c-0.513-0.428-0.755-0.939-0.728-1.531l0.014-0.041h0.752c0.032,0.533,0.249,0.92,0.653,1.162
			c0.403,0.242,0.878,0.362,1.425,0.362c0.592,0,1.06-0.13,1.401-0.39c0.342-0.26,0.513-0.574,0.513-0.943
			C134.305,324.031,134.162,323.728,133.877,323.468z"/>
	</g>
	<g id="T12" opacity="0">
		<polygon id="AREA_12_" points="257.81,291.172 168.171,291.172 168.171,333.172 200.737,333.172 200.737,333.172 212.31,345.349 
			223.884,333.172 223.884,333.172 257.81,333.172 		"/>
		<text transform="matrix(1 0 0 1 176.5496 308.4429)" fill="#FFFFFF" font-family="'PlayfairDisplay-Bold'" font-size="12">Uganda</text>
		<text transform="matrix(1 0 0 1 175.1277 326.2569)" fill="#FFFFFF" font-family="'Roboto-Light'" font-size="10">FREE</text>
		<text transform="matrix(1.047 0 0 1 223.7712 326.2569)" fill="#FFFFFF" font-family="'Roboto-Light'" font-size="10">$0.02</text>
		<path fill="#FFFFFF" d="M208.907,325.273h0.041l0.26-0.868l2.01-5.544h0.848l-2.81,7.396h-0.656l-2.816-7.396h0.848l2.037,5.544
			L208.907,325.273z"/>
		<path fill="#FFFFFF" d="M217.414,323.468c-0.285-0.26-0.799-0.472-1.542-0.636c-0.884-0.191-1.537-0.444-1.958-0.759
			c-0.421-0.314-0.632-0.759-0.632-1.333c0-0.565,0.238-1.042,0.714-1.432c0.476-0.39,1.106-0.584,1.89-0.584
			c0.834,0,1.495,0.206,1.982,0.619c0.488,0.413,0.72,0.929,0.697,1.548l-0.014,0.041h-0.759c0-0.406-0.172-0.759-0.516-1.06
			s-0.808-0.451-1.391-0.451c-0.597,0-1.045,0.129-1.343,0.386c-0.298,0.257-0.448,0.559-0.448,0.906
			c0,0.342,0.129,0.624,0.386,0.848c0.257,0.223,0.771,0.419,1.541,0.588c0.879,0.196,1.538,0.464,1.976,0.803
			c0.438,0.339,0.656,0.801,0.656,1.384c0,0.615-0.25,1.113-0.749,1.494c-0.499,0.38-1.159,0.571-1.979,0.571
			c-0.898,0-1.603-0.214-2.116-0.643c-0.513-0.428-0.755-0.939-0.728-1.531l0.014-0.041h0.752c0.032,0.533,0.249,0.92,0.653,1.162
			c0.403,0.242,0.878,0.362,1.425,0.362c0.592,0,1.06-0.13,1.401-0.39c0.342-0.26,0.513-0.574,0.513-0.943
			C217.842,324.031,217.699,323.728,217.414,323.468z"/>
	</g>
</g>
</svg>
