<?xml version="1.0" encoding="utf-8"?>
<!-- Generator: Adobe Illustrator 17.0.0, SVG Export Plug-In . SVG Version: 6.00 Build 0)  -->
<!DOCTYPE svg PUBLIC "-//W3C//DTD SVG 1.1//EN" "http://www.w3.org/Graphics/SVG/1.1/DTD/svg11.dtd">
<svg version="1.1" id="GRAPHIC" xmlns="http://www.w3.org/2000/svg" xmlns:xlink="http://www.w3.org/1999/xlink" x="0px" y="0px"
	 width="258.014px" height="688.708px" viewBox="0 0 258.014 688.708" enable-background="new 0 0 258.014 688.708"
	 xml:space="preserve">
<g id="AREA" display="none">
	<rect id="A20" x="92.434" y="558.149" display="inline" fill="#FFFFFF" fill-opacity="0" width="69.989" height="48"/>
	<rect id="A19" x="10.03" y="558.149" display="inline" fill="#FFFFFF" fill-opacity="0" width="69.989" height="48"/>
	<rect id="A18" x="177.996" y="489.61" display="inline" fill="#FFFFFF" fill-opacity="0" width="69.988" height="48"/>
	<rect id="A17" x="94.013" y="489.61" display="inline" fill="#FFFFFF" fill-opacity="0" width="69.989" height="48"/>
	<rect id="A16" x="10.03" y="489.61" display="inline" fill="#FFFFFF" fill-opacity="0" width="69.989" height="48"/>
	<rect id="A15" x="177.996" y="412.406" display="inline" fill="#FFFFFF" fill-opacity="0" width="69.988" height="48"/>
	<rect id="A14" x="94.013" y="412.406" display="inline" fill="#FFFFFF" fill-opacity="0" width="69.989" height="48"/>
	<rect id="A13" x="10.03" y="412.406" display="inline" fill="#FFFFFF" fill-opacity="0" width="69.989" height="48"/>
	<rect id="A12" x="177.996" y="331.492" display="inline" fill="#FFFFFF" fill-opacity="0" width="69.988" height="48"/>
	<rect id="A11" x="94.013" y="331.492" display="inline" fill="#FFFFFF" fill-opacity="0" width="69.989" height="48"/>
	<rect id="A10" x="10.03" y="331.492" display="inline" fill="#FFFFFF" fill-opacity="0" width="69.989" height="48"/>
	<rect id="A09" x="177.996" y="254.172" display="inline" fill="#FFFFFF" fill-opacity="0" width="69.988" height="48"/>
	<rect id="A08" x="94.013" y="254.172" display="inline" fill="#FFFFFF" fill-opacity="0" width="69.989" height="48"/>
	<rect id="A07" x="10.03" y="254.172" display="inline" fill="#FFFFFF" fill-opacity="0" width="69.989" height="48"/>
	<rect id="A06" x="177.996" y="174.744" display="inline" fill="#FFFFFF" fill-opacity="0" width="69.988" height="48"/>
	<rect id="A05" x="94.013" y="174.744" display="inline" fill="#FFFFFF" fill-opacity="0" width="69.989" height="48"/>
	<rect id="A04" x="10.03" y="174.744" display="inline" fill="#FFFFFF" fill-opacity="0" width="69.989" height="48"/>
	<rect id="A03" x="177.996" y="98.122" display="inline" fill="#FFFFFF" fill-opacity="0" width="69.988" height="48"/>
	<rect id="A02" x="94.013" y="98.122" display="inline" fill="#FFFFFF" fill-opacity="0" width="69.989" height="48"/>
	<rect id="A01" x="10.03" y="98.122" display="inline" fill="none" width="69.989" height="48"/>
</g>
<g id="TOOLTIP" display="none">
	<g id="T01" display="inline">
		<polygon id="AREA_1_" points="89.64,67.729 0,67.729 0,109.729 32.567,109.729 32.567,109.729 44.14,121.906 55.713,109.729 
			55.713,109.729 89.64,109.729 		"/>
		<text transform="matrix(1 0 0 1 8.3792 85)" fill="#FFFFFF" font-family="'PlayfairDisplay-Bold'" font-size="12">Burkina Faso</text>
		<text transform="matrix(1 0 0 1 6.9573 102.814)" fill="#FFFFFF" font-family="'Roboto-Light'" font-size="10">NA</text>
		<text transform="matrix(1.047 0 0 1 55.6011 102.814)" fill="#FFFFFF" font-family="'Roboto-Light'" font-size="10">$0.12</text>
		<path fill="#FFFFFF" d="M37.01,101.83h0.041l0.26-0.868l2.01-5.544h0.848l-2.81,7.396h-0.656l-2.816-7.396h0.848l2.037,5.544
			L37.01,101.83z"/>
		<path fill="#FFFFFF" d="M45.517,100.025c-0.285-0.26-0.799-0.472-1.542-0.636c-0.884-0.191-1.537-0.444-1.958-0.759
			c-0.421-0.314-0.632-0.759-0.632-1.333c0-0.565,0.238-1.043,0.714-1.432c0.476-0.39,1.106-0.585,1.89-0.585
			c0.834,0,1.495,0.206,1.982,0.619c0.488,0.413,0.72,0.929,0.697,1.548l-0.014,0.041h-0.759c0-0.406-0.172-0.759-0.516-1.06
			c-0.344-0.301-0.808-0.451-1.391-0.451c-0.597,0-1.045,0.129-1.343,0.386s-0.448,0.559-0.448,0.906
			c0,0.342,0.129,0.624,0.386,0.848c0.257,0.223,0.772,0.419,1.542,0.588c0.879,0.196,1.538,0.464,1.976,0.803
			c0.438,0.339,0.656,0.801,0.656,1.384c0,0.615-0.25,1.113-0.749,1.494c-0.499,0.38-1.159,0.571-1.979,0.571
			c-0.898,0-1.603-0.214-2.116-0.642s-0.755-0.939-0.728-1.531l0.014-0.041h0.752c0.032,0.533,0.25,0.92,0.653,1.162
			c0.403,0.242,0.878,0.362,1.425,0.362c0.592,0,1.06-0.13,1.401-0.39c0.342-0.26,0.513-0.574,0.513-0.943
			C45.945,100.588,45.802,100.285,45.517,100.025z"/>
	</g>
</g>
<g id="GUIDE">
	<g id="KEY">
		<circle fill="none" stroke="#000000" stroke-miterlimit="10" cx="213.197" cy="44.501" r="10"/>
		<circle fill="none" stroke="#000000" stroke-miterlimit="10" cx="213.197" cy="34.501" r="20"/>
		<g enable-background="new    ">
			<path d="M211.35,11.812h-3.883v-0.746l1.84-1.973c0.266-0.305,0.454-0.562,0.566-0.771c0.111-0.21,0.168-0.404,0.168-0.584
				c0-0.239-0.064-0.436-0.193-0.588s-0.312-0.229-0.549-0.229c-0.264,0-0.463,0.089-0.6,0.268s-0.205,0.416-0.205,0.713h-1.109
				l-0.008-0.023c-0.014-0.513,0.155-0.947,0.506-1.303c0.35-0.355,0.822-0.533,1.416-0.533c0.586,0,1.046,0.152,1.381,0.457
				c0.334,0.305,0.502,0.711,0.502,1.219c0,0.344-0.095,0.661-0.283,0.951c-0.189,0.29-0.501,0.671-0.936,1.143l-1.012,1.102
				l0.008,0.02h2.391V11.812z"/>
			<path d="M215.889,9.598c0,0.753-0.173,1.323-0.518,1.713c-0.346,0.39-0.812,0.584-1.4,0.584c-0.594,0-1.064-0.194-1.41-0.584
				c-0.347-0.39-0.52-0.96-0.52-1.713V8.344c0-0.75,0.172-1.321,0.518-1.713c0.345-0.392,0.812-0.588,1.404-0.588
				c0.588,0,1.057,0.196,1.404,0.588s0.521,0.963,0.521,1.713V9.598z M214.752,8.226c0-0.45-0.068-0.78-0.203-0.989
				c-0.136-0.21-0.331-0.314-0.586-0.314c-0.258,0-0.453,0.104-0.586,0.312s-0.199,0.538-0.199,0.991v1.479
				c0,0.458,0.066,0.791,0.201,0.999c0.134,0.208,0.331,0.312,0.592,0.312c0.255,0,0.449-0.104,0.582-0.312s0.199-0.541,0.199-0.999
				V8.226z"/>
			<path d="M219.342,10.316c0-0.211-0.061-0.383-0.182-0.516s-0.329-0.257-0.623-0.371c-0.578-0.211-1.008-0.446-1.287-0.705
				c-0.28-0.259-0.42-0.624-0.42-1.096c0-0.438,0.14-0.796,0.42-1.076c0.279-0.28,0.656-0.444,1.131-0.494v-0.84h0.621v0.848
				c0.458,0.067,0.818,0.259,1.08,0.574s0.39,0.724,0.385,1.227l-0.012,0.02h-1.113c0-0.308-0.063-0.544-0.189-0.711
				c-0.127-0.167-0.299-0.25-0.518-0.25c-0.225,0-0.391,0.064-0.5,0.193s-0.164,0.3-0.164,0.514c0,0.203,0.058,0.368,0.174,0.494
				c0.115,0.126,0.328,0.251,0.639,0.373c0.575,0.227,1.002,0.469,1.279,0.727s0.416,0.618,0.416,1.082
				c0,0.453-0.14,0.815-0.418,1.086c-0.279,0.271-0.658,0.431-1.137,0.48v0.773h-0.621v-0.77c-0.487-0.05-0.89-0.222-1.207-0.518
				c-0.318-0.296-0.472-0.729-0.461-1.303l0.008-0.02h1.113c0,0.349,0.08,0.599,0.24,0.75s0.363,0.227,0.611,0.227
				c0.236,0,0.418-0.063,0.545-0.189C219.278,10.7,219.342,10.53,219.342,10.316z"/>
		</g>
		<g enable-background="new    ">
			<path d="M209.045,31.604h-1.141v-4.68h-1.156V26.12l2.297-0.203V31.604z"/>
			<path d="M214.889,29.389c0,0.753-0.173,1.323-0.518,1.713c-0.346,0.39-0.812,0.584-1.4,0.584c-0.594,0-1.064-0.194-1.41-0.584
				c-0.347-0.39-0.52-0.96-0.52-1.713v-1.254c0-0.75,0.172-1.321,0.518-1.713c0.345-0.392,0.812-0.588,1.404-0.588
				c0.588,0,1.057,0.196,1.404,0.588s0.521,0.963,0.521,1.713V29.389z M213.752,28.017c0-0.45-0.068-0.78-0.203-0.989
				c-0.136-0.21-0.331-0.314-0.586-0.314c-0.258,0-0.453,0.104-0.586,0.312s-0.199,0.538-0.199,0.991v1.479
				c0,0.458,0.066,0.791,0.201,0.999c0.134,0.208,0.331,0.312,0.592,0.312c0.255,0,0.449-0.104,0.582-0.312s0.199-0.541,0.199-0.999
				V28.017z"/>
			<path d="M218.342,30.108c0-0.211-0.061-0.383-0.182-0.516s-0.329-0.257-0.623-0.371c-0.578-0.211-1.008-0.446-1.287-0.705
				c-0.28-0.259-0.42-0.624-0.42-1.096c0-0.438,0.14-0.796,0.42-1.076c0.279-0.28,0.656-0.444,1.131-0.494v-0.84h0.621v0.848
				c0.458,0.067,0.818,0.259,1.08,0.574s0.39,0.724,0.385,1.227l-0.012,0.02h-1.113c0-0.308-0.063-0.544-0.189-0.711
				c-0.127-0.167-0.299-0.25-0.518-0.25c-0.225,0-0.391,0.064-0.5,0.193s-0.164,0.3-0.164,0.514c0,0.203,0.058,0.368,0.174,0.494
				c0.115,0.126,0.328,0.251,0.639,0.373c0.575,0.227,1.002,0.469,1.279,0.727s0.416,0.618,0.416,1.082
				c0,0.453-0.14,0.815-0.418,1.086c-0.279,0.271-0.658,0.431-1.137,0.48v0.773h-0.621v-0.77c-0.487-0.05-0.89-0.222-1.207-0.518
				c-0.318-0.296-0.472-0.729-0.461-1.303l0.008-0.02h1.113c0,0.349,0.08,0.599,0.24,0.75s0.363,0.227,0.611,0.227
				c0.236,0,0.418-0.063,0.545-0.189C218.278,30.492,218.342,30.322,218.342,30.108z"/>
		</g>
	</g>
	<circle fill="#790700" cx="23.032" cy="34.501" r="6.076"/>
	<circle fill="#D6D6D6" cx="87.11" cy="34.501" r="6.076"/>
	<g enable-background="new    ">
		<path d="M33.883,38.008v-8.59h3.24c0.57,0,1.006,0.027,1.307,0.082c0.422,0.07,0.775,0.204,1.061,0.401s0.515,0.474,0.688,0.829
			s0.261,0.746,0.261,1.172c0,0.73-0.232,1.349-0.697,1.854s-1.305,0.759-2.52,0.759H35.02v3.492H33.883z M35.02,33.502h2.221
			c0.734,0,1.256-0.137,1.564-0.41s0.463-0.658,0.463-1.154c0-0.359-0.091-0.667-0.272-0.923s-0.421-0.425-0.718-0.507
			c-0.191-0.051-0.545-0.076-1.061-0.076H35.02V33.502z"/>
		<path d="M45.83,38.008v-0.914c-0.484,0.703-1.143,1.055-1.975,1.055c-0.367,0-0.71-0.07-1.028-0.211s-0.555-0.317-0.709-0.53
			s-0.263-0.474-0.325-0.782c-0.043-0.207-0.064-0.535-0.064-0.984v-3.855h1.055v3.451c0,0.551,0.021,0.922,0.064,1.113
			c0.066,0.277,0.207,0.495,0.422,0.653s0.48,0.237,0.797,0.237s0.613-0.081,0.891-0.243s0.474-0.383,0.589-0.662
			s0.173-0.685,0.173-1.216v-3.334h1.055v6.223H45.83z"/>
		<path d="M49.399,38.008H48.42v-8.59h1.055v3.064c0.445-0.559,1.014-0.838,1.705-0.838c0.383,0,0.745,0.077,1.087,0.231
			s0.623,0.371,0.844,0.65s0.394,0.616,0.519,1.011s0.188,0.816,0.188,1.266c0,1.066-0.264,1.891-0.791,2.473
			s-1.16,0.873-1.898,0.873c-0.734,0-1.311-0.307-1.729-0.92V38.008z M49.387,34.85c0,0.746,0.102,1.285,0.305,1.617
			c0.332,0.543,0.781,0.814,1.348,0.814c0.461,0,0.859-0.2,1.195-0.601s0.504-0.997,0.504-1.79c0-0.812-0.161-1.412-0.483-1.799
			s-0.712-0.58-1.169-0.58c-0.461,0-0.859,0.2-1.195,0.601S49.387,34.092,49.387,34.85z"/>
		<path d="M55.076,38.008v-8.59h1.055v8.59H55.076z"/>
		<path d="M57.772,30.631v-1.213h1.055v1.213H57.772z M57.772,38.008v-6.223h1.055v6.223H57.772z"/>
		<path d="M64.492,35.729l1.037,0.135c-0.113,0.715-0.403,1.274-0.87,1.679s-1.04,0.606-1.72,0.606
			c-0.852,0-1.536-0.278-2.054-0.835s-0.776-1.354-0.776-2.394c0-0.672,0.111-1.26,0.334-1.764s0.562-0.882,1.017-1.134
			s0.95-0.378,1.485-0.378c0.676,0,1.229,0.171,1.658,0.513s0.705,0.827,0.826,1.456l-1.025,0.158
			c-0.098-0.418-0.271-0.732-0.519-0.943s-0.548-0.316-0.899-0.316c-0.531,0-0.963,0.19-1.295,0.571s-0.498,0.983-0.498,1.808
			c0,0.836,0.16,1.443,0.48,1.822s0.738,0.568,1.254,0.568c0.414,0,0.76-0.127,1.037-0.381S64.418,36.256,64.492,35.729z"/>
	</g>
	<g enable-background="new    ">
		<path d="M97.872,38.008v-8.59h3.24c0.57,0,1.006,0.027,1.307,0.082c0.422,0.07,0.775,0.204,1.061,0.401s0.515,0.474,0.688,0.829
			s0.261,0.746,0.261,1.172c0,0.73-0.232,1.349-0.697,1.854s-1.305,0.759-2.52,0.759h-2.203v3.492H97.872z M99.009,33.502h2.221
			c0.734,0,1.256-0.137,1.564-0.41s0.463-0.658,0.463-1.154c0-0.359-0.091-0.667-0.272-0.923s-0.421-0.425-0.718-0.507
			c-0.191-0.051-0.545-0.076-1.061-0.076h-2.197V33.502z"/>
		<path d="M105.73,38.008v-6.223h0.949v0.943c0.242-0.441,0.466-0.732,0.671-0.873s0.431-0.211,0.677-0.211
			c0.355,0,0.717,0.113,1.084,0.34l-0.363,0.979c-0.258-0.152-0.516-0.229-0.773-0.229c-0.23,0-0.438,0.069-0.621,0.208
			s-0.314,0.331-0.393,0.577c-0.117,0.375-0.176,0.785-0.176,1.23v3.258H105.73z"/>
		<path d="M109.743,30.631v-1.213h1.055v1.213H109.743z M109.743,38.008v-6.223h1.055v6.223H109.743z"/>
		<path d="M114.132,38.008l-2.367-6.223h1.113l1.336,3.727c0.145,0.402,0.277,0.82,0.398,1.254c0.094-0.328,0.225-0.723,0.393-1.184
			l1.383-3.797h1.084l-2.355,6.223H114.132z"/>
		<path d="M122.464,37.24c-0.391,0.332-0.767,0.566-1.128,0.703s-0.749,0.205-1.163,0.205c-0.684,0-1.209-0.167-1.576-0.501
			s-0.551-0.761-0.551-1.28c0-0.305,0.069-0.583,0.208-0.835s0.32-0.454,0.545-0.606s0.478-0.268,0.759-0.346
			c0.207-0.055,0.52-0.107,0.938-0.158c0.852-0.102,1.479-0.223,1.881-0.363c0.004-0.145,0.006-0.236,0.006-0.275
			c0-0.43-0.1-0.732-0.299-0.908c-0.27-0.238-0.67-0.357-1.201-0.357c-0.496,0-0.862,0.087-1.099,0.261s-0.411,0.481-0.524,0.923
			l-1.031-0.141c0.094-0.441,0.248-0.798,0.463-1.069s0.525-0.48,0.932-0.627s0.877-0.22,1.412-0.22
			c0.531,0,0.963,0.062,1.295,0.188s0.576,0.282,0.732,0.472s0.266,0.429,0.328,0.718c0.035,0.18,0.053,0.504,0.053,0.973V35.4
			c0,0.98,0.022,1.601,0.067,1.86s0.134,0.509,0.267,0.747h-1.102C122.566,37.789,122.495,37.533,122.464,37.24z M122.376,34.885
			c-0.383,0.156-0.957,0.289-1.723,0.398c-0.434,0.062-0.74,0.133-0.92,0.211s-0.318,0.192-0.416,0.343s-0.146,0.317-0.146,0.501
			c0,0.281,0.106,0.516,0.319,0.703s0.524,0.281,0.935,0.281c0.406,0,0.768-0.089,1.084-0.267s0.549-0.421,0.697-0.729
			c0.113-0.238,0.17-0.59,0.17-1.055V34.885z"/>
		<path d="M127.38,37.064l0.152,0.932c-0.297,0.062-0.562,0.094-0.797,0.094c-0.383,0-0.68-0.061-0.891-0.182
			s-0.359-0.28-0.445-0.478s-0.129-0.612-0.129-1.245v-3.58h-0.773v-0.82h0.773v-1.541l1.049-0.633v2.174h1.061v0.82h-1.061v3.639
			c0,0.301,0.019,0.494,0.056,0.58s0.098,0.154,0.182,0.205s0.204,0.076,0.36,0.076C127.034,37.105,127.189,37.092,127.38,37.064z"
			/>
		<path d="M132.671,36.004l1.09,0.135c-0.172,0.637-0.49,1.131-0.955,1.482s-1.059,0.527-1.781,0.527
			c-0.91,0-1.632-0.28-2.165-0.841s-0.8-1.347-0.8-2.358c0-1.047,0.27-1.859,0.809-2.438s1.238-0.867,2.098-0.867
			c0.832,0,1.512,0.283,2.039,0.85s0.791,1.363,0.791,2.391c0,0.062-0.002,0.156-0.006,0.281h-4.641
			c0.039,0.684,0.232,1.207,0.58,1.57s0.781,0.545,1.301,0.545c0.387,0,0.717-0.102,0.99-0.305S132.511,36.449,132.671,36.004z
			 M129.208,34.299h3.475c-0.047-0.523-0.18-0.916-0.398-1.178c-0.336-0.406-0.771-0.609-1.307-0.609
			c-0.484,0-0.892,0.162-1.222,0.486S129.243,33.756,129.208,34.299z"/>
	</g>
	<g>
		<g enable-background="new    ">
			<path d="M191.963,61.955h2.55v0.879h-3.699v-5.688h1.149V61.955z"/>
			<path d="M196.964,62.916c-0.613,0-1.104-0.195-1.472-0.586s-0.551-0.887-0.551-1.488v-0.156c0-0.627,0.174-1.145,0.521-1.551
				s0.814-0.608,1.399-0.605c0.574,0,1.021,0.172,1.338,0.516s0.477,0.809,0.477,1.395v0.621h-2.543l-0.008,0.023
				c0.021,0.277,0.115,0.506,0.281,0.685c0.167,0.179,0.394,0.269,0.679,0.269c0.255,0,0.466-0.025,0.634-0.076
				s0.352-0.131,0.551-0.24l0.312,0.705c-0.174,0.141-0.4,0.258-0.681,0.351C197.62,62.87,197.308,62.916,196.964,62.916z
				 M196.862,59.408c-0.213,0-0.381,0.081-0.504,0.242s-0.199,0.374-0.229,0.637l0.012,0.02h1.409v-0.102
				c0-0.242-0.057-0.436-0.171-0.58S197.093,59.408,196.862,59.408z"/>
			<path d="M201.649,61.67c0-0.125-0.062-0.233-0.184-0.324s-0.348-0.172-0.679-0.242c-0.504-0.102-0.884-0.252-1.14-0.451
				s-0.384-0.471-0.384-0.814c0-0.365,0.154-0.674,0.463-0.928s0.721-0.381,1.237-0.381c0.544,0,0.976,0.126,1.297,0.379
				s0.476,0.572,0.463,0.957l-0.008,0.023h-1.11c0-0.169-0.054-0.307-0.163-0.414c-0.108-0.107-0.269-0.16-0.479-0.16
				c-0.186,0-0.332,0.045-0.438,0.135s-0.159,0.203-0.159,0.338c0,0.13,0.056,0.237,0.167,0.32s0.338,0.158,0.679,0.223
				c0.525,0.104,0.915,0.257,1.169,0.459c0.255,0.202,0.382,0.48,0.382,0.834c0,0.38-0.164,0.691-0.492,0.932
				c-0.327,0.241-0.761,0.361-1.298,0.361c-0.567,0-1.016-0.143-1.345-0.428s-0.485-0.61-0.47-0.975l0.008-0.023h1.051
				c0.008,0.227,0.082,0.391,0.224,0.492c0.143,0.102,0.327,0.152,0.556,0.152c0.212,0,0.374-0.042,0.485-0.125
				C201.593,61.926,201.649,61.813,201.649,61.67z"/>
			<path d="M205.804,61.67c0-0.125-0.061-0.233-0.183-0.324s-0.349-0.172-0.679-0.242c-0.504-0.102-0.884-0.252-1.14-0.451
				s-0.384-0.471-0.384-0.814c0-0.365,0.154-0.674,0.463-0.928c0.308-0.254,0.721-0.381,1.237-0.381
				c0.543,0,0.976,0.126,1.297,0.379s0.476,0.572,0.462,0.957l-0.008,0.023h-1.109c0-0.169-0.055-0.307-0.163-0.414
				c-0.109-0.107-0.269-0.16-0.479-0.16c-0.187,0-0.333,0.045-0.438,0.135c-0.106,0.09-0.16,0.203-0.16,0.338
				c0,0.13,0.056,0.237,0.168,0.32c0.111,0.083,0.338,0.158,0.679,0.223c0.524,0.104,0.914,0.257,1.169,0.459
				c0.254,0.202,0.382,0.48,0.382,0.834c0,0.38-0.164,0.691-0.492,0.932s-0.761,0.361-1.299,0.361c-0.566,0-1.015-0.143-1.344-0.428
				s-0.486-0.61-0.471-0.975l0.008-0.023h1.051c0.008,0.227,0.083,0.391,0.225,0.492s0.326,0.152,0.555,0.152
				c0.213,0,0.375-0.042,0.486-0.125S205.804,61.813,205.804,61.67z"/>
			<path d="M211.03,57.572v1.035h0.716v0.801h-0.716v2.152c0,0.164,0.034,0.281,0.103,0.352s0.16,0.105,0.275,0.105
				c0.061,0,0.112-0.003,0.155-0.01s0.094-0.018,0.151-0.033l0.099,0.824c-0.115,0.039-0.229,0.068-0.339,0.088
				c-0.109,0.02-0.229,0.029-0.357,0.029c-0.396,0-0.701-0.108-0.915-0.324s-0.321-0.559-0.321-1.027v-2.156h-0.621v-0.801h0.621
				v-1.035H211.03z"/>
			<path d="M213.601,59.143c0.134-0.193,0.298-0.343,0.491-0.451c0.194-0.108,0.41-0.162,0.646-0.162
				c0.443,0,0.792,0.146,1.045,0.439c0.254,0.293,0.38,0.746,0.38,1.357v2.508h-1.149v-2.521c0-0.329-0.058-0.562-0.175-0.699
				c-0.116-0.137-0.29-0.206-0.521-0.206c-0.157,0-0.297,0.028-0.417,0.084c-0.121,0.056-0.221,0.135-0.299,0.237v3.104h-1.149
				V56.74h1.149V59.143z"/>
			<path d="M219.528,62.834c-0.042-0.096-0.078-0.198-0.108-0.305s-0.052-0.216-0.065-0.328c-0.118,0.206-0.273,0.376-0.466,0.512
				c-0.193,0.135-0.423,0.203-0.69,0.203c-0.446,0-0.79-0.114-1.031-0.342c-0.242-0.228-0.362-0.539-0.362-0.932
				c0-0.414,0.16-0.735,0.482-0.963c0.321-0.228,0.79-0.342,1.406-0.342h0.642v-0.336c0-0.203-0.054-0.361-0.161-0.473
				s-0.267-0.168-0.477-0.168c-0.186,0-0.33,0.045-0.431,0.135s-0.151,0.214-0.151,0.373l-1.11-0.004L217,59.842
				c-0.018-0.357,0.138-0.665,0.469-0.924c0.33-0.259,0.765-0.389,1.303-0.389c0.509,0,0.922,0.128,1.239,0.385
				s0.477,0.622,0.477,1.096v1.746c0,0.198,0.015,0.384,0.045,0.559s0.078,0.348,0.144,0.52H219.528z M218.477,62.072
				c0.202,0,0.382-0.049,0.539-0.148s0.264-0.213,0.318-0.344v-0.598h-0.642c-0.244,0-0.429,0.061-0.555,0.182
				s-0.188,0.268-0.188,0.439c0,0.141,0.047,0.254,0.142,0.34C218.185,62.029,218.314,62.072,218.477,62.072z"/>
			<path d="M222.408,58.607l0.051,0.605c0.142-0.216,0.316-0.384,0.523-0.504s0.439-0.18,0.696-0.18
				c0.431,0,0.767,0.134,1.008,0.402s0.362,0.689,0.362,1.262v2.641h-1.153v-2.643c0-0.285-0.058-0.486-0.173-0.605
				c-0.116-0.119-0.29-0.178-0.523-0.178c-0.152,0-0.289,0.031-0.409,0.092c-0.121,0.062-0.223,0.148-0.304,0.261v3.073h-1.149
				v-4.227H222.408z"/>
			<path d="M228.008,60.314l0.331-3.168h3.195v0.914h-2.255l-0.157,1.312c0.104-0.078,0.232-0.143,0.382-0.193
				s0.314-0.078,0.496-0.08c0.551-0.008,0.978,0.158,1.28,0.496c0.304,0.338,0.455,0.81,0.455,1.414
				c0,0.547-0.166,1.001-0.498,1.363s-0.811,0.543-1.435,0.543c-0.527,0-0.979-0.143-1.354-0.43c-0.376-0.286-0.557-0.68-0.543-1.18
				l0.008-0.02l1.105-0.055c0,0.252,0.072,0.45,0.217,0.592c0.144,0.142,0.333,0.213,0.566,0.213c0.268,0,0.465-0.094,0.593-0.283
				c0.127-0.188,0.19-0.435,0.19-0.739c0-0.328-0.068-0.59-0.205-0.788c-0.136-0.198-0.338-0.296-0.605-0.296
				c-0.221,0-0.39,0.041-0.506,0.121c-0.117,0.081-0.2,0.19-0.25,0.328L228.008,60.314z"/>
			<path d="M235.202,61.338c0-0.211-0.062-0.383-0.183-0.516c-0.122-0.133-0.332-0.256-0.628-0.371
				c-0.583-0.211-1.015-0.446-1.297-0.705s-0.423-0.625-0.423-1.096c0-0.438,0.141-0.796,0.423-1.076s0.662-0.445,1.14-0.494v-0.84
				h0.625v0.848c0.462,0.068,0.825,0.259,1.089,0.574s0.393,0.724,0.388,1.227l-0.013,0.02h-1.121c0-0.307-0.063-0.544-0.191-0.711
				c-0.127-0.167-0.301-0.25-0.521-0.25c-0.226,0-0.394,0.064-0.503,0.193c-0.11,0.129-0.166,0.3-0.166,0.514
				c0,0.203,0.059,0.368,0.176,0.494c0.116,0.126,0.331,0.25,0.644,0.373c0.579,0.227,1.009,0.469,1.288,0.727
				c0.28,0.258,0.42,0.619,0.42,1.082c0,0.453-0.141,0.815-0.422,1.086c-0.28,0.271-0.662,0.431-1.145,0.48v0.773h-0.626V62.9
				c-0.49-0.049-0.896-0.222-1.216-0.518c-0.32-0.295-0.476-0.73-0.465-1.303l0.008-0.02h1.122c0,0.349,0.08,0.599,0.242,0.75
				c0.161,0.151,0.366,0.227,0.615,0.227c0.239,0,0.422-0.063,0.549-0.189C235.139,61.721,235.202,61.551,235.202,61.338z"/>
		</g>
	</g>
	<circle fill="none" stroke="#000000" stroke-miterlimit="10" cx="213.197" cy="49.501" r="5"/>
</g>
</svg>
