<?xml version="1.0" encoding="utf-8"?>
<!DOCTYPE svg PUBLIC "-//W3C//DTD SVG 1.1//EN" "http://www.w3.org/Graphics/SVG/1.1/DTD/svg11.dtd">
<svg version="1.1" id="GRAPHIC" xmlns="http://www.w3.org/2000/svg" xmlns:xlink="http://www.w3.org/1999/xlink" x="0px" y="0px"
	 width="258.014px" height="579.21px" viewBox="0 0 258.014 579.21" enable-background="new 0 0 258.014 579.21"
	 xml:space="preserve">
    <style type="text/css">
       @font-face {
            font-family: 'Roboto-Light';
            font-weight: 100;
            src: url(https://fonts.googleapis.com/css?family=Roboto:300);
        }
        @font-face {
            font-family: 'Roboto-Bold';
            src: url(http://www.nacion.com/static/LNCNacionBeta/fonts/opensans/opensans_semibold.woff);    
            font-weight: 300;
        }
        @font-face {
            font-family: 'Open Sans Bold';
            src: url(http://www.nacion.com/static/LNCNacionBeta/fonts/opensans/opensans_extrabold.woff);    
            font-weight: 800;
        }
    </style>
<g id="GUIDE">
	<g id="KEY">
		<circle fill="none" stroke="#000000" stroke-miterlimit="10" cx="213.197" cy="44.501" r="10"/>
		<circle fill="none" stroke="#000000" stroke-miterlimit="10" cx="213.197" cy="34.501" r="20"/>
		<text transform="matrix(1 0 0 1 207.0798 11.8123)" font-family="'Roboto-Bold'" font-size="8">20$</text>
		<text transform="matrix(1 0 0 1 206.0798 31.6042)" font-family="'Roboto-Bold'" font-size="8">10$</text>
	</g>
	<circle fill="#790700" cx="23.032" cy="34.501" r="6.076"/>
	<circle fill="#D6D6D6" cx="87.11" cy="34.501" r="6.076"/>
	<text transform="matrix(1 0 0 1 32.9573 38.0079)" font-family="'Arial'" font-size="12">Public</text>
	<text transform="matrix(1 0 0 1 96.9465 38.0079)" font-family="'Arial'" font-size="12">Private</text>
	<g>
		<text transform="matrix(1.0075 0 0 1 190.2783 62.834)" font-family="'Roboto-Bold'" font-size="8">Less than 5$</text>
	</g>
	<circle fill="none" stroke="#000000" stroke-miterlimit="10" cx="213.197" cy="49.501" r="5"/>
</g>
<g id="INTERACT">
	<g>
		<path fill="#191818" d="M146.742,519.83h-3.198c-0.468,0-0.848-0.38-0.848-0.848c0-0.469,0.38-0.848,0.848-0.848h3.198
			c0.468,0,0.848,0.38,0.848,0.848C147.59,519.451,147.211,519.83,146.742,519.83z"/>
		<path fill="#191818" d="M138.428,514.714c-0.468,0-0.848-0.38-0.848-0.848v-3.198c0-0.468,0.38-0.848,0.848-0.848
			s0.848,0.38,0.848,0.848v3.198C139.276,514.334,138.896,514.714,138.428,514.714z"/>
		<path fill="#191818" d="M133.311,519.83h-3.198c-0.469,0-0.848-0.38-0.848-0.848c0-0.469,0.38-0.848,0.848-0.848h3.198
			c0.469,0,0.848,0.38,0.848,0.848C134.16,519.451,133.78,519.83,133.311,519.83z"/>
		<path fill="#191818" d="M142.046,516.212c-0.217,0-0.434-0.083-0.6-0.249c-0.331-0.331-0.331-0.869,0-1.199l2.139-2.138
			c0.331-0.331,0.868-0.331,1.199,0c0.331,0.331,0.331,0.868,0,1.199l-2.139,2.138C142.48,516.13,142.263,516.212,142.046,516.212z"
			/>
		<path fill="#191818" d="M134.81,516.212c-0.217,0-0.434-0.083-0.6-0.249l-2.138-2.138c-0.331-0.331-0.331-0.868,0-1.199
			c0.331-0.331,0.868-0.331,1.2,0l2.138,2.138c0.331,0.331,0.331,0.868,0,1.199C135.244,516.13,135.027,516.212,134.81,516.212z"/>
		<path fill="#191818" d="M145.032,533.053h-1.697v-3.838c0-0.59-0.48-1.071-1.071-1.071c-0.59,0-1.07,0.48-1.07,1.071v0.639h-1.696
			v-0.639c0-1.526,1.241-2.767,2.767-2.767s2.767,1.241,2.767,2.767L145.032,533.053L145.032,533.053z"/>
		<path fill="#191818" d="M148.87,533.693h-1.696v-3.838c0-0.59-0.481-1.07-1.071-1.07s-1.07,0.48-1.07,1.07v3.198h-1.697v-3.198
			c0-1.525,1.241-2.767,2.767-2.767s2.767,1.241,2.767,2.767L148.87,533.693L148.87,533.693z"/>
		<path fill="#191818" d="M137.358,537.53h-1.697v-18.548c0-1.525,1.241-2.767,2.767-2.767s2.767,1.241,2.767,2.767v14.071h-1.696
			v-14.071c0-0.59-0.48-1.07-1.071-1.07c-0.59,0-1.07,0.48-1.07,1.07L137.358,537.53L137.358,537.53z"/>
		<path fill="#191818" d="M137.358,547.763h-1.697c0-0.541-0.708-1.495-1.456-2.504c-1.279-1.724-3.031-4.085-3.337-7.11
			c-0.078-0.771-0.106-1.917-0.084-3.406c0.026-1.687,1.18-3.173,2.809-3.615l2.8-0.759l0.444,1.638l-2.8,0.759
			c-0.902,0.244-1.542,1.068-1.556,2.003c-0.022,1.404,0.005,2.514,0.075,3.21c0.259,2.561,1.785,4.618,3.011,6.27
			C136.568,545.596,137.358,546.661,137.358,547.763z"/>
		<path fill="#191818" d="M150.788,547.763h-1.697c0-0.506,0.21-1.214,0.529-2.285c0.809-2.721,2.316-7.787,1.147-13.515
			c-0.247-1.212-0.652-1.244-0.893-1.263c-0.715-0.059-1.282,0.421-1.288,0.426l-1.13-1.265c0.111-0.099,1.125-0.967,2.549-0.853
			c1.275,0.099,2.091,0.979,2.424,2.615c1.253,6.143-0.332,11.474-1.183,14.337C151.022,546.72,150.788,547.504,150.788,547.763z"/>
	</g>
	<g>
		<path fill="#191818" d="M161.451,527.089h-1.609v-9.646h1.609V527.089z"/>
		<path fill="#191818" d="M164.224,519.92l0.094,1.034c0.234-0.367,0.527-0.652,0.885-0.858c0.355-0.205,0.756-0.308,1.201-0.308
			c0.746,0,1.328,0.227,1.746,0.679c0.418,0.453,0.627,1.158,0.627,2.117v4.505h-1.611v-4.492c0-0.538-0.111-0.922-0.334-1.149
			c-0.223-0.227-0.562-0.341-1.018-0.341c-0.312,0-0.594,0.069-0.84,0.209c-0.248,0.139-0.451,0.33-0.611,0.572v5.201h-1.609v-7.169
			H164.224L164.224,519.92z"/>
		<path fill="#191818" d="M171.775,518.178v1.742h1.285v1.193h-1.285v3.962c0,0.296,0.064,0.507,0.191,0.632
			c0.129,0.126,0.299,0.189,0.51,0.189c0.09,0,0.176-0.008,0.26-0.023c0.084-0.016,0.162-0.036,0.238-0.062l0.172,1.179
			c-0.137,0.075-0.301,0.134-0.49,0.176c-0.189,0.042-0.387,0.062-0.59,0.062c-0.592,0-1.055-0.173-1.391-0.52
			c-0.336-0.347-0.504-0.892-0.504-1.633v-3.962h-1.094v-1.193h1.094v-1.742L171.775,518.178L171.775,518.178z"/>
		<path fill="#191818" d="M176.886,527.228c-1.016,0-1.824-0.332-2.428-0.997c-0.604-0.664-0.904-1.518-0.904-2.56v-0.265
			c0-1.042,0.299-1.907,0.898-2.594c0.598-0.687,1.348-1.028,2.248-1.023c0.969,0,1.709,0.292,2.223,0.878
			c0.516,0.585,0.773,1.37,0.773,2.354v0.948h-4.473l-0.014,0.032c0.027,0.568,0.193,1.032,0.5,1.394
			c0.307,0.361,0.732,0.542,1.275,0.542c0.434,0,0.805-0.054,1.113-0.159c0.309-0.107,0.607-0.259,0.895-0.457l0.518,1.056
			c-0.27,0.239-0.627,0.441-1.074,0.606C177.992,527.146,177.474,527.228,176.886,527.228z M176.701,521.08
			c-0.396,0-0.723,0.157-0.98,0.474c-0.256,0.315-0.414,0.717-0.477,1.202l0.014,0.033h2.842v-0.166
			c0-0.454-0.115-0.825-0.348-1.112C177.519,521.224,177.17,521.08,176.701,521.08z"/>
		<path fill="#191818" d="M183.886,521.371l-0.688-0.026c-0.314,0-0.576,0.066-0.785,0.199c-0.211,0.132-0.373,0.32-0.488,0.562
			v4.982h-1.609v-7.169h1.471l0.105,1.041c0.182-0.367,0.414-0.654,0.699-0.861c0.285-0.208,0.613-0.312,0.984-0.312
			c0.098,0,0.188,0.008,0.271,0.023c0.084,0.016,0.16,0.035,0.232,0.057L183.886,521.371z"/>
		<path fill="#191818" d="M188.648,527.089c-0.057-0.181-0.105-0.357-0.143-0.53c-0.037-0.172-0.062-0.345-0.076-0.517
			c-0.221,0.336-0.51,0.617-0.871,0.845c-0.359,0.228-0.762,0.341-1.209,0.341c-0.746,0-1.318-0.191-1.719-0.576
			c-0.4-0.384-0.6-0.912-0.6-1.583c0-0.693,0.274-1.233,0.822-1.62c0.547-0.387,1.318-0.58,2.311-0.58h1.252v-0.629
			c0-0.375-0.109-0.669-0.33-0.881c-0.221-0.212-0.537-0.318-0.947-0.318c-0.367,0-0.658,0.088-0.875,0.265
			s-0.324,0.404-0.324,0.683h-1.551l-0.006-0.04c-0.031-0.564,0.221-1.066,0.758-1.504c0.537-0.437,1.236-0.655,2.098-0.655
			c0.834,0,1.508,0.212,2.02,0.636c0.514,0.424,0.77,1.033,0.77,1.828v3.188c0,0.296,0.02,0.579,0.059,0.851
			c0.041,0.272,0.104,0.538,0.193,0.799h-1.632V527.089z M186.673,525.937c0.406,0,0.773-0.102,1.098-0.306
			c0.324-0.203,0.539-0.435,0.645-0.695v-1.06h-1.277c-0.469,0-0.836,0.115-1.1,0.348c-0.266,0.231-0.398,0.505-0.398,0.818
			c0,0.273,0.09,0.491,0.27,0.652C186.088,525.856,186.343,525.937,186.673,525.937z"/>
		<path fill="#191818" d="M194,525.937c0.393,0,0.725-0.115,0.994-0.347c0.268-0.231,0.402-0.52,0.402-0.866h1.459l0.014,0.04
			c0.021,0.671-0.252,1.25-0.818,1.735c-0.568,0.486-1.252,0.729-2.051,0.729c-1.057,0-1.865-0.34-2.428-1.02
			c-0.564-0.681-0.846-1.542-0.846-2.584v-0.232c0-1.037,0.281-1.897,0.846-2.58c0.563-0.683,1.371-1.023,2.428-1.023
			c0.861,0,1.561,0.25,2.096,0.752c0.537,0.501,0.797,1.139,0.779,1.911l-0.014,0.04h-1.465c0-0.394-0.129-0.727-0.387-1.001
			c-0.258-0.273-0.596-0.41-1.01-0.41c-0.605,0-1.033,0.219-1.285,0.658c-0.252,0.439-0.379,0.989-0.379,1.65v0.232
			c0,0.675,0.127,1.229,0.379,1.664C192.966,525.719,193.394,525.937,194,525.937z"/>
		<path fill="#191818" d="M199.482,518.178v1.742h1.285v1.193h-1.285v3.962c0,0.296,0.064,0.507,0.191,0.632
			c0.129,0.126,0.299,0.189,0.51,0.189c0.09,0,0.176-0.008,0.26-0.023c0.084-0.016,0.162-0.036,0.238-0.062l0.172,1.179
			c-0.137,0.075-0.301,0.134-0.49,0.176c-0.189,0.042-0.387,0.062-0.59,0.062c-0.592,0-1.055-0.173-1.391-0.52
			c-0.336-0.347-0.504-0.892-0.504-1.633v-3.962h-1.094v-1.193h1.094v-1.742L199.482,518.178L199.482,518.178z"/>
		<path fill="#191818" d="M203.236,518.165h-1.609v-1.411h1.609V518.165z M203.236,527.089h-1.609v-7.169h1.609V527.089z"/>
		<path fill="#191818" d="M206.849,524.664l0.119,0.583h0.041l0.125-0.583l1.426-4.744h1.662l-2.545,7.169h-1.397l-2.559-7.169
			h1.664L206.849,524.664z"/>
		<path fill="#191818" d="M213.539,527.228c-1.016,0-1.824-0.332-2.428-0.997c-0.604-0.664-0.904-1.518-0.904-2.56v-0.265
			c0-1.042,0.299-1.907,0.898-2.594c0.598-0.687,1.348-1.028,2.248-1.023c0.969,0,1.709,0.292,2.223,0.878
			c0.516,0.585,0.773,1.37,0.773,2.354v0.948h-4.473l-0.014,0.032c0.027,0.568,0.193,1.032,0.5,1.394
			c0.307,0.361,0.732,0.542,1.275,0.542c0.433,0,0.805-0.054,1.113-0.159c0.309-0.107,0.607-0.259,0.895-0.457l0.518,1.056
			c-0.27,0.239-0.627,0.441-1.074,0.606C214.644,527.146,214.127,527.228,213.539,527.228z M213.353,521.08
			c-0.396,0-0.723,0.157-0.98,0.474c-0.256,0.315-0.414,0.717-0.477,1.202l0.014,0.033h2.842v-0.166
			c0-0.454-0.115-0.825-0.348-1.112C214.172,521.224,213.822,521.08,213.353,521.08z"/>
		<path fill="#191818" d="M166.937,541.614c-0.256,0.367-0.678,0.699-1.262,0.998c-0.586,0.298-1.338,0.446-2.256,0.446
			c-1.162,0-2.119-0.367-2.869-1.103c-0.75-0.735-1.127-1.686-1.127-2.852v-2.014c0-1.166,0.355-2.117,1.064-2.852
			s1.623-1.103,2.746-1.103c1.135,0,2.018,0.279,2.646,0.838c0.629,0.559,0.951,1.286,0.965,2.183l-0.014,0.04h-1.523
			c-0.037-0.53-0.225-0.957-0.566-1.282c-0.344-0.324-0.84-0.486-1.488-0.486c-0.666,0-1.205,0.249-1.613,0.748
			c-0.408,0.498-0.613,1.132-0.613,1.899v2.025c0,0.776,0.223,1.415,0.666,1.916c0.443,0.501,1.02,0.752,1.727,0.752
			c0.504,0,0.912-0.059,1.225-0.176c0.314-0.116,0.541-0.254,0.684-0.413v-1.956h-1.916v-1.205h3.525L166.937,541.614
			L166.937,541.614z"/>
		<path fill="#191818" d="M171.599,537.201l-0.689-0.026c-0.314,0-0.576,0.066-0.785,0.199c-0.209,0.132-0.371,0.32-0.486,0.562
			v4.982h-1.611v-7.169h1.471l0.107,1.041c0.18-0.367,0.414-0.654,0.699-0.861c0.285-0.208,0.611-0.312,0.982-0.312
			c0.098,0,0.188,0.008,0.271,0.023c0.084,0.016,0.162,0.035,0.232,0.057L171.599,537.201z"/>
		<path fill="#191818" d="M176.359,542.919c-0.057-0.181-0.105-0.357-0.143-0.53c-0.037-0.172-0.062-0.345-0.076-0.517
			c-0.221,0.336-0.51,0.617-0.871,0.845c-0.359,0.228-0.762,0.341-1.209,0.341c-0.746,0-1.318-0.191-1.719-0.576
			c-0.4-0.384-0.6-0.912-0.6-1.583c0-0.693,0.273-1.233,0.822-1.62c0.547-0.387,1.318-0.58,2.311-0.58h1.252v-0.629
			c0-0.375-0.109-0.669-0.33-0.881c-0.221-0.212-0.537-0.318-0.947-0.318c-0.367,0-0.658,0.088-0.875,0.265
			s-0.324,0.404-0.324,0.683h-1.551l-0.006-0.04c-0.031-0.565,0.221-1.066,0.758-1.504c0.537-0.437,1.236-0.655,2.098-0.655
			c0.834,0,1.508,0.212,2.02,0.636c0.514,0.424,0.77,1.033,0.77,1.828v3.188c0,0.296,0.02,0.579,0.059,0.851
			c0.041,0.272,0.104,0.538,0.193,0.799h-1.632V542.919z M174.384,541.767c0.406,0,0.773-0.102,1.098-0.306
			c0.324-0.203,0.539-0.435,0.645-0.695v-1.06h-1.277c-0.469,0-0.836,0.115-1.1,0.348c-0.266,0.231-0.398,0.505-0.398,0.818
			c0,0.273,0.09,0.491,0.27,0.652C173.798,541.686,174.054,541.767,174.384,541.767z"/>
		<path fill="#191818" d="M185.029,539.574c0,1.042-0.244,1.884-0.734,2.524c-0.49,0.641-1.174,0.96-2.049,0.96
			c-0.406,0-0.766-0.072-1.078-0.218c-0.314-0.146-0.584-0.36-0.809-0.643v3.478h-1.611v-9.925h1.359l0.158,0.901
			c0.23-0.336,0.508-0.592,0.832-0.768c0.324-0.177,0.701-0.265,1.129-0.265c0.885,0,1.572,0.35,2.064,1.05
			c0.492,0.7,0.738,1.622,0.738,2.766L185.029,539.574L185.029,539.574z M183.425,539.431c0-0.732-0.137-1.331-0.414-1.796
			c-0.275-0.466-0.688-0.698-1.234-0.698c-0.336,0-0.621,0.071-0.855,0.215c-0.234,0.144-0.422,0.343-0.562,0.599v3.235
			c0.141,0.252,0.328,0.444,0.562,0.579s0.523,0.202,0.867,0.202c0.549,0,0.959-0.202,1.23-0.605
			c0.271-0.404,0.406-0.935,0.406-1.592L183.425,539.431L183.425,539.431z"/>
		<path fill="#191818" d="M187.345,536.678c0.238-0.335,0.529-0.596,0.871-0.781c0.342-0.185,0.721-0.278,1.137-0.278
			c0.76,0,1.352,0.239,1.779,0.719c0.426,0.479,0.639,1.218,0.639,2.216v4.366h-1.609v-4.379c0-0.565-0.113-0.975-0.338-1.226
			c-0.227-0.252-0.564-0.378-1.014-0.378c-0.314,0-0.596,0.065-0.846,0.195s-0.455,0.31-0.619,0.54v5.247h-1.609v-10.335h1.609
			L187.345,536.678L187.345,536.678z"/>
		<path fill="#191818" d="M194.478,533.995h-1.609v-1.411h1.609V533.995z M194.478,542.919h-1.609v-7.169h1.609V542.919z"/>
		<path fill="#191818" d="M198.564,541.767c0.393,0,0.725-0.115,0.994-0.347c0.268-0.23,0.402-0.52,0.402-0.866h1.459l0.014,0.04
			c0.021,0.671-0.252,1.25-0.818,1.735c-0.568,0.486-1.252,0.729-2.051,0.729c-1.057,0-1.865-0.34-2.428-1.02
			c-0.565-0.681-0.846-1.542-0.846-2.584v-0.232c0-1.037,0.281-1.897,0.846-2.58c0.562-0.683,1.371-1.023,2.428-1.023
			c0.861,0,1.561,0.25,2.096,0.752c0.537,0.501,0.797,1.139,0.779,1.911l-0.014,0.04h-1.465c0-0.393-0.129-0.727-0.387-1.001
			c-0.258-0.273-0.596-0.41-1.01-0.41c-0.605,0-1.033,0.219-1.285,0.658c-0.252,0.438-0.379,0.989-0.379,1.65v0.231
			c0,0.675,0.127,1.229,0.379,1.664C197.531,541.549,197.959,541.767,198.564,541.767z"/>
	</g>
</g>
<g id="STUFF" pointer-events="none">
	<g>
		<text transform="matrix(1 0 0 1 191.1758 231.1725)" font-family="'Arial'" font-size="14">Ghana</text>
		<text transform="matrix(1 0 0 1 110.6465 231.1725)" font-family="'Arial'" font-size="14">Egypt</text>
	</g>
	<g>
		<text transform="matrix(1 0 0 1 191.7166 153.347)" font-family="'Arial'" font-size="14">Congo</text>
		<text transform="matrix(1 0 0 1 17.2052 225.8382)" font-family="'Arial'" font-size="10">Democratic</text>
		<text transform="matrix(1 0 0 1 1.8712 235.8382)" font-family="'Arial'" font-size="10">Republic of Congo</text>
	</g>
	<g>
		<text transform="matrix(1 0 0 1 103.3054 153.107)" fill="#790700" font-family="'Arial'" font-size="14">Burundi</text>
		<text transform="matrix(1 0 0 1 2.8263 153.107)" fill="#790700" font-family="'Arial'" font-size="14">Burkina Faso</text>
	</g>
	<g>
		<text transform="matrix(0.8957 0 0 1 100.5258 309.6172)" font-family="'Arial'" font-size="14">Mauritius</text>
		<text transform="matrix(1 0 0 1 24.6124 309.2385)" font-family="'Arial'" font-size="14">Kenya</text>
	</g>
	<g>
		<text transform="matrix(1 0 0 1 20.1596 385.9691)" font-family="'Arial'" font-size="14">Nigeria</text>
		<g>
			<text transform="matrix(1 0 0 1 103.5841 381.9691)" font-family="'Arial'" font-size="10">São Tomé</text>
			<text transform="matrix(1 0 0 1 98.2301 391.9691)" font-family="'Arial'" font-size="10">and Príncipe</text>
		</g>
		<text transform="matrix(1 0 0 1 184.9272 307.9027)" font-family="'Arial'" font-size="14">Morocco</text>
	</g>
	<g>
		<text transform="matrix(1 0 0 1 23.3029 465.3688)" font-family="'Arial'" font-size="14">Sudan</text>
		<text transform="matrix(1 0 0 1 98.2755 465.3688)" font-family="'Arial'" font-size="14">Tanzania</text>
		<g>
			<text transform="matrix(1 0 0 1 184.9207 381.9689)" font-family="'Arial'" font-size="10">South Africa</text>
			<text transform="matrix(1 0 0 1 172.9037 391.9689)" font-family="'Arial'" font-size="10">Gauteng Province</text>
		</g>
	</g>
	<g>
		<text transform="matrix(1 0 0 1 189.7136 465.3694)" font-family="'Arial'" font-size="14">Tunisia</text>
		<text transform="matrix(1 0 0 1 19.238 543.4349)" font-family="'Arial'" font-size="14">Uganda</text>
	</g>
	<path fill="#790700" d="M130.379,111.058c0,2.761-2.239,5-5.001,5c-2.761,0-4.999-2.239-4.999-5c0-2.762,2.238-5,4.999-5
		C128.14,106.058,130.379,108.297,130.379,111.058z"/>
	<path opacity="0.8" fill="#D6D6D6" enable-background="new    " d="M136.445,111.058c0,2.762-2.238,5-5.001,5
		c-2.761,0-4.999-2.238-4.999-5s2.238-5,4.999-5C134.206,106.058,136.445,108.297,136.445,111.058z"/>
	<path fill="#790700" d="M45.907,111.058c0,2.761-2.239,5-5.001,5c-2.761,0-4.999-2.239-4.999-5c0-2.762,2.238-5,4.999-5
		C43.669,106.058,45.907,108.297,45.907,111.058z"/>
	<path opacity="0.8" fill="#D6D6D6" enable-background="new    " d="M51.973,111.058c0,2.762-2.238,5-5.001,5
		c-2.761,0-4.999-2.238-4.999-5s2.238-5,4.999-5C49.735,106.058,51.973,108.297,51.973,111.058z"/>
	<path fill="#790700" d="M46.131,188.883c0,2.761-2.239,5-5.001,5c-2.761,0-4.999-2.239-4.999-5c0-2.762,2.238-5,4.999-5
		C43.892,183.883,46.131,186.122,46.131,188.883z"/>
	<path opacity="0.8" fill="#D6D6D6" enable-background="new    " d="M52.196,188.883c0,2.762-2.238,5-5.001,5
		c-2.761,0-4.999-2.238-4.999-5s2.238-5,4.999-5C49.958,183.883,52.196,186.122,52.196,188.883z"/>
	<path fill="#790700" d="M214.585,111.058c0,2.761-2.239,5-5.001,5c-2.761,0-4.999-2.239-4.999-5c0-2.762,2.238-5,4.999-5
		C212.346,106.058,214.585,108.297,214.585,111.058z"/>
	<path opacity="0.8" fill="#D6D6D6" enable-background="new    " d="M220.651,111.058c0,2.762-2.238,5-5.001,5
		c-2.761,0-4.999-2.238-4.999-5s2.238-5,4.999-5C218.412,106.058,220.651,108.297,220.651,111.058z"/>
	<path fill="#790700" d="M214.618,188.883c0,2.761-2.239,5-5.001,5c-2.761,0-4.999-2.239-4.999-5c0-2.762,2.238-5,4.999-5
		C212.379,183.883,214.618,186.122,214.618,188.883z"/>
	<path opacity="0.8" fill="#D6D6D6" enable-background="new    " d="M220.683,188.883c0,2.762-2.238,5-5.001,5
		c-2.761,0-4.999-2.238-4.999-5s2.238-5,4.999-5C218.445,183.883,220.683,186.122,220.683,188.883z"/>
	<path fill="#790700" d="M130.379,188.883c0,2.761-2.239,5-5.001,5c-2.761,0-4.999-2.239-4.999-5c0-2.762,2.238-5,4.999-5
		C128.141,183.883,130.379,186.122,130.379,188.883z"/>
	<path opacity="0.8" fill="#D6D6D6" enable-background="new    " d="M136.445,188.883c0,2.762-2.238,5-5.001,5
		c-2.761,0-4.999-2.238-4.999-5s2.238-5,4.999-5C134.207,183.883,136.445,186.122,136.445,188.883z"/>
	<path fill="#790700" d="M130.379,266.948c0,2.761-2.239,5-5.001,5c-2.761,0-4.999-2.239-4.999-5c0-2.762,2.238-5,4.999-5
		C128.14,261.948,130.379,264.187,130.379,266.948z"/>
	<path opacity="0.8" fill="#D6D6D6" enable-background="new    " d="M136.444,266.948c0,2.762-2.238,5-5.001,5
		c-2.761,0-4.999-2.238-4.999-5s2.238-5,4.999-5C134.206,261.948,136.444,264.187,136.444,266.948z"/>
	<path fill="#790700" d="M45.907,266.948c0,2.761-2.239,5-5.001,5c-2.761,0-4.999-2.239-4.999-5c0-2.762,2.238-5,4.999-5
		C43.669,261.948,45.907,264.187,45.907,266.948z"/>
	<path opacity="0.8" fill="#D6D6D6" enable-background="new    " d="M51.973,266.948c0,2.762-2.238,5-5.001,5
		c-2.761,0-4.999-2.238-4.999-5s2.238-5,4.999-5C49.735,261.948,51.973,264.187,51.973,266.948z"/>
	<path fill="#790700" d="M129.338,345.014c0,2.761-2.239,5-5.001,5c-2.761,0-4.999-2.239-4.999-5c0-2.762,2.238-5,4.999-5
		C127.099,340.014,129.338,342.253,129.338,345.014z"/>
	<path opacity="0.8" fill="#D6D6D6" enable-background="new    " d="M135.403,345.014c0,2.762-2.238,5-5.001,5
		c-2.761,0-4.999-2.238-4.999-5s2.238-5,4.999-5C133.165,340.014,135.403,342.253,135.403,345.014z"/>
	<path fill="#790700" d="M45.131,345.014c0,2.761-2.239,5-5.001,5c-2.761,0-4.999-2.239-4.999-5c0-2.762,2.238-5,4.999-5
		C42.892,340.014,45.131,342.253,45.131,345.014z"/>
	<path opacity="0.8" fill="#D6D6D6" enable-background="new    " d="M51.197,345.014c0,2.762-2.238,5-5.001,5
		c-2.761,0-4.999-2.238-4.999-5s2.238-5,4.999-5C48.958,340.014,51.197,342.253,51.197,345.014z"/>
	<path fill="#790700" d="M214.585,266.948c0,2.761-2.239,5-5.001,5c-2.761,0-4.999-2.239-4.999-5c0-2.762,2.238-5,4.999-5
		C212.347,261.948,214.585,264.187,214.585,266.948z"/>
	<path opacity="0.8" fill="#D6D6D6" enable-background="new    " d="M220.651,266.948c0,2.762-2.238,5-5.001,5
		c-2.761,0-4.999-2.238-4.999-5s2.238-5,4.999-5C218.413,261.948,220.651,264.187,220.651,266.948z"/>
	<path fill="#790700" d="M130.181,423.079c0,2.761-2.239,5-5.001,5c-2.761,0-4.999-2.239-4.999-5c0-2.762,2.238-5,4.999-5
		C127.942,418.079,130.181,420.318,130.181,423.079z"/>
	<path opacity="0.8" fill="#D6D6D6" enable-background="new    " d="M136.246,423.079c0,2.762-2.238,5-5.001,5
		c-2.761,0-4.999-2.238-4.999-5s2.238-5,4.999-5C134.008,418.079,136.246,420.318,136.246,423.079z"/>
	<path fill="#790700" d="M45.974,423.079c0,2.761-2.239,5-5.001,5c-2.761,0-4.999-2.239-4.999-5c0-2.762,2.238-5,4.999-5
		C43.735,418.079,45.974,420.318,45.974,423.079z"/>
	<path opacity="0.8" fill="#D6D6D6" enable-background="new    " d="M52.04,423.079c0,2.762-2.238,5-5.001,5
		c-2.761,0-4.999-2.238-4.999-5s2.238-5,4.999-5C49.801,418.079,52.04,420.318,52.04,423.079z"/>
	<path fill="#790700" d="M214.618,345.014c0,2.761-2.239,5-5.001,5c-2.761,0-4.999-2.239-4.999-5c0-2.762,2.238-5,4.999-5
		C212.38,340.014,214.618,342.253,214.618,345.014z"/>
	<path opacity="0.8" fill="#D6D6D6" enable-background="new    " d="M220.684,345.014c0,2.762-2.238,5-5.001,5
		c-2.761,0-4.999-2.238-4.999-5s2.238-5,4.999-5C218.446,340.014,220.684,342.253,220.684,345.014z"/>
	<path fill="#790700" d="M46.13,501.145c0,2.761-2.239,5-5.001,5c-2.761,0-4.999-2.239-4.999-5c0-2.762,2.238-5,4.999-5
		C43.891,496.145,46.13,498.384,46.13,501.145z"/>
	<path opacity="0.8" fill="#D6D6D6" enable-background="new    " d="M52.196,501.145c0,2.762-2.238,5-5.001,5
		c-2.761,0-4.999-2.238-4.999-5s2.238-5,4.999-5C49.957,496.145,52.196,498.384,52.196,501.145z"/>
	<path fill="#790700" d="M214.552,423.079c0,2.761-2.239,5-5.001,5c-2.761,0-4.999-2.239-4.999-5c0-2.762,2.238-5,4.999-5
		C212.314,418.079,214.552,420.318,214.552,423.079z"/>
	<path opacity="0.8" fill="#D6D6D6" enable-background="new    " d="M220.618,423.079c0,2.762-2.238,5-5.001,5
		c-2.761,0-4.999-2.238-4.999-5s2.238-5,4.999-5C218.38,418.079,220.618,420.318,220.618,423.079z"/>
</g>
<g id="AREA">
    <rect id="A16" x="10.03" y="478.61" fill="#FFFFFF" fill-opacity="0" width="69.989" height="48">
        <animate attributeName="opacity" dur="0.2" to="1" begin="A16.mouseover" fill="freeze" xlink:href="#T16"/> 
        <animate attributeName="opacity" dur="0.2" to="0" begin="A16.mouseout" fill="freeze" xlink:href="#T16"/>
    </rect>
	<rect id="A15" x="177.996" y="401.406" fill="#FFFFFF" fill-opacity="0" width="69.988" height="48">
        <animate attributeName="opacity" dur="0.2" to="1" begin="A15.mouseover" fill="freeze" xlink:href="#T15"/> 
        <animate attributeName="opacity" dur="0.2" to="0" begin="A15.mouseout" fill="freeze" xlink:href="#T15"/>
    </rect>
	<rect id="A14" x="94.013" y="401.406" fill="#FFFFFF" fill-opacity="0" width="69.989" height="48">
        <animate attributeName="opacity" dur="0.2" to="1" begin="A14.mouseover" fill="freeze" xlink:href="#T14"/> 
        <animate attributeName="opacity" dur="0.2" to="0" begin="A14.mouseout" fill="freeze" xlink:href="#T14"/>
    </rect>
	<rect id="A13" x="10.03" y="401.406" fill="#FFFFFF" fill-opacity="0" width="69.989" height="48">
        <animate attributeName="opacity" dur="0.2" to="1" begin="A13.mouseover" fill="freeze" xlink:href="#T13"/> 
        <animate attributeName="opacity" dur="0.2" to="0" begin="A13.mouseout" fill="freeze" xlink:href="#T13"/>
    </rect>
	<rect id="A12" x="177.996" y="320.492" fill="#FFFFFF" fill-opacity="0" width="69.988" height="48">
        <animate attributeName="opacity" dur="0.2" to="1" begin="A12.mouseover" fill="freeze" xlink:href="#T12"/> 
        <animate attributeName="opacity" dur="0.2" to="0" begin="A12.mouseout" fill="freeze" xlink:href="#T12"/>
    </rect>
	<rect id="A11" x="94.013" y="320.492" fill="#FFFFFF" fill-opacity="0" width="69.989" height="48">
        <animate attributeName="opacity" dur="0.2" to="1" begin="A11.mouseover" fill="freeze" xlink:href="#T11"/> 
        <animate attributeName="opacity" dur="0.2" to="0" begin="A11.mouseout" fill="freeze" xlink:href="#T11"/>
    </rect>
	<rect id="A10" x="10.03" y="320.492" fill="#FFFFFF" fill-opacity="0" width="69.989" height="48">
        <animate attributeName="opacity" dur="0.2" to="1" begin="A10.mouseover" fill="freeze" xlink:href="#T10"/> 
        <animate attributeName="opacity" dur="0.2" to="0" begin="A10.mouseout" fill="freeze" xlink:href="#T10"/>
    </rect>
	<rect id="A09" x="177.996" y="243.172" fill="#FFFFFF" fill-opacity="0" width="69.988" height="48">
        <animate attributeName="opacity" dur="0.2" to="1" begin="A09.mouseover" fill="freeze" xlink:href="#T09"/> 
        <animate attributeName="opacity" dur="0.2" to="0" begin="A09.mouseout" fill="freeze" xlink:href="#T09"/>
    </rect>
	<rect id="A08" x="94.013" y="243.172" fill="#FFFFFF" fill-opacity="0" width="69.989" height="48">
        <animate attributeName="opacity" dur="0.2" to="1" begin="A08.mouseover" fill="freeze" xlink:href="#T08"/> 
        <animate attributeName="opacity" dur="0.2" to="0" begin="A08.mouseout" fill="freeze" xlink:href="#T08"/>
    </rect>
	<rect id="A07" x="10.03" y="243.172" fill="#FFFFFF" fill-opacity="0" width="69.989" height="48">
        <animate attributeName="opacity" dur="0.2" to="1" begin="A07.mouseover" fill="freeze" xlink:href="#T07"/> 
        <animate attributeName="opacity" dur="0.2" to="0" begin="A07.mouseout" fill="freeze" xlink:href="#T07"/>
    </rect>
	<rect id="A06" x="177.996" y="163.744" fill="#FFFFFF" fill-opacity="0" width="69.988" height="48">
        <animate attributeName="opacity" dur="0.2" to="1" begin="A06.mouseover" fill="freeze" xlink:href="#T06"/> 
        <animate attributeName="opacity" dur="0.2" to="0" begin="A06.mouseout" fill="freeze" xlink:href="#T06"/>
    </rect>	
    <rect id="A05" x="94.013" y="163.744" fill="#FFFFFF" fill-opacity="0" width="69.989" height="48">
        <animate attributeName="opacity" dur="0.2" to="1" begin="A05.mouseover" fill="freeze" xlink:href="#T05"/> 
        <animate attributeName="opacity" dur="0.2" to="0" begin="A05.mouseout" fill="freeze" xlink:href="#T05"/>
    </rect>
	<rect id="A04" x="10.03" y="163.744" fill="#FFFFFF" fill-opacity="0" width="69.989" height="48">
        <animate attributeName="opacity" dur="0.2" to="1" begin="A04.mouseover" fill="freeze" xlink:href="#T04"/> 
        <animate attributeName="opacity" dur="0.2" to="0" begin="A04.mouseout" fill="freeze" xlink:href="#T04"/>
    </rect>
	<rect id="A03" x="177.996" y="87.122" fill="#FFFFFF" fill-opacity="0" width="69.988" height="48">
        <animate attributeName="opacity" dur="0.2" to="1" begin="A03.mouseover" fill="freeze" xlink:href="#T03"/> 
        <animate attributeName="opacity" dur="0.2" to="0" begin="A03.mouseout" fill="freeze" xlink:href="#T03"/>
    </rect>
	<rect id="A02" x="94.013" y="87.122" fill="#FFFFFF" fill-opacity="0" width="69.989" height="48">
        <animate attributeName="opacity" dur="0.2" to="1" begin="A02.mouseover" fill="freeze" xlink:href="#T02"/> 
        <animate attributeName="opacity" dur="0.2" to="0" begin="A02.mouseout" fill="freeze" xlink:href="#T02"/>
    </rect>
	<rect id="A01" x="10.03" y="87.122" fill="#FFFFFF" fill-opacity="0"  width="69.989" height="48">
        <animate attributeName="opacity" dur="0.2" to="1" begin="A01.mouseover" fill="freeze" xlink:href="#T01"/> 
        <animate attributeName="opacity" dur="0.2" to="0" begin="A01.mouseout" fill="freeze" xlink:href="#T01"/>
    </rect>
</g>
<g id="TOOLTIP">
	<g id="T01" opacity="0">
		<polygon id="AREA_1_" points="89.64,55.501 0,55.501 0,97.501 32.567,97.501 32.567,97.501 44.14,109.677 55.713,97.501 
			55.713,97.501 89.64,97.501 		"/>
		<text transform="matrix(1 0 0 1 8.3792 72.7718)" fill="#FFFFFF" font-family="'PlayfairDisplay-Bold'" font-size="12">Burkina Faso</text>
		<text transform="matrix(1 0 0 1 6.9573 90.5856)" fill="#FFFFFF" font-family="'Roboto-Light'" font-size="10">NA</text>
		<text transform="matrix(1.047 0 0 1 55.6011 90.5855)" fill="#FFFFFF" font-family="'Roboto-Light'" font-size="10">$0.11</text>
		<path fill="#FFFFFF" d="M40.737,89.601h0.041l0.26-0.868l2.01-5.544h0.848l-2.81,7.396H40.43l-2.816-7.396h0.848l2.037,5.544
			L40.737,89.601z"/>
		<path fill="#FFFFFF" d="M49.244,87.797c-0.285-0.26-0.799-0.472-1.542-0.636c-0.884-0.191-1.537-0.444-1.958-0.759
			c-0.421-0.314-0.632-0.759-0.632-1.333c0-0.565,0.238-1.042,0.714-1.432s1.106-0.585,1.89-0.585c0.834,0,1.495,0.206,1.982,0.619
			c0.488,0.413,0.72,0.929,0.697,1.548l-0.014,0.041h-0.759c0-0.406-0.172-0.759-0.516-1.06c-0.343-0.3-0.806-0.45-1.39-0.45
			c-0.597,0-1.045,0.129-1.343,0.386s-0.448,0.56-0.448,0.906c0,0.342,0.129,0.624,0.386,0.848c0.257,0.223,0.771,0.419,1.542,0.588
			c0.879,0.196,1.538,0.464,1.976,0.803c0.438,0.339,0.656,0.801,0.656,1.384c0,0.615-0.25,1.113-0.749,1.494
			c-0.499,0.38-1.159,0.571-1.979,0.571c-0.898,0-1.603-0.214-2.116-0.643c-0.513-0.428-0.755-0.939-0.728-1.531l0.014-0.041h0.752
			c0.032,0.533,0.249,0.92,0.653,1.162c0.403,0.242,0.878,0.362,1.425,0.362c0.592,0,1.06-0.13,1.401-0.39
			c0.342-0.26,0.513-0.574,0.513-0.943C49.671,88.36,49.529,88.056,49.244,87.797z"/>
	</g>
	<g id="T02" opacity="0">
		<polygon id="AREA_2_" points="174.158,55.501 84.518,55.501 84.518,97.501 117.084,97.501 117.084,97.501 128.658,109.677 
			140.231,97.501 140.231,97.501 174.158,97.501 		"/>
		<text transform="matrix(1 0 0 1 92.8968 72.7718)" fill="#FFFFFF" font-family="'PlayfairDisplay-Bold'" font-size="12">Burundi</text>
		<text transform="matrix(1 0 0 1 91.4749 90.5856)" fill="#FFFFFF" font-family="'Roboto-Light'" font-size="10">$0.03</text>
		<text transform="matrix(1.047 0 0 1 140.1187 90.5855)" fill="#FFFFFF" font-family="'Roboto-Light'" font-size="10">$0.05</text>
		<path fill="#FFFFFF" d="M125.254,89.601h0.041l0.26-0.868l2.01-5.544h0.848l-2.81,7.396h-0.656l-2.816-7.396h0.848l2.037,5.544
			L125.254,89.601z"/>
		<path fill="#FFFFFF" d="M133.762,87.797c-0.285-0.26-0.799-0.472-1.542-0.636c-0.884-0.191-1.537-0.444-1.958-0.759
			c-0.421-0.314-0.632-0.759-0.632-1.333c0-0.565,0.238-1.042,0.714-1.432s1.106-0.585,1.89-0.585c0.834,0,1.495,0.206,1.982,0.619
			c0.488,0.413,0.72,0.929,0.697,1.548L134.9,85.26h-0.759c0-0.406-0.172-0.759-0.516-1.06c-0.344-0.301-0.808-0.451-1.391-0.451
			c-0.597,0-1.045,0.129-1.343,0.386s-0.448,0.56-0.448,0.906c0,0.342,0.129,0.624,0.386,0.848c0.257,0.223,0.771,0.419,1.541,0.588
			c0.879,0.196,1.538,0.464,1.976,0.803c0.438,0.339,0.656,0.801,0.656,1.384c0,0.615-0.25,1.113-0.749,1.494
			c-0.499,0.38-1.159,0.571-1.979,0.571c-0.898,0-1.603-0.214-2.116-0.643c-0.513-0.428-0.755-0.939-0.728-1.531l0.014-0.041h0.752
			c0.032,0.533,0.249,0.92,0.653,1.162c0.403,0.242,0.878,0.362,1.425,0.362c0.592,0,1.06-0.13,1.401-0.39
			c0.342-0.26,0.513-0.574,0.513-0.943C134.189,88.36,134.046,88.056,133.762,87.797z"/>
	</g>
	<g id="T03" opacity="0">
		<polygon id="AREA_3_" points="259.438,55.501 169.799,55.501 169.799,97.501 202.365,97.501 202.365,97.501 213.938,109.677 
			225.511,97.501 225.511,97.501 259.438,97.501 		"/>
		<text transform="matrix(1 0 0 1 178.1775 72.7718)" fill="#FFFFFF" font-family="'PlayfairDisplay-Bold'" font-size="12">Congo</text>
		<text transform="matrix(1 0 0 1 176.7556 90.5856)" fill="#FFFFFF" font-family="'Roboto-Light'" font-size="10">NA</text>
		<text transform="matrix(1.047 0 0 1 225.3994 90.5855)" fill="#FFFFFF" font-family="'Roboto-Light'" font-size="10">$1.46</text>
		<path fill="#FFFFFF" d="M210.535,89.601h0.041l0.26-0.868l2.01-5.544h0.848l-2.81,7.396h-0.656l-2.816-7.396h0.848l2.037,5.544
			L210.535,89.601z"/>
		<path fill="#FFFFFF" d="M219.042,87.797c-0.285-0.26-0.799-0.472-1.542-0.636c-0.884-0.191-1.537-0.444-1.958-0.759
			c-0.421-0.314-0.632-0.759-0.632-1.333c0-0.565,0.238-1.042,0.714-1.432s1.106-0.585,1.89-0.585c0.834,0,1.495,0.206,1.982,0.619
			c0.488,0.413,0.72,0.929,0.697,1.548l-0.014,0.041h-0.759c0-0.406-0.172-0.759-0.516-1.06c-0.344-0.301-0.808-0.451-1.391-0.451
			c-0.597,0-1.045,0.129-1.343,0.386s-0.448,0.56-0.448,0.906c0,0.342,0.129,0.624,0.386,0.848c0.257,0.223,0.771,0.419,1.541,0.588
			c0.879,0.196,1.538,0.464,1.976,0.803c0.438,0.339,0.656,0.801,0.656,1.384c0,0.615-0.25,1.113-0.749,1.494
			c-0.499,0.38-1.159,0.571-1.979,0.571c-0.898,0-1.603-0.214-2.116-0.643c-0.513-0.428-0.755-0.939-0.728-1.531l0.014-0.041h0.752
			c0.032,0.533,0.249,0.92,0.653,1.162c0.403,0.242,0.878,0.362,1.425,0.362c0.592,0,1.06-0.13,1.401-0.39
			c0.342-0.26,0.513-0.574,0.513-0.943C219.47,88.36,219.327,88.056,219.042,87.797z"/>
	</g>
	<g id="T04" opacity="0">
		<polygon id="AREA_4_" points="88.715,134.706 -0.925,134.706 -0.925,176.706 31.641,176.706 31.641,176.706 43.215,188.883 
			54.788,176.706 54.788,176.706 88.715,176.706 		"/>
		<text transform="matrix(1 0 0 1 7.454 151.9771)" fill="#FFFFFF" font-family="'PlayfairDisplay-Bold'" font-size="12">R. Congo</text>
		<text transform="matrix(1 0 0 1 6.0321 169.7912)" fill="#FFFFFF" font-family="'Roboto-Light'" font-size="10">NA</text>
		<text transform="matrix(1.047 0 0 1 54.6758 169.791)" fill="#FFFFFF" font-family="'Roboto-Light'" font-size="10">$0.10</text>
		<path fill="#FFFFFF" d="M39.811,168.807h0.041l0.26-0.868l2.01-5.544h0.848l-2.81,7.396h-0.656l-2.816-7.396h0.848l2.037,5.544
			L39.811,168.807z"/>
		<path fill="#FFFFFF" d="M48.319,167.002c-0.285-0.26-0.799-0.472-1.542-0.636c-0.884-0.191-1.537-0.444-1.958-0.759
			c-0.421-0.314-0.632-0.759-0.632-1.333c0-0.565,0.238-1.042,0.714-1.432s1.106-0.584,1.89-0.584c0.834,0,1.495,0.206,1.982,0.619
			c0.488,0.413,0.72,0.929,0.697,1.548l-0.014,0.041h-0.759c0-0.406-0.172-0.759-0.516-1.06c-0.344-0.301-0.808-0.451-1.391-0.451
			c-0.597,0-1.045,0.129-1.343,0.386s-0.448,0.559-0.448,0.906c0,0.342,0.129,0.624,0.386,0.848
			c0.257,0.223,0.771,0.419,1.542,0.588c0.879,0.196,1.538,0.464,1.976,0.803c0.438,0.339,0.656,0.801,0.656,1.384
			c0,0.615-0.25,1.113-0.749,1.494c-0.499,0.38-1.159,0.571-1.979,0.571c-0.898,0-1.603-0.214-2.116-0.643
			c-0.513-0.428-0.755-0.939-0.728-1.531l0.014-0.041h0.752c0.032,0.533,0.249,0.92,0.653,1.162
			c0.403,0.242,0.878,0.362,1.425,0.362c0.592,0,1.06-0.13,1.401-0.39c0.342-0.26,0.513-0.574,0.513-0.943
			C48.746,167.565,48.603,167.262,48.319,167.002z"/>
	</g>
	<g id="T05" opacity="0">
		<polygon id="AREA_5_" points="173.455,134.706 83.816,134.706 83.816,176.706 116.382,176.706 116.382,176.706 127.955,188.883 
			139.528,176.706 139.528,176.706 173.455,176.706 		"/>
		<text transform="matrix(1 0 0 1 92.1944 151.9771)" fill="#FFFFFF" font-family="'PlayfairDisplay-Bold'" font-size="12">Egypt</text>
		<text transform="matrix(1 0 0 1 90.7725 169.7912)" fill="#FFFFFF" font-family="'Roboto-Light'" font-size="10">NA</text>
		<text transform="matrix(1.047 0 0 1 139.4165 169.791)" fill="#FFFFFF" font-family="'Roboto-Light'" font-size="10">$0.14</text>
		<path fill="#FFFFFF" d="M124.552,168.807h0.041l0.26-0.868l2.01-5.544h0.848l-2.81,7.396h-0.656l-2.816-7.396h0.848l2.037,5.544
			L124.552,168.807z"/>
		<path fill="#FFFFFF" d="M133.059,167.002c-0.285-0.26-0.799-0.472-1.542-0.636c-0.884-0.191-1.537-0.444-1.958-0.759
			c-0.421-0.314-0.632-0.759-0.632-1.333c0-0.565,0.238-1.042,0.714-1.432s1.106-0.584,1.89-0.584c0.834,0,1.495,0.206,1.982,0.619
			c0.488,0.413,0.72,0.929,0.697,1.548l-0.014,0.041h-0.759c0-0.406-0.172-0.759-0.516-1.06c-0.344-0.301-0.808-0.451-1.391-0.451
			c-0.597,0-1.045,0.129-1.343,0.386s-0.448,0.559-0.448,0.906c0,0.342,0.129,0.624,0.386,0.848
			c0.257,0.223,0.771,0.419,1.541,0.588c0.879,0.196,1.538,0.464,1.976,0.803c0.438,0.339,0.656,0.801,0.656,1.384
			c0,0.615-0.25,1.113-0.749,1.494c-0.499,0.38-1.159,0.571-1.979,0.571c-0.898,0-1.603-0.214-2.116-0.643
			c-0.513-0.428-0.755-0.939-0.728-1.531l0.014-0.041h0.752c0.032,0.533,0.249,0.92,0.653,1.162
			c0.403,0.242,0.878,0.362,1.425,0.362c0.592,0,1.06-0.13,1.401-0.39c0.342-0.26,0.513-0.574,0.513-0.943
			C133.487,167.565,133.344,167.262,133.059,167.002z"/>
	</g>
	<g id="T06" opacity="0">
		<polygon id="AREA_6_" points="258.513,134.706 168.873,134.706 168.873,176.706 201.44,176.706 201.44,176.706 213.013,188.883 
			224.586,176.706 224.586,176.706 258.513,176.706 		"/>
		<text transform="matrix(1 0 0 1 177.2523 151.9771)" fill="#FFFFFF" font-family="'PlayfairDisplay-Bold'" font-size="12">Ghana</text>
		<text transform="matrix(1 0 0 1 175.8304 169.7912)" fill="#FFFFFF" font-family="'Roboto-Light'" font-size="10">$0.20</text>
		<text transform="matrix(1.047 0 0 1 224.4741 169.791)" fill="#FFFFFF" font-family="'Roboto-Light'" font-size="10">$0.20</text>
		<path fill="#FFFFFF" d="M209.61,168.807h0.041l0.26-0.868l2.01-5.544h0.848l-2.81,7.396h-0.656l-2.816-7.396h0.848l2.037,5.544
			L209.61,168.807z"/>
		<path fill="#FFFFFF" d="M218.117,167.002c-0.285-0.26-0.799-0.472-1.542-0.636c-0.884-0.191-1.537-0.444-1.958-0.759
			c-0.421-0.314-0.632-0.759-0.632-1.333c0-0.565,0.238-1.042,0.714-1.432s1.106-0.584,1.89-0.584c0.834,0,1.495,0.206,1.982,0.619
			c0.488,0.413,0.72,0.929,0.697,1.548l-0.014,0.041h-0.759c0-0.406-0.172-0.759-0.516-1.06c-0.344-0.301-0.808-0.451-1.391-0.451
			c-0.597,0-1.045,0.129-1.343,0.386s-0.448,0.559-0.448,0.906c0,0.342,0.129,0.624,0.386,0.848
			c0.257,0.223,0.771,0.419,1.541,0.588c0.879,0.196,1.538,0.464,1.976,0.803c0.438,0.339,0.656,0.801,0.656,1.384
			c0,0.615-0.25,1.113-0.749,1.494c-0.499,0.38-1.159,0.571-1.979,0.571c-0.898,0-1.603-0.214-2.116-0.643
			c-0.513-0.428-0.755-0.939-0.728-1.531l0.014-0.041h0.752c0.032,0.533,0.249,0.92,0.653,1.162
			c0.403,0.242,0.878,0.362,1.425,0.362c0.592,0,1.06-0.13,1.401-0.39c0.342-0.26,0.513-0.574,0.513-0.943
			C218.544,167.565,218.402,167.262,218.117,167.002z"/>
	</g>
	<g id="T07" opacity="0">
		<polygon id="AREA_7_" points="88.428,212.772 -1.212,212.772 -1.212,254.772 31.355,254.772 31.355,254.772 42.928,266.948 
			54.501,254.772 54.501,254.772 88.428,254.772 		"/>
		<text transform="matrix(1 0 0 1 7.1672 230.0426)" fill="#FFFFFF" font-family="'PlayfairDisplay-Bold'" font-size="12">Kenya</text>
		<text transform="matrix(1 0 0 1 5.7453 247.8566)" fill="#FFFFFF" font-family="'Roboto-Light'" font-size="10">$0.10</text>
		<text transform="matrix(1.047 0 0 1 54.3891 247.8565)" fill="#FFFFFF" font-family="'Roboto-Light'" font-size="10">$0.25</text>
		<path fill="#FFFFFF" d="M39.525,246.872h0.041l0.26-0.868l2.01-5.544h0.848l-2.81,7.396h-0.656l-2.816-7.396h0.848l2.037,5.544
			L39.525,246.872z"/>
		<path fill="#FFFFFF" d="M48.032,245.068c-0.285-0.26-0.799-0.472-1.542-0.636c-0.884-0.191-1.537-0.444-1.958-0.759
			c-0.421-0.314-0.632-0.759-0.632-1.333c0-0.565,0.238-1.042,0.714-1.432s1.106-0.585,1.89-0.585c0.834,0,1.495,0.206,1.982,0.619
			c0.488,0.413,0.72,0.929,0.697,1.548l-0.014,0.041H48.41c0-0.406-0.172-0.759-0.516-1.06c-0.344-0.301-0.808-0.451-1.391-0.451
			c-0.597,0-1.045,0.129-1.343,0.386s-0.448,0.56-0.448,0.906c0,0.342,0.129,0.625,0.386,0.848s0.771,0.419,1.542,0.588
			c0.879,0.196,1.538,0.464,1.976,0.803c0.438,0.339,0.656,0.801,0.656,1.384c0,0.615-0.25,1.113-0.749,1.494
			c-0.499,0.38-1.159,0.571-1.979,0.571c-0.898,0-1.603-0.214-2.116-0.643c-0.513-0.428-0.755-0.939-0.728-1.531l0.014-0.041h0.752
			c0.032,0.533,0.249,0.92,0.653,1.162c0.403,0.242,0.878,0.362,1.425,0.362c0.592,0,1.06-0.13,1.401-0.39
			c0.342-0.26,0.513-0.574,0.513-0.943C48.459,245.631,48.317,245.327,48.032,245.068z"/>
	</g>
	<g id="T08" opacity="0">
		<polygon id="AREA_8_" points="174.249,212.772 84.609,212.772 84.609,254.772 117.176,254.772 117.176,254.772 128.749,266.948 
			140.322,254.772 140.322,254.772 174.249,254.772 		"/>
		<text transform="matrix(1 0 0 1 92.9881 230.0426)" fill="#FFFFFF" font-family="'PlayfairDisplay-Bold'" font-size="12">Mauritius</text>
		<text transform="matrix(1 0 0 1 91.5662 247.8566)" fill="#FFFFFF" font-family="'Roboto-Light'" font-size="10">FREE</text>
		<text transform="matrix(1.047 0 0 1 140.21 247.8565)" fill="#FFFFFF" font-family="'Roboto-Light'" font-size="10">$0.24</text>
		<path fill="#FFFFFF" d="M125.346,246.872h0.041l0.26-0.868l2.01-5.544h0.848l-2.81,7.396h-0.656l-2.816-7.396h0.848l2.037,5.544
			L125.346,246.872z"/>
		<path fill="#FFFFFF" d="M133.853,245.068c-0.285-0.26-0.799-0.472-1.542-0.636c-0.884-0.191-1.537-0.444-1.958-0.759
			c-0.421-0.314-0.632-0.759-0.632-1.333c0-0.565,0.238-1.042,0.714-1.432s1.106-0.585,1.89-0.585c0.834,0,1.495,0.206,1.982,0.619
			c0.488,0.413,0.72,0.929,0.697,1.548l-0.014,0.041h-0.759c0-0.406-0.172-0.759-0.516-1.06c-0.344-0.301-0.808-0.451-1.391-0.451
			c-0.597,0-1.045,0.129-1.343,0.386s-0.448,0.56-0.448,0.906c0,0.342,0.129,0.625,0.386,0.848s0.771,0.419,1.542,0.588
			c0.879,0.196,1.538,0.464,1.976,0.803c0.438,0.339,0.656,0.801,0.656,1.384c0,0.615-0.25,1.113-0.749,1.494
			c-0.499,0.38-1.159,0.571-1.979,0.571c-0.898,0-1.603-0.214-2.116-0.643c-0.513-0.428-0.755-0.939-0.728-1.531l0.014-0.041h0.752
			c0.032,0.533,0.249,0.92,0.653,1.162c0.403,0.242,0.878,0.362,1.425,0.362c0.592,0,1.06-0.13,1.401-0.39
			c0.342-0.26,0.513-0.574,0.513-0.943C134.28,245.631,134.138,245.327,133.853,245.068z"/>
	</g>
	<g id="T09" opacity="0">
		<polygon id="AREA_9_" points="258.604,212.772 168.965,212.772 168.965,254.772 201.531,254.772 201.531,254.772 213.104,266.948 
			224.678,254.772 224.678,254.772 258.604,254.772 		"/>
		<text transform="matrix(1 0 0 1 177.3436 230.0426)" fill="#FFFFFF" font-family="'PlayfairDisplay-Bold'" font-size="12">Morocco</text>
		<text transform="matrix(1 0 0 1 175.9217 247.8566)" fill="#FFFFFF" font-family="'Roboto-Light'" font-size="10">FREE</text>
		<text transform="matrix(1.047 0 0 1 224.5654 247.8565)" fill="#FFFFFF" font-family="'Roboto-Light'" font-size="10">$0.55</text>
		<path fill="#FFFFFF" d="M209.701,246.872h0.041l0.26-0.868l2.01-5.544h0.848l-2.81,7.396h-0.656l-2.816-7.396h0.848l2.037,5.544
			L209.701,246.872z"/>
		<path fill="#FFFFFF" d="M218.208,245.068c-0.285-0.26-0.799-0.472-1.542-0.636c-0.884-0.191-1.537-0.444-1.958-0.759
			c-0.421-0.314-0.632-0.759-0.632-1.333c0-0.565,0.238-1.042,0.714-1.432s1.106-0.585,1.89-0.585c0.834,0,1.495,0.206,1.982,0.619
			c0.488,0.413,0.72,0.929,0.697,1.548l-0.014,0.041h-0.759c0-0.406-0.172-0.759-0.516-1.06c-0.344-0.301-0.808-0.451-1.391-0.451
			c-0.597,0-1.045,0.129-1.343,0.386s-0.448,0.56-0.448,0.906c0,0.342,0.129,0.625,0.386,0.848s0.771,0.419,1.541,0.588
			c0.879,0.196,1.538,0.464,1.976,0.803c0.438,0.339,0.656,0.801,0.656,1.384c0,0.615-0.25,1.113-0.749,1.494
			c-0.499,0.38-1.159,0.571-1.979,0.571c-0.898,0-1.603-0.214-2.116-0.643c-0.513-0.428-0.755-0.939-0.728-1.531l0.014-0.041h0.752
			c0.032,0.533,0.249,0.92,0.653,1.162c0.403,0.242,0.878,0.362,1.425,0.362c0.592,0,1.06-0.13,1.401-0.39
			c0.342-0.26,0.513-0.574,0.513-0.943C218.636,245.631,218.493,245.327,218.208,245.068z"/>
	</g>
	<g id="T10" opacity="0">
		<polygon id="AREA_10_" points="88.519,290.837 -1.12,290.837 -1.12,332.837 31.446,332.837 31.446,332.837 43.019,345.014 
			54.593,332.837 54.593,332.837 88.519,332.837 		"/>
		<text transform="matrix(1 0 0 1 7.2585 308.1081)" fill="#FFFFFF" font-family="'PlayfairDisplay-Bold'" font-size="12">Nigeria</text>
		<text transform="matrix(1 0 0 1 5.8366 325.9221)" fill="#FFFFFF" font-family="'Roboto-Light'" font-size="10">$0.38</text>
		<text transform="matrix(1.047 0 0 1 54.4805 325.9219)" fill="#FFFFFF" font-family="'Roboto-Light'" font-size="10">$0.59</text>
		<path fill="#FFFFFF" d="M39.616,324.938h0.041l0.26-0.868l2.01-5.544h0.848l-2.81,7.397h-0.656l-2.816-7.397h0.848l2.037,5.544
			L39.616,324.938z"/>
		<path fill="#FFFFFF" d="M48.123,323.133c-0.285-0.26-0.799-0.472-1.542-0.636c-0.884-0.191-1.537-0.444-1.958-0.759
			c-0.421-0.314-0.632-0.759-0.632-1.333c0-0.565,0.238-1.042,0.714-1.432s1.106-0.585,1.89-0.585c0.834,0,1.495,0.206,1.982,0.619
			s0.72,0.929,0.697,1.548l-0.014,0.041h-0.759c0-0.406-0.172-0.759-0.516-1.06c-0.344-0.301-0.808-0.451-1.391-0.451
			c-0.597,0-1.045,0.129-1.343,0.386s-0.448,0.56-0.448,0.906c0,0.342,0.129,0.625,0.386,0.848s0.771,0.419,1.542,0.588
			c0.879,0.196,1.538,0.464,1.976,0.803c0.438,0.339,0.656,0.801,0.656,1.384c0,0.615-0.25,1.113-0.749,1.494
			c-0.499,0.38-1.159,0.571-1.979,0.571c-0.898,0-1.603-0.214-2.116-0.643c-0.513-0.428-0.755-0.939-0.728-1.531l0.014-0.041h0.752
			c0.032,0.533,0.249,0.92,0.653,1.162c0.403,0.242,0.878,0.362,1.425,0.362c0.592,0,1.06-0.13,1.401-0.39
			c0.342-0.26,0.513-0.574,0.513-0.943C48.551,323.696,48.408,323.393,48.123,323.133z"/>
	</g>
	<g id="T11" opacity="0">
		<polygon id="AREA_11_" points="173.827,290.837 84.187,290.837 84.187,332.837 116.754,332.837 116.754,332.837 128.327,345.014 
			139.9,332.837 139.9,332.837 173.827,332.837 		"/>
		<text transform="matrix(1 0 0 1 92.5662 308.1081)" fill="#FFFFFF" font-family="'PlayfairDisplay-Bold'" font-size="12">ST Príncipe</text>
		<text transform="matrix(1 0 0 1 91.1443 325.9221)" fill="#FFFFFF" font-family="'Roboto-Light'" font-size="10">$0.03</text>
		<text transform="matrix(1.047 0 0 1 139.7881 325.9219)" fill="#FFFFFF" font-family="'Roboto-Light'" font-size="10">$1.72</text>
		<path fill="#FFFFFF" d="M124.924,324.938h0.041l0.26-0.868l2.01-5.544h0.848l-2.81,7.397h-0.656l-2.816-7.397h0.848l2.037,5.544
			L124.924,324.938z"/>
		<path fill="#FFFFFF" d="M133.431,323.133c-0.285-0.26-0.799-0.472-1.542-0.636c-0.884-0.191-1.537-0.444-1.958-0.759
			c-0.421-0.314-0.632-0.759-0.632-1.333c0-0.565,0.238-1.042,0.714-1.432s1.106-0.585,1.89-0.585c0.834,0,1.495,0.206,1.982,0.619
			c0.488,0.413,0.72,0.929,0.697,1.548l-0.014,0.041h-0.759c0-0.406-0.172-0.759-0.516-1.06c-0.344-0.301-0.808-0.451-1.391-0.451
			c-0.597,0-1.045,0.129-1.343,0.386s-0.448,0.56-0.448,0.906c0,0.342,0.129,0.625,0.386,0.848s0.771,0.419,1.541,0.588
			c0.879,0.196,1.538,0.464,1.976,0.803c0.438,0.339,0.656,0.801,0.656,1.384c0,0.615-0.25,1.113-0.749,1.494
			c-0.499,0.38-1.159,0.571-1.979,0.571c-0.898,0-1.603-0.214-2.116-0.643c-0.513-0.428-0.755-0.939-0.728-1.531l0.014-0.041h0.752
			c0.032,0.533,0.249,0.92,0.653,1.162c0.403,0.242,0.878,0.362,1.425,0.362c0.592,0,1.06-0.13,1.401-0.39
			c0.342-0.26,0.513-0.574,0.513-0.943C133.858,323.696,133.716,323.393,133.431,323.133z"/>
	</g>
	<g id="T12" opacity="0">
		<polygon id="AREA_12_" points="258.696,290.837 169.056,290.837 169.056,332.837 201.622,332.837 201.622,332.837 
			213.196,345.014 224.769,332.837 224.769,332.837 258.696,332.837 		"/>
		<text transform="matrix(1 0 0 1 177.4349 308.1081)" fill="#FFFFFF" font-family="'PlayfairDisplay-Bold'" font-size="12">South Africa</text>
		<text transform="matrix(1 0 0 1 176.013 325.9221)" fill="#FFFFFF" font-family="'Roboto-Light'" font-size="10">NA</text>
		<text transform="matrix(1.047 0 0 1 224.6567 325.9219)" fill="#FFFFFF" font-family="'Roboto-Light'" font-size="10">$0.88</text>
		<path fill="#FFFFFF" d="M209.792,324.938h0.041l0.26-0.868l2.01-5.544h0.848l-2.81,7.397h-0.656l-2.816-7.397h0.848l2.037,5.544
			L209.792,324.938z"/>
		<path fill="#FFFFFF" d="M218.3,323.133c-0.285-0.26-0.799-0.472-1.542-0.636c-0.884-0.191-1.537-0.444-1.958-0.759
			c-0.421-0.314-0.632-0.759-0.632-1.333c0-0.565,0.238-1.042,0.714-1.432s1.106-0.585,1.89-0.585c0.834,0,1.495,0.206,1.982,0.619
			c0.488,0.413,0.72,0.929,0.697,1.548l-0.014,0.041h-0.759c0-0.406-0.172-0.759-0.516-1.06c-0.344-0.301-0.808-0.451-1.391-0.451
			c-0.597,0-1.045,0.129-1.343,0.386s-0.448,0.56-0.448,0.906c0,0.342,0.129,0.625,0.386,0.848s0.771,0.419,1.542,0.588
			c0.879,0.196,1.538,0.464,1.976,0.803c0.438,0.339,0.656,0.801,0.656,1.384c0,0.615-0.25,1.113-0.749,1.494
			c-0.499,0.38-1.159,0.571-1.979,0.571c-0.898,0-1.603-0.214-2.116-0.643c-0.513-0.428-0.755-0.939-0.728-1.531l0.014-0.041h0.752
			c0.032,0.533,0.249,0.92,0.653,1.162c0.403,0.242,0.878,0.362,1.425,0.362c0.592,0,1.06-0.13,1.401-0.39
			c0.342-0.26,0.513-0.574,0.513-0.943C218.727,323.696,218.584,323.393,218.3,323.133z"/>
	</g>
	<g id="T13" opacity="0">
		<polygon id="AREA_13_" points="85.727,368.903 -3.913,368.903 -3.913,410.903 28.653,410.903 28.653,410.903 40.227,423.079 
			51.8,410.903 51.8,410.903 85.727,410.903 		"/>
		<text transform="matrix(1 0 0 1 4.4659 386.1736)" fill="#FFFFFF" font-family="'PlayfairDisplay-Bold'" font-size="12">Sudan</text>
		<text transform="matrix(1 0 0 1 3.044 403.9876)" fill="#FFFFFF" font-family="'Roboto-Light'" font-size="10">$0.17</text>
		<text transform="matrix(1.047 0 0 1 51.688 403.9873)" fill="#FFFFFF" font-family="'Roboto-Light'" font-size="10">$0.15</text>
		<path fill="#FFFFFF" d="M36.823,403.003h0.041l0.26-0.868l2.01-5.544h0.848l-2.81,7.397h-0.656l-2.816-7.397h0.848l2.037,5.544
			L36.823,403.003z"/>
		<path fill="#FFFFFF" d="M45.331,401.199c-0.285-0.26-0.799-0.472-1.542-0.636c-0.884-0.191-1.537-0.444-1.958-0.759
			c-0.421-0.314-0.632-0.759-0.632-1.333c0-0.565,0.238-1.042,0.714-1.432s1.106-0.585,1.89-0.585c0.834,0,1.495,0.206,1.982,0.619
			s0.72,0.929,0.697,1.548l-0.014,0.041H45.71c0-0.406-0.172-0.759-0.516-1.06c-0.344-0.301-0.808-0.451-1.391-0.451
			c-0.597,0-1.045,0.129-1.343,0.386s-0.448,0.56-0.448,0.906c0,0.342,0.129,0.625,0.386,0.848s0.771,0.419,1.542,0.588
			c0.879,0.196,1.538,0.464,1.976,0.803c0.438,0.339,0.656,0.801,0.656,1.384c0,0.615-0.25,1.113-0.749,1.494
			c-0.499,0.38-1.159,0.571-1.979,0.571c-0.898,0-1.603-0.214-2.116-0.642s-0.755-0.939-0.728-1.531l0.014-0.041h0.752
			c0.032,0.533,0.249,0.92,0.653,1.162c0.403,0.242,0.878,0.362,1.425,0.362c0.592,0,1.06-0.13,1.401-0.39
			c0.342-0.26,0.513-0.574,0.513-0.943C45.758,401.762,45.615,401.458,45.331,401.199z"/>
	</g>
	<g id="T14" opacity="0">
		<polygon id="AREA_14_" points="174.34,368.903 84.701,368.903 84.701,410.903 117.267,410.903 117.267,410.903 128.84,423.079 
			140.413,410.903 140.413,410.903 174.34,410.903 		"/>
		<text transform="matrix(1 0 0 1 93.0795 386.1736)" fill="#FFFFFF" font-family="'PlayfairDisplay-Bold'" font-size="12">Tanzania</text>
		<text transform="matrix(1 0 0 1 91.6576 403.9876)" fill="#FFFFFF" font-family="'Roboto-Light'" font-size="10">$0.07</text>
		<text transform="matrix(1.047 0 0 1 140.3013 403.9873)" fill="#FFFFFF" font-family="'Roboto-Light'" font-size="10">$0.07</text>
		<path fill="#FFFFFF" d="M125.437,403.003h0.041l0.26-0.868l2.01-5.544h0.848l-2.81,7.397h-0.656l-2.816-7.397h0.848l2.037,5.544
			L125.437,403.003z"/>
		<path fill="#FFFFFF" d="M133.944,401.199c-0.285-0.26-0.799-0.472-1.542-0.636c-0.884-0.191-1.537-0.444-1.958-0.759
			c-0.421-0.314-0.632-0.759-0.632-1.333c0-0.565,0.238-1.042,0.714-1.432s1.106-0.585,1.89-0.585c0.834,0,1.495,0.206,1.982,0.619
			c0.488,0.413,0.72,0.929,0.697,1.548l-0.014,0.041h-0.759c0-0.406-0.172-0.759-0.516-1.06c-0.344-0.301-0.808-0.451-1.391-0.451
			c-0.597,0-1.045,0.129-1.343,0.386s-0.448,0.56-0.448,0.906c0,0.342,0.129,0.625,0.386,0.848s0.771,0.419,1.541,0.588
			c0.879,0.196,1.538,0.464,1.976,0.803c0.438,0.339,0.656,0.801,0.656,1.384c0,0.615-0.25,1.113-0.749,1.494
			c-0.499,0.38-1.159,0.571-1.979,0.571c-0.898,0-1.603-0.214-2.116-0.642s-0.755-0.939-0.728-1.531l0.014-0.041h0.752
			c0.032,0.533,0.249,0.92,0.653,1.162c0.403,0.242,0.878,0.362,1.425,0.362c0.592,0,1.06-0.13,1.401-0.39
			c0.342-0.26,0.513-0.574,0.513-0.943C134.372,401.762,134.229,401.458,133.944,401.199z"/>
	</g>
	<g id="T15" opacity="0">
		<polygon id="AREA_15_" points="257.679,368.903 168.04,368.903 168.04,410.903 200.606,410.903 200.606,410.903 212.179,423.079 
			223.752,410.903 223.752,410.903 257.679,410.903 		"/>
		<text transform="matrix(1 0 0 1 176.4184 386.1736)" fill="#FFFFFF" font-family="'PlayfairDisplay-Bold'" font-size="12">Tunisia</text>
		<text transform="matrix(1 0 0 1 174.9965 403.9876)" fill="#FFFFFF" font-family="'Roboto-Light'" font-size="10">FREE</text>
		<text transform="matrix(1.047 0 0 1 223.6401 403.9873)" fill="#FFFFFF" font-family="'Roboto-Light'" font-size="10">$1.34</text>
		<path fill="#FFFFFF" d="M208.776,403.003h0.041l0.26-0.868l2.01-5.544h0.848l-2.81,7.397h-0.656l-2.816-7.397h0.848l2.037,5.544
			L208.776,403.003z"/>
		<path fill="#FFFFFF" d="M217.283,401.199c-0.285-0.26-0.799-0.472-1.542-0.636c-0.884-0.191-1.537-0.444-1.958-0.759
			c-0.421-0.314-0.632-0.759-0.632-1.333c0-0.565,0.238-1.042,0.714-1.432s1.106-0.585,1.89-0.585c0.834,0,1.495,0.206,1.982,0.619
			c0.488,0.413,0.72,0.929,0.697,1.548l-0.014,0.041h-0.759c0-0.406-0.172-0.759-0.516-1.06c-0.344-0.301-0.808-0.451-1.391-0.451
			c-0.597,0-1.045,0.129-1.343,0.386s-0.448,0.56-0.448,0.906c0,0.342,0.129,0.625,0.386,0.848s0.771,0.419,1.541,0.588
			c0.879,0.196,1.538,0.464,1.976,0.803c0.438,0.339,0.656,0.801,0.656,1.384c0,0.615-0.25,1.113-0.749,1.494
			c-0.499,0.38-1.159,0.571-1.979,0.571c-0.898,0-1.603-0.214-2.116-0.642s-0.755-0.939-0.728-1.531l0.014-0.041h0.752
			c0.032,0.533,0.249,0.92,0.653,1.162c0.403,0.242,0.878,0.362,1.425,0.362c0.592,0,1.06-0.13,1.401-0.39
			c0.342-0.26,0.513-0.574,0.513-0.943C217.71,401.762,217.568,401.458,217.283,401.199z"/>
	</g>
	<g id="T16" opacity="0">
		<polygon id="AREA_16_" points="88.272,446.968 -1.368,446.968 -1.368,488.968 31.198,488.968 31.198,488.968 42.772,501.145 
			54.345,488.968 54.345,488.968 88.272,488.968 		"/>
		<text transform="matrix(1 0 0 1 7.011 464.2391)" fill="#FFFFFF" font-family="'PlayfairDisplay-Bold'" font-size="12">Uganda</text>
		<text transform="matrix(1 0 0 1 5.5891 482.0531)" fill="#FFFFFF" font-family="'Roboto-Light'" font-size="10">FREE</text>
		<text transform="matrix(1.047 0 0 1 54.2329 482.0528)" fill="#FFFFFF" font-family="'Roboto-Light'" font-size="10">$0.08</text>
		<path fill="#FFFFFF" d="M39.368,481.069h0.041l0.26-0.868l2.01-5.544h0.848l-2.81,7.396h-0.656l-2.816-7.396h0.848l2.037,5.544
			L39.368,481.069z"/>
		<path fill="#FFFFFF" d="M47.876,479.264c-0.285-0.26-0.799-0.472-1.542-0.636c-0.884-0.191-1.537-0.444-1.958-0.759
			c-0.421-0.314-0.632-0.759-0.632-1.333c0-0.565,0.238-1.042,0.714-1.432s1.106-0.585,1.89-0.585c0.834,0,1.495,0.206,1.982,0.619
			c0.488,0.413,0.72,0.929,0.697,1.548l-0.014,0.041h-0.759c0-0.406-0.172-0.759-0.516-1.06c-0.344-0.301-0.808-0.451-1.391-0.451
			c-0.597,0-1.045,0.129-1.343,0.386s-0.448,0.56-0.448,0.906c0,0.342,0.129,0.625,0.386,0.848s0.771,0.419,1.542,0.588
			c0.879,0.196,1.538,0.464,1.976,0.803c0.438,0.339,0.656,0.801,0.656,1.384c0,0.615-0.25,1.113-0.749,1.494
			c-0.499,0.38-1.159,0.571-1.979,0.571c-0.898,0-1.603-0.214-2.116-0.642s-0.755-0.939-0.728-1.531l0.014-0.041h0.752
			c0.032,0.533,0.249,0.92,0.653,1.162c0.403,0.242,0.878,0.362,1.425,0.362c0.592,0,1.06-0.13,1.401-0.39
			c0.342-0.26,0.513-0.574,0.513-0.943C48.303,479.827,48.16,479.524,47.876,479.264z"/>
	</g>
</g>
</svg>
