<?xml version="1.0" encoding="utf-8"?>
<!-- Generator: Adobe Illustrator 17.0.0, SVG Export Plug-In . SVG Version: 6.00 Build 0)  -->
<!DOCTYPE svg PUBLIC "-//W3C//DTD SVG 1.1//EN" "http://www.w3.org/Graphics/SVG/1.1/DTD/svg11.dtd">
<svg version="1.1" id="Layer_1" xmlns="http://www.w3.org/2000/svg" xmlns:xlink="http://www.w3.org/1999/xlink" x="0px" y="0px"
	 width="87.084px" height="37.943px" viewBox="0 0 87.084 37.943" enable-background="new 0 0 87.084 37.943" xml:space="preserve">
<g>
	<g>
		<g>
			<path fill="#1A1919" d="M17.477,10.011H14.28c-0.468,0-0.848-0.38-0.848-0.848c0-0.468,0.38-0.848,0.848-0.848h3.198
				c0.468,0,0.848,0.38,0.848,0.848C18.325,9.631,17.946,10.011,17.477,10.011z"/>
		</g>
		<g>
			<path fill="#1A1919" d="M9.163,4.894c-0.468,0-0.848-0.38-0.848-0.848V0.848C8.314,0.38,8.694,0,9.163,0
				c0.468,0,0.848,0.38,0.848,0.848v3.198C10.011,4.515,9.631,4.894,9.163,4.894z"/>
		</g>
		<g>
			<path fill="#1A1919" d="M4.046,10.011H0.848C0.38,10.011,0,9.631,0,9.163c0-0.468,0.38-0.848,0.848-0.848h3.198
				c0.468,0,0.848,0.38,0.848,0.848S4.515,10.011,4.046,10.011z"/>
		</g>
		<g>
			<path fill="#1A1919" d="M12.781,6.393c-0.217,0-0.434-0.083-0.6-0.249c-0.331-0.331-0.331-0.869,0-1.199l2.138-2.138
				c0.331-0.331,0.868-0.331,1.2,0c0.331,0.331,0.331,0.869,0,1.199L13.38,6.144C13.215,6.31,12.998,6.393,12.781,6.393z"/>
		</g>
		<g>
			<path fill="#1A1919" d="M5.545,6.393c-0.217,0-0.434-0.083-0.6-0.249L2.807,4.006c-0.331-0.331-0.331-0.868,0-1.199
				s0.868-0.331,1.2,0l2.138,2.138c0.331,0.331,0.331,0.868,0,1.199C5.979,6.31,5.762,6.393,5.545,6.393z"/>
		</g>
		<g>
			<path fill="#1A1919" d="M15.767,23.234H14.07v-3.838c0-0.59-0.48-1.071-1.071-1.071c-0.59,0-1.07,0.48-1.07,1.071v0.64h-1.697
				v-0.64c0-1.526,1.241-2.767,2.767-2.767s2.767,1.241,2.767,2.767L15.767,23.234L15.767,23.234z"/>
		</g>
		<g>
			<path fill="#1A1919" d="M19.605,23.873h-1.697v-3.838c0-0.59-0.48-1.07-1.071-1.07s-1.07,0.48-1.07,1.07v3.198H14.07v-3.198
				c0-1.525,1.241-2.767,2.767-2.767s2.767,1.241,2.767,2.767L19.605,23.873L19.605,23.873z"/>
		</g>
		<g>
			<path fill="#1A1919" d="M8.092,27.711H6.396V9.163c0-1.525,1.241-2.767,2.767-2.767s2.767,1.241,2.767,2.767v14.071h-1.697V9.163
				c0-0.59-0.48-1.07-1.071-1.07c-0.59,0-1.07,0.48-1.07,1.07V27.711z"/>
		</g>
		<g>
			<path fill="#1A1919" d="M8.092,37.943H6.396c0-0.541-0.707-1.495-1.456-2.504c-1.279-1.724-3.031-4.085-3.337-7.11
				c-0.078-0.771-0.106-1.917-0.084-3.406c0.026-1.687,1.18-3.173,2.809-3.615l2.8-0.759l0.444,1.638l-2.8,0.759
				C3.87,23.19,3.23,24.013,3.216,24.948c-0.022,1.404,0.005,2.514,0.075,3.21c0.259,2.561,1.785,4.618,3.011,6.27
				C7.303,35.776,8.092,36.841,8.092,37.943z"/>
		</g>
		<g>
			<path fill="#1A1919" d="M21.523,37.943h-1.697c0-0.506,0.21-1.214,0.529-2.285c0.809-2.721,2.316-7.787,1.147-13.515
				c-0.247-1.212-0.651-1.244-0.893-1.262c-0.715-0.059-1.282,0.421-1.288,0.426l-1.13-1.265c0.111-0.099,1.125-0.967,2.549-0.853
				c1.275,0.099,2.091,0.979,2.424,2.615c1.253,6.143-0.332,11.473-1.183,14.337C21.757,36.9,21.523,37.684,21.523,37.943z"/>
		</g>
	</g>
	<g>
		<path fill="#1A1919" d="M32.186,17.269h-1.609V7.623h1.609V17.269z"/>
		<path fill="#1A1919" d="M34.96,10.1l0.093,1.034c0.234-0.367,0.528-0.652,0.885-0.858c0.355-0.205,0.756-0.308,1.202-0.308
			c0.746,0,1.328,0.227,1.746,0.679c0.417,0.453,0.626,1.158,0.626,2.117v4.505h-1.61v-4.492c0-0.538-0.111-0.922-0.334-1.149
			c-0.224-0.228-0.562-0.341-1.018-0.341c-0.313,0-0.594,0.069-0.841,0.209c-0.248,0.139-0.451,0.33-0.61,0.572v5.201H33.49V10.1
			H34.96z"/>
		<path fill="#1A1919" d="M42.509,8.358V10.1h1.285v1.193h-1.285v3.962c0,0.296,0.064,0.507,0.192,0.632
			c0.128,0.126,0.298,0.189,0.51,0.189c0.089,0,0.175-0.008,0.259-0.023s0.163-0.036,0.238-0.062l0.173,1.179
			c-0.138,0.075-0.301,0.134-0.49,0.176c-0.19,0.042-0.387,0.062-0.59,0.062c-0.592,0-1.056-0.173-1.392-0.52
			s-0.504-0.892-0.504-1.633v-3.962h-1.093V10.1h1.093V8.358H42.509z"/>
		<path fill="#1A1919" d="M47.622,17.408c-1.016,0-1.825-0.332-2.428-0.997c-0.604-0.664-0.904-1.518-0.904-2.561v-0.265
			c0-1.042,0.299-1.907,0.897-2.594s1.349-1.028,2.249-1.023c0.968,0,1.709,0.292,2.223,0.878c0.515,0.585,0.772,1.37,0.772,2.354
			v0.948h-4.473l-0.013,0.032c0.026,0.568,0.193,1.032,0.5,1.394s0.732,0.542,1.275,0.542c0.433,0,0.804-0.054,1.113-0.159
			c0.309-0.106,0.607-0.259,0.895-0.457l0.517,1.056c-0.27,0.239-0.627,0.441-1.073,0.605S48.21,17.408,47.622,17.408z
			 M47.436,11.26c-0.397,0-0.724,0.157-0.98,0.474c-0.256,0.315-0.415,0.717-0.477,1.202l0.013,0.033h2.843v-0.166
			c0-0.454-0.116-0.825-0.348-1.112S47.905,11.26,47.436,11.26z"/>
		<path fill="#1A1919" d="M54.622,11.551l-0.688-0.026c-0.314,0-0.576,0.066-0.785,0.199c-0.21,0.132-0.372,0.32-0.487,0.562v4.982
			h-1.61V10.1h1.471l0.106,1.041c0.181-0.367,0.414-0.654,0.699-0.861c0.285-0.208,0.612-0.312,0.983-0.312
			c0.098,0,0.188,0.008,0.271,0.022c0.084,0.016,0.161,0.035,0.232,0.057L54.622,11.551z"/>
		<path fill="#1A1919" d="M59.383,17.269c-0.058-0.181-0.105-0.357-0.143-0.53c-0.037-0.172-0.062-0.345-0.076-0.517
			c-0.221,0.336-0.511,0.617-0.871,0.845s-0.763,0.341-1.209,0.341c-0.747,0-1.319-0.191-1.72-0.576
			c-0.399-0.384-0.6-0.912-0.6-1.583c0-0.693,0.274-1.233,0.822-1.62c0.547-0.387,1.318-0.58,2.312-0.58h1.252V12.42
			c0-0.375-0.11-0.669-0.331-0.881s-0.536-0.318-0.947-0.318c-0.366,0-0.658,0.088-0.874,0.265
			c-0.217,0.177-0.325,0.404-0.325,0.683h-1.55l-0.007-0.04c-0.031-0.564,0.222-1.066,0.759-1.504
			c0.536-0.437,1.235-0.655,2.097-0.655c0.835,0,1.508,0.212,2.021,0.636s0.769,1.033,0.769,1.828v3.188
			c0,0.296,0.02,0.579,0.06,0.851c0.04,0.272,0.104,0.538,0.192,0.799h-1.631V17.269z M57.409,16.117
			c0.406,0,0.772-0.102,1.097-0.306c0.324-0.203,0.54-0.435,0.646-0.695v-1.06h-1.278c-0.468,0-0.835,0.115-1.1,0.348
			c-0.265,0.231-0.397,0.505-0.397,0.818c0,0.273,0.089,0.491,0.269,0.652C56.823,16.036,57.078,16.117,57.409,16.117z"/>
		<path fill="#1A1919" d="M64.734,16.117c0.393,0,0.725-0.115,0.994-0.347c0.269-0.23,0.403-0.52,0.403-0.866h1.458l0.014,0.04
			c0.021,0.671-0.251,1.25-0.818,1.735c-0.568,0.486-1.251,0.729-2.051,0.729c-1.056,0-1.865-0.34-2.428-1.02
			c-0.563-0.681-0.845-1.542-0.845-2.584v-0.232c0-1.037,0.281-1.897,0.845-2.58c0.562-0.683,1.372-1.023,2.428-1.023
			c0.861,0,1.561,0.25,2.097,0.752c0.537,0.501,0.796,1.139,0.778,1.911l-0.013,0.04h-1.465c0-0.394-0.129-0.727-0.387-1.001
			c-0.259-0.273-0.596-0.41-1.011-0.41c-0.605,0-1.033,0.219-1.285,0.658c-0.252,0.438-0.378,0.989-0.378,1.65V13.8
			c0,0.675,0.126,1.229,0.378,1.664S64.129,16.117,64.734,16.117z"/>
		<path fill="#1A1919" d="M70.216,8.358V10.1h1.285v1.193h-1.285v3.962c0,0.296,0.064,0.507,0.192,0.632
			c0.128,0.126,0.298,0.189,0.51,0.189c0.089,0,0.175-0.008,0.259-0.023s0.163-0.036,0.238-0.062l0.173,1.179
			c-0.138,0.075-0.301,0.134-0.49,0.176c-0.19,0.042-0.387,0.062-0.59,0.062c-0.592,0-1.056-0.173-1.392-0.52
			s-0.504-0.892-0.504-1.633v-3.962H67.52V10.1h1.093V8.358H70.216z"/>
		<path fill="#1A1919" d="M73.971,8.345h-1.61V6.934h1.61V8.345z M73.971,17.269h-1.61V10.1h1.61V17.269z"/>
		<path fill="#1A1919" d="M77.585,14.844l0.119,0.583h0.04l0.126-0.583l1.425-4.744h1.662l-2.544,7.169h-1.397L74.458,10.1h1.663
			L77.585,14.844z"/>
		<path fill="#1A1919" d="M84.274,17.408c-1.016,0-1.825-0.332-2.428-0.997c-0.604-0.664-0.904-1.518-0.904-2.561v-0.265
			c0-1.042,0.299-1.907,0.897-2.594s1.349-1.028,2.249-1.023c0.968,0,1.709,0.292,2.223,0.878c0.515,0.585,0.772,1.37,0.772,2.354
			v0.948H82.61l-0.013,0.032c0.026,0.568,0.193,1.032,0.5,1.394s0.732,0.542,1.275,0.542c0.433,0,0.804-0.054,1.113-0.159
			c0.309-0.106,0.607-0.259,0.895-0.457l0.517,1.056c-0.27,0.239-0.627,0.441-1.073,0.605S84.862,17.408,84.274,17.408z
			 M84.089,11.26c-0.397,0-0.724,0.157-0.98,0.474c-0.256,0.315-0.415,0.717-0.477,1.202l0.013,0.033h2.843v-0.166
			c0-0.454-0.116-0.825-0.348-1.112C84.907,11.404,84.557,11.26,84.089,11.26z"/>
		<path fill="#1A1919" d="M37.672,31.794c-0.257,0.367-0.678,0.699-1.263,0.998c-0.585,0.298-1.337,0.446-2.256,0.446
			c-1.161,0-2.118-0.367-2.868-1.103c-0.751-0.735-1.127-1.687-1.127-2.853V27.27c0-1.166,0.354-2.117,1.063-2.853
			s1.624-1.103,2.746-1.103c1.136,0,2.018,0.279,2.647,0.838c0.629,0.559,0.95,1.286,0.964,2.183l-0.014,0.04h-1.523
			c-0.036-0.53-0.225-0.957-0.566-1.282c-0.343-0.324-0.839-0.486-1.487-0.486c-0.667,0-1.205,0.249-1.613,0.748
			c-0.409,0.498-0.613,1.132-0.613,1.899v2.025c0,0.776,0.222,1.415,0.666,1.916c0.443,0.501,1.019,0.752,1.726,0.752
			c0.504,0,0.912-0.059,1.226-0.176c0.313-0.116,0.541-0.254,0.683-0.413v-1.956h-1.915v-1.205h3.525L37.672,31.794L37.672,31.794z"
			/>
		<path fill="#1A1919" d="M42.334,27.382l-0.688-0.026c-0.314,0-0.576,0.066-0.785,0.199c-0.21,0.132-0.372,0.32-0.487,0.562V33.1
			h-1.61v-7.169h1.471l0.106,1.041c0.181-0.367,0.414-0.654,0.699-0.861c0.285-0.208,0.612-0.312,0.983-0.312
			c0.098,0,0.188,0.008,0.271,0.022c0.084,0.016,0.161,0.035,0.232,0.057L42.334,27.382z"/>
		<path fill="#1A1919" d="M47.094,33.1c-0.058-0.181-0.105-0.357-0.143-0.53c-0.037-0.172-0.062-0.345-0.076-0.517
			c-0.221,0.336-0.511,0.617-0.871,0.845s-0.763,0.341-1.209,0.341c-0.747,0-1.319-0.191-1.72-0.576
			c-0.399-0.384-0.6-0.912-0.6-1.583c0-0.693,0.274-1.233,0.822-1.62c0.547-0.387,1.318-0.58,2.312-0.58h1.252v-0.63
			c0-0.375-0.11-0.669-0.331-0.881s-0.536-0.318-0.947-0.318c-0.366,0-0.658,0.088-0.874,0.265
			c-0.217,0.177-0.325,0.404-0.325,0.683h-1.55l-0.007-0.04c-0.031-0.564,0.222-1.066,0.759-1.504
			c0.536-0.437,1.235-0.655,2.097-0.655c0.835,0,1.508,0.212,2.021,0.636s0.769,1.033,0.769,1.828v3.188
			c0,0.296,0.02,0.579,0.06,0.851c0.04,0.272,0.104,0.538,0.192,0.799h-1.631V33.1z M45.12,31.947c0.406,0,0.772-0.102,1.097-0.306
			c0.324-0.203,0.54-0.435,0.646-0.695v-1.06h-1.278c-0.468,0-0.835,0.115-1.1,0.348c-0.265,0.231-0.397,0.505-0.397,0.818
			c0,0.273,0.089,0.491,0.269,0.652C44.534,31.866,44.789,31.947,45.12,31.947z"/>
		<path fill="#1A1919" d="M55.764,29.754c0,1.042-0.245,1.884-0.735,2.524s-1.173,0.96-2.048,0.96c-0.406,0-0.766-0.072-1.079-0.218
			c-0.314-0.146-0.583-0.36-0.809-0.643v3.478h-1.61V25.93h1.358L51,26.831c0.229-0.336,0.507-0.592,0.831-0.769
			c0.325-0.177,0.701-0.265,1.13-0.265c0.884,0,1.571,0.35,2.063,1.05c0.493,0.7,0.739,1.622,0.739,2.766L55.764,29.754
			L55.764,29.754z M54.161,29.612c0-0.732-0.138-1.331-0.414-1.796c-0.276-0.466-0.688-0.698-1.235-0.698
			c-0.336,0-0.621,0.071-0.854,0.215c-0.234,0.144-0.422,0.343-0.563,0.599v3.235c0.142,0.252,0.329,0.444,0.563,0.579
			c0.233,0.135,0.523,0.202,0.867,0.202c0.548,0,0.958-0.202,1.229-0.605c0.271-0.404,0.407-0.935,0.407-1.592V29.612z"/>
		<path fill="#1A1919" d="M58.081,26.859c0.238-0.335,0.528-0.596,0.871-0.781c0.342-0.186,0.721-0.278,1.136-0.278
			c0.76,0,1.353,0.239,1.779,0.719c0.426,0.479,0.639,1.218,0.639,2.216V33.1h-1.609v-4.379c0-0.565-0.112-0.975-0.338-1.226
			c-0.226-0.252-0.563-0.378-1.014-0.378c-0.313,0-0.596,0.065-0.845,0.195c-0.25,0.13-0.456,0.311-0.619,0.54V33.1h-1.61V22.765
			h1.61C58.081,22.765,58.081,26.859,58.081,26.859z"/>
		<path fill="#1A1919" d="M65.214,24.176h-1.61v-1.411h1.61V24.176z M65.214,33.1h-1.61v-7.169h1.61V33.1z"/>
		<path fill="#1A1919" d="M69.298,31.947c0.393,0,0.725-0.115,0.994-0.347c0.269-0.23,0.403-0.52,0.403-0.866h1.458l0.014,0.04
			c0.021,0.671-0.251,1.25-0.818,1.735c-0.568,0.486-1.251,0.729-2.051,0.729c-1.056,0-1.865-0.34-2.428-1.02
			c-0.563-0.681-0.845-1.542-0.845-2.584v-0.232c0-1.037,0.281-1.897,0.845-2.58c0.562-0.683,1.372-1.023,2.428-1.023
			c0.861,0,1.561,0.25,2.097,0.752c0.537,0.501,0.796,1.139,0.778,1.911l-0.013,0.04h-1.465c0-0.394-0.129-0.727-0.387-1.001
			c-0.259-0.273-0.596-0.41-1.011-0.41c-0.605,0-1.033,0.219-1.285,0.658c-0.252,0.438-0.378,0.989-0.378,1.65v0.231
			c0,0.675,0.126,1.229,0.378,1.664S68.693,31.947,69.298,31.947z"/>
	</g>
</g>
</svg>
